<?xml version="1.0" encoding="UTF-8" standalone="no"?>
<!DOCTYPE svg PUBLIC "-//W3C//DTD SVG 1.1//EN"
 "http://www.w3.org/Graphics/SVG/1.1/DTD/svg11.dtd">
<!-- Generated by graphviz version 2.47.0 (20210316.0004)
 -->
<!-- Title: dependencies Pages: 1 -->
<svg width="1251pt" height="284pt"
 viewBox="0.00 0.00 1251.00 284.00" xmlns="http://www.w3.org/2000/svg" xmlns:xlink="http://www.w3.org/1999/xlink">
<g id="graph0" class="graph" transform="scale(1 1) rotate(0) translate(4 280)">
<title>dependencies</title>
<polygon fill="white" stroke="transparent" points="-4,4 -4,-280 1247,-280 1247,4 -4,4"/>
<text text-anchor="start" x="600.51" y="-42.4" font-family="Times-12" font-weight="bold" font-size="14.00">Legend</text>
<polygon fill="#ffffb3" stroke="transparent" points="387.5,-10 387.5,-30 407.5,-30 407.5,-10 387.5,-10"/>
<text text-anchor="start" x="411.13" y="-15.4" font-family="Times-12" font-size="14.00"> &#160;Declarations</text>
<polygon fill="#8dd3c7" stroke="transparent" points="500.5,-10 500.5,-30 520.5,-30 520.5,-10 500.5,-10"/>
<text text-anchor="start" x="524.23" y="-15.4" font-family="Times-12" font-size="14.00"> &#160;Module</text>
<polygon fill="#80b1d3" stroke="transparent" points="586.5,-10 586.5,-30 606.5,-30 606.5,-10 586.5,-10"/>
<text text-anchor="start" x="610.28" y="-15.4" font-family="Times-12" font-size="14.00"> &#160;Bootstrap</text>
<polygon fill="#fdb462" stroke="transparent" points="683.5,-10 683.5,-30 703.5,-30 703.5,-10 683.5,-10"/>
<text text-anchor="start" x="707.17" y="-15.4" font-family="Times-12" font-size="14.00"> &#160;Providers</text>
<polygon fill="#fb8072" stroke="transparent" points="779.5,-10 779.5,-30 799.5,-30 799.5,-10 779.5,-10"/>
<text text-anchor="start" x="803.23" y="-15.4" font-family="Times-12" font-size="14.00"> &#160;Exports</text>
<g id="clust1" class="cluster">
<title>cluster_TelemetryModule</title>
<polygon fill="none" stroke="black" stroke-dasharray="1,5" points="8,-70 8,-268 1235,-268 1235,-70 8,-70"/>
</g>
<g id="clust9" class="cluster">
<title>cluster_TelemetryModule_imports</title>
<polygon fill="none" stroke="black" points="1099,-78 1099,-130 1227,-130 1227,-78 1099,-78"/>
</g>
<g id="clust2" class="cluster">
<title>cluster_TelemetryModule_declarations</title>
<polygon fill="none" stroke="black" points="16,-78 16,-130 1091,-130 1091,-78 16,-78"/>
</g>
<g id="clust10" class="cluster">
<title>cluster_TelemetryModule_exports</title>
<polygon fill="none" stroke="black" points="74,-208 74,-260 1170,-260 1170,-208 74,-208"/>
</g>
<!-- TelemetryInteractDirective -->
<g id="node1" class="node">
<title>TelemetryInteractDirective</title>
<polygon fill="#ffffb3" stroke="black" points="1083.36,-122 914.64,-122 914.64,-86 1083.36,-86 1083.36,-122"/>
<text text-anchor="middle" x="999" y="-99.8" font-family="Times,serif" font-size="14.00">TelemetryInteractDirective</text>
</g>
<!-- TelemetryModule -->
<g id="node7" class="node">
<title>TelemetryModule</title>
<polygon fill="#8dd3c7" stroke="black" points="711.58,-187 708.58,-191 687.58,-191 684.58,-187 594.42,-187 594.42,-151 711.58,-151 711.58,-187"/>
<text text-anchor="middle" x="653" y="-164.8" font-family="Times,serif" font-size="14.00">TelemetryModule</text>
</g>
<!-- TelemetryInteractDirective&#45;&gt;TelemetryModule -->
<g id="edge1" class="edge">
<title>TelemetryInteractDirective&#45;&gt;TelemetryModule</title>
<path fill="none" stroke="black" d="M943.3,-122.02C943.3,-139.37 943.3,-163 943.3,-163 943.3,-163 721.75,-163 721.75,-163"/>
<polygon fill="black" stroke="black" points="721.75,-159.5 711.75,-163 721.75,-166.5 721.75,-159.5"/>
</g>
<!-- TelemetryStartDirective -->
<g id="node2" class="node">
<title>TelemetryStartDirective</title>
<polygon fill="#ffffb3" stroke="black" points="897.05,-122 744.95,-122 744.95,-86 897.05,-86 897.05,-122"/>
<text text-anchor="middle" x="821" y="-99.8" font-family="Times,serif" font-size="14.00">TelemetryStartDirective</text>
</g>
<!-- TelemetryStartDirective&#45;&gt;TelemetryModule -->
<g id="edge2" class="edge">
<title>TelemetryStartDirective&#45;&gt;TelemetryModule</title>
<path fill="none" stroke="black" d="M771.4,-122.24C771.4,-137.57 771.4,-157 771.4,-157 771.4,-157 721.85,-157 721.85,-157"/>
<polygon fill="black" stroke="black" points="721.85,-153.5 711.85,-157 721.85,-160.5 721.85,-153.5"/>
</g>
<!-- TelemetryEndDirective -->
<g id="node3" class="node">
<title>TelemetryEndDirective</title>
<polygon fill="#ffffb3" stroke="black" points="727.16,-122 578.84,-122 578.84,-86 727.16,-86 727.16,-122"/>
<text text-anchor="middle" x="653" y="-99.8" font-family="Times,serif" font-size="14.00">TelemetryEndDirective</text>
</g>
<!-- TelemetryEndDirective&#45;&gt;TelemetryModule -->
<g id="edge3" class="edge">
<title>TelemetryEndDirective&#45;&gt;TelemetryModule</title>
<path fill="none" stroke="black" d="M653,-122.11C653,-122.11 653,-140.99 653,-140.99"/>
<polygon fill="black" stroke="black" points="649.5,-140.99 653,-150.99 656.5,-140.99 649.5,-140.99"/>
</g>
<!-- TelemetryImpressionDirective -->
<g id="node4" class="node">
<title>TelemetryImpressionDirective</title>
<polygon fill="#ffffb3" stroke="black" points="560.82,-122 373.18,-122 373.18,-86 560.82,-86 560.82,-122"/>
<text text-anchor="middle" x="467" y="-99.8" font-family="Times,serif" font-size="14.00">TelemetryImpressionDirective</text>
</g>
<!-- TelemetryImpressionDirective&#45;&gt;TelemetryModule -->
<g id="edge4" class="edge">
<title>TelemetryImpressionDirective&#45;&gt;TelemetryModule</title>
<path fill="none" stroke="black" d="M499.12,-122.24C499.12,-137.57 499.12,-157 499.12,-157 499.12,-157 584.39,-157 584.39,-157"/>
<polygon fill="black" stroke="black" points="584.39,-160.5 594.39,-157 584.39,-153.5 584.39,-160.5"/>
</g>
<!-- TelemetryShareDirective -->
<g id="node5" class="node">
<title>TelemetryShareDirective</title>
<polygon fill="#ffffb3" stroke="black" points="354.98,-122 197.02,-122 197.02,-86 354.98,-86 354.98,-122"/>
<text text-anchor="middle" x="276" y="-99.8" font-family="Times,serif" font-size="14.00">TelemetryShareDirective</text>
</g>
<!-- TelemetryShareDirective&#45;&gt;TelemetryModule -->
<g id="edge5" class="edge">
<title>TelemetryShareDirective&#45;&gt;TelemetryModule</title>
<path fill="none" stroke="black" d="M306.62,-122.02C306.62,-139.37 306.62,-163 306.62,-163 306.62,-163 584.24,-163 584.24,-163"/>
<polygon fill="black" stroke="black" points="584.24,-166.5 594.24,-163 584.24,-159.5 584.24,-166.5"/>
</g>
<!-- TelemetryErrorDirective -->
<g id="node6" class="node">
<title>TelemetryErrorDirective</title>
<polygon fill="#ffffb3" stroke="black" points="179.65,-122 24.35,-122 24.35,-86 179.65,-86 179.65,-122"/>
<text text-anchor="middle" x="102" y="-99.8" font-family="Times,serif" font-size="14.00">TelemetryErrorDirective</text>
</g>
<!-- TelemetryErrorDirective&#45;&gt;TelemetryModule -->
<g id="edge6" class="edge">
<title>TelemetryErrorDirective&#45;&gt;TelemetryModule</title>
<path fill="none" stroke="black" d="M130.62,-122.11C130.62,-141.34 130.62,-169 130.62,-169 130.62,-169 584.35,-169 584.35,-169"/>
<polygon fill="black" stroke="black" points="584.35,-172.5 594.35,-169 584.35,-165.5 584.35,-172.5"/>
</g>
<!-- TelemetryInteractDirective  -->
<g id="node9" class="node">
<title>TelemetryInteractDirective </title>
<polygon fill="#fb8072" stroke="black" points="1161.86,-252 990.14,-252 990.14,-216 1161.86,-216 1161.86,-252"/>
<text text-anchor="middle" x="1076" y="-229.8" font-family="Times,serif" font-size="14.00">TelemetryInteractDirective </text>
</g>
<!-- TelemetryModule&#45;&gt;TelemetryInteractDirective  -->
<g id="edge8" class="edge">
<title>TelemetryModule&#45;&gt;TelemetryInteractDirective </title>
<path fill="none" stroke="black" stroke-dasharray="5,2" d="M711.68,-175C819.15,-175 1036.62,-175 1036.62,-175 1036.62,-175 1036.62,-205.98 1036.62,-205.98"/>
<polygon fill="black" stroke="black" points="1033.13,-205.98 1036.62,-215.98 1040.13,-205.98 1033.13,-205.98"/>
</g>
<!-- TelemetryStartDirective  -->
<g id="node10" class="node">
<title>TelemetryStartDirective </title>
<polygon fill="#fb8072" stroke="black" points="971.55,-252 816.45,-252 816.45,-216 971.55,-216 971.55,-252"/>
<text text-anchor="middle" x="894" y="-229.8" font-family="Times,serif" font-size="14.00">TelemetryStartDirective </text>
</g>
<!-- TelemetryModule&#45;&gt;TelemetryStartDirective  -->
<g id="edge9" class="edge">
<title>TelemetryModule&#45;&gt;TelemetryStartDirective </title>
<path fill="none" stroke="black" stroke-dasharray="5,2" d="M711.62,-181C771.78,-181 856.62,-181 856.62,-181 856.62,-181 856.62,-205.76 856.62,-205.76"/>
<polygon fill="black" stroke="black" points="853.13,-205.76 856.62,-215.76 860.13,-205.76 853.13,-205.76"/>
</g>
<!-- TelemetryEndDirective  -->
<g id="node11" class="node">
<title>TelemetryEndDirective </title>
<polygon fill="#fb8072" stroke="black" points="797.66,-252 646.34,-252 646.34,-216 797.66,-216 797.66,-252"/>
<text text-anchor="middle" x="722" y="-229.8" font-family="Times,serif" font-size="14.00">TelemetryEndDirective </text>
</g>
<!-- TelemetryModule&#45;&gt;TelemetryEndDirective  -->
<g id="edge10" class="edge">
<title>TelemetryModule&#45;&gt;TelemetryEndDirective </title>
<path fill="none" stroke="black" stroke-dasharray="5,2" d="M678.85,-187.11C678.85,-187.11 678.85,-205.99 678.85,-205.99"/>
<polygon fill="black" stroke="black" points="675.35,-205.99 678.85,-215.99 682.35,-205.99 675.35,-205.99"/>
</g>
<!-- TelemetryImpressionDirective  -->
<g id="node12" class="node">
<title>TelemetryImpressionDirective </title>
<polygon fill="#fb8072" stroke="black" points="628.82,-252 437.18,-252 437.18,-216 628.82,-216 628.82,-252"/>
<text text-anchor="middle" x="533" y="-229.8" font-family="Times,serif" font-size="14.00">TelemetryImpressionDirective </text>
</g>
<!-- TelemetryModule&#45;&gt;TelemetryImpressionDirective  -->
<g id="edge11" class="edge">
<title>TelemetryModule&#45;&gt;TelemetryImpressionDirective </title>
<path fill="none" stroke="black" stroke-dasharray="5,2" d="M611.56,-187.11C611.56,-187.11 611.56,-205.99 611.56,-205.99"/>
<polygon fill="black" stroke="black" points="608.06,-205.99 611.56,-215.99 615.06,-205.99 608.06,-205.99"/>
</g>
<!-- TelemetryShareDirective  -->
<g id="node13" class="node">
<title>TelemetryShareDirective </title>
<polygon fill="#fb8072" stroke="black" points="419.48,-252 258.52,-252 258.52,-216 419.48,-216 419.48,-252"/>
<text text-anchor="middle" x="339" y="-229.8" font-family="Times,serif" font-size="14.00">TelemetryShareDirective </text>
</g>
<!-- TelemetryModule&#45;&gt;TelemetryShareDirective  -->
<g id="edge12" class="edge">
<title>TelemetryModule&#45;&gt;TelemetryShareDirective </title>
<path fill="none" stroke="black" stroke-dasharray="5,2" d="M594.43,-181C518.66,-181 396.29,-181 396.29,-181 396.29,-181 396.29,-205.76 396.29,-205.76"/>
<polygon fill="black" stroke="black" points="392.79,-205.76 396.29,-215.76 399.79,-205.76 392.79,-205.76"/>
</g>
<!-- TelemetryErrorDirective  -->
<g id="node14" class="node">
<title>TelemetryErrorDirective </title>
<polygon fill="#fb8072" stroke="black" points="240.15,-252 81.85,-252 81.85,-216 240.15,-216 240.15,-252"/>
<text text-anchor="middle" x="161" y="-229.8" font-family="Times,serif" font-size="14.00">TelemetryErrorDirective </text>
</g>
<!-- TelemetryModule&#45;&gt;TelemetryErrorDirective  -->
<g id="edge13" class="edge">
<title>TelemetryModule&#45;&gt;TelemetryErrorDirective </title>
<path fill="none" stroke="black" stroke-dasharray="5,2" d="M594.44,-175C475.92,-175 218.79,-175 218.79,-175 218.79,-175 218.79,-205.98 218.79,-205.98"/>
<polygon fill="black" stroke="black" points="215.29,-205.98 218.79,-215.98 222.29,-205.98 215.29,-205.98"/>
</g>
<!-- CommonModule -->
<g id="node8" class="node">
<title>CommonModule</title>
<polygon fill="#8dd3c7" stroke="black" points="1218.67,-122 1215.67,-126 1194.67,-126 1191.67,-122 1107.33,-122 1107.33,-86 1218.67,-86 1218.67,-122"/>
<text text-anchor="middle" x="1163" y="-99.8" font-family="Times,serif" font-size="14.00">CommonModule</text>
</g>
<!-- CommonModule&#45;&gt;TelemetryModule -->
<g id="edge7" class="edge">
<title>CommonModule&#45;&gt;TelemetryModule</title>
<path fill="none" stroke="black" d="M1134.55,-122.11C1134.55,-141.34 1134.55,-169 1134.55,-169 1134.55,-169 721.57,-169 721.57,-169"/>
<polygon fill="black" stroke="black" points="721.57,-165.5 711.57,-169 721.57,-172.5 721.57,-165.5"/>
</g>
</g>
</svg>
