<?xml version="1.0" encoding="UTF-8" standalone="no"?>
<!DOCTYPE svg PUBLIC "-//W3C//DTD SVG 1.1//EN"
 "http://www.w3.org/Graphics/SVG/1.1/DTD/svg11.dtd">
<!-- Generated by graphviz version 2.47.0 (20210316.0004)
 -->
<!-- Title: dependencies Pages: 1 -->
<svg width="2687pt" height="284pt"
 viewBox="0.00 0.00 2687.00 284.00" xmlns="http://www.w3.org/2000/svg" xmlns:xlink="http://www.w3.org/1999/xlink">
<g id="graph0" class="graph" transform="scale(1 1) rotate(0) translate(4 280)">
<title>dependencies</title>
<polygon fill="white" stroke="transparent" points="-4,4 -4,-280 2683,-280 2683,4 -4,4"/>
<text text-anchor="start" x="1318.51" y="-42.4" font-family="Times-12" font-weight="bold" font-size="14.00">Legend</text>
<polygon fill="#ffffb3" stroke="transparent" points="1105.5,-10 1105.5,-30 1125.5,-30 1125.5,-10 1105.5,-10"/>
<text text-anchor="start" x="1129.13" y="-15.4" font-family="Times-12" font-size="14.00"> &#160;Declarations</text>
<polygon fill="#8dd3c7" stroke="transparent" points="1218.5,-10 1218.5,-30 1238.5,-30 1238.5,-10 1218.5,-10"/>
<text text-anchor="start" x="1242.23" y="-15.4" font-family="Times-12" font-size="14.00"> &#160;Module</text>
<polygon fill="#80b1d3" stroke="transparent" points="1304.5,-10 1304.5,-30 1324.5,-30 1324.5,-10 1304.5,-10"/>
<text text-anchor="start" x="1328.28" y="-15.4" font-family="Times-12" font-size="14.00"> &#160;Bootstrap</text>
<polygon fill="#fdb462" stroke="transparent" points="1401.5,-10 1401.5,-30 1421.5,-30 1421.5,-10 1401.5,-10"/>
<text text-anchor="start" x="1425.17" y="-15.4" font-family="Times-12" font-size="14.00"> &#160;Providers</text>
<polygon fill="#fb8072" stroke="transparent" points="1497.5,-10 1497.5,-30 1517.5,-30 1517.5,-10 1497.5,-10"/>
<text text-anchor="start" x="1521.23" y="-15.4" font-family="Times-12" font-size="14.00"> &#160;Exports</text>
<g id="clust1" class="cluster">
<title>cluster_PlayerHelperModule</title>
<polygon fill="none" stroke="black" stroke-dasharray="1,5" points="8,-70 8,-268 2671,-268 2671,-70 8,-70"/>
</g>
<g id="clust2" class="cluster">
<title>cluster_PlayerHelperModule_declarations</title>
<polygon fill="none" stroke="black" points="1162,-78 1162,-130 2663,-130 2663,-78 1162,-78"/>
</g>
<g id="clust12" class="cluster">
<title>cluster_PlayerHelperModule_exports</title>
<polygon fill="none" stroke="black" points="382,-208 382,-260 1913,-260 1913,-208 382,-208"/>
</g>
<g id="clust11" class="cluster">
<title>cluster_PlayerHelperModule_imports</title>
<polygon fill="none" stroke="black" points="16,-78 16,-130 1154,-130 1154,-78 16,-78"/>
</g>
<!-- ContentCreditsComponent -->
<g id="node1" class="node">
<title>ContentCreditsComponent</title>
<polygon fill="#ffffb3" stroke="black" points="2655.1,-122 2488.9,-122 2488.9,-86 2655.1,-86 2655.1,-122"/>
<text text-anchor="middle" x="2572" y="-99.8" font-family="Times,serif" font-size="14.00">ContentCreditsComponent</text>
</g>
<!-- PlayerHelperModule -->
<g id="node9" class="node">
<title>PlayerHelperModule</title>
<polygon fill="#8dd3c7" stroke="black" points="1237.9,-187 1234.9,-191 1213.9,-191 1210.9,-187 1104.1,-187 1104.1,-151 1237.9,-151 1237.9,-187"/>
<text text-anchor="middle" x="1171" y="-164.8" font-family="Times,serif" font-size="14.00">PlayerHelperModule</text>
</g>
<!-- ContentCreditsComponent&#45;&gt;PlayerHelperModule -->
<g id="edge1" class="edge">
<title>ContentCreditsComponent&#45;&gt;PlayerHelperModule</title>
<path fill="none" stroke="black" d="M2572,-122.03C2572,-142.77 2572,-174 2572,-174 2572,-174 1248.1,-174 1248.1,-174"/>
<polygon fill="black" stroke="black" points="1248.1,-170.5 1238.1,-174 1248.1,-177.5 1248.1,-170.5"/>
</g>
<!-- PlayerComponent -->
<g id="node2" class="node">
<title>PlayerComponent</title>
<polygon fill="#ffffb3" stroke="black" points="2470.6,-122 2353.4,-122 2353.4,-86 2470.6,-86 2470.6,-122"/>
<text text-anchor="middle" x="2412" y="-99.8" font-family="Times,serif" font-size="14.00">PlayerComponent</text>
</g>
<!-- PlayerComponent&#45;&gt;PlayerHelperModule -->
<g id="edge2" class="edge">
<title>PlayerComponent&#45;&gt;PlayerHelperModule</title>
<path fill="none" stroke="black" d="M2412,-122.31C2412,-142.15 2412,-171 2412,-171 2412,-171 1247.72,-171 1247.72,-171"/>
<polygon fill="black" stroke="black" points="1247.72,-167.5 1237.72,-171 1247.72,-174.5 1247.72,-167.5"/>
</g>
<!-- ContentPlayerMetadataComponent -->
<g id="node3" class="node">
<title>ContentPlayerMetadataComponent</title>
<polygon fill="#ffffb3" stroke="black" points="2335.51,-122 2122.49,-122 2122.49,-86 2335.51,-86 2335.51,-122"/>
<text text-anchor="middle" x="2229" y="-99.8" font-family="Times,serif" font-size="14.00">ContentPlayerMetadataComponent</text>
</g>
<!-- ContentPlayerMetadataComponent&#45;&gt;PlayerHelperModule -->
<g id="edge3" class="edge">
<title>ContentPlayerMetadataComponent&#45;&gt;PlayerHelperModule</title>
<path fill="none" stroke="black" d="M2229,-122.17C2229,-141.09 2229,-168 2229,-168 2229,-168 1247.99,-168 1247.99,-168"/>
<polygon fill="black" stroke="black" points="1247.99,-164.5 1237.99,-168 1247.99,-171.5 1247.99,-164.5"/>
</g>
<!-- CollectionTreeComponent -->
<g id="node4" class="node">
<title>CollectionTreeComponent</title>
<polygon fill="#ffffb3" stroke="black" points="2104.8,-122 1939.2,-122 1939.2,-86 2104.8,-86 2104.8,-122"/>
<text text-anchor="middle" x="2022" y="-99.8" font-family="Times,serif" font-size="14.00">CollectionTreeComponent</text>
</g>
<!-- CollectionTreeComponent&#45;&gt;PlayerHelperModule -->
<g id="edge4" class="edge">
<title>CollectionTreeComponent&#45;&gt;PlayerHelperModule</title>
<path fill="none" stroke="black" d="M2022,-122.3C2022,-140.27 2022,-165 2022,-165 2022,-165 1247.78,-165 1247.78,-165"/>
<polygon fill="black" stroke="black" points="1247.78,-161.5 1237.78,-165 1247.78,-168.5 1247.78,-161.5"/>
</g>
<!-- FancyTreeComponent -->
<g id="node5" class="node">
<title>FancyTreeComponent</title>
<polygon fill="#ffffb3" stroke="black" points="1921.69,-122 1780.31,-122 1780.31,-86 1921.69,-86 1921.69,-122"/>
<text text-anchor="middle" x="1851" y="-99.8" font-family="Times,serif" font-size="14.00">FancyTreeComponent</text>
</g>
<!-- FancyTreeComponent&#45;&gt;PlayerHelperModule -->
<g id="edge5" class="edge">
<title>FancyTreeComponent&#45;&gt;PlayerHelperModule</title>
<path fill="none" stroke="black" d="M1842.6,-122.04C1842.6,-138.73 1842.6,-161 1842.6,-161 1842.6,-161 1247.85,-161 1247.85,-161"/>
<polygon fill="black" stroke="black" points="1247.85,-157.5 1237.85,-161 1247.85,-164.5 1247.85,-157.5"/>
</g>
<!-- CollectionPlayerMetadataComponent -->
<g id="node6" class="node">
<title>CollectionPlayerMetadataComponent</title>
<polygon fill="#ffffb3" stroke="black" points="1762.51,-122 1535.49,-122 1535.49,-86 1762.51,-86 1762.51,-122"/>
<text text-anchor="middle" x="1649" y="-99.8" font-family="Times,serif" font-size="14.00">CollectionPlayerMetadataComponent</text>
</g>
<!-- CollectionPlayerMetadataComponent&#45;&gt;PlayerHelperModule -->
<g id="edge6" class="edge">
<title>CollectionPlayerMetadataComponent&#45;&gt;PlayerHelperModule</title>
<path fill="none" stroke="black" d="M1556.88,-122.28C1556.88,-137.95 1556.88,-158 1556.88,-158 1556.88,-158 1247.77,-158 1247.77,-158"/>
<polygon fill="black" stroke="black" points="1247.77,-154.5 1237.77,-158 1247.77,-161.5 1247.77,-154.5"/>
</g>
<!-- ContentRatingComponent -->
<g id="node7" class="node">
<title>ContentRatingComponent</title>
<polygon fill="#ffffb3" stroke="black" points="1517.5,-122 1354.5,-122 1354.5,-86 1517.5,-86 1517.5,-122"/>
<text text-anchor="middle" x="1436" y="-99.8" font-family="Times,serif" font-size="14.00">ContentRatingComponent</text>
</g>
<!-- ContentRatingComponent&#45;&gt;PlayerHelperModule -->
<g id="edge7" class="edge">
<title>ContentRatingComponent&#45;&gt;PlayerHelperModule</title>
<path fill="none" stroke="black" d="M1465.5,-122.12C1465.5,-136.78 1465.5,-155 1465.5,-155 1465.5,-155 1247.83,-155 1247.83,-155"/>
<polygon fill="black" stroke="black" points="1247.83,-151.5 1237.83,-155 1247.83,-158.5 1247.83,-151.5"/>
</g>
<!-- CommingSoonComponent -->
<g id="node8" class="node">
<title>CommingSoonComponent</title>
<polygon fill="#ffffb3" stroke="black" points="1336.12,-122 1169.88,-122 1169.88,-86 1336.12,-86 1336.12,-122"/>
<text text-anchor="middle" x="1253" y="-99.8" font-family="Times,serif" font-size="14.00">CommingSoonComponent</text>
</g>
<!-- CommingSoonComponent&#45;&gt;PlayerHelperModule -->
<g id="edge8" class="edge">
<title>CommingSoonComponent&#45;&gt;PlayerHelperModule</title>
<path fill="none" stroke="black" d="M1203.82,-122.11C1203.82,-122.11 1203.82,-140.99 1203.82,-140.99"/>
<polygon fill="black" stroke="black" points="1200.32,-140.99 1203.82,-150.99 1207.32,-140.99 1200.32,-140.99"/>
</g>
<!-- ContentCreditsComponent  -->
<g id="node18" class="node">
<title>ContentCreditsComponent </title>
<polygon fill="#fb8072" stroke="black" points="1904.6,-252 1735.4,-252 1735.4,-216 1904.6,-216 1904.6,-252"/>
<text text-anchor="middle" x="1820" y="-229.8" font-family="Times,serif" font-size="14.00">ContentCreditsComponent </text>
</g>
<!-- PlayerHelperModule&#45;&gt;ContentCreditsComponent  -->
<g id="edge17" class="edge">
<title>PlayerHelperModule&#45;&gt;ContentCreditsComponent </title>
<path fill="none" stroke="black" stroke-dasharray="5,2" d="M1237.87,-178C1390.01,-178 1748.98,-178 1748.98,-178 1748.98,-178 1748.98,-205.97 1748.98,-205.97"/>
<polygon fill="black" stroke="black" points="1745.48,-205.97 1748.98,-215.97 1752.48,-205.97 1745.48,-205.97"/>
</g>
<!-- PlayerComponent  -->
<g id="node19" class="node">
<title>PlayerComponent </title>
<polygon fill="#fb8072" stroke="black" points="1717.1,-252 1596.9,-252 1596.9,-216 1717.1,-216 1717.1,-252"/>
<text text-anchor="middle" x="1657" y="-229.8" font-family="Times,serif" font-size="14.00">PlayerComponent </text>
</g>
<!-- PlayerHelperModule&#45;&gt;PlayerComponent  -->
<g id="edge18" class="edge">
<title>PlayerHelperModule&#45;&gt;PlayerComponent </title>
<path fill="none" stroke="black" stroke-dasharray="5,2" d="M1237.81,-181C1371.02,-181 1657,-181 1657,-181 1657,-181 1657,-205.76 1657,-205.76"/>
<polygon fill="black" stroke="black" points="1653.5,-205.76 1657,-215.76 1660.5,-205.76 1653.5,-205.76"/>
</g>
<!-- ContentPlayerMetadataComponent  -->
<g id="node20" class="node">
<title>ContentPlayerMetadataComponent </title>
<polygon fill="#fb8072" stroke="black" points="1578.51,-252 1361.49,-252 1361.49,-216 1578.51,-216 1578.51,-252"/>
<text text-anchor="middle" x="1470" y="-229.8" font-family="Times,serif" font-size="14.00">ContentPlayerMetadataComponent </text>
</g>
<!-- PlayerHelperModule&#45;&gt;ContentPlayerMetadataComponent  -->
<g id="edge19" class="edge">
<title>PlayerHelperModule&#45;&gt;ContentPlayerMetadataComponent </title>
<path fill="none" stroke="black" stroke-dasharray="5,2" d="M1237.9,-184C1309.68,-184 1413.5,-184 1413.5,-184 1413.5,-184 1413.5,-205.95 1413.5,-205.95"/>
<polygon fill="black" stroke="black" points="1410,-205.95 1413.5,-215.95 1417,-205.95 1410,-205.95"/>
</g>
<!-- CollectionTreeComponent  -->
<g id="node21" class="node">
<title>CollectionTreeComponent </title>
<polygon fill="#fb8072" stroke="black" points="1343.3,-252 1174.7,-252 1174.7,-216 1343.3,-216 1343.3,-252"/>
<text text-anchor="middle" x="1259" y="-229.8" font-family="Times,serif" font-size="14.00">CollectionTreeComponent </text>
</g>
<!-- PlayerHelperModule&#45;&gt;CollectionTreeComponent  -->
<g id="edge20" class="edge">
<title>PlayerHelperModule&#45;&gt;CollectionTreeComponent </title>
<path fill="none" stroke="black" stroke-dasharray="5,2" d="M1206.15,-187.11C1206.15,-187.11 1206.15,-205.99 1206.15,-205.99"/>
<polygon fill="black" stroke="black" points="1202.65,-205.99 1206.15,-215.99 1209.65,-205.99 1202.65,-205.99"/>
</g>
<!-- FancyTreeComponent  -->
<g id="node22" class="node">
<title>FancyTreeComponent </title>
<polygon fill="#fb8072" stroke="black" points="1156.19,-252 1011.81,-252 1011.81,-216 1156.19,-216 1156.19,-252"/>
<text text-anchor="middle" x="1084" y="-229.8" font-family="Times,serif" font-size="14.00">FancyTreeComponent </text>
</g>
<!-- PlayerHelperModule&#45;&gt;FancyTreeComponent  -->
<g id="edge21" class="edge">
<title>PlayerHelperModule&#45;&gt;FancyTreeComponent </title>
<path fill="none" stroke="black" stroke-dasharray="5,2" d="M1130.32,-187.11C1130.32,-187.11 1130.32,-205.99 1130.32,-205.99"/>
<polygon fill="black" stroke="black" points="1126.82,-205.99 1130.32,-215.99 1133.82,-205.99 1126.82,-205.99"/>
</g>
<!-- CollectionPlayerMetadataComponent  -->
<g id="node23" class="node">
<title>CollectionPlayerMetadataComponent </title>
<polygon fill="#fb8072" stroke="black" points="993.51,-252 762.49,-252 762.49,-216 993.51,-216 993.51,-252"/>
<text text-anchor="middle" x="878" y="-229.8" font-family="Times,serif" font-size="14.00">CollectionPlayerMetadataComponent </text>
</g>
<!-- PlayerHelperModule&#45;&gt;CollectionPlayerMetadataComponent  -->
<g id="edge22" class="edge">
<title>PlayerHelperModule&#45;&gt;CollectionPlayerMetadataComponent </title>
<path fill="none" stroke="black" stroke-dasharray="5,2" d="M1104.06,-184C1044.15,-184 965.7,-184 965.7,-184 965.7,-184 965.7,-205.95 965.7,-205.95"/>
<polygon fill="black" stroke="black" points="962.2,-205.95 965.7,-215.95 969.2,-205.95 962.2,-205.95"/>
</g>
<!-- ContentRatingComponent  -->
<g id="node24" class="node">
<title>ContentRatingComponent </title>
<polygon fill="#fb8072" stroke="black" points="744.5,-252 577.5,-252 577.5,-216 744.5,-216 744.5,-252"/>
<text text-anchor="middle" x="661" y="-229.8" font-family="Times,serif" font-size="14.00">ContentRatingComponent </text>
</g>
<!-- PlayerHelperModule&#45;&gt;ContentRatingComponent  -->
<g id="edge23" class="edge">
<title>PlayerHelperModule&#45;&gt;ContentRatingComponent </title>
<path fill="none" stroke="black" stroke-dasharray="5,2" d="M1104.21,-181C977.55,-181 715.02,-181 715.02,-181 715.02,-181 715.02,-205.76 715.02,-205.76"/>
<polygon fill="black" stroke="black" points="711.52,-205.76 715.02,-215.76 718.52,-205.76 711.52,-205.76"/>
</g>
<!-- CommingSoonComponent  -->
<g id="node25" class="node">
<title>CommingSoonComponent </title>
<polygon fill="#fb8072" stroke="black" points="559.62,-252 390.38,-252 390.38,-216 559.62,-216 559.62,-252"/>
<text text-anchor="middle" x="475" y="-229.8" font-family="Times,serif" font-size="14.00">CommingSoonComponent </text>
</g>
<!-- PlayerHelperModule&#45;&gt;CommingSoonComponent  -->
<g id="edge24" class="edge">
<title>PlayerHelperModule&#45;&gt;CommingSoonComponent </title>
<path fill="none" stroke="black" stroke-dasharray="5,2" d="M1104.02,-178C926.17,-178 455.57,-178 455.57,-178 455.57,-178 455.57,-205.97 455.57,-205.97"/>
<polygon fill="black" stroke="black" points="452.07,-205.97 455.57,-215.97 459.07,-205.97 452.07,-205.97"/>
</g>
<!-- CommonModule -->
<g id="node10" class="node">
<title>CommonModule</title>
<polygon fill="#8dd3c7" stroke="black" points="1145.67,-122 1142.67,-126 1121.67,-126 1118.67,-122 1034.33,-122 1034.33,-86 1145.67,-86 1145.67,-122"/>
<text text-anchor="middle" x="1090" y="-99.8" font-family="Times,serif" font-size="14.00">CommonModule</text>
</g>
<!-- CommonModule&#45;&gt;PlayerHelperModule -->
<g id="edge9" class="edge">
<title>CommonModule&#45;&gt;PlayerHelperModule</title>
<path fill="none" stroke="black" d="M1125.07,-122.11C1125.07,-122.11 1125.07,-140.99 1125.07,-140.99"/>
<polygon fill="black" stroke="black" points="1121.57,-140.99 1125.07,-150.99 1128.57,-140.99 1121.57,-140.99"/>
</g>
<!-- SuiModule -->
<g id="node11" class="node">
<title>SuiModule</title>
<polygon fill="#8dd3c7" stroke="black" points="1016.22,-122 1013.22,-126 992.22,-126 989.22,-122 937.78,-122 937.78,-86 1016.22,-86 1016.22,-122"/>
<text text-anchor="middle" x="977" y="-99.8" font-family="Times,serif" font-size="14.00">SuiModule</text>
</g>
<!-- SuiModule&#45;&gt;PlayerHelperModule -->
<g id="edge10" class="edge">
<title>SuiModule&#45;&gt;PlayerHelperModule</title>
<path fill="none" stroke="black" d="M1002.58,-122.12C1002.58,-136.78 1002.58,-155 1002.58,-155 1002.58,-155 1093.95,-155 1093.95,-155"/>
<polygon fill="black" stroke="black" points="1093.95,-158.5 1103.95,-155 1093.95,-151.5 1093.95,-158.5"/>
</g>
<!-- TelemetryModule -->
<g id="node12" class="node">
<title>TelemetryModule</title>
<polygon fill="#8dd3c7" stroke="black" points="919.58,-122 916.58,-126 895.58,-126 892.58,-122 802.42,-122 802.42,-86 919.58,-86 919.58,-122"/>
<text text-anchor="middle" x="861" y="-99.8" font-family="Times,serif" font-size="14.00">TelemetryModule</text>
</g>
<!-- TelemetryModule&#45;&gt;PlayerHelperModule -->
<g id="edge11" class="edge">
<title>TelemetryModule&#45;&gt;PlayerHelperModule</title>
<path fill="none" stroke="black" d="M861,-122.28C861,-137.95 861,-158 861,-158 861,-158 1094.12,-158 1094.12,-158"/>
<polygon fill="black" stroke="black" points="1094.12,-161.5 1104.12,-158 1094.12,-154.5 1094.12,-161.5"/>
</g>
<!-- SharedModule -->
<g id="node13" class="node">
<title>SharedModule</title>
<polygon fill="#8dd3c7" stroke="black" points="784.42,-122 781.42,-126 760.42,-126 757.42,-122 685.58,-122 685.58,-86 784.42,-86 784.42,-122"/>
<text text-anchor="middle" x="735" y="-99.8" font-family="Times,serif" font-size="14.00">SharedModule</text>
</g>
<!-- SharedModule&#45;&gt;PlayerHelperModule -->
<g id="edge12" class="edge">
<title>SharedModule&#45;&gt;PlayerHelperModule</title>
<path fill="none" stroke="black" d="M773.35,-122.04C773.35,-138.73 773.35,-161 773.35,-161 773.35,-161 1093.99,-161 1093.99,-161"/>
<polygon fill="black" stroke="black" points="1093.99,-164.5 1103.99,-161 1093.99,-157.5 1093.99,-164.5"/>
</g>
<!-- CoreModule -->
<g id="node14" class="node">
<title>CoreModule</title>
<polygon fill="#8dd3c7" stroke="black" points="667.26,-122 664.26,-126 643.26,-126 640.26,-122 580.74,-122 580.74,-86 667.26,-86 667.26,-122"/>
<text text-anchor="middle" x="624" y="-99.8" font-family="Times,serif" font-size="14.00">CoreModule</text>
</g>
<!-- CoreModule&#45;&gt;PlayerHelperModule -->
<g id="edge13" class="edge">
<title>CoreModule&#45;&gt;PlayerHelperModule</title>
<path fill="none" stroke="black" d="M624,-122.3C624,-140.27 624,-165 624,-165 624,-165 1094.2,-165 1094.2,-165"/>
<polygon fill="black" stroke="black" points="1094.2,-168.5 1104.2,-165 1094.2,-161.5 1094.2,-168.5"/>
</g>
<!-- SunbirdPdfPlayerModule -->
<g id="node15" class="node">
<title>SunbirdPdfPlayerModule</title>
<polygon fill="#8dd3c7" stroke="black" points="562.59,-122 559.59,-126 538.59,-126 535.59,-122 403.41,-122 403.41,-86 562.59,-86 562.59,-122"/>
<text text-anchor="middle" x="483" y="-99.8" font-family="Times,serif" font-size="14.00">SunbirdPdfPlayerModule</text>
</g>
<!-- SunbirdPdfPlayerModule&#45;&gt;PlayerHelperModule -->
<g id="edge14" class="edge">
<title>SunbirdPdfPlayerModule&#45;&gt;PlayerHelperModule</title>
<path fill="none" stroke="black" d="M507.69,-122.17C507.69,-141.09 507.69,-168 507.69,-168 507.69,-168 1094.06,-168 1094.06,-168"/>
<polygon fill="black" stroke="black" points="1094.06,-171.5 1104.06,-168 1094.06,-164.5 1094.06,-171.5"/>
</g>
<!-- SunbirdVideoPlayerModule -->
<g id="node16" class="node">
<title>SunbirdVideoPlayerModule</title>
<polygon fill="#8dd3c7" stroke="black" points="385.86,-122 382.86,-126 361.86,-126 358.86,-122 212.14,-122 212.14,-86 385.86,-86 385.86,-122"/>
<text text-anchor="middle" x="299" y="-99.8" font-family="Times,serif" font-size="14.00">SunbirdVideoPlayerModule</text>
</g>
<!-- SunbirdVideoPlayerModule&#45;&gt;PlayerHelperModule -->
<g id="edge15" class="edge">
<title>SunbirdVideoPlayerModule&#45;&gt;PlayerHelperModule</title>
<path fill="none" stroke="black" d="M299,-122.31C299,-142.15 299,-171 299,-171 299,-171 1094.02,-171 1094.02,-171"/>
<polygon fill="black" stroke="black" points="1094.02,-174.5 1104.02,-171 1094.02,-167.5 1094.02,-174.5"/>
</g>
<!-- SunbirdEpubPlayerModule -->
<g id="node17" class="node">
<title>SunbirdEpubPlayerModule</title>
<polygon fill="#8dd3c7" stroke="black" points="193.7,-122 190.7,-126 169.7,-126 166.7,-122 24.3,-122 24.3,-86 193.7,-86 193.7,-122"/>
<text text-anchor="middle" x="109" y="-99.8" font-family="Times,serif" font-size="14.00">SunbirdEpubPlayerModule</text>
</g>
<!-- SunbirdEpubPlayerModule&#45;&gt;PlayerHelperModule -->
<g id="edge16" class="edge">
<title>SunbirdEpubPlayerModule&#45;&gt;PlayerHelperModule</title>
<path fill="none" stroke="black" d="M109,-122.03C109,-142.77 109,-174 109,-174 109,-174 1094.16,-174 1094.16,-174"/>
<polygon fill="black" stroke="black" points="1094.16,-177.5 1104.16,-174 1094.16,-170.5 1094.16,-177.5"/>
</g>
</g>
</svg>
