<?xml version="1.0" encoding="UTF-8" standalone="no"?>
<!DOCTYPE svg PUBLIC "-//W3C//DTD SVG 1.1//EN"
 "http://www.w3.org/Graphics/SVG/1.1/DTD/svg11.dtd">
<!-- Generated by graphviz version 2.47.0 (20210316.0004)
 -->
<!-- Title: dependencies Pages: 1 -->
<svg width="5424pt" height="284pt"
 viewBox="0.00 0.00 5424.00 284.00" xmlns="http://www.w3.org/2000/svg" xmlns:xlink="http://www.w3.org/1999/xlink">
<g id="graph0" class="graph" transform="scale(1 1) rotate(0) translate(4 280)">
<title>dependencies</title>
<polygon fill="white" stroke="transparent" points="-4,4 -4,-280 5420,-280 5420,4 -4,4"/>
<text text-anchor="start" x="2687.01" y="-42.4" font-family="Times-12" font-weight="bold" font-size="14.00">Legend</text>
<polygon fill="#ffffb3" stroke="transparent" points="2474,-10 2474,-30 2494,-30 2494,-10 2474,-10"/>
<text text-anchor="start" x="2497.63" y="-15.4" font-family="Times-12" font-size="14.00"> &#160;Declarations</text>
<polygon fill="#8dd3c7" stroke="transparent" points="2587,-10 2587,-30 2607,-30 2607,-10 2587,-10"/>
<text text-anchor="start" x="2610.73" y="-15.4" font-family="Times-12" font-size="14.00"> &#160;Module</text>
<polygon fill="#80b1d3" stroke="transparent" points="2673,-10 2673,-30 2693,-30 2693,-10 2673,-10"/>
<text text-anchor="start" x="2696.78" y="-15.4" font-family="Times-12" font-size="14.00"> &#160;Bootstrap</text>
<polygon fill="#fdb462" stroke="transparent" points="2770,-10 2770,-30 2790,-30 2790,-10 2770,-10"/>
<text text-anchor="start" x="2793.67" y="-15.4" font-family="Times-12" font-size="14.00"> &#160;Providers</text>
<polygon fill="#fb8072" stroke="transparent" points="2866,-10 2866,-30 2886,-30 2886,-10 2866,-10"/>
<text text-anchor="start" x="2889.73" y="-15.4" font-family="Times-12" font-size="14.00"> &#160;Exports</text>
<g id="clust1" class="cluster">
<title>cluster_AppModule</title>
<polygon fill="none" stroke="black" stroke-dasharray="1,5" points="8,-70 8,-268 5408,-268 5408,-70 8,-70"/>
</g>
<g id="clust2" class="cluster">
<title>cluster_AppModule_declarations</title>
<polygon fill="none" stroke="black" points="5278,-78 5278,-130 5400,-130 5400,-78 5278,-78"/>
</g>
<g id="clust4" class="cluster">
<title>cluster_AppModule_imports</title>
<polygon fill="none" stroke="black" points="2200,-78 2200,-130 5270,-130 5270,-78 2200,-78"/>
</g>
<g id="clust6" class="cluster">
<title>cluster_AppModule_bootstrap</title>
<polygon fill="none" stroke="black" points="3431,-208 3431,-260 3555,-260 3555,-208 3431,-208"/>
</g>
<g id="clust7" class="cluster">
<title>cluster_AppModule_providers</title>
<polygon fill="none" stroke="black" points="16,-78 16,-130 2192,-130 2192,-78 16,-78"/>
</g>
<!-- AppComponent -->
<g id="node1" class="node">
<title>AppComponent</title>
<polygon fill="#ffffb3" stroke="black" points="5391.94,-122 5286.06,-122 5286.06,-86 5391.94,-86 5391.94,-122"/>
<text text-anchor="middle" x="5339" y="-99.8" font-family="Times,serif" font-size="14.00">AppComponent</text>
</g>
<!-- AppModule -->
<g id="node2" class="node">
<title>AppModule</title>
<polygon fill="#8dd3c7" stroke="black" points="3534.66,-187 3531.66,-191 3510.66,-191 3507.66,-187 3451.34,-187 3451.34,-151 3534.66,-151 3534.66,-187"/>
<text text-anchor="middle" x="3493" y="-164.8" font-family="Times,serif" font-size="14.00">AppModule</text>
</g>
<!-- AppComponent&#45;&gt;AppModule -->
<g id="edge1" class="edge">
<title>AppComponent&#45;&gt;AppModule</title>
<path fill="none" stroke="black" d="M5339,-122.38C5339,-146.28 5339,-185 5339,-185 5339,-185 3545.02,-185 3545.02,-185"/>
<polygon fill="black" stroke="black" points="3545.02,-181.5 3535.02,-185 3545.02,-188.5 3545.02,-181.5"/>
</g>
<!-- AppComponent  -->
<g id="node23" class="node">
<title>AppComponent </title>
<polygon fill="#80b1d3" stroke="black" points="3547.44,-252 3438.56,-252 3438.56,-216 3547.44,-216 3547.44,-252"/>
<text text-anchor="middle" x="3493" y="-229.8" font-family="Times,serif" font-size="14.00">AppComponent </text>
</g>
<!-- AppModule&#45;&gt;AppComponent  -->
<g id="edge22" class="edge">
<title>AppModule&#45;&gt;AppComponent </title>
<path fill="none" stroke="black" stroke-dasharray="1,5" d="M3493,-187.11C3493,-187.11 3493,-205.99 3493,-205.99"/>
<polygon fill="black" stroke="black" points="3489.5,-205.99 3493,-215.99 3496.5,-205.99 3489.5,-205.99"/>
</g>
<!-- BrowserAnimationsModule -->
<g id="node3" class="node">
<title>BrowserAnimationsModule</title>
<polygon fill="#8dd3c7" stroke="black" points="5262.3,-122 5259.3,-126 5238.3,-126 5235.3,-122 5089.7,-122 5089.7,-86 5262.3,-86 5262.3,-122"/>
<text text-anchor="middle" x="5176" y="-99.8" font-family="Times,serif" font-size="14.00">BrowserAnimationsModule</text>
</g>
<!-- BrowserAnimationsModule&#45;&gt;AppModule -->
<g id="edge2" class="edge">
<title>BrowserAnimationsModule&#45;&gt;AppModule</title>
<path fill="none" stroke="black" d="M5176,-122.09C5176,-145.13 5176,-182 5176,-182 5176,-182 3545.02,-182 3545.02,-182"/>
<polygon fill="black" stroke="black" points="3545.02,-178.5 3535.02,-182 3545.02,-185.5 3545.02,-178.5"/>
</g>
<!-- CoreModule -->
<g id="node4" class="node">
<title>CoreModule</title>
<polygon fill="#8dd3c7" stroke="black" points="5071.26,-122 5068.26,-126 5047.26,-126 5044.26,-122 4984.74,-122 4984.74,-86 5071.26,-86 5071.26,-122"/>
<text text-anchor="middle" x="5028" y="-99.8" font-family="Times,serif" font-size="14.00">CoreModule</text>
</g>
<!-- CoreModule&#45;&gt;AppModule -->
<g id="edge3" class="edge">
<title>CoreModule&#45;&gt;AppModule</title>
<path fill="none" stroke="black" d="M5028,-122.01C5028,-144.49 5028,-180 5028,-180 5028,-180 3544.85,-180 3544.85,-180"/>
<polygon fill="black" stroke="black" points="3544.85,-176.5 3534.85,-180 3544.85,-183.5 3544.85,-176.5"/>
</g>
<!-- CommonModule -->
<g id="node5" class="node">
<title>CommonModule</title>
<polygon fill="#8dd3c7" stroke="black" points="4966.67,-122 4963.67,-126 4942.67,-126 4939.67,-122 4855.33,-122 4855.33,-86 4966.67,-86 4966.67,-122"/>
<text text-anchor="middle" x="4911" y="-99.8" font-family="Times,serif" font-size="14.00">CommonModule</text>
</g>
<!-- CommonModule&#45;&gt;AppModule -->
<g id="edge4" class="edge">
<title>CommonModule&#45;&gt;AppModule</title>
<path fill="none" stroke="black" d="M4911,-122.04C4911,-143.66 4911,-177 4911,-177 4911,-177 3544.67,-177 3544.67,-177"/>
<polygon fill="black" stroke="black" points="3544.67,-173.5 3534.67,-177 3544.67,-180.5 3544.67,-173.5"/>
</g>
<!-- HttpClientModule -->
<g id="node6" class="node">
<title>HttpClientModule</title>
<polygon fill="#8dd3c7" stroke="black" points="4837.16,-122 4834.16,-126 4813.16,-126 4810.16,-122 4718.84,-122 4718.84,-86 4837.16,-86 4837.16,-122"/>
<text text-anchor="middle" x="4778" y="-99.8" font-family="Times,serif" font-size="14.00">HttpClientModule</text>
</g>
<!-- HttpClientModule&#45;&gt;AppModule -->
<g id="edge5" class="edge">
<title>HttpClientModule&#45;&gt;AppModule</title>
<path fill="none" stroke="black" d="M4778,-122.28C4778,-143.32 4778,-175 4778,-175 4778,-175 3544.66,-175 3544.66,-175"/>
<polygon fill="black" stroke="black" points="3544.66,-171.5 3534.66,-175 3544.66,-178.5 3544.66,-171.5"/>
</g>
<!-- SuiSelectModule -->
<g id="node7" class="node">
<title>SuiSelectModule</title>
<polygon fill="#8dd3c7" stroke="black" points="4700.43,-122 4697.43,-126 4676.43,-126 4673.43,-122 4587.57,-122 4587.57,-86 4700.43,-86 4700.43,-122"/>
<text text-anchor="middle" x="4644" y="-99.8" font-family="Times,serif" font-size="14.00">SuiSelectModule</text>
</g>
<!-- SuiSelectModule&#45;&gt;AppModule -->
<g id="edge6" class="edge">
<title>SuiSelectModule&#45;&gt;AppModule</title>
<path fill="none" stroke="black" d="M4644,-122.22C4644,-142.37 4644,-172 4644,-172 4644,-172 3544.99,-172 3544.99,-172"/>
<polygon fill="black" stroke="black" points="3544.99,-168.5 3534.99,-172 3544.99,-175.5 3544.99,-168.5"/>
</g>
<!-- SuiModalModule -->
<g id="node8" class="node">
<title>SuiModalModule</title>
<polygon fill="#8dd3c7" stroke="black" points="4569.27,-122 4566.27,-126 4545.27,-126 4542.27,-122 4454.73,-122 4454.73,-86 4569.27,-86 4569.27,-122"/>
<text text-anchor="middle" x="4512" y="-99.8" font-family="Times,serif" font-size="14.00">SuiModalModule</text>
</g>
<!-- SuiModalModule&#45;&gt;AppModule -->
<g id="edge7" class="edge">
<title>SuiModalModule&#45;&gt;AppModule</title>
<path fill="none" stroke="black" d="M4512,-122.11C4512,-141.34 4512,-169 4512,-169 4512,-169 3544.85,-169 3544.85,-169"/>
<polygon fill="black" stroke="black" points="3544.85,-165.5 3534.85,-169 3544.85,-172.5 3544.85,-165.5"/>
</g>
<!-- SuiAccordionModule -->
<g id="node9" class="node">
<title>SuiAccordionModule</title>
<polygon fill="#8dd3c7" stroke="black" points="4436.81,-122 4433.81,-126 4412.81,-126 4409.81,-122 4299.19,-122 4299.19,-86 4436.81,-86 4436.81,-122"/>
<text text-anchor="middle" x="4368" y="-99.8" font-family="Times,serif" font-size="14.00">SuiAccordionModule</text>
</g>
<!-- SuiAccordionModule&#45;&gt;AppModule -->
<g id="edge8" class="edge">
<title>SuiAccordionModule&#45;&gt;AppModule</title>
<path fill="none" stroke="black" d="M4368,-122.22C4368,-140.83 4368,-167 4368,-167 4368,-167 3544.91,-167 3544.91,-167"/>
<polygon fill="black" stroke="black" points="3544.91,-163.5 3534.91,-167 3544.91,-170.5 3544.91,-163.5"/>
</g>
<!-- SuiPopupModule -->
<g id="node10" class="node">
<title>SuiPopupModule</title>
<polygon fill="#8dd3c7" stroke="black" points="4281.01,-122 4278.01,-126 4257.01,-126 4254.01,-122 4166.99,-122 4166.99,-86 4281.01,-86 4281.01,-122"/>
<text text-anchor="middle" x="4224" y="-99.8" font-family="Times,serif" font-size="14.00">SuiPopupModule</text>
</g>
<!-- SuiPopupModule&#45;&gt;AppModule -->
<g id="edge9" class="edge">
<title>SuiPopupModule&#45;&gt;AppModule</title>
<path fill="none" stroke="black" d="M4224,-122C4224,-139.68 4224,-164 4224,-164 4224,-164 3544.66,-164 3544.66,-164"/>
<polygon fill="black" stroke="black" points="3544.66,-160.5 3534.66,-164 3544.66,-167.5 3544.66,-160.5"/>
</g>
<!-- SuiDropdownModule -->
<g id="node11" class="node">
<title>SuiDropdownModule</title>
<polygon fill="#8dd3c7" stroke="black" points="4149.1,-122 4146.1,-126 4125.1,-126 4122.1,-122 4010.9,-122 4010.9,-86 4149.1,-86 4149.1,-122"/>
<text text-anchor="middle" x="4080" y="-99.8" font-family="Times,serif" font-size="14.00">SuiDropdownModule</text>
</g>
<!-- SuiDropdownModule&#45;&gt;AppModule -->
<g id="edge10" class="edge">
<title>SuiDropdownModule&#45;&gt;AppModule</title>
<path fill="none" stroke="black" d="M4080,-122.03C4080,-139.06 4080,-162 4080,-162 4080,-162 3544.75,-162 3544.75,-162"/>
<polygon fill="black" stroke="black" points="3544.75,-158.5 3534.75,-162 3544.74,-165.5 3544.75,-158.5"/>
</g>
<!-- SuiProgressModule -->
<g id="node12" class="node">
<title>SuiProgressModule</title>
<polygon fill="#8dd3c7" stroke="black" points="3993.43,-122 3990.43,-126 3969.43,-126 3966.43,-122 3866.57,-122 3866.57,-86 3993.43,-86 3993.43,-122"/>
<text text-anchor="middle" x="3930" y="-99.8" font-family="Times,serif" font-size="14.00">SuiProgressModule</text>
</g>
<!-- SuiProgressModule&#45;&gt;AppModule -->
<g id="edge11" class="edge">
<title>SuiProgressModule&#45;&gt;AppModule</title>
<path fill="none" stroke="black" d="M3930,-122.01C3930,-138.05 3930,-159 3930,-159 3930,-159 3544.9,-159 3544.9,-159"/>
<polygon fill="black" stroke="black" points="3544.9,-155.5 3534.9,-159 3544.9,-162.5 3544.9,-155.5"/>
</g>
<!-- SuiRatingModule -->
<g id="node13" class="node">
<title>SuiRatingModule</title>
<polygon fill="#8dd3c7" stroke="black" points="3848.56,-122 3845.56,-126 3824.56,-126 3821.56,-122 3733.44,-122 3733.44,-86 3848.56,-86 3848.56,-122"/>
<text text-anchor="middle" x="3791" y="-99.8" font-family="Times,serif" font-size="14.00">SuiRatingModule</text>
</g>
<!-- SuiRatingModule&#45;&gt;AppModule -->
<g id="edge12" class="edge">
<title>SuiRatingModule&#45;&gt;AppModule</title>
<path fill="none" stroke="black" d="M3791,-122.24C3791,-137.57 3791,-157 3791,-157 3791,-157 3544.75,-157 3544.75,-157"/>
<polygon fill="black" stroke="black" points="3544.75,-153.5 3534.75,-157 3544.75,-160.5 3544.75,-153.5"/>
</g>
<!-- SuiCollapseModule -->
<g id="node14" class="node">
<title>SuiCollapseModule</title>
<polygon fill="#8dd3c7" stroke="black" points="3715.71,-122 3712.71,-126 3691.71,-126 3688.71,-122 3588.29,-122 3588.29,-86 3715.71,-86 3715.71,-122"/>
<text text-anchor="middle" x="3652" y="-99.8" font-family="Times,serif" font-size="14.00">SuiCollapseModule</text>
</g>
<!-- SuiCollapseModule&#45;&gt;AppModule -->
<g id="edge13" class="edge">
<title>SuiCollapseModule&#45;&gt;AppModule</title>
<path fill="none" stroke="black" d="M3652,-122.05C3652,-136.37 3652,-154 3652,-154 3652,-154 3544.78,-154 3544.78,-154"/>
<polygon fill="black" stroke="black" points="3544.78,-150.5 3534.78,-154 3544.78,-157.5 3544.78,-150.5"/>
</g>
<!-- SharedModule.forRoot() -->
<g id="node15" class="node">
<title>SharedModule.forRoot()</title>
<polygon fill="#8dd3c7" stroke="black" points="3570.29,-122 3567.29,-126 3546.29,-126 3543.29,-122 3415.71,-122 3415.71,-86 3570.29,-86 3570.29,-122"/>
<text text-anchor="middle" x="3493" y="-99.8" font-family="Times,serif" font-size="14.00">SharedModule.forRoot()</text>
</g>
<!-- SharedModule.forRoot()&#45;&gt;AppModule -->
<g id="edge14" class="edge">
<title>SharedModule.forRoot()&#45;&gt;AppModule</title>
<path fill="none" stroke="black" d="M3493,-122.11C3493,-122.11 3493,-140.99 3493,-140.99"/>
<polygon fill="black" stroke="black" points="3489.5,-140.99 3493,-150.99 3496.5,-140.99 3489.5,-140.99"/>
</g>
<!-- WebExtensionModule.forRoot() -->
<g id="node16" class="node">
<title>WebExtensionModule.forRoot()</title>
<polygon fill="#8dd3c7" stroke="black" points="3397.34,-122 3394.34,-126 3373.34,-126 3370.34,-122 3198.66,-122 3198.66,-86 3397.34,-86 3397.34,-122"/>
<text text-anchor="middle" x="3298" y="-99.8" font-family="Times,serif" font-size="14.00">WebExtensionModule.forRoot()</text>
</g>
<!-- WebExtensionModule.forRoot()&#45;&gt;AppModule -->
<g id="edge15" class="edge">
<title>WebExtensionModule.forRoot()&#45;&gt;AppModule</title>
<path fill="none" stroke="black" d="M3298,-122.05C3298,-136.37 3298,-154 3298,-154 3298,-154 3441.17,-154 3441.17,-154"/>
<polygon fill="black" stroke="black" points="3441.17,-157.5 3451.17,-154 3441.17,-150.5 3441.17,-157.5"/>
</g>
<!-- TelemetryModule.forRoot() -->
<g id="node17" class="node">
<title>TelemetryModule.forRoot()</title>
<polygon fill="#8dd3c7" stroke="black" points="3180.95,-122 3177.95,-126 3156.95,-126 3153.95,-122 3007.05,-122 3007.05,-86 3180.95,-86 3180.95,-122"/>
<text text-anchor="middle" x="3094" y="-99.8" font-family="Times,serif" font-size="14.00">TelemetryModule.forRoot()</text>
</g>
<!-- TelemetryModule.forRoot()&#45;&gt;AppModule -->
<g id="edge16" class="edge">
<title>TelemetryModule.forRoot()&#45;&gt;AppModule</title>
<path fill="none" stroke="black" d="M3094,-122.24C3094,-137.57 3094,-157 3094,-157 3094,-157 3441.05,-157 3441.05,-157"/>
<polygon fill="black" stroke="black" points="3441.05,-160.5 3451.05,-157 3441.05,-153.5 3441.05,-160.5"/>
</g>
<!-- SharedFeatureModule -->
<g id="node18" class="node">
<title>SharedFeatureModule</title>
<polygon fill="#8dd3c7" stroke="black" points="2989.4,-122 2986.4,-126 2965.4,-126 2962.4,-122 2848.6,-122 2848.6,-86 2989.4,-86 2989.4,-122"/>
<text text-anchor="middle" x="2919" y="-99.8" font-family="Times,serif" font-size="14.00">SharedFeatureModule</text>
</g>
<!-- SharedFeatureModule&#45;&gt;AppModule -->
<g id="edge17" class="edge">
<title>SharedFeatureModule&#45;&gt;AppModule</title>
<path fill="none" stroke="black" d="M2919,-122.01C2919,-138.05 2919,-159 2919,-159 2919,-159 3441.26,-159 3441.26,-159"/>
<polygon fill="black" stroke="black" points="3441.26,-162.5 3451.26,-159 3441.26,-155.5 3441.26,-162.5"/>
</g>
<!-- ...PluginModules -->
<g id="node19" class="node">
<title>...PluginModules</title>
<polygon fill="#8dd3c7" stroke="black" points="2831.06,-122 2828.06,-126 2807.06,-126 2804.06,-122 2718.94,-122 2718.94,-86 2831.06,-86 2831.06,-122"/>
<text text-anchor="middle" x="2775" y="-99.8" font-family="Times,serif" font-size="14.00">...PluginModules</text>
</g>
<!-- ...PluginModules&#45;&gt;AppModule -->
<g id="edge18" class="edge">
<title>...PluginModules&#45;&gt;AppModule</title>
<path fill="none" stroke="black" d="M2775,-122.03C2775,-139.06 2775,-162 2775,-162 2775,-162 3441.29,-162 3441.29,-162"/>
<polygon fill="black" stroke="black" points="3441.29,-165.5 3451.29,-162 3441.29,-158.5 3441.29,-165.5"/>
</g>
<!-- QumlLibraryModule -->
<g id="node20" class="node">
<title>QumlLibraryModule</title>
<polygon fill="#8dd3c7" stroke="black" points="2700.92,-122 2697.92,-126 2676.92,-126 2673.92,-122 2567.08,-122 2567.08,-86 2700.92,-86 2700.92,-122"/>
<text text-anchor="middle" x="2634" y="-99.8" font-family="Times,serif" font-size="14.00">QumlLibraryModule</text>
</g>
<!-- QumlLibraryModule&#45;&gt;AppModule -->
<g id="edge19" class="edge">
<title>QumlLibraryModule&#45;&gt;AppModule</title>
<path fill="none" stroke="black" d="M2634,-122C2634,-139.68 2634,-164 2634,-164 2634,-164 3441.28,-164 3441.28,-164"/>
<polygon fill="black" stroke="black" points="3441.28,-167.5 3451.28,-164 3441.28,-160.5 3441.28,-167.5"/>
</g>
<!-- CollectionEditorLibraryModule -->
<g id="node21" class="node">
<title>CollectionEditorLibraryModule</title>
<polygon fill="#8dd3c7" stroke="black" points="2549.35,-122 2546.35,-126 2525.35,-126 2522.35,-122 2354.65,-122 2354.65,-86 2549.35,-86 2549.35,-122"/>
<text text-anchor="middle" x="2452" y="-99.8" font-family="Times,serif" font-size="14.00">CollectionEditorLibraryModule</text>
</g>
<!-- CollectionEditorLibraryModule&#45;&gt;AppModule -->
<g id="edge20" class="edge">
<title>CollectionEditorLibraryModule&#45;&gt;AppModule</title>
<path fill="none" stroke="black" d="M2452,-122.22C2452,-140.83 2452,-167 2452,-167 2452,-167 3441.23,-167 3441.23,-167"/>
<polygon fill="black" stroke="black" points="3441.23,-170.5 3451.23,-167 3441.23,-163.5 3441.23,-170.5"/>
</g>
<!-- AppRoutingModule -->
<g id="node22" class="node">
<title>AppRoutingModule</title>
<polygon fill="#8dd3c7" stroke="black" points="2336.27,-122 2333.27,-126 2312.27,-126 2309.27,-122 2207.73,-122 2207.73,-86 2336.27,-86 2336.27,-122"/>
<text text-anchor="middle" x="2272" y="-99.8" font-family="Times,serif" font-size="14.00">AppRoutingModule</text>
</g>
<!-- AppRoutingModule&#45;&gt;AppModule -->
<g id="edge21" class="edge">
<title>AppRoutingModule&#45;&gt;AppModule</title>
<path fill="none" stroke="black" d="M2272,-122.11C2272,-141.34 2272,-169 2272,-169 2272,-169 3441.32,-169 3441.32,-169"/>
<polygon fill="black" stroke="black" points="3441.32,-172.5 3451.32,-169 3441.32,-165.5 3441.32,-172.5"/>
</g>
<!-- CacheService -->
<g id="node24" class="node">
<title>CacheService</title>
<ellipse fill="#fdb462" stroke="black" cx="2120" cy="-104" rx="64.24" ry="18"/>
<text text-anchor="middle" x="2120" y="-99.8" font-family="Times,serif" font-size="14.00">CacheService</text>
</g>
<!-- CacheService&#45;&gt;AppModule -->
<g id="edge23" class="edge">
<title>CacheService&#45;&gt;AppModule</title>
<path fill="none" stroke="black" d="M2120,-122.22C2120,-142.37 2120,-172 2120,-172 2120,-172 3441.16,-172 3441.16,-172"/>
<polygon fill="black" stroke="black" points="3441.16,-175.5 3451.16,-172 3441.16,-168.5 3441.16,-175.5"/>
</g>
<!-- DatePipe -->
<g id="node25" class="node">
<title>DatePipe</title>
<ellipse fill="#fdb462" stroke="black" cx="1991" cy="-104" rx="46.36" ry="18"/>
<text text-anchor="middle" x="1991" y="-99.8" font-family="Times,serif" font-size="14.00">DatePipe</text>
</g>
<!-- DatePipe&#45;&gt;AppModule -->
<g id="edge24" class="edge">
<title>DatePipe&#45;&gt;AppModule</title>
<path fill="none" stroke="black" d="M1991,-122.28C1991,-143.32 1991,-175 1991,-175 1991,-175 3441.26,-175 3441.26,-175"/>
<polygon fill="black" stroke="black" points="3441.26,-178.5 3451.26,-175 3441.26,-171.5 3441.26,-178.5"/>
</g>
<!-- DeviceDetectorService -->
<g id="node26" class="node">
<title>DeviceDetectorService</title>
<ellipse fill="#fdb462" stroke="black" cx="1826" cy="-104" rx="100.66" ry="18"/>
<text text-anchor="middle" x="1826" y="-99.8" font-family="Times,serif" font-size="14.00">DeviceDetectorService</text>
</g>
<!-- DeviceDetectorService&#45;&gt;AppModule -->
<g id="edge25" class="edge">
<title>DeviceDetectorService&#45;&gt;AppModule</title>
<path fill="none" stroke="black" d="M1826,-122.04C1826,-143.66 1826,-177 1826,-177 1826,-177 3440.96,-177 3440.96,-177"/>
<polygon fill="black" stroke="black" points="3440.96,-180.5 3450.96,-177 3440.96,-173.5 3440.96,-180.5"/>
</g>
<!-- { provide: HTTP_INTERCEPTORS, useClass: SessionExpiryInterceptor, multi: &#160;} -->
<g id="node27" class="node">
<title>{ provide: HTTP_INTERCEPTORS, useClass: SessionExpiryInterceptor, multi: &#160;}</title>
<ellipse fill="#fdb462" stroke="black" cx="1376" cy="-104" rx="331.89" ry="18"/>
<text text-anchor="middle" x="1376" y="-99.8" font-family="Times,serif" font-size="14.00">{ provide: HTTP_INTERCEPTORS, useClass: SessionExpiryInterceptor, multi: &#160;}</text>
</g>
<!-- { provide: HTTP_INTERCEPTORS, useClass: SessionExpiryInterceptor, multi: &#160;}&#45;&gt;AppModule -->
<g id="edge26" class="edge">
<title>{ provide: HTTP_INTERCEPTORS, useClass: SessionExpiryInterceptor, multi: &#160;}&#45;&gt;AppModule</title>
<path fill="none" stroke="black" d="M1376,-122.01C1376,-144.49 1376,-180 1376,-180 1376,-180 3441.19,-180 3441.19,-180"/>
<polygon fill="black" stroke="black" points="3441.19,-183.5 3451.19,-180 3441.19,-176.5 3441.19,-183.5"/>
</g>
<!-- { provide: QuestionCursor, useExisting: QumlPlayerService } -->
<g id="node28" class="node">
<title>{ provide: QuestionCursor, useExisting: QumlPlayerService }</title>
<ellipse fill="#fdb462" stroke="black" cx="775" cy="-104" rx="251.48" ry="18"/>
<text text-anchor="middle" x="775" y="-99.8" font-family="Times,serif" font-size="14.00">{ provide: QuestionCursor, useExisting: QumlPlayerService }</text>
</g>
<!-- { provide: QuestionCursor, useExisting: QumlPlayerService }&#45;&gt;AppModule -->
<g id="edge27" class="edge">
<title>{ provide: QuestionCursor, useExisting: QumlPlayerService }&#45;&gt;AppModule</title>
<path fill="none" stroke="black" d="M775,-122.09C775,-145.13 775,-182 775,-182 775,-182 3441.12,-182 3441.12,-182"/>
<polygon fill="black" stroke="black" points="3441.12,-185.5 3451.12,-182 3441.12,-178.5 3441.12,-185.5"/>
</g>
<!-- { provide: EditorCursor, useExisting: QumlPlayerService } -->
<g id="node29" class="node">
<title>{ provide: EditorCursor, useExisting: QumlPlayerService }</title>
<ellipse fill="#fdb462" stroke="black" cx="265" cy="-104" rx="240.52" ry="18"/>
<text text-anchor="middle" x="265" y="-99.8" font-family="Times,serif" font-size="14.00">{ provide: EditorCursor, useExisting: QumlPlayerService }</text>
</g>
<!-- { provide: EditorCursor, useExisting: QumlPlayerService }&#45;&gt;AppModule -->
<g id="edge28" class="edge">
<title>{ provide: EditorCursor, useExisting: QumlPlayerService }&#45;&gt;AppModule</title>
<path fill="none" stroke="black" d="M265,-122.38C265,-146.28 265,-185 265,-185 265,-185 3441.3,-185 3441.3,-185"/>
<polygon fill="black" stroke="black" points="3441.3,-188.5 3451.3,-185 3441.3,-181.5 3441.3,-188.5"/>
</g>
</g>
</svg>
