<?xml version="1.0" encoding="UTF-8" standalone="no"?>
<!DOCTYPE svg PUBLIC "-//W3C//DTD SVG 1.1//EN"
 "http://www.w3.org/Graphics/SVG/1.1/DTD/svg11.dtd">
<!-- Generated by graphviz version 2.47.0 (20210316.0004)
 -->
<!-- Title: dependencies Pages: 1 -->
<svg width="9312pt" height="284pt"
 viewBox="0.00 0.00 9312.00 284.00" xmlns="http://www.w3.org/2000/svg" xmlns:xlink="http://www.w3.org/1999/xlink">
<g id="graph0" class="graph" transform="scale(1 1) rotate(0) translate(4 280)">
<title>dependencies</title>
<polygon fill="white" stroke="transparent" points="-4,4 -4,-280 9308,-280 9308,4 -4,4"/>
<text text-anchor="start" x="4631.01" y="-42.4" font-family="Times-12" font-weight="bold" font-size="14.00">Legend</text>
<polygon fill="#ffffb3" stroke="transparent" points="4418,-10 4418,-30 4438,-30 4438,-10 4418,-10"/>
<text text-anchor="start" x="4441.63" y="-15.4" font-family="Times-12" font-size="14.00"> &#160;Declarations</text>
<polygon fill="#8dd3c7" stroke="transparent" points="4531,-10 4531,-30 4551,-30 4551,-10 4531,-10"/>
<text text-anchor="start" x="4554.73" y="-15.4" font-family="Times-12" font-size="14.00"> &#160;Module</text>
<polygon fill="#80b1d3" stroke="transparent" points="4617,-10 4617,-30 4637,-30 4637,-10 4617,-10"/>
<text text-anchor="start" x="4640.78" y="-15.4" font-family="Times-12" font-size="14.00"> &#160;Bootstrap</text>
<polygon fill="#fdb462" stroke="transparent" points="4714,-10 4714,-30 4734,-30 4734,-10 4714,-10"/>
<text text-anchor="start" x="4737.67" y="-15.4" font-family="Times-12" font-size="14.00"> &#160;Providers</text>
<polygon fill="#fb8072" stroke="transparent" points="4810,-10 4810,-30 4830,-30 4830,-10 4810,-10"/>
<text text-anchor="start" x="4833.73" y="-15.4" font-family="Times-12" font-size="14.00"> &#160;Exports</text>
<g id="clust1" class="cluster">
<title>cluster_SourcingModule</title>
<polygon fill="none" stroke="black" stroke-dasharray="1,5" points="8,-70 8,-268 9296,-268 9296,-70 8,-70"/>
</g>
<g id="clust34" class="cluster">
<title>cluster_SourcingModule_providers</title>
<polygon fill="none" stroke="black" points="8014,-78 8014,-130 9288,-130 9288,-78 8014,-78"/>
</g>
<g id="clust32" class="cluster">
<title>cluster_SourcingModule_exports</title>
<polygon fill="none" stroke="black" points="3512,-208 3512,-260 4581,-260 4581,-208 3512,-208"/>
</g>
<g id="clust2" class="cluster">
<title>cluster_SourcingModule_declarations</title>
<polygon fill="none" stroke="black" points="2926,-78 2926,-130 8006,-130 8006,-78 2926,-78"/>
</g>
<g id="clust31" class="cluster">
<title>cluster_SourcingModule_imports</title>
<polygon fill="none" stroke="black" points="16,-78 16,-130 2918,-130 2918,-78 16,-78"/>
</g>
<!-- QuestionListComponent -->
<g id="node1" class="node">
<title>QuestionListComponent</title>
<polygon fill="#ffffb3" stroke="black" points="7997.66,-122 7844.34,-122 7844.34,-86 7997.66,-86 7997.66,-122"/>
<text text-anchor="middle" x="7921" y="-99.8" font-family="Times,serif" font-size="14.00">QuestionListComponent</text>
</g>
<!-- SourcingModule -->
<g id="node29" class="node">
<title>SourcingModule</title>
<polygon fill="#8dd3c7" stroke="black" points="4138.1,-187 4135.1,-191 4114.1,-191 4111.1,-187 4027.9,-187 4027.9,-151 4138.1,-151 4138.1,-187"/>
<text text-anchor="middle" x="4083" y="-164.8" font-family="Times,serif" font-size="14.00">SourcingModule</text>
</g>
<!-- QuestionListComponent&#45;&gt;SourcingModule -->
<g id="edge1" class="edge">
<title>QuestionListComponent&#45;&gt;SourcingModule</title>
<path fill="none" stroke="black" d="M7921,-122.16C7921,-144.35 7921,-179 7921,-179 7921,-179 4148.36,-179 4148.36,-179"/>
<polygon fill="black" stroke="black" points="4148.36,-175.5 4138.36,-179 4148.36,-182.5 4148.36,-175.5"/>
</g>
<!-- QuestionCreationComponent -->
<g id="node2" class="node">
<title>QuestionCreationComponent</title>
<polygon fill="#ffffb3" stroke="black" points="7826.09,-122 7645.91,-122 7645.91,-86 7826.09,-86 7826.09,-122"/>
<text text-anchor="middle" x="7736" y="-99.8" font-family="Times,serif" font-size="14.00">QuestionCreationComponent</text>
</g>
<!-- QuestionCreationComponent&#45;&gt;SourcingModule -->
<g id="edge2" class="edge">
<title>QuestionCreationComponent&#45;&gt;SourcingModule</title>
<path fill="none" stroke="black" d="M7736,-122.29C7736,-144.21 7736,-178 7736,-178 7736,-178 4148.19,-178 4148.19,-178"/>
<polygon fill="black" stroke="black" points="4148.19,-174.5 4138.19,-178 4148.19,-181.5 4148.19,-174.5"/>
</g>
<!-- ChapterListComponent -->
<g id="node3" class="node">
<title>ChapterListComponent</title>
<polygon fill="#ffffb3" stroke="black" points="7627.93,-122 7480.07,-122 7480.07,-86 7627.93,-86 7627.93,-122"/>
<text text-anchor="middle" x="7554" y="-99.8" font-family="Times,serif" font-size="14.00">ChapterListComponent</text>
</g>
<!-- ChapterListComponent&#45;&gt;SourcingModule -->
<g id="edge3" class="edge">
<title>ChapterListComponent&#45;&gt;SourcingModule</title>
<path fill="none" stroke="black" d="M7554,-122.04C7554,-143.66 7554,-177 7554,-177 7554,-177 4148.22,-177 4148.22,-177"/>
<polygon fill="black" stroke="black" points="4148.22,-173.5 4138.22,-177 4148.22,-180.5 4148.22,-173.5"/>
</g>
<!-- McqCreationComponent -->
<g id="node4" class="node">
<title>McqCreationComponent</title>
<polygon fill="#ffffb3" stroke="black" points="7462.7,-122 7307.3,-122 7307.3,-86 7462.7,-86 7462.7,-122"/>
<text text-anchor="middle" x="7385" y="-99.8" font-family="Times,serif" font-size="14.00">McqCreationComponent</text>
</g>
<!-- McqCreationComponent&#45;&gt;SourcingModule -->
<g id="edge4" class="edge">
<title>McqCreationComponent&#45;&gt;SourcingModule</title>
<path fill="none" stroke="black" d="M7385,-122.28C7385,-143.32 7385,-175 7385,-175 7385,-175 4148.24,-175 4148.24,-175"/>
<polygon fill="black" stroke="black" points="4148.24,-171.5 4138.24,-175 4148.24,-178.5 4148.24,-171.5"/>
</g>
<!-- CkeditorToolComponent -->
<g id="node5" class="node">
<title>CkeditorToolComponent</title>
<polygon fill="#ffffb3" stroke="black" points="7289.27,-122 7132.73,-122 7132.73,-86 7289.27,-86 7289.27,-122"/>
<text text-anchor="middle" x="7211" y="-99.8" font-family="Times,serif" font-size="14.00">CkeditorToolComponent</text>
</g>
<!-- CkeditorToolComponent&#45;&gt;SourcingModule -->
<g id="edge5" class="edge">
<title>CkeditorToolComponent&#45;&gt;SourcingModule</title>
<path fill="none" stroke="black" d="M7211,-122.03C7211,-142.77 7211,-174 7211,-174 7211,-174 4148.29,-174 4148.29,-174"/>
<polygon fill="black" stroke="black" points="4148.29,-170.5 4138.29,-174 4148.29,-177.5 4148.29,-170.5"/>
</g>
<!-- McqTemplateSelectionComponent -->
<g id="node6" class="node">
<title>McqTemplateSelectionComponent</title>
<polygon fill="#ffffb3" stroke="black" points="7114.96,-122 6903.04,-122 6903.04,-86 7114.96,-86 7114.96,-122"/>
<text text-anchor="middle" x="7009" y="-99.8" font-family="Times,serif" font-size="14.00">McqTemplateSelectionComponent</text>
</g>
<!-- McqTemplateSelectionComponent&#45;&gt;SourcingModule -->
<g id="edge6" class="edge">
<title>McqTemplateSelectionComponent&#45;&gt;SourcingModule</title>
<path fill="none" stroke="black" d="M7009,-122.13C7009,-142.57 7009,-173 7009,-173 7009,-173 4148.19,-173 4148.19,-173"/>
<polygon fill="black" stroke="black" points="4148.19,-169.5 4138.19,-173 4148.19,-176.5 4148.19,-169.5"/>
</g>
<!-- QuestionPreviewComponent -->
<g id="node7" class="node">
<title>QuestionPreviewComponent</title>
<polygon fill="#ffffb3" stroke="black" points="6884.75,-122 6707.25,-122 6707.25,-86 6884.75,-86 6884.75,-122"/>
<text text-anchor="middle" x="6796" y="-99.8" font-family="Times,serif" font-size="14.00">QuestionPreviewComponent</text>
</g>
<!-- QuestionPreviewComponent&#45;&gt;SourcingModule -->
<g id="edge7" class="edge">
<title>QuestionPreviewComponent&#45;&gt;SourcingModule</title>
<path fill="none" stroke="black" d="M6796,-122.31C6796,-142.15 6796,-171 6796,-171 6796,-171 4148.11,-171 4148.11,-171"/>
<polygon fill="black" stroke="black" points="4148.11,-167.5 4138.11,-171 4148.11,-174.5 4148.11,-167.5"/>
</g>
<!-- SanitizeHtmlPipe -->
<g id="node8" class="node">
<title>SanitizeHtmlPipe</title>
<polygon fill="#ffffb3" stroke="black" points="6689.26,-122 6574.74,-122 6574.74,-86 6689.26,-86 6689.26,-122"/>
<text text-anchor="middle" x="6632" y="-99.8" font-family="Times,serif" font-size="14.00">SanitizeHtmlPipe</text>
</g>
<!-- SanitizeHtmlPipe&#45;&gt;SourcingModule -->
<g id="edge8" class="edge">
<title>SanitizeHtmlPipe&#45;&gt;SourcingModule</title>
<path fill="none" stroke="black" d="M6632,-122.03C6632,-141.58 6632,-170 6632,-170 6632,-170 4148.31,-170 4148.31,-170"/>
<polygon fill="black" stroke="black" points="4148.31,-166.5 4138.31,-170 4148.31,-173.5 4148.31,-166.5"/>
</g>
<!-- QuestionCreationHeaderComponent -->
<g id="node9" class="node">
<title>QuestionCreationHeaderComponent</title>
<polygon fill="#ffffb3" stroke="black" points="6556.5,-122 6335.5,-122 6335.5,-86 6556.5,-86 6556.5,-122"/>
<text text-anchor="middle" x="6446" y="-99.8" font-family="Times,serif" font-size="14.00">QuestionCreationHeaderComponent</text>
</g>
<!-- QuestionCreationHeaderComponent&#45;&gt;SourcingModule -->
<g id="edge9" class="edge">
<title>QuestionCreationHeaderComponent&#45;&gt;SourcingModule</title>
<path fill="none" stroke="black" d="M6446,-122.11C6446,-141.34 6446,-169 6446,-169 6446,-169 4148.22,-169 4148.22,-169"/>
<polygon fill="black" stroke="black" points="4148.22,-165.5 4138.22,-169 4148.22,-172.5 4148.22,-165.5"/>
</g>
<!-- DashboardComponent -->
<g id="node10" class="node">
<title>DashboardComponent</title>
<polygon fill="#ffffb3" stroke="black" points="6317.97,-122 6176.03,-122 6176.03,-86 6317.97,-86 6317.97,-122"/>
<text text-anchor="middle" x="6247" y="-99.8" font-family="Times,serif" font-size="14.00">DashboardComponent</text>
</g>
<!-- DashboardComponent&#45;&gt;SourcingModule -->
<g id="edge10" class="edge">
<title>DashboardComponent&#45;&gt;SourcingModule</title>
<path fill="none" stroke="black" d="M6247,-122.22C6247,-140.83 6247,-167 6247,-167 6247,-167 4148.12,-167 4148.12,-167"/>
<polygon fill="black" stroke="black" points="4148.12,-163.5 4138.12,-167 4148.12,-170.5 4148.12,-163.5"/>
</g>
<!-- RecursiveTreeComponent -->
<g id="node11" class="node">
<title>RecursiveTreeComponent</title>
<polygon fill="#ffffb3" stroke="black" points="6158.45,-122 5995.55,-122 5995.55,-86 6158.45,-86 6158.45,-122"/>
<text text-anchor="middle" x="6077" y="-99.8" font-family="Times,serif" font-size="14.00">RecursiveTreeComponent</text>
</g>
<!-- RecursiveTreeComponent&#45;&gt;SourcingModule -->
<g id="edge11" class="edge">
<title>RecursiveTreeComponent&#45;&gt;SourcingModule</title>
<path fill="none" stroke="black" d="M6077,-122.27C6077,-140.56 6077,-166 6077,-166 6077,-166 4148.15,-166 4148.15,-166"/>
<polygon fill="black" stroke="black" points="4148.15,-162.5 4138.15,-166 4148.15,-169.5 4148.15,-162.5"/>
</g>
<!-- ContentUploaderComponent -->
<g id="node12" class="node">
<title>ContentUploaderComponent</title>
<polygon fill="#ffffb3" stroke="black" points="5977.75,-122 5800.25,-122 5800.25,-86 5977.75,-86 5977.75,-122"/>
<text text-anchor="middle" x="5889" y="-99.8" font-family="Times,serif" font-size="14.00">ContentUploaderComponent</text>
</g>
<!-- ContentUploaderComponent&#45;&gt;SourcingModule -->
<g id="edge12" class="edge">
<title>ContentUploaderComponent&#45;&gt;SourcingModule</title>
<path fill="none" stroke="black" d="M5889,-122.3C5889,-140.27 5889,-165 5889,-165 5889,-165 4148.53,-165 4148.53,-165"/>
<polygon fill="black" stroke="black" points="4148.53,-161.5 4138.53,-165 4148.53,-168.5 4148.53,-161.5"/>
</g>
<!-- CollectionComponent -->
<g id="node13" class="node">
<title>CollectionComponent</title>
<polygon fill="#ffffb3" stroke="black" points="5781.66,-122 5642.34,-122 5642.34,-86 5781.66,-86 5781.66,-122"/>
<text text-anchor="middle" x="5712" y="-99.8" font-family="Times,serif" font-size="14.00">CollectionComponent</text>
</g>
<!-- CollectionComponent&#45;&gt;SourcingModule -->
<g id="edge13" class="edge">
<title>CollectionComponent&#45;&gt;SourcingModule</title>
<path fill="none" stroke="black" d="M5712,-122.02C5712,-139.37 5712,-163 5712,-163 5712,-163 4148.13,-163 4148.13,-163"/>
<polygon fill="black" stroke="black" points="4148.13,-159.5 4138.13,-163 4148.13,-166.5 4148.13,-159.5"/>
</g>
<!-- ResourceReorderComponent -->
<g id="node14" class="node">
<title>ResourceReorderComponent</title>
<polygon fill="#ffffb3" stroke="black" points="5624.01,-122 5445.99,-122 5445.99,-86 5624.01,-86 5624.01,-122"/>
<text text-anchor="middle" x="5535" y="-99.8" font-family="Times,serif" font-size="14.00">ResourceReorderComponent</text>
</g>
<!-- ResourceReorderComponent&#45;&gt;SourcingModule -->
<g id="edge14" class="edge">
<title>ResourceReorderComponent&#45;&gt;SourcingModule</title>
<path fill="none" stroke="black" d="M5535,-122.03C5535,-139.06 5535,-162 5535,-162 5535,-162 4148.15,-162 4148.15,-162"/>
<polygon fill="black" stroke="black" points="4148.15,-158.5 4138.15,-162 4148.15,-165.5 4148.15,-158.5"/>
</g>
<!-- ContentEditorComponent -->
<g id="node15" class="node">
<title>ContentEditorComponent</title>
<polygon fill="#ffffb3" stroke="black" points="5427.16,-122 5266.84,-122 5266.84,-86 5427.16,-86 5427.16,-122"/>
<text text-anchor="middle" x="5347" y="-99.8" font-family="Times,serif" font-size="14.00">ContentEditorComponent</text>
</g>
<!-- ContentEditorComponent&#45;&gt;SourcingModule -->
<g id="edge15" class="edge">
<title>ContentEditorComponent&#45;&gt;SourcingModule</title>
<path fill="none" stroke="black" d="M5347,-122.04C5347,-138.73 5347,-161 5347,-161 5347,-161 4148.13,-161 4148.13,-161"/>
<polygon fill="black" stroke="black" points="4148.13,-157.5 4138.13,-161 4148.13,-164.5 4148.13,-157.5"/>
</g>
<!-- MvcLibraryComponent -->
<g id="node16" class="node">
<title>MvcLibraryComponent</title>
<polygon fill="#ffffb3" stroke="black" points="5248.47,-122 5099.53,-122 5099.53,-86 5248.47,-86 5248.47,-122"/>
<text text-anchor="middle" x="5174" y="-99.8" font-family="Times,serif" font-size="14.00">MvcLibraryComponent</text>
</g>
<!-- MvcLibraryComponent&#45;&gt;SourcingModule -->
<g id="edge16" class="edge">
<title>MvcLibraryComponent&#45;&gt;SourcingModule</title>
<path fill="none" stroke="black" d="M5174,-122.01C5174,-138.05 5174,-159 5174,-159 5174,-159 4148.23,-159 4148.23,-159"/>
<polygon fill="black" stroke="black" points="4148.23,-155.5 4138.23,-159 4148.23,-162.5 4148.23,-155.5"/>
</g>
<!-- MvcListComponent -->
<g id="node17" class="node">
<title>MvcListComponent</title>
<polygon fill="#ffffb3" stroke="black" points="5081.27,-122 4952.73,-122 4952.73,-86 5081.27,-86 5081.27,-122"/>
<text text-anchor="middle" x="5017" y="-99.8" font-family="Times,serif" font-size="14.00">MvcListComponent</text>
</g>
<!-- MvcListComponent&#45;&gt;SourcingModule -->
<g id="edge17" class="edge">
<title>MvcListComponent&#45;&gt;SourcingModule</title>
<path fill="none" stroke="black" d="M5017,-122.28C5017,-137.95 5017,-158 5017,-158 5017,-158 4148.28,-158 4148.28,-158"/>
<polygon fill="black" stroke="black" points="4148.28,-154.5 4138.28,-158 4148.28,-161.5 4148.28,-154.5"/>
</g>
<!-- MvcFilterComponent -->
<g id="node18" class="node">
<title>MvcFilterComponent</title>
<polygon fill="#ffffb3" stroke="black" points="4934.82,-122 4797.18,-122 4797.18,-86 4934.82,-86 4934.82,-122"/>
<text text-anchor="middle" x="4866" y="-99.8" font-family="Times,serif" font-size="14.00">MvcFilterComponent</text>
</g>
<!-- MvcFilterComponent&#45;&gt;SourcingModule -->
<g id="edge18" class="edge">
<title>MvcFilterComponent&#45;&gt;SourcingModule</title>
<path fill="none" stroke="black" d="M4866,-122.24C4866,-137.57 4866,-157 4866,-157 4866,-157 4148.06,-157 4148.06,-157"/>
<polygon fill="black" stroke="black" points="4148.06,-153.5 4138.06,-157 4148.06,-160.5 4148.06,-153.5"/>
</g>
<!-- MvcPlayerComponent -->
<g id="node19" class="node">
<title>MvcPlayerComponent</title>
<polygon fill="#ffffb3" stroke="black" points="4779.25,-122 4636.75,-122 4636.75,-86 4779.25,-86 4779.25,-122"/>
<text text-anchor="middle" x="4708" y="-99.8" font-family="Times,serif" font-size="14.00">MvcPlayerComponent</text>
</g>
<!-- MvcPlayerComponent&#45;&gt;SourcingModule -->
<g id="edge19" class="edge">
<title>MvcPlayerComponent&#45;&gt;SourcingModule</title>
<path fill="none" stroke="black" d="M4708,-122.12C4708,-136.78 4708,-155 4708,-155 4708,-155 4148.19,-155 4148.19,-155"/>
<polygon fill="black" stroke="black" points="4148.19,-151.5 4138.19,-155 4148.19,-158.5 4148.19,-151.5"/>
</g>
<!-- SkeletonLoaderComponent -->
<g id="node20" class="node">
<title>SkeletonLoaderComponent</title>
<polygon fill="#ffffb3" stroke="black" points="4618.97,-122 4449.03,-122 4449.03,-86 4618.97,-86 4618.97,-122"/>
<text text-anchor="middle" x="4534" y="-99.8" font-family="Times,serif" font-size="14.00">SkeletonLoaderComponent</text>
</g>
<!-- SkeletonLoaderComponent&#45;&gt;SourcingModule -->
<g id="edge20" class="edge">
<title>SkeletonLoaderComponent&#45;&gt;SourcingModule</title>
<path fill="none" stroke="black" d="M4510.83,-122.05C4510.83,-136.37 4510.83,-154 4510.83,-154 4510.83,-154 4148.05,-154 4148.05,-154"/>
<polygon fill="black" stroke="black" points="4148.05,-150.5 4138.05,-154 4148.05,-157.5 4148.05,-150.5"/>
</g>
<!-- BulkApprovalComponent -->
<g id="node21" class="node">
<title>BulkApprovalComponent</title>
<polygon fill="#ffffb3" stroke="black" points="4430.93,-122 4269.07,-122 4269.07,-86 4430.93,-86 4430.93,-122"/>
<text text-anchor="middle" x="4350" y="-99.8" font-family="Times,serif" font-size="14.00">BulkApprovalComponent</text>
</g>
<!-- BulkApprovalComponent&#45;&gt;SourcingModule -->
<g id="edge21" class="edge">
<title>BulkApprovalComponent&#45;&gt;SourcingModule</title>
<path fill="none" stroke="black" d="M4335.38,-122.25C4335.38,-136.18 4335.38,-153 4335.38,-153 4335.38,-153 4148.07,-153 4148.07,-153"/>
<polygon fill="black" stroke="black" points="4148.07,-149.5 4138.07,-153 4148.07,-156.5 4148.07,-149.5"/>
</g>
<!-- BulkUploadComponent -->
<g id="node22" class="node">
<title>BulkUploadComponent</title>
<polygon fill="#ffffb3" stroke="black" points="4250.77,-122 4101.23,-122 4101.23,-86 4250.77,-86 4250.77,-122"/>
<text text-anchor="middle" x="4176" y="-99.8" font-family="Times,serif" font-size="14.00">BulkUploadComponent</text>
</g>
<!-- BulkUploadComponent&#45;&gt;SourcingModule -->
<g id="edge22" class="edge">
<title>BulkUploadComponent&#45;&gt;SourcingModule</title>
<path fill="none" stroke="black" d="M4119.58,-122.11C4119.58,-122.11 4119.58,-140.99 4119.58,-140.99"/>
<polygon fill="black" stroke="black" points="4116.08,-140.99 4119.58,-150.99 4123.08,-140.99 4116.08,-140.99"/>
</g>
<!-- QuestionSetEditorComponent -->
<g id="node23" class="node">
<title>QuestionSetEditorComponent</title>
<polygon fill="#ffffb3" stroke="black" points="4083.26,-122 3898.74,-122 3898.74,-86 4083.26,-86 4083.26,-122"/>
<text text-anchor="middle" x="3991" y="-99.8" font-family="Times,serif" font-size="14.00">QuestionSetEditorComponent</text>
</g>
<!-- QuestionSetEditorComponent&#45;&gt;SourcingModule -->
<g id="edge23" class="edge">
<title>QuestionSetEditorComponent&#45;&gt;SourcingModule</title>
<path fill="none" stroke="black" d="M4055.67,-122.11C4055.67,-122.11 4055.67,-140.99 4055.67,-140.99"/>
<polygon fill="black" stroke="black" points="4052.17,-140.99 4055.67,-150.99 4059.17,-140.99 4052.17,-140.99"/>
</g>
<!-- TranscriptsComponent -->
<g id="node24" class="node">
<title>TranscriptsComponent</title>
<polygon fill="#ffffb3" stroke="black" points="3880.31,-122 3735.69,-122 3735.69,-86 3880.31,-86 3880.31,-122"/>
<text text-anchor="middle" x="3808" y="-99.8" font-family="Times,serif" font-size="14.00">TranscriptsComponent</text>
</g>
<!-- TranscriptsComponent&#45;&gt;SourcingModule -->
<g id="edge24" class="edge">
<title>TranscriptsComponent&#45;&gt;SourcingModule</title>
<path fill="none" stroke="black" d="M3808,-122.25C3808,-136.18 3808,-153 3808,-153 3808,-153 4017.68,-153 4017.68,-153"/>
<polygon fill="black" stroke="black" points="4017.68,-156.5 4027.68,-153 4017.68,-149.5 4017.68,-156.5"/>
</g>
<!-- TranscriptsReviewComponent -->
<g id="node25" class="node">
<title>TranscriptsReviewComponent</title>
<polygon fill="#ffffb3" stroke="black" points="3717.57,-122 3530.43,-122 3530.43,-86 3717.57,-86 3717.57,-122"/>
<text text-anchor="middle" x="3624" y="-99.8" font-family="Times,serif" font-size="14.00">TranscriptsReviewComponent</text>
</g>
<!-- TranscriptsReviewComponent&#45;&gt;SourcingModule -->
<g id="edge25" class="edge">
<title>TranscriptsReviewComponent&#45;&gt;SourcingModule</title>
<path fill="none" stroke="black" d="M3712.83,-122.05C3712.83,-136.37 3712.83,-154 3712.83,-154 3712.83,-154 4017.58,-154 4017.58,-154"/>
<polygon fill="black" stroke="black" points="4017.58,-157.5 4027.58,-154 4017.58,-150.5 4017.58,-157.5"/>
</g>
<!-- AccessibilityInfoComponent -->
<g id="node26" class="node">
<title>AccessibilityInfoComponent</title>
<polygon fill="#ffffb3" stroke="black" points="3512.75,-122 3335.25,-122 3335.25,-86 3512.75,-86 3512.75,-122"/>
<text text-anchor="middle" x="3424" y="-99.8" font-family="Times,serif" font-size="14.00">AccessibilityInfoComponent</text>
</g>
<!-- AccessibilityInfoComponent&#45;&gt;SourcingModule -->
<g id="edge26" class="edge">
<title>AccessibilityInfoComponent&#45;&gt;SourcingModule</title>
<path fill="none" stroke="black" d="M3424,-122.12C3424,-136.78 3424,-155 3424,-155 3424,-155 4017.95,-155 4017.95,-155"/>
<polygon fill="black" stroke="black" points="4017.95,-158.5 4027.95,-155 4017.95,-151.5 4017.95,-158.5"/>
</g>
<!-- ModalPreviewComponent -->
<g id="node27" class="node">
<title>ModalPreviewComponent</title>
<polygon fill="#ffffb3" stroke="black" points="3316.75,-122 3153.25,-122 3153.25,-86 3316.75,-86 3316.75,-122"/>
<text text-anchor="middle" x="3235" y="-99.8" font-family="Times,serif" font-size="14.00">ModalPreviewComponent</text>
</g>
<!-- ModalPreviewComponent&#45;&gt;SourcingModule -->
<g id="edge27" class="edge">
<title>ModalPreviewComponent&#45;&gt;SourcingModule</title>
<path fill="none" stroke="black" d="M3235,-122.24C3235,-137.57 3235,-157 3235,-157 3235,-157 4017.69,-157 4017.69,-157"/>
<polygon fill="black" stroke="black" points="4017.69,-160.5 4027.69,-157 4017.69,-153.5 4017.69,-160.5"/>
</g>
<!-- SendReminderModalComponent -->
<g id="node28" class="node">
<title>SendReminderModalComponent</title>
<polygon fill="#ffffb3" stroke="black" points="3135.59,-122 2934.41,-122 2934.41,-86 3135.59,-86 3135.59,-122"/>
<text text-anchor="middle" x="3035" y="-99.8" font-family="Times,serif" font-size="14.00">SendReminderModalComponent</text>
</g>
<!-- SendReminderModalComponent&#45;&gt;SourcingModule -->
<g id="edge28" class="edge">
<title>SendReminderModalComponent&#45;&gt;SourcingModule</title>
<path fill="none" stroke="black" d="M3035,-122.28C3035,-137.95 3035,-158 3035,-158 3035,-158 4017.76,-158 4017.76,-158"/>
<polygon fill="black" stroke="black" points="4017.76,-161.5 4027.76,-158 4017.76,-154.5 4017.76,-161.5"/>
</g>
<!-- BulkUploadComponent  -->
<g id="node49" class="node">
<title>BulkUploadComponent </title>
<polygon fill="#fb8072" stroke="black" points="4572.77,-252 4419.23,-252 4419.23,-216 4572.77,-216 4572.77,-252"/>
<text text-anchor="middle" x="4496" y="-229.8" font-family="Times,serif" font-size="14.00">BulkUploadComponent </text>
</g>
<!-- SourcingModule&#45;&gt;BulkUploadComponent  -->
<g id="edge48" class="edge">
<title>SourcingModule&#45;&gt;BulkUploadComponent </title>
<path fill="none" stroke="black" stroke-dasharray="5,2" d="M4138.33,-185C4235.14,-185 4425.04,-185 4425.04,-185 4425.04,-185 4425.04,-205.75 4425.04,-205.75"/>
<polygon fill="black" stroke="black" points="4421.54,-205.75 4425.04,-215.75 4428.54,-205.75 4421.54,-205.75"/>
</g>
<!-- BulkApprovalComponent  -->
<g id="node50" class="node">
<title>BulkApprovalComponent </title>
<polygon fill="#fb8072" stroke="black" points="4401.43,-252 4236.57,-252 4236.57,-216 4401.43,-216 4401.43,-252"/>
<text text-anchor="middle" x="4319" y="-229.8" font-family="Times,serif" font-size="14.00">BulkApprovalComponent </text>
</g>
<!-- SourcingModule&#45;&gt;BulkApprovalComponent  -->
<g id="edge49" class="edge">
<title>SourcingModule&#45;&gt;BulkApprovalComponent </title>
<path fill="none" stroke="black" stroke-dasharray="5,2" d="M4138.31,-186C4184.79,-186 4243.71,-186 4243.71,-186 4243.71,-186 4243.71,-205.85 4243.71,-205.85"/>
<polygon fill="black" stroke="black" points="4240.21,-205.85 4243.71,-215.85 4247.21,-205.85 4240.21,-205.85"/>
</g>
<!-- SanitizeHtmlPipe  -->
<g id="node51" class="node">
<title>SanitizeHtmlPipe </title>
<polygon fill="#fb8072" stroke="black" points="4218.26,-252 4099.74,-252 4099.74,-216 4218.26,-216 4218.26,-252"/>
<text text-anchor="middle" x="4159" y="-229.8" font-family="Times,serif" font-size="14.00">SanitizeHtmlPipe </text>
</g>
<!-- SourcingModule&#45;&gt;SanitizeHtmlPipe  -->
<g id="edge50" class="edge">
<title>SourcingModule&#45;&gt;SanitizeHtmlPipe </title>
<path fill="none" stroke="black" stroke-dasharray="5,2" d="M4118.96,-187.11C4118.96,-187.11 4118.96,-205.99 4118.96,-205.99"/>
<polygon fill="black" stroke="black" points="4115.46,-205.99 4118.96,-215.99 4122.46,-205.99 4115.46,-205.99"/>
</g>
<!-- TranscriptsComponent  -->
<g id="node52" class="node">
<title>TranscriptsComponent </title>
<polygon fill="#fb8072" stroke="black" points="4081.81,-252 3934.19,-252 3934.19,-216 4081.81,-216 4081.81,-252"/>
<text text-anchor="middle" x="4008" y="-229.8" font-family="Times,serif" font-size="14.00">TranscriptsComponent </text>
</g>
<!-- SourcingModule&#45;&gt;TranscriptsComponent  -->
<g id="edge51" class="edge">
<title>SourcingModule&#45;&gt;TranscriptsComponent </title>
<path fill="none" stroke="black" stroke-dasharray="5,2" d="M4054.93,-187.11C4054.93,-187.11 4054.93,-205.99 4054.93,-205.99"/>
<polygon fill="black" stroke="black" points="4051.43,-205.99 4054.93,-215.99 4058.43,-205.99 4051.43,-205.99"/>
</g>
<!-- TranscriptsReviewComponent  -->
<g id="node53" class="node">
<title>TranscriptsReviewComponent </title>
<polygon fill="#fb8072" stroke="black" points="3916.07,-252 3725.93,-252 3725.93,-216 3916.07,-216 3916.07,-252"/>
<text text-anchor="middle" x="3821" y="-229.8" font-family="Times,serif" font-size="14.00">TranscriptsReviewComponent </text>
</g>
<!-- SourcingModule&#45;&gt;TranscriptsReviewComponent  -->
<g id="edge52" class="edge">
<title>SourcingModule&#45;&gt;TranscriptsReviewComponent </title>
<path fill="none" stroke="black" stroke-dasharray="5,2" d="M4027.94,-186C3976.45,-186 3907.45,-186 3907.45,-186 3907.45,-186 3907.45,-205.85 3907.45,-205.85"/>
<polygon fill="black" stroke="black" points="3903.95,-205.85 3907.45,-215.85 3910.95,-205.85 3903.95,-205.85"/>
</g>
<!-- QuestionSetEditorComponent  -->
<g id="node54" class="node">
<title>QuestionSetEditorComponent </title>
<polygon fill="#fb8072" stroke="black" points="3708.26,-252 3519.74,-252 3519.74,-216 3708.26,-216 3708.26,-252"/>
<text text-anchor="middle" x="3614" y="-229.8" font-family="Times,serif" font-size="14.00">QuestionSetEditorComponent </text>
</g>
<!-- SourcingModule&#45;&gt;QuestionSetEditorComponent  -->
<g id="edge53" class="edge">
<title>SourcingModule&#45;&gt;QuestionSetEditorComponent </title>
<path fill="none" stroke="black" stroke-dasharray="5,2" d="M4027.53,-185C3904.45,-185 3619.3,-185 3619.3,-185 3619.3,-185 3619.3,-205.75 3619.3,-205.75"/>
<polygon fill="black" stroke="black" points="3615.8,-205.75 3619.3,-215.75 3622.8,-205.75 3615.8,-205.75"/>
</g>
<!-- RouterModule -->
<g id="node30" class="node">
<title>RouterModule</title>
<polygon fill="#8dd3c7" stroke="black" points="2909.65,-122 2906.65,-126 2885.65,-126 2882.65,-122 2812.35,-122 2812.35,-86 2909.65,-86 2909.65,-122"/>
<text text-anchor="middle" x="2861" y="-99.8" font-family="Times,serif" font-size="14.00">RouterModule</text>
</g>
<!-- RouterModule&#45;&gt;SourcingModule -->
<g id="edge29" class="edge">
<title>RouterModule&#45;&gt;SourcingModule</title>
<path fill="none" stroke="black" d="M2861,-122.01C2861,-138.05 2861,-159 2861,-159 2861,-159 4017.72,-159 4017.72,-159"/>
<polygon fill="black" stroke="black" points="4017.72,-162.5 4027.72,-159 4017.72,-155.5 4017.72,-162.5"/>
</g>
<!-- CoreModule -->
<g id="node31" class="node">
<title>CoreModule</title>
<polygon fill="#8dd3c7" stroke="black" points="2794.26,-122 2791.26,-126 2770.26,-126 2767.26,-122 2707.74,-122 2707.74,-86 2794.26,-86 2794.26,-122"/>
<text text-anchor="middle" x="2751" y="-99.8" font-family="Times,serif" font-size="14.00">CoreModule</text>
</g>
<!-- CoreModule&#45;&gt;SourcingModule -->
<g id="edge30" class="edge">
<title>CoreModule&#45;&gt;SourcingModule</title>
<path fill="none" stroke="black" d="M2751,-122.04C2751,-138.73 2751,-161 2751,-161 2751,-161 4017.88,-161 4017.88,-161"/>
<polygon fill="black" stroke="black" points="4017.88,-164.5 4027.88,-161 4017.88,-157.5 4017.88,-164.5"/>
</g>
<!-- CommonModule -->
<g id="node32" class="node">
<title>CommonModule</title>
<polygon fill="#8dd3c7" stroke="black" points="2689.67,-122 2686.67,-126 2665.67,-126 2662.67,-122 2578.33,-122 2578.33,-86 2689.67,-86 2689.67,-122"/>
<text text-anchor="middle" x="2634" y="-99.8" font-family="Times,serif" font-size="14.00">CommonModule</text>
</g>
<!-- CommonModule&#45;&gt;SourcingModule -->
<g id="edge31" class="edge">
<title>CommonModule&#45;&gt;SourcingModule</title>
<path fill="none" stroke="black" d="M2634,-122.03C2634,-139.06 2634,-162 2634,-162 2634,-162 4017.53,-162 4017.53,-162"/>
<polygon fill="black" stroke="black" points="4017.53,-165.5 4027.53,-162 4017.53,-158.5 4017.53,-165.5"/>
</g>
<!-- SuiTabsModule -->
<g id="node33" class="node">
<title>SuiTabsModule</title>
<polygon fill="#8dd3c7" stroke="black" points="2559.94,-122 2556.94,-126 2535.94,-126 2532.94,-122 2454.06,-122 2454.06,-86 2559.94,-86 2559.94,-122"/>
<text text-anchor="middle" x="2507" y="-99.8" font-family="Times,serif" font-size="14.00">SuiTabsModule</text>
</g>
<!-- SuiTabsModule&#45;&gt;SourcingModule -->
<g id="edge32" class="edge">
<title>SuiTabsModule&#45;&gt;SourcingModule</title>
<path fill="none" stroke="black" d="M2507,-122.02C2507,-139.37 2507,-163 2507,-163 2507,-163 4017.83,-163 4017.83,-163"/>
<polygon fill="black" stroke="black" points="4017.83,-166.5 4027.83,-163 4017.83,-159.5 4017.83,-166.5"/>
</g>
<!-- SuiModule -->
<g id="node34" class="node">
<title>SuiModule</title>
<polygon fill="#8dd3c7" stroke="black" points="2436.22,-122 2433.22,-126 2412.22,-126 2409.22,-122 2357.78,-122 2357.78,-86 2436.22,-86 2436.22,-122"/>
<text text-anchor="middle" x="2397" y="-99.8" font-family="Times,serif" font-size="14.00">SuiModule</text>
</g>
<!-- SuiModule&#45;&gt;SourcingModule -->
<g id="edge33" class="edge">
<title>SuiModule&#45;&gt;SourcingModule</title>
<path fill="none" stroke="black" d="M2397,-122.3C2397,-140.27 2397,-165 2397,-165 2397,-165 4017.86,-165 4017.86,-165"/>
<polygon fill="black" stroke="black" points="4017.86,-168.5 4027.86,-165 4017.86,-161.5 4017.86,-168.5"/>
</g>
<!-- ReactiveFormsModule -->
<g id="node35" class="node">
<title>ReactiveFormsModule</title>
<polygon fill="#8dd3c7" stroke="black" points="2340.3,-122 2337.3,-126 2316.3,-126 2313.3,-122 2195.7,-122 2195.7,-86 2340.3,-86 2340.3,-122"/>
<text text-anchor="middle" x="2268" y="-99.8" font-family="Times,serif" font-size="14.00">ReactiveFormsModule</text>
</g>
<!-- ReactiveFormsModule&#45;&gt;SourcingModule -->
<g id="edge34" class="edge">
<title>ReactiveFormsModule&#45;&gt;SourcingModule</title>
<path fill="none" stroke="black" d="M2268,-122.27C2268,-140.56 2268,-166 2268,-166 2268,-166 4017.69,-166 4017.69,-166"/>
<polygon fill="black" stroke="black" points="4017.69,-169.5 4027.69,-166 4017.69,-162.5 4017.69,-169.5"/>
</g>
<!-- FormsModule -->
<g id="node36" class="node">
<title>FormsModule</title>
<polygon fill="#8dd3c7" stroke="black" points="2177.83,-122 2174.83,-126 2153.83,-126 2150.83,-122 2082.17,-122 2082.17,-86 2177.83,-86 2177.83,-122"/>
<text text-anchor="middle" x="2130" y="-99.8" font-family="Times,serif" font-size="14.00">FormsModule</text>
</g>
<!-- FormsModule&#45;&gt;SourcingModule -->
<g id="edge35" class="edge">
<title>FormsModule&#45;&gt;SourcingModule</title>
<path fill="none" stroke="black" d="M2130,-122.22C2130,-140.83 2130,-167 2130,-167 2130,-167 4017.7,-167 4017.7,-167"/>
<polygon fill="black" stroke="black" points="4017.7,-170.5 4027.7,-167 4017.7,-163.5 4017.7,-170.5"/>
</g>
<!-- SharedModule -->
<g id="node37" class="node">
<title>SharedModule</title>
<polygon fill="#8dd3c7" stroke="black" points="2064.42,-122 2061.42,-126 2040.42,-126 2037.42,-122 1965.58,-122 1965.58,-86 2064.42,-86 2064.42,-122"/>
<text text-anchor="middle" x="2015" y="-99.8" font-family="Times,serif" font-size="14.00">SharedModule</text>
</g>
<!-- SharedModule&#45;&gt;SourcingModule -->
<g id="edge36" class="edge">
<title>SharedModule&#45;&gt;SourcingModule</title>
<path fill="none" stroke="black" d="M2015,-122.11C2015,-141.34 2015,-169 2015,-169 2015,-169 4017.69,-169 4017.69,-169"/>
<polygon fill="black" stroke="black" points="4017.69,-172.5 4027.69,-169 4017.69,-165.5 4017.69,-172.5"/>
</g>
<!-- InfiniteScrollModule -->
<g id="node38" class="node">
<title>InfiniteScrollModule</title>
<polygon fill="#8dd3c7" stroke="black" points="1948.2,-122 1945.2,-126 1924.2,-126 1921.2,-122 1813.8,-122 1813.8,-86 1948.2,-86 1948.2,-122"/>
<text text-anchor="middle" x="1881" y="-99.8" font-family="Times,serif" font-size="14.00">InfiniteScrollModule</text>
</g>
<!-- InfiniteScrollModule&#45;&gt;SourcingModule -->
<g id="edge37" class="edge">
<title>InfiniteScrollModule&#45;&gt;SourcingModule</title>
<path fill="none" stroke="black" d="M1881,-122.03C1881,-141.58 1881,-170 1881,-170 1881,-170 4017.74,-170 4017.74,-170"/>
<polygon fill="black" stroke="black" points="4017.74,-173.5 4027.74,-170 4017.74,-166.5 4017.74,-173.5"/>
</g>
<!-- SharedFeatureModule -->
<g id="node39" class="node">
<title>SharedFeatureModule</title>
<polygon fill="#8dd3c7" stroke="black" points="1796.4,-122 1793.4,-126 1772.4,-126 1769.4,-122 1655.6,-122 1655.6,-86 1796.4,-86 1796.4,-122"/>
<text text-anchor="middle" x="1726" y="-99.8" font-family="Times,serif" font-size="14.00">SharedFeatureModule</text>
</g>
<!-- SharedFeatureModule&#45;&gt;SourcingModule -->
<g id="edge38" class="edge">
<title>SharedFeatureModule&#45;&gt;SourcingModule</title>
<path fill="none" stroke="black" d="M1726,-122.31C1726,-142.15 1726,-171 1726,-171 1726,-171 4017.92,-171 4017.92,-171"/>
<polygon fill="black" stroke="black" points="4017.92,-174.5 4027.92,-171 4017.92,-167.5 4017.92,-174.5"/>
</g>
<!-- QumlLibraryModule -->
<g id="node40" class="node">
<title>QumlLibraryModule</title>
<polygon fill="#8dd3c7" stroke="black" points="1637.92,-122 1634.92,-126 1613.92,-126 1610.92,-122 1504.08,-122 1504.08,-86 1637.92,-86 1637.92,-122"/>
<text text-anchor="middle" x="1571" y="-99.8" font-family="Times,serif" font-size="14.00">QumlLibraryModule</text>
</g>
<!-- QumlLibraryModule&#45;&gt;SourcingModule -->
<g id="edge39" class="edge">
<title>QumlLibraryModule&#45;&gt;SourcingModule</title>
<path fill="none" stroke="black" d="M1571,-122.13C1571,-142.57 1571,-173 1571,-173 1571,-173 4017.9,-173 4017.9,-173"/>
<polygon fill="black" stroke="black" points="4017.9,-176.5 4027.9,-173 4017.9,-169.5 4017.9,-176.5"/>
</g>
<!-- PlayerHelperModule -->
<g id="node41" class="node">
<title>PlayerHelperModule</title>
<polygon fill="#8dd3c7" stroke="black" points="1486.9,-122 1483.9,-126 1462.9,-126 1459.9,-122 1353.1,-122 1353.1,-86 1486.9,-86 1486.9,-122"/>
<text text-anchor="middle" x="1420" y="-99.8" font-family="Times,serif" font-size="14.00">PlayerHelperModule</text>
</g>
<!-- PlayerHelperModule&#45;&gt;SourcingModule -->
<g id="edge40" class="edge">
<title>PlayerHelperModule&#45;&gt;SourcingModule</title>
<path fill="none" stroke="black" d="M1420,-122.03C1420,-142.77 1420,-174 1420,-174 1420,-174 4017.69,-174 4017.69,-174"/>
<polygon fill="black" stroke="black" points="4017.69,-177.5 4027.69,-174 4017.69,-170.5 4017.69,-177.5"/>
</g>
<!-- TelemetryModule -->
<g id="node42" class="node">
<title>TelemetryModule</title>
<polygon fill="#8dd3c7" stroke="black" points="1335.58,-122 1332.58,-126 1311.58,-126 1308.58,-122 1218.42,-122 1218.42,-86 1335.58,-86 1335.58,-122"/>
<text text-anchor="middle" x="1277" y="-99.8" font-family="Times,serif" font-size="14.00">TelemetryModule</text>
</g>
<!-- TelemetryModule&#45;&gt;SourcingModule -->
<g id="edge41" class="edge">
<title>TelemetryModule&#45;&gt;SourcingModule</title>
<path fill="none" stroke="black" d="M1277,-122.28C1277,-143.32 1277,-175 1277,-175 1277,-175 4017.89,-175 4017.89,-175"/>
<polygon fill="black" stroke="black" points="4017.89,-178.5 4027.89,-175 4017.89,-171.5 4017.89,-178.5"/>
</g>
<!-- SourcingRoutingModule -->
<g id="node43" class="node">
<title>SourcingRoutingModule</title>
<polygon fill="#8dd3c7" stroke="black" points="1200.72,-122 1197.72,-126 1176.72,-126 1173.72,-122 1045.28,-122 1045.28,-86 1200.72,-86 1200.72,-122"/>
<text text-anchor="middle" x="1123" y="-99.8" font-family="Times,serif" font-size="14.00">SourcingRoutingModule</text>
</g>
<!-- SourcingRoutingModule&#45;&gt;SourcingModule -->
<g id="edge42" class="edge">
<title>SourcingRoutingModule&#45;&gt;SourcingModule</title>
<path fill="none" stroke="black" d="M1123,-122.04C1123,-143.66 1123,-177 1123,-177 1123,-177 4017.81,-177 4017.81,-177"/>
<polygon fill="black" stroke="black" points="4017.81,-180.5 4027.81,-177 4017.81,-173.5 4017.81,-180.5"/>
</g>
<!-- DynamicModule.withComponents(args) -->
<g id="node44" class="node">
<title>DynamicModule.withComponents(args)</title>
<polygon fill="#8dd3c7" stroke="black" points="1027.17,-122 1024.17,-126 1003.17,-126 1000.17,-122 784.83,-122 784.83,-86 1027.17,-86 1027.17,-122"/>
<text text-anchor="middle" x="906" y="-99.8" font-family="Times,serif" font-size="14.00">DynamicModule.withComponents(args)</text>
</g>
<!-- DynamicModule.withComponents(args)&#45;&gt;SourcingModule -->
<g id="edge43" class="edge">
<title>DynamicModule.withComponents(args)&#45;&gt;SourcingModule</title>
<path fill="none" stroke="black" d="M906,-122.29C906,-144.21 906,-178 906,-178 906,-178 4017.86,-178 4017.86,-178"/>
<polygon fill="black" stroke="black" points="4017.86,-181.5 4027.86,-178 4017.86,-174.5 4017.86,-181.5"/>
</g>
<!-- CollectionEditorLibraryModule -->
<g id="node45" class="node">
<title>CollectionEditorLibraryModule</title>
<polygon fill="#8dd3c7" stroke="black" points="766.35,-122 763.35,-126 742.35,-126 739.35,-122 571.65,-122 571.65,-86 766.35,-86 766.35,-122"/>
<text text-anchor="middle" x="669" y="-99.8" font-family="Times,serif" font-size="14.00">CollectionEditorLibraryModule</text>
</g>
<!-- CollectionEditorLibraryModule&#45;&gt;SourcingModule -->
<g id="edge44" class="edge">
<title>CollectionEditorLibraryModule&#45;&gt;SourcingModule</title>
<path fill="none" stroke="black" d="M669,-122.16C669,-144.35 669,-179 669,-179 669,-179 4017.64,-179 4017.64,-179"/>
<polygon fill="black" stroke="black" points="4017.64,-182.5 4027.64,-179 4017.64,-175.5 4017.64,-182.5"/>
</g>
<!-- CarouselModule.forRoot() -->
<g id="node46" class="node">
<title>CarouselModule.forRoot()</title>
<polygon fill="#8dd3c7" stroke="black" points="553.68,-122 550.68,-126 529.68,-126 526.68,-122 388.32,-122 388.32,-86 553.68,-86 553.68,-122"/>
<text text-anchor="middle" x="471" y="-99.8" font-family="Times,serif" font-size="14.00">CarouselModule.forRoot()</text>
</g>
<!-- CarouselModule.forRoot()&#45;&gt;SourcingModule -->
<g id="edge45" class="edge">
<title>CarouselModule.forRoot()&#45;&gt;SourcingModule</title>
<path fill="none" stroke="black" d="M471,-122.25C471,-145.02 471,-181 471,-181 471,-181 4017.71,-181 4017.71,-181"/>
<polygon fill="black" stroke="black" points="4017.71,-184.5 4027.71,-181 4017.71,-177.5 4017.71,-184.5"/>
</g>
<!-- ResourceLibraryModule -->
<g id="node47" class="node">
<title>ResourceLibraryModule</title>
<polygon fill="#8dd3c7" stroke="black" points="369.61,-122 366.61,-126 345.61,-126 342.61,-122 216.39,-122 216.39,-86 369.61,-86 369.61,-122"/>
<text text-anchor="middle" x="293" y="-99.8" font-family="Times,serif" font-size="14.00">ResourceLibraryModule</text>
</g>
<!-- ResourceLibraryModule&#45;&gt;SourcingModule -->
<g id="edge46" class="edge">
<title>ResourceLibraryModule&#45;&gt;SourcingModule</title>
<path fill="none" stroke="black" d="M293,-122.09C293,-145.13 293,-182 293,-182 293,-182 4017.59,-182 4017.59,-182"/>
<polygon fill="black" stroke="black" points="4017.59,-185.5 4027.59,-182 4017.59,-178.5 4017.59,-185.5"/>
</g>
<!-- SunbirdVideoPlayerModule -->
<g id="node48" class="node">
<title>SunbirdVideoPlayerModule</title>
<polygon fill="#8dd3c7" stroke="black" points="197.86,-122 194.86,-126 173.86,-126 170.86,-122 24.14,-122 24.14,-86 197.86,-86 197.86,-122"/>
<text text-anchor="middle" x="111" y="-99.8" font-family="Times,serif" font-size="14.00">SunbirdVideoPlayerModule</text>
</g>
<!-- SunbirdVideoPlayerModule&#45;&gt;SourcingModule -->
<g id="edge47" class="edge">
<title>SunbirdVideoPlayerModule&#45;&gt;SourcingModule</title>
<path fill="none" stroke="black" d="M111,-122.32C111,-145.66 111,-183 111,-183 111,-183 4017.61,-183 4017.61,-183"/>
<polygon fill="black" stroke="black" points="4017.61,-186.5 4027.61,-183 4017.61,-179.5 4017.61,-186.5"/>
</g>
<!-- { provide: QuestionCursor, useExisting: QumlPlayerService } -->
<g id="node55" class="node">
<title>{ provide: QuestionCursor, useExisting: QumlPlayerService }</title>
<ellipse fill="#fdb462" stroke="black" cx="9029" cy="-104" rx="251.48" ry="18"/>
<text text-anchor="middle" x="9029" y="-99.8" font-family="Times,serif" font-size="14.00">{ provide: QuestionCursor, useExisting: QumlPlayerService }</text>
</g>
<!-- { provide: QuestionCursor, useExisting: QumlPlayerService }&#45;&gt;SourcingModule -->
<g id="edge54" class="edge">
<title>{ provide: QuestionCursor, useExisting: QumlPlayerService }&#45;&gt;SourcingModule</title>
<path fill="none" stroke="black" d="M9029,-122.32C9029,-145.66 9029,-183 9029,-183 9029,-183 4148.12,-183 4148.12,-183"/>
<polygon fill="black" stroke="black" points="4148.12,-179.5 4138.12,-183 4148.12,-186.5 4148.12,-179.5"/>
</g>
<!-- { provide: EditorCursor, useExisting: QumlPlayerService } -->
<g id="node56" class="node">
<title>{ provide: EditorCursor, useExisting: QumlPlayerService }</title>
<ellipse fill="#fdb462" stroke="black" cx="8519" cy="-104" rx="240.52" ry="18"/>
<text text-anchor="middle" x="8519" y="-99.8" font-family="Times,serif" font-size="14.00">{ provide: EditorCursor, useExisting: QumlPlayerService }</text>
</g>
<!-- { provide: EditorCursor, useExisting: QumlPlayerService }&#45;&gt;SourcingModule -->
<g id="edge55" class="edge">
<title>{ provide: EditorCursor, useExisting: QumlPlayerService }&#45;&gt;SourcingModule</title>
<path fill="none" stroke="black" d="M8519,-122.09C8519,-145.13 8519,-182 8519,-182 8519,-182 4148.28,-182 4148.28,-182"/>
<polygon fill="black" stroke="black" points="4148.28,-178.5 4138.28,-182 4148.28,-185.5 4148.28,-178.5"/>
</g>
<!-- CollectionHierarchyService -->
<g id="node57" class="node">
<title>CollectionHierarchyService</title>
<ellipse fill="#fdb462" stroke="black" cx="8141" cy="-104" rx="118.65" ry="18"/>
<text text-anchor="middle" x="8141" y="-99.8" font-family="Times,serif" font-size="14.00">CollectionHierarchyService</text>
</g>
<!-- CollectionHierarchyService&#45;&gt;SourcingModule -->
<g id="edge56" class="edge">
<title>CollectionHierarchyService&#45;&gt;SourcingModule</title>
<path fill="none" stroke="black" d="M8141,-122.25C8141,-145.02 8141,-181 8141,-181 8141,-181 4148.06,-181 4148.06,-181"/>
<polygon fill="black" stroke="black" points="4148.06,-177.5 4138.06,-181 4148.06,-184.5 4148.06,-177.5"/>
</g>
</g>
</svg>
