<?xml version="1.0" encoding="UTF-8" standalone="no"?>
<!DOCTYPE svg PUBLIC "-//W3C//DTD SVG 1.1//EN"
 "http://www.w3.org/Graphics/SVG/1.1/DTD/svg11.dtd">
<!-- Generated by graphviz version 2.47.0 (20210316.0004)
 -->
<!-- Title: dependencies Pages: 1 -->
<svg width="2620pt" height="284pt"
 viewBox="0.00 0.00 2620.00 284.00" xmlns="http://www.w3.org/2000/svg" xmlns:xlink="http://www.w3.org/1999/xlink">
<g id="graph0" class="graph" transform="scale(1 1) rotate(0) translate(4 280)">
<title>dependencies</title>
<polygon fill="white" stroke="transparent" points="-4,4 -4,-280 2616,-280 2616,4 -4,4"/>
<text text-anchor="start" x="1285.01" y="-42.4" font-family="Times-12" font-weight="bold" font-size="14.00">Legend</text>
<polygon fill="#ffffb3" stroke="transparent" points="1072,-10 1072,-30 1092,-30 1092,-10 1072,-10"/>
<text text-anchor="start" x="1095.63" y="-15.4" font-family="Times-12" font-size="14.00"> &#160;Declarations</text>
<polygon fill="#8dd3c7" stroke="transparent" points="1185,-10 1185,-30 1205,-30 1205,-10 1185,-10"/>
<text text-anchor="start" x="1208.73" y="-15.4" font-family="Times-12" font-size="14.00"> &#160;Module</text>
<polygon fill="#80b1d3" stroke="transparent" points="1271,-10 1271,-30 1291,-30 1291,-10 1271,-10"/>
<text text-anchor="start" x="1294.78" y="-15.4" font-family="Times-12" font-size="14.00"> &#160;Bootstrap</text>
<polygon fill="#fdb462" stroke="transparent" points="1368,-10 1368,-30 1388,-30 1388,-10 1368,-10"/>
<text text-anchor="start" x="1391.67" y="-15.4" font-family="Times-12" font-size="14.00"> &#160;Providers</text>
<polygon fill="#fb8072" stroke="transparent" points="1464,-10 1464,-30 1484,-30 1484,-10 1464,-10"/>
<text text-anchor="start" x="1487.73" y="-15.4" font-family="Times-12" font-size="14.00"> &#160;Exports</text>
<g id="clust1" class="cluster">
<title>cluster_ExploreModule</title>
<polygon fill="none" stroke="black" stroke-dasharray="1,5" points="8,-70 8,-268 2604,-268 2604,-70 8,-70"/>
</g>
<g id="clust2" class="cluster">
<title>cluster_ExploreModule_declarations</title>
<polygon fill="none" stroke="black" points="2266,-78 2266,-130 2596,-130 2596,-78 2266,-78"/>
</g>
<g id="clust6" class="cluster">
<title>cluster_ExploreModule_exports</title>
<polygon fill="none" stroke="black" points="1243,-208 1243,-260 1389,-260 1389,-208 1243,-208"/>
</g>
<g id="clust5" class="cluster">
<title>cluster_ExploreModule_imports</title>
<polygon fill="none" stroke="black" points="16,-78 16,-130 2258,-130 2258,-78 16,-78"/>
</g>
<!-- ExploreContentComponent -->
<g id="node1" class="node">
<title>ExploreContentComponent</title>
<polygon fill="#ffffb3" stroke="black" points="2587.98,-122 2418.02,-122 2418.02,-86 2587.98,-86 2587.98,-122"/>
<text text-anchor="middle" x="2503" y="-99.8" font-family="Times,serif" font-size="14.00">ExploreContentComponent</text>
</g>
<!-- ExploreModule -->
<g id="node3" class="node">
<title>ExploreModule</title>
<polygon fill="#8dd3c7" stroke="black" points="1367.87,-187 1364.87,-191 1343.87,-191 1340.87,-187 1264.13,-187 1264.13,-151 1367.87,-151 1367.87,-187"/>
<text text-anchor="middle" x="1316" y="-164.8" font-family="Times,serif" font-size="14.00">ExploreModule</text>
</g>
<!-- ExploreContentComponent&#45;&gt;ExploreModule -->
<g id="edge1" class="edge">
<title>ExploreContentComponent&#45;&gt;ExploreModule</title>
<path fill="none" stroke="black" d="M2503,-122.32C2503,-145.66 2503,-183 2503,-183 2503,-183 1378.15,-183 1378.15,-183"/>
<polygon fill="black" stroke="black" points="1378.15,-179.5 1368.15,-183 1378.15,-186.5 1378.15,-179.5"/>
</g>
<!-- ExploreComponent -->
<g id="node2" class="node">
<title>ExploreComponent</title>
<polygon fill="#ffffb3" stroke="black" points="2399.65,-122 2274.35,-122 2274.35,-86 2399.65,-86 2399.65,-122"/>
<text text-anchor="middle" x="2337" y="-99.8" font-family="Times,serif" font-size="14.00">ExploreComponent</text>
</g>
<!-- ExploreComponent&#45;&gt;ExploreModule -->
<g id="edge2" class="edge">
<title>ExploreComponent&#45;&gt;ExploreModule</title>
<path fill="none" stroke="black" d="M2337,-122.16C2337,-144.35 2337,-179 2337,-179 2337,-179 1378.04,-179 1378.04,-179"/>
<polygon fill="black" stroke="black" points="1378.04,-175.5 1368.04,-179 1378.04,-182.5 1378.04,-175.5"/>
</g>
<!-- ExploreComponent  -->
<g id="node20" class="node">
<title>ExploreComponent </title>
<polygon fill="#fb8072" stroke="black" points="1380.65,-252 1251.35,-252 1251.35,-216 1380.65,-216 1380.65,-252"/>
<text text-anchor="middle" x="1316" y="-229.8" font-family="Times,serif" font-size="14.00">ExploreComponent </text>
</g>
<!-- ExploreModule&#45;&gt;ExploreComponent  -->
<g id="edge19" class="edge">
<title>ExploreModule&#45;&gt;ExploreComponent </title>
<path fill="none" stroke="black" stroke-dasharray="5,2" d="M1316,-187.11C1316,-187.11 1316,-205.99 1316,-205.99"/>
<polygon fill="black" stroke="black" points="1312.5,-205.99 1316,-215.99 1319.5,-205.99 1312.5,-205.99"/>
</g>
<!-- CommonModule -->
<g id="node4" class="node">
<title>CommonModule</title>
<polygon fill="#8dd3c7" stroke="black" points="2249.67,-122 2246.67,-126 2225.67,-126 2222.67,-122 2138.33,-122 2138.33,-86 2249.67,-86 2249.67,-122"/>
<text text-anchor="middle" x="2194" y="-99.8" font-family="Times,serif" font-size="14.00">CommonModule</text>
</g>
<!-- CommonModule&#45;&gt;ExploreModule -->
<g id="edge3" class="edge">
<title>CommonModule&#45;&gt;ExploreModule</title>
<path fill="none" stroke="black" d="M2194,-122.28C2194,-143.32 2194,-175 2194,-175 2194,-175 1377.97,-175 1377.97,-175"/>
<polygon fill="black" stroke="black" points="1377.97,-171.5 1367.97,-175 1377.97,-178.5 1377.97,-171.5"/>
</g>
<!-- TelemetryModule -->
<g id="node5" class="node">
<title>TelemetryModule</title>
<polygon fill="#8dd3c7" stroke="black" points="2120.58,-122 2117.58,-126 2096.58,-126 2093.58,-122 2003.42,-122 2003.42,-86 2120.58,-86 2120.58,-122"/>
<text text-anchor="middle" x="2062" y="-99.8" font-family="Times,serif" font-size="14.00">TelemetryModule</text>
</g>
<!-- TelemetryModule&#45;&gt;ExploreModule -->
<g id="edge4" class="edge">
<title>TelemetryModule&#45;&gt;ExploreModule</title>
<path fill="none" stroke="black" d="M2062,-122.31C2062,-142.15 2062,-171 2062,-171 2062,-171 1378.16,-171 1378.16,-171"/>
<polygon fill="black" stroke="black" points="1378.16,-167.5 1368.16,-171 1378.16,-174.5 1378.16,-167.5"/>
</g>
<!-- CoreModule -->
<g id="node6" class="node">
<title>CoreModule</title>
<polygon fill="#8dd3c7" stroke="black" points="1985.26,-122 1982.26,-126 1961.26,-126 1958.26,-122 1898.74,-122 1898.74,-86 1985.26,-86 1985.26,-122"/>
<text text-anchor="middle" x="1942" y="-99.8" font-family="Times,serif" font-size="14.00">CoreModule</text>
</g>
<!-- CoreModule&#45;&gt;ExploreModule -->
<g id="edge5" class="edge">
<title>CoreModule&#45;&gt;ExploreModule</title>
<path fill="none" stroke="black" d="M1942,-122.22C1942,-140.83 1942,-167 1942,-167 1942,-167 1378.03,-167 1378.03,-167"/>
<polygon fill="black" stroke="black" points="1378.03,-163.5 1368.03,-167 1378.03,-170.5 1378.03,-163.5"/>
</g>
<!-- SharedModule -->
<g id="node7" class="node">
<title>SharedModule</title>
<polygon fill="#8dd3c7" stroke="black" points="1880.42,-122 1877.42,-126 1856.42,-126 1853.42,-122 1781.58,-122 1781.58,-86 1880.42,-86 1880.42,-122"/>
<text text-anchor="middle" x="1831" y="-99.8" font-family="Times,serif" font-size="14.00">SharedModule</text>
</g>
<!-- SharedModule&#45;&gt;ExploreModule -->
<g id="edge6" class="edge">
<title>SharedModule&#45;&gt;ExploreModule</title>
<path fill="none" stroke="black" d="M1831,-122.02C1831,-139.37 1831,-163 1831,-163 1831,-163 1378.22,-163 1378.22,-163"/>
<polygon fill="black" stroke="black" points="1378.22,-159.5 1368.22,-163 1378.22,-166.5 1378.22,-159.5"/>
</g>
<!-- ExploreRoutingModule -->
<g id="node8" class="node">
<title>ExploreRoutingModule</title>
<polygon fill="#8dd3c7" stroke="black" points="1763.49,-122 1760.49,-126 1739.49,-126 1736.49,-122 1614.51,-122 1614.51,-86 1763.49,-86 1763.49,-122"/>
<text text-anchor="middle" x="1689" y="-99.8" font-family="Times,serif" font-size="14.00">ExploreRoutingModule</text>
</g>
<!-- ExploreRoutingModule&#45;&gt;ExploreModule -->
<g id="edge7" class="edge">
<title>ExploreRoutingModule&#45;&gt;ExploreModule</title>
<path fill="none" stroke="black" d="M1689,-122.01C1689,-138.05 1689,-159 1689,-159 1689,-159 1378.26,-159 1378.26,-159"/>
<polygon fill="black" stroke="black" points="1378.26,-155.5 1368.26,-159 1378.26,-162.5 1378.26,-155.5"/>
</g>
<!-- SharedFeatureModule -->
<g id="node9" class="node">
<title>SharedFeatureModule</title>
<polygon fill="#8dd3c7" stroke="black" points="1596.4,-122 1593.4,-126 1572.4,-126 1569.4,-122 1455.6,-122 1455.6,-86 1596.4,-86 1596.4,-122"/>
<text text-anchor="middle" x="1526" y="-99.8" font-family="Times,serif" font-size="14.00">SharedFeatureModule</text>
</g>
<!-- SharedFeatureModule&#45;&gt;ExploreModule -->
<g id="edge8" class="edge">
<title>SharedFeatureModule&#45;&gt;ExploreModule</title>
<path fill="none" stroke="black" d="M1526,-122.12C1526,-136.78 1526,-155 1526,-155 1526,-155 1377.91,-155 1377.91,-155"/>
<polygon fill="black" stroke="black" points="1377.91,-151.5 1367.91,-155 1377.91,-158.5 1377.91,-151.5"/>
</g>
<!-- SuiSelectModule -->
<g id="node10" class="node">
<title>SuiSelectModule</title>
<polygon fill="#8dd3c7" stroke="black" points="1438.43,-122 1435.43,-126 1414.43,-126 1411.43,-122 1325.57,-122 1325.57,-86 1438.43,-86 1438.43,-122"/>
<text text-anchor="middle" x="1382" y="-99.8" font-family="Times,serif" font-size="14.00">SuiSelectModule</text>
</g>
<!-- SuiSelectModule&#45;&gt;ExploreModule -->
<g id="edge9" class="edge">
<title>SuiSelectModule&#45;&gt;ExploreModule</title>
<path fill="none" stroke="black" d="M1346.86,-122.11C1346.86,-122.11 1346.86,-140.99 1346.86,-140.99"/>
<polygon fill="black" stroke="black" points="1343.36,-140.99 1346.86,-150.99 1350.36,-140.99 1343.36,-140.99"/>
</g>
<!-- SuiModalModule -->
<g id="node11" class="node">
<title>SuiModalModule</title>
<polygon fill="#8dd3c7" stroke="black" points="1307.27,-122 1304.27,-126 1283.27,-126 1280.27,-122 1192.73,-122 1192.73,-86 1307.27,-86 1307.27,-122"/>
<text text-anchor="middle" x="1250" y="-99.8" font-family="Times,serif" font-size="14.00">SuiModalModule</text>
</g>
<!-- SuiModalModule&#45;&gt;ExploreModule -->
<g id="edge10" class="edge">
<title>SuiModalModule&#45;&gt;ExploreModule</title>
<path fill="none" stroke="black" d="M1285.73,-122.11C1285.73,-122.11 1285.73,-140.99 1285.73,-140.99"/>
<polygon fill="black" stroke="black" points="1282.23,-140.99 1285.73,-150.99 1289.23,-140.99 1282.23,-140.99"/>
</g>
<!-- SuiAccordionModule -->
<g id="node12" class="node">
<title>SuiAccordionModule</title>
<polygon fill="#8dd3c7" stroke="black" points="1174.81,-122 1171.81,-126 1150.81,-126 1147.81,-122 1037.19,-122 1037.19,-86 1174.81,-86 1174.81,-122"/>
<text text-anchor="middle" x="1106" y="-99.8" font-family="Times,serif" font-size="14.00">SuiAccordionModule</text>
</g>
<!-- SuiAccordionModule&#45;&gt;ExploreModule -->
<g id="edge11" class="edge">
<title>SuiAccordionModule&#45;&gt;ExploreModule</title>
<path fill="none" stroke="black" d="M1106,-122.12C1106,-136.78 1106,-155 1106,-155 1106,-155 1254.09,-155 1254.09,-155"/>
<polygon fill="black" stroke="black" points="1254.09,-158.5 1264.09,-155 1254.09,-151.5 1254.09,-158.5"/>
</g>
<!-- SuiPopupModule -->
<g id="node13" class="node">
<title>SuiPopupModule</title>
<polygon fill="#8dd3c7" stroke="black" points="1019.01,-122 1016.01,-126 995.01,-126 992.01,-122 904.99,-122 904.99,-86 1019.01,-86 1019.01,-122"/>
<text text-anchor="middle" x="962" y="-99.8" font-family="Times,serif" font-size="14.00">SuiPopupModule</text>
</g>
<!-- SuiPopupModule&#45;&gt;ExploreModule -->
<g id="edge12" class="edge">
<title>SuiPopupModule&#45;&gt;ExploreModule</title>
<path fill="none" stroke="black" d="M962,-122.01C962,-138.05 962,-159 962,-159 962,-159 1253.77,-159 1253.77,-159"/>
<polygon fill="black" stroke="black" points="1253.77,-162.5 1263.77,-159 1253.77,-155.5 1253.77,-162.5"/>
</g>
<!-- SuiDropdownModule -->
<g id="node14" class="node">
<title>SuiDropdownModule</title>
<polygon fill="#8dd3c7" stroke="black" points="887.1,-122 884.1,-126 863.1,-126 860.1,-122 748.9,-122 748.9,-86 887.1,-86 887.1,-122"/>
<text text-anchor="middle" x="818" y="-99.8" font-family="Times,serif" font-size="14.00">SuiDropdownModule</text>
</g>
<!-- SuiDropdownModule&#45;&gt;ExploreModule -->
<g id="edge13" class="edge">
<title>SuiDropdownModule&#45;&gt;ExploreModule</title>
<path fill="none" stroke="black" d="M818,-122.02C818,-139.37 818,-163 818,-163 818,-163 1254.11,-163 1254.11,-163"/>
<polygon fill="black" stroke="black" points="1254.11,-166.5 1264.11,-163 1254.11,-159.5 1254.11,-166.5"/>
</g>
<!-- SuiProgressModule -->
<g id="node15" class="node">
<title>SuiProgressModule</title>
<polygon fill="#8dd3c7" stroke="black" points="731.43,-122 728.43,-126 707.43,-126 704.43,-122 604.57,-122 604.57,-86 731.43,-86 731.43,-122"/>
<text text-anchor="middle" x="668" y="-99.8" font-family="Times,serif" font-size="14.00">SuiProgressModule</text>
</g>
<!-- SuiProgressModule&#45;&gt;ExploreModule -->
<g id="edge14" class="edge">
<title>SuiProgressModule&#45;&gt;ExploreModule</title>
<path fill="none" stroke="black" d="M668,-122.22C668,-140.83 668,-167 668,-167 668,-167 1254.07,-167 1254.07,-167"/>
<polygon fill="black" stroke="black" points="1254.07,-170.5 1264.07,-167 1254.07,-163.5 1254.07,-170.5"/>
</g>
<!-- SuiRatingModule -->
<g id="node16" class="node">
<title>SuiRatingModule</title>
<polygon fill="#8dd3c7" stroke="black" points="586.56,-122 583.56,-126 562.56,-126 559.56,-122 471.44,-122 471.44,-86 586.56,-86 586.56,-122"/>
<text text-anchor="middle" x="529" y="-99.8" font-family="Times,serif" font-size="14.00">SuiRatingModule</text>
</g>
<!-- SuiRatingModule&#45;&gt;ExploreModule -->
<g id="edge15" class="edge">
<title>SuiRatingModule&#45;&gt;ExploreModule</title>
<path fill="none" stroke="black" d="M529,-122.31C529,-142.15 529,-171 529,-171 529,-171 1254.06,-171 1254.06,-171"/>
<polygon fill="black" stroke="black" points="1254.06,-174.5 1264.06,-171 1254.06,-167.5 1254.06,-174.5"/>
</g>
<!-- SuiCollapseModule -->
<g id="node17" class="node">
<title>SuiCollapseModule</title>
<polygon fill="#8dd3c7" stroke="black" points="453.71,-122 450.71,-126 429.71,-126 426.71,-122 326.29,-122 326.29,-86 453.71,-86 453.71,-122"/>
<text text-anchor="middle" x="390" y="-99.8" font-family="Times,serif" font-size="14.00">SuiCollapseModule</text>
</g>
<!-- SuiCollapseModule&#45;&gt;ExploreModule -->
<g id="edge16" class="edge">
<title>SuiCollapseModule&#45;&gt;ExploreModule</title>
<path fill="none" stroke="black" d="M390,-122.28C390,-143.32 390,-175 390,-175 390,-175 1253.9,-175 1253.9,-175"/>
<polygon fill="black" stroke="black" points="1253.9,-178.5 1263.9,-175 1253.9,-171.5 1253.9,-178.5"/>
</g>
<!-- SuiDimmerModule -->
<g id="node18" class="node">
<title>SuiDimmerModule</title>
<polygon fill="#8dd3c7" stroke="black" points="308.38,-122 305.38,-126 284.38,-126 281.38,-122 183.62,-122 183.62,-86 308.38,-86 308.38,-122"/>
<text text-anchor="middle" x="246" y="-99.8" font-family="Times,serif" font-size="14.00">SuiDimmerModule</text>
</g>
<!-- SuiDimmerModule&#45;&gt;ExploreModule -->
<g id="edge17" class="edge">
<title>SuiDimmerModule&#45;&gt;ExploreModule</title>
<path fill="none" stroke="black" d="M246,-122.16C246,-144.35 246,-179 246,-179 246,-179 1254.03,-179 1254.03,-179"/>
<polygon fill="black" stroke="black" points="1254.03,-182.5 1264.03,-179 1254.03,-175.5 1254.03,-182.5"/>
</g>
<!-- WebExtensionModule -->
<g id="node19" class="node">
<title>WebExtensionModule</title>
<polygon fill="#8dd3c7" stroke="black" points="165.97,-122 162.97,-126 141.97,-126 138.97,-122 24.03,-122 24.03,-86 165.97,-86 165.97,-122"/>
<text text-anchor="middle" x="95" y="-99.8" font-family="Times,serif" font-size="14.00">WebExtensionModule</text>
</g>
<!-- WebExtensionModule&#45;&gt;ExploreModule -->
<g id="edge18" class="edge">
<title>WebExtensionModule&#45;&gt;ExploreModule</title>
<path fill="none" stroke="black" d="M95,-122.32C95,-145.66 95,-183 95,-183 95,-183 1253.93,-183 1253.93,-183"/>
<polygon fill="black" stroke="black" points="1253.93,-186.5 1263.93,-183 1253.93,-179.5 1253.93,-186.5"/>
</g>
</g>
</svg>
