<?xml version="1.0" encoding="UTF-8" standalone="no"?>
<!DOCTYPE svg PUBLIC "-//W3C//DTD SVG 1.1//EN"
 "http://www.w3.org/Graphics/SVG/1.1/DTD/svg11.dtd">
<!-- Generated by graphviz version 2.47.0 (20210316.0004)
 -->
<!-- Title: dependencies Pages: 1 -->
<svg width="1423pt" height="211pt"
 viewBox="0.00 0.00 1423.00 211.00" xmlns="http://www.w3.org/2000/svg" xmlns:xlink="http://www.w3.org/1999/xlink">
<g id="graph0" class="graph" transform="scale(1 1) rotate(0) translate(4 207)">
<title>dependencies</title>
<polygon fill="white" stroke="transparent" points="-4,4 -4,-207 1419,-207 1419,4 -4,4"/>
<text text-anchor="start" x="686.51" y="-42.4" font-family="Times-12" font-weight="bold" font-size="14.00">Legend</text>
<polygon fill="#ffffb3" stroke="transparent" points="473.5,-10 473.5,-30 493.5,-30 493.5,-10 473.5,-10"/>
<text text-anchor="start" x="497.13" y="-15.4" font-family="Times-12" font-size="14.00"> &#160;Declarations</text>
<polygon fill="#8dd3c7" stroke="transparent" points="586.5,-10 586.5,-30 606.5,-30 606.5,-10 586.5,-10"/>
<text text-anchor="start" x="610.23" y="-15.4" font-family="Times-12" font-size="14.00"> &#160;Module</text>
<polygon fill="#80b1d3" stroke="transparent" points="672.5,-10 672.5,-30 692.5,-30 692.5,-10 672.5,-10"/>
<text text-anchor="start" x="696.28" y="-15.4" font-family="Times-12" font-size="14.00"> &#160;Bootstrap</text>
<polygon fill="#fdb462" stroke="transparent" points="769.5,-10 769.5,-30 789.5,-30 789.5,-10 769.5,-10"/>
<text text-anchor="start" x="793.17" y="-15.4" font-family="Times-12" font-size="14.00"> &#160;Providers</text>
<polygon fill="#fb8072" stroke="transparent" points="865.5,-10 865.5,-30 885.5,-30 885.5,-10 865.5,-10"/>
<text text-anchor="start" x="889.23" y="-15.4" font-family="Times-12" font-size="14.00"> &#160;Exports</text>
<g id="clust1" class="cluster">
<title>cluster_PlayerModule</title>
<polygon fill="none" stroke="black" stroke-dasharray="1,5" points="8,-70 8,-195 1407,-195 1407,-70 8,-70"/>
</g>
<g id="clust2" class="cluster">
<title>cluster_PlayerModule_declarations</title>
<polygon fill="none" stroke="black" points="1028,-78 1028,-130 1399,-130 1399,-78 1028,-78"/>
</g>
<g id="clust5" class="cluster">
<title>cluster_PlayerModule_imports</title>
<polygon fill="none" stroke="black" points="16,-78 16,-130 1020,-130 1020,-78 16,-78"/>
</g>
<!-- CollectionPlayerComponent -->
<g id="node1" class="node">
<title>CollectionPlayerComponent</title>
<polygon fill="#ffffb3" stroke="black" points="1390.92,-122 1215.08,-122 1215.08,-86 1390.92,-86 1390.92,-122"/>
<text text-anchor="middle" x="1303" y="-99.8" font-family="Times,serif" font-size="14.00">CollectionPlayerComponent</text>
</g>
<!-- PlayerModule -->
<g id="node3" class="node">
<title>PlayerModule</title>
<polygon fill="#8dd3c7" stroke="black" points="689.81,-187 686.81,-191 665.81,-191 662.81,-187 594.19,-187 594.19,-151 689.81,-151 689.81,-187"/>
<text text-anchor="middle" x="642" y="-164.8" font-family="Times,serif" font-size="14.00">PlayerModule</text>
</g>
<!-- CollectionPlayerComponent&#45;&gt;PlayerModule -->
<g id="edge1" class="edge">
<title>CollectionPlayerComponent&#45;&gt;PlayerModule</title>
<path fill="none" stroke="black" d="M1303,-122.01C1303,-144.49 1303,-180 1303,-180 1303,-180 699.8,-180 699.8,-180"/>
<polygon fill="black" stroke="black" points="699.8,-176.5 689.8,-180 699.8,-183.5 699.8,-176.5"/>
</g>
<!-- ContentPlayerComponent -->
<g id="node2" class="node">
<title>ContentPlayerComponent</title>
<polygon fill="#ffffb3" stroke="black" points="1197.93,-122 1036.07,-122 1036.07,-86 1197.93,-86 1197.93,-122"/>
<text text-anchor="middle" x="1117" y="-99.8" font-family="Times,serif" font-size="14.00">ContentPlayerComponent</text>
</g>
<!-- ContentPlayerComponent&#45;&gt;PlayerModule -->
<g id="edge2" class="edge">
<title>ContentPlayerComponent&#45;&gt;PlayerModule</title>
<path fill="none" stroke="black" d="M1117,-122.13C1117,-142.57 1117,-173 1117,-173 1117,-173 699.72,-173 699.72,-173"/>
<polygon fill="black" stroke="black" points="699.72,-169.5 689.72,-173 699.72,-176.5 699.72,-169.5"/>
</g>
<!-- CommonModule -->
<g id="node4" class="node">
<title>CommonModule</title>
<polygon fill="#8dd3c7" stroke="black" points="1011.67,-122 1008.67,-126 987.67,-126 984.67,-122 900.33,-122 900.33,-86 1011.67,-86 1011.67,-122"/>
<text text-anchor="middle" x="956" y="-99.8" font-family="Times,serif" font-size="14.00">CommonModule</text>
</g>
<!-- CommonModule&#45;&gt;PlayerModule -->
<g id="edge3" class="edge">
<title>CommonModule&#45;&gt;PlayerModule</title>
<path fill="none" stroke="black" d="M956,-122.27C956,-140.56 956,-166 956,-166 956,-166 699.69,-166 699.69,-166"/>
<polygon fill="black" stroke="black" points="699.69,-162.5 689.69,-166 699.69,-169.5 699.69,-162.5"/>
</g>
<!-- SuiModule -->
<g id="node5" class="node">
<title>SuiModule</title>
<polygon fill="#8dd3c7" stroke="black" points="882.22,-122 879.22,-126 858.22,-126 855.22,-122 803.78,-122 803.78,-86 882.22,-86 882.22,-122"/>
<text text-anchor="middle" x="843" y="-99.8" font-family="Times,serif" font-size="14.00">SuiModule</text>
</g>
<!-- SuiModule&#45;&gt;PlayerModule -->
<g id="edge4" class="edge">
<title>SuiModule&#45;&gt;PlayerModule</title>
<path fill="none" stroke="black" d="M843,-122.01C843,-138.05 843,-159 843,-159 843,-159 699.89,-159 699.89,-159"/>
<polygon fill="black" stroke="black" points="699.89,-155.5 689.89,-159 699.89,-162.5 699.89,-155.5"/>
</g>
<!-- PlayerRoutingModule -->
<g id="node6" class="node">
<title>PlayerRoutingModule</title>
<polygon fill="#8dd3c7" stroke="black" points="786.43,-122 783.43,-126 762.43,-126 759.43,-122 645.57,-122 645.57,-86 786.43,-86 786.43,-122"/>
<text text-anchor="middle" x="716" y="-99.8" font-family="Times,serif" font-size="14.00">PlayerRoutingModule</text>
</g>
<!-- PlayerRoutingModule&#45;&gt;PlayerModule -->
<g id="edge5" class="edge">
<title>PlayerRoutingModule&#45;&gt;PlayerModule</title>
<path fill="none" stroke="black" d="M667.72,-122.11C667.72,-122.11 667.72,-140.99 667.72,-140.99"/>
<polygon fill="black" stroke="black" points="664.22,-140.99 667.72,-150.99 671.22,-140.99 664.22,-140.99"/>
</g>
<!-- TelemetryModule -->
<g id="node7" class="node">
<title>TelemetryModule</title>
<polygon fill="#8dd3c7" stroke="black" points="627.58,-122 624.58,-126 603.58,-126 600.58,-122 510.42,-122 510.42,-86 627.58,-86 627.58,-122"/>
<text text-anchor="middle" x="569" y="-99.8" font-family="Times,serif" font-size="14.00">TelemetryModule</text>
</g>
<!-- TelemetryModule&#45;&gt;PlayerModule -->
<g id="edge6" class="edge">
<title>TelemetryModule&#45;&gt;PlayerModule</title>
<path fill="none" stroke="black" d="M610.94,-122.11C610.94,-122.11 610.94,-140.99 610.94,-140.99"/>
<polygon fill="black" stroke="black" points="607.44,-140.99 610.94,-150.99 614.44,-140.99 607.44,-140.99"/>
</g>
<!-- FormsModule -->
<g id="node8" class="node">
<title>FormsModule</title>
<polygon fill="#8dd3c7" stroke="black" points="492.83,-122 489.83,-126 468.83,-126 465.83,-122 397.17,-122 397.17,-86 492.83,-86 492.83,-122"/>
<text text-anchor="middle" x="445" y="-99.8" font-family="Times,serif" font-size="14.00">FormsModule</text>
</g>
<!-- FormsModule&#45;&gt;PlayerModule -->
<g id="edge7" class="edge">
<title>FormsModule&#45;&gt;PlayerModule</title>
<path fill="none" stroke="black" d="M445,-122.01C445,-138.05 445,-159 445,-159 445,-159 584.31,-159 584.31,-159"/>
<polygon fill="black" stroke="black" points="584.31,-162.5 594.31,-159 584.31,-155.5 584.31,-162.5"/>
</g>
<!-- SharedModule -->
<g id="node9" class="node">
<title>SharedModule</title>
<polygon fill="#8dd3c7" stroke="black" points="379.42,-122 376.42,-126 355.42,-126 352.42,-122 280.58,-122 280.58,-86 379.42,-86 379.42,-122"/>
<text text-anchor="middle" x="330" y="-99.8" font-family="Times,serif" font-size="14.00">SharedModule</text>
</g>
<!-- SharedModule&#45;&gt;PlayerModule -->
<g id="edge8" class="edge">
<title>SharedModule&#45;&gt;PlayerModule</title>
<path fill="none" stroke="black" d="M330,-122.27C330,-140.56 330,-166 330,-166 330,-166 584.27,-166 584.27,-166"/>
<polygon fill="black" stroke="black" points="584.27,-169.5 594.27,-166 584.27,-162.5 584.27,-169.5"/>
</g>
<!-- CoreModule -->
<g id="node10" class="node">
<title>CoreModule</title>
<polygon fill="#8dd3c7" stroke="black" points="262.26,-122 259.26,-126 238.26,-126 235.26,-122 175.74,-122 175.74,-86 262.26,-86 262.26,-122"/>
<text text-anchor="middle" x="219" y="-99.8" font-family="Times,serif" font-size="14.00">CoreModule</text>
</g>
<!-- CoreModule&#45;&gt;PlayerModule -->
<g id="edge9" class="edge">
<title>CoreModule&#45;&gt;PlayerModule</title>
<path fill="none" stroke="black" d="M219,-122.13C219,-142.57 219,-173 219,-173 219,-173 584.3,-173 584.3,-173"/>
<polygon fill="black" stroke="black" points="584.3,-176.5 594.3,-173 584.3,-169.5 584.3,-176.5"/>
</g>
<!-- PlayerHelperModule -->
<g id="node11" class="node">
<title>PlayerHelperModule</title>
<polygon fill="#8dd3c7" stroke="black" points="157.9,-122 154.9,-126 133.9,-126 130.9,-122 24.1,-122 24.1,-86 157.9,-86 157.9,-122"/>
<text text-anchor="middle" x="91" y="-99.8" font-family="Times,serif" font-size="14.00">PlayerHelperModule</text>
</g>
<!-- PlayerHelperModule&#45;&gt;PlayerModule -->
<g id="edge10" class="edge">
<title>PlayerHelperModule&#45;&gt;PlayerModule</title>
<path fill="none" stroke="black" d="M91,-122.01C91,-144.49 91,-180 91,-180 91,-180 584.07,-180 584.07,-180"/>
<polygon fill="black" stroke="black" points="584.07,-183.5 594.07,-180 584.07,-176.5 584.07,-183.5"/>
</g>
</g>
</svg>
