<?xml version="1.0" encoding="UTF-8" standalone="no"?>
<!DOCTYPE svg PUBLIC "-//W3C//DTD SVG 1.1//EN"
 "http://www.w3.org/Graphics/SVG/1.1/DTD/svg11.dtd">
<!-- Generated by graphviz version 2.47.0 (20210316.0004)
 -->
<!-- Title: dependencies Pages: 1 -->
<svg width="3435pt" height="349pt"
 viewBox="0.00 0.00 3435.00 349.00" xmlns="http://www.w3.org/2000/svg" xmlns:xlink="http://www.w3.org/1999/xlink">
<g id="graph0" class="graph" transform="scale(1 1) rotate(0) translate(4 345)">
<title>dependencies</title>
<polygon fill="white" stroke="transparent" points="-4,4 -4,-345 3431,-345 3431,4 -4,4"/>
<text text-anchor="start" x="1692.51" y="-42.4" font-family="Times-12" font-weight="bold" font-size="14.00">Legend</text>
<polygon fill="#ffffb3" stroke="transparent" points="1479.5,-10 1479.5,-30 1499.5,-30 1499.5,-10 1479.5,-10"/>
<text text-anchor="start" x="1503.13" y="-15.4" font-family="Times-12" font-size="14.00"> &#160;Declarations</text>
<polygon fill="#8dd3c7" stroke="transparent" points="1592.5,-10 1592.5,-30 1612.5,-30 1612.5,-10 1592.5,-10"/>
<text text-anchor="start" x="1616.23" y="-15.4" font-family="Times-12" font-size="14.00"> &#160;Module</text>
<polygon fill="#80b1d3" stroke="transparent" points="1678.5,-10 1678.5,-30 1698.5,-30 1698.5,-10 1678.5,-10"/>
<text text-anchor="start" x="1702.28" y="-15.4" font-family="Times-12" font-size="14.00"> &#160;Bootstrap</text>
<polygon fill="#fdb462" stroke="transparent" points="1775.5,-10 1775.5,-30 1795.5,-30 1795.5,-10 1775.5,-10"/>
<text text-anchor="start" x="1799.17" y="-15.4" font-family="Times-12" font-size="14.00"> &#160;Providers</text>
<polygon fill="#fb8072" stroke="transparent" points="1871.5,-10 1871.5,-30 1891.5,-30 1891.5,-10 1871.5,-10"/>
<text text-anchor="start" x="1895.23" y="-15.4" font-family="Times-12" font-size="14.00"> &#160;Exports</text>
<g id="clust1" class="cluster">
<title>cluster_ProgramModule</title>
<polygon fill="none" stroke="black" stroke-dasharray="1,5" points="8,-70 8,-333 3419,-333 3419,-70 8,-70"/>
</g>
<g id="clust5" class="cluster">
<title>cluster_ProgramModule_ProgramNominationsComponent_providers</title>
<polygon fill="none" stroke="black" points="1809,-78 1809,-195 2027,-195 2027,-78 1809,-78"/>
</g>
<g id="clust2" class="cluster">
<title>cluster_ProgramModule_declarations</title>
<polygon fill="none" stroke="black" points="2035,-143 2035,-195 3411,-195 3411,-143 2035,-143"/>
</g>
<g id="clust12" class="cluster">
<title>cluster_ProgramModule_exports</title>
<polygon fill="none" stroke="black" points="1473,-273 1473,-325 1659,-325 1659,-273 1473,-273"/>
</g>
<g id="clust11" class="cluster">
<title>cluster_ProgramModule_imports</title>
<polygon fill="none" stroke="black" points="16,-143 16,-195 1801,-195 1801,-143 16,-143"/>
</g>
<!-- OnboardPopupComponent -->
<g id="node1" class="node">
<title>OnboardPopupComponent</title>
<polygon fill="#ffffb3" stroke="black" points="3403.1,-187 3236.9,-187 3236.9,-151 3403.1,-151 3403.1,-187"/>
<text text-anchor="middle" x="3320" y="-164.8" font-family="Times,serif" font-size="14.00">OnboardPopupComponent</text>
</g>
<!-- ProgramModule -->
<g id="node9" class="node">
<title>ProgramModule</title>
<polygon fill="#8dd3c7" stroke="black" points="1619.76,-252 1616.76,-256 1595.76,-256 1592.76,-252 1512.24,-252 1512.24,-216 1619.76,-216 1619.76,-252"/>
<text text-anchor="middle" x="1566" y="-229.8" font-family="Times,serif" font-size="14.00">ProgramModule</text>
</g>
<!-- OnboardPopupComponent&#45;&gt;ProgramModule -->
<g id="edge1" class="edge">
<title>OnboardPopupComponent&#45;&gt;ProgramModule</title>
<path fill="none" stroke="black" d="M3320,-187.15C3320,-210.76 3320,-249 3320,-249 3320,-249 1629.93,-249 1629.93,-249"/>
<polygon fill="black" stroke="black" points="1629.93,-245.5 1619.93,-249 1629.93,-252.5 1629.93,-245.5"/>
</g>
<!-- CreateProgramComponent -->
<g id="node2" class="node">
<title>CreateProgramComponent</title>
<polygon fill="#ffffb3" stroke="black" points="3219.07,-187 3052.93,-187 3052.93,-151 3219.07,-151 3219.07,-187"/>
<text text-anchor="middle" x="3136" y="-164.8" font-family="Times,serif" font-size="14.00">CreateProgramComponent</text>
</g>
<!-- CreateProgramComponent&#45;&gt;ProgramModule -->
<g id="edge2" class="edge">
<title>CreateProgramComponent&#45;&gt;ProgramModule</title>
<path fill="none" stroke="black" d="M3136,-187.01C3136,-209.49 3136,-245 3136,-245 3136,-245 1630.04,-245 1630.04,-245"/>
<polygon fill="black" stroke="black" points="1630.04,-241.5 1620.04,-245 1630.04,-248.5 1630.04,-241.5"/>
</g>
<!-- ProgramNominationsComponent -->
<g id="node3" class="node">
<title>ProgramNominationsComponent</title>
<polygon fill="#ffffb3" stroke="black" points="2018.87,-187 1817.13,-187 1817.13,-151 2018.87,-151 2018.87,-187"/>
<text text-anchor="middle" x="1918" y="-164.8" font-family="Times,serif" font-size="14.00">ProgramNominationsComponent</text>
</g>
<!-- ProgramNominationsComponent&#45;&gt;ProgramModule -->
<g id="edge3" class="edge">
<title>ProgramNominationsComponent&#45;&gt;ProgramModule</title>
<path fill="none" stroke="black" d="M1918,-187.01C1918,-203.05 1918,-224 1918,-224 1918,-224 1629.84,-224 1629.84,-224"/>
<polygon fill="black" stroke="black" points="1629.84,-220.5 1619.84,-224 1629.84,-227.5 1629.84,-220.5"/>
</g>
<!-- ListContributorTextbooksComponent -->
<g id="node4" class="node">
<title>ListContributorTextbooksComponent</title>
<polygon fill="#ffffb3" stroke="black" points="3034.54,-187 2807.46,-187 2807.46,-151 3034.54,-151 3034.54,-187"/>
<text text-anchor="middle" x="2921" y="-164.8" font-family="Times,serif" font-size="14.00">ListContributorTextbooksComponent</text>
</g>
<!-- ListContributorTextbooksComponent&#45;&gt;ProgramModule -->
<g id="edge5" class="edge">
<title>ListContributorTextbooksComponent&#45;&gt;ProgramModule</title>
<path fill="none" stroke="black" d="M2921,-187.04C2921,-208.66 2921,-242 2921,-242 2921,-242 1629.95,-242 1629.95,-242"/>
<polygon fill="black" stroke="black" points="1629.95,-238.5 1619.95,-242 1629.95,-245.5 1629.95,-238.5"/>
</g>
<!-- ContributorProfilePopupComponent -->
<g id="node5" class="node">
<title>ContributorProfilePopupComponent</title>
<polygon fill="#ffffb3" stroke="black" points="2789.04,-187 2568.96,-187 2568.96,-151 2789.04,-151 2789.04,-187"/>
<text text-anchor="middle" x="2679" y="-164.8" font-family="Times,serif" font-size="14.00">ContributorProfilePopupComponent</text>
</g>
<!-- ContributorProfilePopupComponent&#45;&gt;ProgramModule -->
<g id="edge6" class="edge">
<title>ContributorProfilePopupComponent&#45;&gt;ProgramModule</title>
<path fill="none" stroke="black" d="M2679,-187.13C2679,-207.57 2679,-238 2679,-238 2679,-238 1630.06,-238 1630.06,-238"/>
<polygon fill="black" stroke="black" points="1630.06,-234.5 1620.06,-238 1630.06,-241.5 1630.06,-234.5"/>
</g>
<!-- OrgUserListComponent -->
<g id="node6" class="node">
<title>OrgUserListComponent</title>
<polygon fill="#ffffb3" stroke="black" points="2550.8,-187 2399.2,-187 2399.2,-151 2550.8,-151 2550.8,-187"/>
<text text-anchor="middle" x="2475" y="-164.8" font-family="Times,serif" font-size="14.00">OrgUserListComponent</text>
</g>
<!-- OrgUserListComponent&#45;&gt;ProgramModule -->
<g id="edge7" class="edge">
<title>OrgUserListComponent&#45;&gt;ProgramModule</title>
<path fill="none" stroke="black" d="M2475,-187.11C2475,-206.34 2475,-234 2475,-234 2475,-234 1629.8,-234 1629.8,-234"/>
<polygon fill="black" stroke="black" points="1629.8,-230.5 1619.8,-234 1629.8,-237.5 1629.8,-230.5"/>
</g>
<!-- OrgReportsComponent -->
<g id="node7" class="node">
<title>OrgReportsComponent</title>
<polygon fill="#ffffb3" stroke="black" points="2381.15,-187 2234.85,-187 2234.85,-151 2381.15,-151 2381.15,-187"/>
<text text-anchor="middle" x="2308" y="-164.8" font-family="Times,serif" font-size="14.00">OrgReportsComponent</text>
</g>
<!-- OrgReportsComponent&#45;&gt;ProgramModule -->
<g id="edge9" class="edge">
<title>OrgReportsComponent&#45;&gt;ProgramModule</title>
<path fill="none" stroke="black" d="M2308,-187.27C2308,-205.56 2308,-231 2308,-231 2308,-231 1629.96,-231 1629.96,-231"/>
<polygon fill="black" stroke="black" points="1629.96,-227.5 1619.96,-231 1629.96,-234.5 1629.96,-227.5"/>
</g>
<!-- ContributorsListComponent -->
<g id="node8" class="node">
<title>ContributorsListComponent</title>
<polygon fill="#ffffb3" stroke="black" points="2216.89,-187 2043.11,-187 2043.11,-151 2216.89,-151 2216.89,-187"/>
<text text-anchor="middle" x="2130" y="-164.8" font-family="Times,serif" font-size="14.00">ContributorsListComponent</text>
</g>
<!-- ContributorsListComponent&#45;&gt;ProgramModule -->
<g id="edge10" class="edge">
<title>ContributorsListComponent&#45;&gt;ProgramModule</title>
<path fill="none" stroke="black" d="M2130,-187.03C2130,-204.06 2130,-227 2130,-227 2130,-227 1629.82,-227 1629.82,-227"/>
<polygon fill="black" stroke="black" points="1629.82,-223.5 1619.82,-227 1629.82,-230.5 1629.82,-223.5"/>
</g>
<!-- OnboardPopupComponent  -->
<g id="node23" class="node">
<title>OnboardPopupComponent </title>
<polygon fill="#fb8072" stroke="black" points="1650.6,-317 1481.4,-317 1481.4,-281 1650.6,-281 1650.6,-317"/>
<text text-anchor="middle" x="1566" y="-294.8" font-family="Times,serif" font-size="14.00">OnboardPopupComponent </text>
</g>
<!-- ProgramModule&#45;&gt;OnboardPopupComponent  -->
<g id="edge23" class="edge">
<title>ProgramModule&#45;&gt;OnboardPopupComponent </title>
<path fill="none" stroke="black" stroke-dasharray="5,2" d="M1566,-252.11C1566,-252.11 1566,-270.99 1566,-270.99"/>
<polygon fill="black" stroke="black" points="1562.5,-270.99 1566,-280.99 1569.5,-270.99 1562.5,-270.99"/>
</g>
<!-- DatePipe -->
<g id="node10" class="node">
<title>DatePipe</title>
<ellipse fill="#fdb462" stroke="black" cx="1945" cy="-104" rx="46.36" ry="18"/>
<text text-anchor="middle" x="1945" y="-99.8" font-family="Times,serif" font-size="14.00">DatePipe</text>
</g>
<!-- DatePipe&#45;&gt;ProgramNominationsComponent -->
<g id="edge4" class="edge">
<title>DatePipe&#45;&gt;ProgramNominationsComponent</title>
<path fill="none" stroke="black" d="M1945,-122.11C1945,-122.11 1945,-140.99 1945,-140.99"/>
<polygon fill="black" stroke="black" points="1941.5,-140.99 1945,-150.99 1948.5,-140.99 1941.5,-140.99"/>
</g>
<!-- DatePipe&#45;&gt;OrgUserListComponent -->
<g id="edge8" class="edge">
<title>DatePipe&#45;&gt;OrgUserListComponent</title>
<path fill="none" stroke="black" d="M1991.57,-104C2120.9,-104 2475,-104 2475,-104 2475,-104 2475,-140.89 2475,-140.89"/>
<polygon fill="black" stroke="black" points="2471.5,-140.89 2475,-150.89 2478.5,-140.89 2471.5,-140.89"/>
</g>
<!-- SuiModule -->
<g id="node11" class="node">
<title>SuiModule</title>
<polygon fill="#8dd3c7" stroke="black" points="1793.22,-187 1790.22,-191 1769.22,-191 1766.22,-187 1714.78,-187 1714.78,-151 1793.22,-151 1793.22,-187"/>
<text text-anchor="middle" x="1754" y="-164.8" font-family="Times,serif" font-size="14.00">SuiModule</text>
</g>
<!-- SuiModule&#45;&gt;ProgramModule -->
<g id="edge11" class="edge">
<title>SuiModule&#45;&gt;ProgramModule</title>
<path fill="none" stroke="black" d="M1754,-187.12C1754,-201.78 1754,-220 1754,-220 1754,-220 1629.87,-220 1629.87,-220"/>
<polygon fill="black" stroke="black" points="1629.87,-216.5 1619.87,-220 1629.87,-223.5 1629.87,-216.5"/>
</g>
<!-- CommonModule -->
<g id="node12" class="node">
<title>CommonModule</title>
<polygon fill="#8dd3c7" stroke="black" points="1696.67,-187 1693.67,-191 1672.67,-191 1669.67,-187 1585.33,-187 1585.33,-151 1696.67,-151 1696.67,-187"/>
<text text-anchor="middle" x="1641" y="-164.8" font-family="Times,serif" font-size="14.00">CommonModule</text>
</g>
<!-- CommonModule&#45;&gt;ProgramModule -->
<g id="edge12" class="edge">
<title>CommonModule&#45;&gt;ProgramModule</title>
<path fill="none" stroke="black" d="M1602.52,-187.11C1602.52,-187.11 1602.52,-205.99 1602.52,-205.99"/>
<polygon fill="black" stroke="black" points="1599.02,-205.99 1602.52,-215.99 1606.02,-205.99 1599.02,-205.99"/>
</g>
<!-- ProgramRoutingModule -->
<g id="node13" class="node">
<title>ProgramRoutingModule</title>
<polygon fill="#8dd3c7" stroke="black" points="1567.38,-187 1564.38,-191 1543.38,-191 1540.38,-187 1414.62,-187 1414.62,-151 1567.38,-151 1567.38,-187"/>
<text text-anchor="middle" x="1491" y="-164.8" font-family="Times,serif" font-size="14.00">ProgramRoutingModule</text>
</g>
<!-- ProgramRoutingModule&#45;&gt;ProgramModule -->
<g id="edge13" class="edge">
<title>ProgramRoutingModule&#45;&gt;ProgramModule</title>
<path fill="none" stroke="black" d="M1539.78,-187.11C1539.78,-187.11 1539.78,-205.99 1539.78,-205.99"/>
<polygon fill="black" stroke="black" points="1536.28,-205.99 1539.78,-215.99 1543.28,-205.99 1536.28,-205.99"/>
</g>
<!-- FormsModule -->
<g id="node14" class="node">
<title>FormsModule</title>
<polygon fill="#8dd3c7" stroke="black" points="1396.83,-187 1393.83,-191 1372.83,-191 1369.83,-187 1301.17,-187 1301.17,-151 1396.83,-151 1396.83,-187"/>
<text text-anchor="middle" x="1349" y="-164.8" font-family="Times,serif" font-size="14.00">FormsModule</text>
</g>
<!-- FormsModule&#45;&gt;ProgramModule -->
<g id="edge14" class="edge">
<title>FormsModule&#45;&gt;ProgramModule</title>
<path fill="none" stroke="black" d="M1349,-187.12C1349,-201.78 1349,-220 1349,-220 1349,-220 1502.08,-220 1502.08,-220"/>
<polygon fill="black" stroke="black" points="1502.08,-223.5 1512.08,-220 1502.08,-216.5 1502.08,-223.5"/>
</g>
<!-- ReactiveFormsModule -->
<g id="node15" class="node">
<title>ReactiveFormsModule</title>
<polygon fill="#8dd3c7" stroke="black" points="1283.3,-187 1280.3,-191 1259.3,-191 1256.3,-187 1138.7,-187 1138.7,-151 1283.3,-151 1283.3,-187"/>
<text text-anchor="middle" x="1211" y="-164.8" font-family="Times,serif" font-size="14.00">ReactiveFormsModule</text>
</g>
<!-- ReactiveFormsModule&#45;&gt;ProgramModule -->
<g id="edge15" class="edge">
<title>ReactiveFormsModule&#45;&gt;ProgramModule</title>
<path fill="none" stroke="black" d="M1211,-187.01C1211,-203.05 1211,-224 1211,-224 1211,-224 1502.08,-224 1502.08,-224"/>
<polygon fill="black" stroke="black" points="1502.08,-227.5 1512.08,-224 1502.08,-220.5 1502.08,-227.5"/>
</g>
<!-- SharedModule -->
<g id="node16" class="node">
<title>SharedModule</title>
<polygon fill="#8dd3c7" stroke="black" points="1121.42,-187 1118.42,-191 1097.42,-191 1094.42,-187 1022.58,-187 1022.58,-151 1121.42,-151 1121.42,-187"/>
<text text-anchor="middle" x="1072" y="-164.8" font-family="Times,serif" font-size="14.00">SharedModule</text>
</g>
<!-- SharedModule&#45;&gt;ProgramModule -->
<g id="edge16" class="edge">
<title>SharedModule&#45;&gt;ProgramModule</title>
<path fill="none" stroke="black" d="M1072,-187.03C1072,-204.06 1072,-227 1072,-227 1072,-227 1502.19,-227 1502.19,-227"/>
<polygon fill="black" stroke="black" points="1502.19,-230.5 1512.19,-227 1502.19,-223.5 1502.19,-230.5"/>
</g>
<!-- CoreModule -->
<g id="node17" class="node">
<title>CoreModule</title>
<polygon fill="#8dd3c7" stroke="black" points="1004.26,-187 1001.26,-191 980.26,-191 977.26,-187 917.74,-187 917.74,-151 1004.26,-151 1004.26,-187"/>
<text text-anchor="middle" x="961" y="-164.8" font-family="Times,serif" font-size="14.00">CoreModule</text>
</g>
<!-- CoreModule&#45;&gt;ProgramModule -->
<g id="edge17" class="edge">
<title>CoreModule&#45;&gt;ProgramModule</title>
<path fill="none" stroke="black" d="M961,-187.27C961,-205.56 961,-231 961,-231 961,-231 1502.04,-231 1502.04,-231"/>
<polygon fill="black" stroke="black" points="1502.04,-234.5 1512.04,-231 1502.04,-227.5 1502.04,-234.5"/>
</g>
<!-- TelemetryModule -->
<g id="node18" class="node">
<title>TelemetryModule</title>
<polygon fill="#8dd3c7" stroke="black" points="899.58,-187 896.58,-191 875.58,-191 872.58,-187 782.42,-187 782.42,-151 899.58,-151 899.58,-187"/>
<text text-anchor="middle" x="841" y="-164.8" font-family="Times,serif" font-size="14.00">TelemetryModule</text>
</g>
<!-- TelemetryModule&#45;&gt;ProgramModule -->
<g id="edge18" class="edge">
<title>TelemetryModule&#45;&gt;ProgramModule</title>
<path fill="none" stroke="black" d="M841,-187.11C841,-206.34 841,-234 841,-234 841,-234 1502.1,-234 1502.1,-234"/>
<polygon fill="black" stroke="black" points="1502.1,-237.5 1512.1,-234 1502.1,-230.5 1502.1,-237.5"/>
</g>
<!-- SourcingModule -->
<g id="node19" class="node">
<title>SourcingModule</title>
<polygon fill="#8dd3c7" stroke="black" points="764.1,-187 761.1,-191 740.1,-191 737.1,-187 653.9,-187 653.9,-151 764.1,-151 764.1,-187"/>
<text text-anchor="middle" x="709" y="-164.8" font-family="Times,serif" font-size="14.00">SourcingModule</text>
</g>
<!-- SourcingModule&#45;&gt;ProgramModule -->
<g id="edge19" class="edge">
<title>SourcingModule&#45;&gt;ProgramModule</title>
<path fill="none" stroke="black" d="M709,-187.13C709,-207.57 709,-238 709,-238 709,-238 1502.07,-238 1502.07,-238"/>
<polygon fill="black" stroke="black" points="1502.07,-241.5 1512.07,-238 1502.07,-234.5 1502.07,-241.5"/>
</g>
<!-- SharedFeatureModule -->
<g id="node20" class="node">
<title>SharedFeatureModule</title>
<polygon fill="#8dd3c7" stroke="black" points="636.4,-187 633.4,-191 612.4,-191 609.4,-187 495.6,-187 495.6,-151 636.4,-151 636.4,-187"/>
<text text-anchor="middle" x="566" y="-164.8" font-family="Times,serif" font-size="14.00">SharedFeatureModule</text>
</g>
<!-- SharedFeatureModule&#45;&gt;ProgramModule -->
<g id="edge20" class="edge">
<title>SharedFeatureModule&#45;&gt;ProgramModule</title>
<path fill="none" stroke="black" d="M566,-187.04C566,-208.66 566,-242 566,-242 566,-242 1502.24,-242 1502.24,-242"/>
<polygon fill="black" stroke="black" points="1502.24,-245.5 1512.24,-242 1502.24,-238.5 1502.24,-245.5"/>
</g>
<!-- CommonFormElementsModule -->
<g id="node21" class="node">
<title>CommonFormElementsModule</title>
<polygon fill="#8dd3c7" stroke="black" points="478.1,-187 475.1,-191 454.1,-191 451.1,-187 283.9,-187 283.9,-151 478.1,-151 478.1,-187"/>
<text text-anchor="middle" x="381" y="-164.8" font-family="Times,serif" font-size="14.00">CommonFormElementsModule</text>
</g>
<!-- CommonFormElementsModule&#45;&gt;ProgramModule -->
<g id="edge21" class="edge">
<title>CommonFormElementsModule&#45;&gt;ProgramModule</title>
<path fill="none" stroke="black" d="M381,-187.01C381,-209.49 381,-245 381,-245 381,-245 1502,-245 1502,-245"/>
<polygon fill="black" stroke="black" points="1502,-248.5 1512,-245 1502,-241.5 1502,-248.5"/>
</g>
<!-- DynamicModule.withComponents(args) -->
<g id="node22" class="node">
<title>DynamicModule.withComponents(args)</title>
<polygon fill="#8dd3c7" stroke="black" points="266.17,-187 263.17,-191 242.17,-191 239.17,-187 23.83,-187 23.83,-151 266.17,-151 266.17,-187"/>
<text text-anchor="middle" x="145" y="-164.8" font-family="Times,serif" font-size="14.00">DynamicModule.withComponents(args)</text>
</g>
<!-- DynamicModule.withComponents(args)&#45;&gt;ProgramModule -->
<g id="edge22" class="edge">
<title>DynamicModule.withComponents(args)&#45;&gt;ProgramModule</title>
<path fill="none" stroke="black" d="M145,-187.15C145,-210.76 145,-249 145,-249 145,-249 1502.03,-249 1502.03,-249"/>
<polygon fill="black" stroke="black" points="1502.03,-252.5 1512.03,-249 1502.03,-245.5 1502.03,-252.5"/>
</g>
</g>
</svg>
