<?xml version="1.0" encoding="UTF-8" standalone="no"?>
<!DOCTYPE svg PUBLIC "-//W3C//DTD SVG 1.1//EN"
 "http://www.w3.org/Graphics/SVG/1.1/DTD/svg11.dtd">
<!-- Generated by graphviz version 2.47.0 (20210316.0004)
 -->
<!-- Title: dependencies Pages: 1 -->
<svg width="7790pt" height="211pt"
 viewBox="0.00 0.00 7790.00 211.00" xmlns="http://www.w3.org/2000/svg" xmlns:xlink="http://www.w3.org/1999/xlink">
<g id="graph0" class="graph" transform="scale(1 1) rotate(0) translate(4 207)">
<title>dependencies</title>
<polygon fill="white" stroke="transparent" points="-4,4 -4,-207 7786,-207 7786,4 -4,4"/>
<text text-anchor="start" x="3870.01" y="-42.4" font-family="Times-12" font-weight="bold" font-size="14.00">Legend</text>
<polygon fill="#ffffb3" stroke="transparent" points="3657,-10 3657,-30 3677,-30 3677,-10 3657,-10"/>
<text text-anchor="start" x="3680.63" y="-15.4" font-family="Times-12" font-size="14.00"> &#160;Declarations</text>
<polygon fill="#8dd3c7" stroke="transparent" points="3770,-10 3770,-30 3790,-30 3790,-10 3770,-10"/>
<text text-anchor="start" x="3793.73" y="-15.4" font-family="Times-12" font-size="14.00"> &#160;Module</text>
<polygon fill="#80b1d3" stroke="transparent" points="3856,-10 3856,-30 3876,-30 3876,-10 3856,-10"/>
<text text-anchor="start" x="3879.78" y="-15.4" font-family="Times-12" font-size="14.00"> &#160;Bootstrap</text>
<polygon fill="#fdb462" stroke="transparent" points="3953,-10 3953,-30 3973,-30 3973,-10 3953,-10"/>
<text text-anchor="start" x="3976.67" y="-15.4" font-family="Times-12" font-size="14.00"> &#160;Providers</text>
<polygon fill="#fb8072" stroke="transparent" points="4049,-10 4049,-30 4069,-30 4069,-10 4049,-10"/>
<text text-anchor="start" x="4072.73" y="-15.4" font-family="Times-12" font-size="14.00"> &#160;Exports</text>
<g id="clust1" class="cluster">
<title>cluster_WorkspaceModule</title>
<polygon fill="none" stroke="black" stroke-dasharray="1,5" points="8,-70 8,-195 7774,-195 7774,-70 8,-70"/>
</g>
<g id="clust33" class="cluster">
<title>cluster_WorkspaceModule_imports</title>
<polygon fill="none" stroke="black" points="6461,-78 6461,-130 7766,-130 7766,-78 6461,-78"/>
</g>
<g id="clust36" class="cluster">
<title>cluster_WorkspaceModule_providers</title>
<polygon fill="none" stroke="black" points="5737,-78 5737,-130 6453,-130 6453,-78 5737,-78"/>
</g>
<g id="clust2" class="cluster">
<title>cluster_WorkspaceModule_declarations</title>
<polygon fill="none" stroke="black" points="16,-78 16,-130 5729,-130 5729,-78 16,-78"/>
</g>
<!-- WorkspaceComponent -->
<g id="node1" class="node">
<title>WorkspaceComponent</title>
<polygon fill="#ffffb3" stroke="black" points="5721.3,-122 5576.7,-122 5576.7,-86 5721.3,-86 5721.3,-122"/>
<text text-anchor="middle" x="5649" y="-99.8" font-family="Times,serif" font-size="14.00">WorkspaceComponent</text>
</g>
<!-- WorkspaceModule -->
<g id="node31" class="node">
<title>WorkspaceModule</title>
<polygon fill="#8dd3c7" stroke="black" points="4134.01,-187 4131.01,-191 4110.01,-191 4107.01,-187 4011.99,-187 4011.99,-151 4134.01,-151 4134.01,-187"/>
<text text-anchor="middle" x="4073" y="-164.8" font-family="Times,serif" font-size="14.00">WorkspaceModule</text>
</g>
<!-- WorkspaceComponent&#45;&gt;WorkspaceModule -->
<g id="edge1" class="edge">
<title>WorkspaceComponent&#45;&gt;WorkspaceModule</title>
<path fill="none" stroke="black" d="M5649,-122.3C5649,-140.27 5649,-165 5649,-165 5649,-165 4144.3,-165 4144.3,-165"/>
<polygon fill="black" stroke="black" points="4144.3,-161.5 4134.3,-165 4144.3,-168.5 4144.3,-161.5"/>
</g>
<!-- WorkspacesidebarComponent -->
<g id="node2" class="node">
<title>WorkspacesidebarComponent</title>
<polygon fill="#ffffb3" stroke="black" points="5558.22,-122 5373.78,-122 5373.78,-86 5558.22,-86 5558.22,-122"/>
<text text-anchor="middle" x="5466" y="-99.8" font-family="Times,serif" font-size="14.00">WorkspacesidebarComponent</text>
</g>
<!-- WorkspacesidebarComponent&#45;&gt;WorkspaceModule -->
<g id="edge2" class="edge">
<title>WorkspacesidebarComponent&#45;&gt;WorkspaceModule</title>
<path fill="none" stroke="black" d="M5466,-122.02C5466,-139.37 5466,-163 5466,-163 5466,-163 4144.2,-163 4144.2,-163"/>
<polygon fill="black" stroke="black" points="4144.2,-159.5 4134.2,-163 4144.2,-166.5 4144.2,-159.5"/>
</g>
<!-- CreateContentComponent -->
<g id="node3" class="node">
<title>CreateContentComponent</title>
<polygon fill="#ffffb3" stroke="black" points="5356.2,-122 5193.8,-122 5193.8,-86 5356.2,-86 5356.2,-122"/>
<text text-anchor="middle" x="5275" y="-99.8" font-family="Times,serif" font-size="14.00">CreateContentComponent</text>
</g>
<!-- CreateContentComponent&#45;&gt;WorkspaceModule -->
<g id="edge3" class="edge">
<title>CreateContentComponent&#45;&gt;WorkspaceModule</title>
<path fill="none" stroke="black" d="M5275,-122.03C5275,-139.06 5275,-162 5275,-162 5275,-162 4144.26,-162 4144.26,-162"/>
<polygon fill="black" stroke="black" points="4144.26,-158.5 4134.26,-162 4144.26,-165.5 4144.26,-158.5"/>
</g>
<!-- DraftComponent -->
<g id="node4" class="node">
<title>DraftComponent</title>
<polygon fill="#ffffb3" stroke="black" points="5175.37,-122 5064.63,-122 5064.63,-86 5175.37,-86 5175.37,-122"/>
<text text-anchor="middle" x="5120" y="-99.8" font-family="Times,serif" font-size="14.00">DraftComponent</text>
</g>
<!-- DraftComponent&#45;&gt;WorkspaceModule -->
<g id="edge4" class="edge">
<title>DraftComponent&#45;&gt;WorkspaceModule</title>
<path fill="none" stroke="black" d="M5120,-122.03C5120,-138.4 5120,-160 5120,-160 5120,-160 4144.2,-160 4144.2,-160"/>
<polygon fill="black" stroke="black" points="4144.2,-156.5 4134.2,-160 4144.2,-163.5 4144.2,-156.5"/>
</g>
<!-- ReviewSubmissionsComponent -->
<g id="node5" class="node">
<title>ReviewSubmissionsComponent</title>
<polygon fill="#ffffb3" stroke="black" points="5046.38,-122 4851.62,-122 4851.62,-86 5046.38,-86 5046.38,-122"/>
<text text-anchor="middle" x="4949" y="-99.8" font-family="Times,serif" font-size="14.00">ReviewSubmissionsComponent</text>
</g>
<!-- ReviewSubmissionsComponent&#45;&gt;WorkspaceModule -->
<g id="edge5" class="edge">
<title>ReviewSubmissionsComponent&#45;&gt;WorkspaceModule</title>
<path fill="none" stroke="black" d="M4949,-122.01C4949,-138.05 4949,-159 4949,-159 4949,-159 4144.25,-159 4144.25,-159"/>
<polygon fill="black" stroke="black" points="4144.25,-155.5 4134.25,-159 4144.25,-162.5 4144.25,-155.5"/>
</g>
<!-- PublishedComponent -->
<g id="node6" class="node">
<title>PublishedComponent</title>
<polygon fill="#ffffb3" stroke="black" points="4833.06,-122 4696.94,-122 4696.94,-86 4833.06,-86 4833.06,-122"/>
<text text-anchor="middle" x="4765" y="-99.8" font-family="Times,serif" font-size="14.00">PublishedComponent</text>
</g>
<!-- PublishedComponent&#45;&gt;WorkspaceModule -->
<g id="edge6" class="edge">
<title>PublishedComponent&#45;&gt;WorkspaceModule</title>
<path fill="none" stroke="black" d="M4765,-122.24C4765,-137.57 4765,-157 4765,-157 4765,-157 4144.11,-157 4144.11,-157"/>
<polygon fill="black" stroke="black" points="4144.11,-153.5 4134.11,-157 4144.11,-160.5 4144.11,-153.5"/>
</g>
<!-- UploadedComponent -->
<g id="node7" class="node">
<title>UploadedComponent</title>
<polygon fill="#ffffb3" stroke="black" points="4678.76,-122 4543.24,-122 4543.24,-86 4678.76,-86 4678.76,-122"/>
<text text-anchor="middle" x="4611" y="-99.8" font-family="Times,serif" font-size="14.00">UploadedComponent</text>
</g>
<!-- UploadedComponent&#45;&gt;WorkspaceModule -->
<g id="edge7" class="edge">
<title>UploadedComponent&#45;&gt;WorkspaceModule</title>
<path fill="none" stroke="black" d="M4611,-122.19C4611,-137.18 4611,-156 4611,-156 4611,-156 4144.19,-156 4144.19,-156"/>
<polygon fill="black" stroke="black" points="4144.19,-152.5 4134.19,-156 4144.19,-159.5 4144.19,-152.5"/>
</g>
<!-- CollectionEditorComponent -->
<g id="node8" class="node">
<title>CollectionEditorComponent</title>
<polygon fill="#ffffb3" stroke="black" points="4525.16,-122 4350.84,-122 4350.84,-86 4525.16,-86 4525.16,-122"/>
<text text-anchor="middle" x="4438" y="-99.8" font-family="Times,serif" font-size="14.00">CollectionEditorComponent</text>
</g>
<!-- CollectionEditorComponent&#45;&gt;WorkspaceModule -->
<g id="edge8" class="edge">
<title>CollectionEditorComponent&#45;&gt;WorkspaceModule</title>
<path fill="none" stroke="black" d="M4438,-122.05C4438,-136.37 4438,-154 4438,-154 4438,-154 4144.09,-154 4144.09,-154"/>
<polygon fill="black" stroke="black" points="4144.09,-150.5 4134.09,-154 4144.09,-157.5 4144.09,-150.5"/>
</g>
<!-- ContentEditorComponent -->
<g id="node9" class="node">
<title>ContentEditorComponent</title>
<polygon fill="#ffffb3" stroke="black" points="4332.16,-122 4171.84,-122 4171.84,-86 4332.16,-86 4332.16,-122"/>
<text text-anchor="middle" x="4252" y="-99.8" font-family="Times,serif" font-size="14.00">ContentEditorComponent</text>
</g>
<!-- ContentEditorComponent&#45;&gt;WorkspaceModule -->
<g id="edge9" class="edge">
<title>ContentEditorComponent&#45;&gt;WorkspaceModule</title>
<path fill="none" stroke="black" d="M4252,-122.25C4252,-136.18 4252,-153 4252,-153 4252,-153 4144.1,-153 4144.1,-153"/>
<polygon fill="black" stroke="black" points="4144.1,-149.5 4134.1,-153 4144.1,-156.5 4144.1,-149.5"/>
</g>
<!-- GenericEditorComponent -->
<g id="node10" class="node">
<title>GenericEditorComponent</title>
<polygon fill="#ffffb3" stroke="black" points="4153.13,-122 3992.87,-122 3992.87,-86 4153.13,-86 4153.13,-122"/>
<text text-anchor="middle" x="4073" y="-99.8" font-family="Times,serif" font-size="14.00">GenericEditorComponent</text>
</g>
<!-- GenericEditorComponent&#45;&gt;WorkspaceModule -->
<g id="edge10" class="edge">
<title>GenericEditorComponent&#45;&gt;WorkspaceModule</title>
<path fill="none" stroke="black" d="M4073,-122.11C4073,-122.11 4073,-140.99 4073,-140.99"/>
<polygon fill="black" stroke="black" points="4069.5,-140.99 4073,-150.99 4076.5,-140.99 4069.5,-140.99"/>
</g>
<!-- UpForReviewComponent -->
<g id="node11" class="node">
<title>UpForReviewComponent</title>
<polygon fill="#ffffb3" stroke="black" points="3974.15,-122 3813.85,-122 3813.85,-86 3974.15,-86 3974.15,-122"/>
<text text-anchor="middle" x="3894" y="-99.8" font-family="Times,serif" font-size="14.00">UpForReviewComponent</text>
</g>
<!-- UpForReviewComponent&#45;&gt;WorkspaceModule -->
<g id="edge11" class="edge">
<title>UpForReviewComponent&#45;&gt;WorkspaceModule</title>
<path fill="none" stroke="black" d="M3920.77,-122.25C3920.77,-136.18 3920.77,-153 3920.77,-153 3920.77,-153 4001.96,-153 4001.96,-153"/>
<polygon fill="black" stroke="black" points="4001.96,-156.5 4011.96,-153 4001.96,-149.5 4001.96,-156.5"/>
</g>
<!-- UpForReviewComponent&#45;&gt;WorkspaceModule -->
<g id="edge14" class="edge">
<title>UpForReviewComponent&#45;&gt;WorkspaceModule</title>
<path fill="none" stroke="black" d="M3867.23,-122.05C3867.23,-136.37 3867.23,-154 3867.23,-154 3867.23,-154 4001.82,-154 4001.82,-154"/>
<polygon fill="black" stroke="black" points="4001.82,-157.5 4011.82,-154 4001.82,-150.5 4001.82,-157.5"/>
</g>
<!-- UpforReviewFilterComponent -->
<g id="node12" class="node">
<title>UpforReviewFilterComponent</title>
<polygon fill="#ffffb3" stroke="black" points="3795.85,-122 3608.15,-122 3608.15,-86 3795.85,-86 3795.85,-122"/>
<text text-anchor="middle" x="3702" y="-99.8" font-family="Times,serif" font-size="14.00">UpforReviewFilterComponent</text>
</g>
<!-- UpforReviewFilterComponent&#45;&gt;WorkspaceModule -->
<g id="edge12" class="edge">
<title>UpforReviewFilterComponent&#45;&gt;WorkspaceModule</title>
<path fill="none" stroke="black" d="M3670.69,-122.24C3670.69,-137.57 3670.69,-157 3670.69,-157 3670.69,-157 4001.9,-157 4001.9,-157"/>
<polygon fill="black" stroke="black" points="4001.9,-160.5 4011.9,-157 4001.9,-153.5 4001.9,-160.5"/>
</g>
<!-- UpforReviewFilterComponent&#45;&gt;WorkspaceModule -->
<g id="edge15" class="edge">
<title>UpforReviewFilterComponent&#45;&gt;WorkspaceModule</title>
<path fill="none" stroke="black" d="M3733.31,-122.19C3733.31,-137.18 3733.31,-156 3733.31,-156 3733.31,-156 4001.88,-156 4001.88,-156"/>
<polygon fill="black" stroke="black" points="4001.88,-159.5 4011.88,-156 4001.88,-152.5 4001.88,-159.5"/>
</g>
<!-- DataDrivenComponent -->
<g id="node13" class="node">
<title>DataDrivenComponent</title>
<polygon fill="#ffffb3" stroke="black" points="3590.13,-122 3443.87,-122 3443.87,-86 3590.13,-86 3590.13,-122"/>
<text text-anchor="middle" x="3517" y="-99.8" font-family="Times,serif" font-size="14.00">DataDrivenComponent</text>
</g>
<!-- DataDrivenComponent&#45;&gt;WorkspaceModule -->
<g id="edge13" class="edge">
<title>DataDrivenComponent&#45;&gt;WorkspaceModule</title>
<path fill="none" stroke="black" d="M3517,-122.01C3517,-138.05 3517,-159 3517,-159 3517,-159 4001.91,-159 4001.91,-159"/>
<polygon fill="black" stroke="black" points="4001.91,-162.5 4011.91,-159 4001.91,-155.5 4001.91,-162.5"/>
</g>
<!-- DefaultTemplateComponent -->
<g id="node14" class="node">
<title>DefaultTemplateComponent</title>
<polygon fill="#ffffb3" stroke="black" points="3426.18,-122 3249.82,-122 3249.82,-86 3426.18,-86 3426.18,-122"/>
<text text-anchor="middle" x="3338" y="-99.8" font-family="Times,serif" font-size="14.00">DefaultTemplateComponent</text>
</g>
<!-- DefaultTemplateComponent&#45;&gt;WorkspaceModule -->
<g id="edge16" class="edge">
<title>DefaultTemplateComponent&#45;&gt;WorkspaceModule</title>
<path fill="none" stroke="black" d="M3338,-122.03C3338,-138.4 3338,-160 3338,-160 3338,-160 4001.91,-160 4001.91,-160"/>
<polygon fill="black" stroke="black" points="4001.91,-163.5 4011.91,-160 4001.91,-156.5 4001.91,-163.5"/>
</g>
<!-- FlaggedComponent -->
<g id="node15" class="node">
<title>FlaggedComponent</title>
<polygon fill="#ffffb3" stroke="black" points="3232.44,-122 3105.56,-122 3105.56,-86 3232.44,-86 3232.44,-122"/>
<text text-anchor="middle" x="3169" y="-99.8" font-family="Times,serif" font-size="14.00">FlaggedComponent</text>
</g>
<!-- FlaggedComponent&#45;&gt;WorkspaceModule -->
<g id="edge17" class="edge">
<title>FlaggedComponent&#45;&gt;WorkspaceModule</title>
<path fill="none" stroke="black" d="M3169,-122.03C3169,-139.06 3169,-162 3169,-162 3169,-162 4001.93,-162 4001.93,-162"/>
<polygon fill="black" stroke="black" points="4001.93,-165.5 4011.93,-162 4001.93,-158.5 4001.93,-165.5"/>
</g>
<!-- BatchListComponent -->
<g id="node16" class="node">
<title>BatchListComponent</title>
<polygon fill="#ffffb3" stroke="black" points="3087.77,-122 2952.23,-122 2952.23,-86 3087.77,-86 3087.77,-122"/>
<text text-anchor="middle" x="3020" y="-99.8" font-family="Times,serif" font-size="14.00">BatchListComponent</text>
</g>
<!-- BatchListComponent&#45;&gt;WorkspaceModule -->
<g id="edge18" class="edge">
<title>BatchListComponent&#45;&gt;WorkspaceModule</title>
<path fill="none" stroke="black" d="M3020,-122.02C3020,-139.37 3020,-163 3020,-163 3020,-163 4001.83,-163 4001.83,-163"/>
<polygon fill="black" stroke="black" points="4001.83,-166.5 4011.83,-163 4001.83,-159.5 4001.83,-166.5"/>
</g>
<!-- BatchPageSectionComponent -->
<g id="node17" class="node">
<title>BatchPageSectionComponent</title>
<polygon fill="#ffffb3" stroke="black" points="2934.69,-122 2751.31,-122 2751.31,-86 2934.69,-86 2934.69,-122"/>
<text text-anchor="middle" x="2843" y="-99.8" font-family="Times,serif" font-size="14.00">BatchPageSectionComponent</text>
</g>
<!-- BatchPageSectionComponent&#45;&gt;WorkspaceModule -->
<g id="edge19" class="edge">
<title>BatchPageSectionComponent&#45;&gt;WorkspaceModule</title>
<path fill="none" stroke="black" d="M2843,-122.3C2843,-140.27 2843,-165 2843,-165 2843,-165 4001.58,-165 4001.58,-165"/>
<polygon fill="black" stroke="black" points="4001.58,-168.5 4011.58,-165 4001.58,-161.5 4001.58,-168.5"/>
</g>
<!-- UpdateBatchComponent -->
<g id="node18" class="node">
<title>UpdateBatchComponent</title>
<polygon fill="#ffffb3" stroke="black" points="2733.42,-122 2578.58,-122 2578.58,-86 2733.42,-86 2733.42,-122"/>
<text text-anchor="middle" x="2656" y="-99.8" font-family="Times,serif" font-size="14.00">UpdateBatchComponent</text>
</g>
<!-- UpdateBatchComponent&#45;&gt;WorkspaceModule -->
<g id="edge20" class="edge">
<title>UpdateBatchComponent&#45;&gt;WorkspaceModule</title>
<path fill="none" stroke="black" d="M2656,-122.22C2656,-140.83 2656,-167 2656,-167 2656,-167 4001.66,-167 4001.66,-167"/>
<polygon fill="black" stroke="black" points="4001.66,-170.5 4011.66,-167 4001.66,-163.5 4001.66,-170.5"/>
</g>
<!-- UpforreviewContentplayerComponent -->
<g id="node19" class="node">
<title>UpforreviewContentplayerComponent</title>
<polygon fill="#ffffb3" stroke="black" points="2561.16,-122 2328.84,-122 2328.84,-86 2561.16,-86 2561.16,-122"/>
<text text-anchor="middle" x="2445" y="-99.8" font-family="Times,serif" font-size="14.00">UpforreviewContentplayerComponent</text>
</g>
<!-- UpforreviewContentplayerComponent&#45;&gt;WorkspaceModule -->
<g id="edge21" class="edge">
<title>UpforreviewContentplayerComponent&#45;&gt;WorkspaceModule</title>
<path fill="none" stroke="black" d="M2445,-122.17C2445,-141.09 2445,-168 2445,-168 2445,-168 4001.66,-168 4001.66,-168"/>
<polygon fill="black" stroke="black" points="4001.66,-171.5 4011.66,-168 4001.66,-164.5 4001.66,-171.5"/>
</g>
<!-- FlagConentplayerComponent -->
<g id="node20" class="node">
<title>FlagConentplayerComponent</title>
<polygon fill="#ffffb3" stroke="black" points="2310.64,-122 2129.36,-122 2129.36,-86 2310.64,-86 2310.64,-122"/>
<text text-anchor="middle" x="2220" y="-99.8" font-family="Times,serif" font-size="14.00">FlagConentplayerComponent</text>
</g>
<!-- FlagConentplayerComponent&#45;&gt;WorkspaceModule -->
<g id="edge22" class="edge">
<title>FlagConentplayerComponent&#45;&gt;WorkspaceModule</title>
<path fill="none" stroke="black" d="M2220,-122.11C2220,-141.34 2220,-169 2220,-169 2220,-169 4001.88,-169 4001.88,-169"/>
<polygon fill="black" stroke="black" points="4001.88,-172.5 4011.88,-169 4001.88,-165.5 4001.88,-172.5"/>
</g>
<!-- ReviewsubmissionsContentplayerComponent -->
<g id="node21" class="node">
<title>ReviewsubmissionsContentplayerComponent</title>
<polygon fill="#ffffb3" stroke="black" points="2110.86,-122 1839.14,-122 1839.14,-86 2110.86,-86 2110.86,-122"/>
<text text-anchor="middle" x="1975" y="-99.8" font-family="Times,serif" font-size="14.00">ReviewsubmissionsContentplayerComponent</text>
</g>
<!-- ReviewsubmissionsContentplayerComponent&#45;&gt;WorkspaceModule -->
<g id="edge23" class="edge">
<title>ReviewsubmissionsContentplayerComponent&#45;&gt;WorkspaceModule</title>
<path fill="none" stroke="black" d="M1975,-122.31C1975,-142.15 1975,-171 1975,-171 1975,-171 4001.91,-171 4001.91,-171"/>
<polygon fill="black" stroke="black" points="4001.91,-174.5 4011.91,-171 4001.91,-167.5 4001.91,-174.5"/>
</g>
<!-- PublishedPopupComponent -->
<g id="node22" class="node">
<title>PublishedPopupComponent</title>
<polygon fill="#ffffb3" stroke="black" points="1821.34,-122 1648.66,-122 1648.66,-86 1821.34,-86 1821.34,-122"/>
<text text-anchor="middle" x="1735" y="-99.8" font-family="Times,serif" font-size="14.00">PublishedPopupComponent</text>
</g>
<!-- PublishedPopupComponent&#45;&gt;WorkspaceModule -->
<g id="edge24" class="edge">
<title>PublishedPopupComponent&#45;&gt;WorkspaceModule</title>
<path fill="none" stroke="black" d="M1735,-122.22C1735,-142.37 1735,-172 1735,-172 1735,-172 4001.96,-172 4001.96,-172"/>
<polygon fill="black" stroke="black" points="4001.96,-175.5 4011.96,-172 4001.96,-168.5 4001.96,-175.5"/>
</g>
<!-- RequestChangesPopupComponent -->
<g id="node23" class="node">
<title>RequestChangesPopupComponent</title>
<polygon fill="#ffffb3" stroke="black" points="1631.43,-122 1420.57,-122 1420.57,-86 1631.43,-86 1631.43,-122"/>
<text text-anchor="middle" x="1526" y="-99.8" font-family="Times,serif" font-size="14.00">RequestChangesPopupComponent</text>
</g>
<!-- RequestChangesPopupComponent&#45;&gt;WorkspaceModule -->
<g id="edge25" class="edge">
<title>RequestChangesPopupComponent&#45;&gt;WorkspaceModule</title>
<path fill="none" stroke="black" d="M1526,-122.03C1526,-142.77 1526,-174 1526,-174 1526,-174 4001.93,-174 4001.93,-174"/>
<polygon fill="black" stroke="black" points="4001.93,-177.5 4011.93,-174 4001.93,-170.5 4001.93,-177.5"/>
</g>
<!-- LimitedPublishedComponent -->
<g id="node24" class="node">
<title>LimitedPublishedComponent</title>
<polygon fill="#ffffb3" stroke="black" points="1402.39,-122 1221.61,-122 1221.61,-86 1402.39,-86 1402.39,-122"/>
<text text-anchor="middle" x="1312" y="-99.8" font-family="Times,serif" font-size="14.00">LimitedPublishedComponent</text>
</g>
<!-- LimitedPublishedComponent&#45;&gt;WorkspaceModule -->
<g id="edge26" class="edge">
<title>LimitedPublishedComponent&#45;&gt;WorkspaceModule</title>
<path fill="none" stroke="black" d="M1312,-122.28C1312,-143.32 1312,-175 1312,-175 1312,-175 4001.79,-175 4001.79,-175"/>
<polygon fill="black" stroke="black" points="4001.79,-178.5 4011.79,-175 4001.79,-171.5 4001.79,-178.5"/>
</g>
<!-- AllContentComponent -->
<g id="node25" class="node">
<title>AllContentComponent</title>
<polygon fill="#ffffb3" stroke="black" points="1203.55,-122 1060.45,-122 1060.45,-86 1203.55,-86 1203.55,-122"/>
<text text-anchor="middle" x="1132" y="-99.8" font-family="Times,serif" font-size="14.00">AllContentComponent</text>
</g>
<!-- AllContentComponent&#45;&gt;WorkspaceModule -->
<g id="edge27" class="edge">
<title>AllContentComponent&#45;&gt;WorkspaceModule</title>
<path fill="none" stroke="black" d="M1132,-122.04C1132,-143.66 1132,-177 1132,-177 1132,-177 4001.91,-177 4001.91,-177"/>
<polygon fill="black" stroke="black" points="4001.91,-180.5 4011.91,-177 4001.91,-173.5 4001.91,-180.5"/>
</g>
<!-- FlagReviewerComponent -->
<g id="node26" class="node">
<title>FlagReviewerComponent</title>
<polygon fill="#ffffb3" stroke="black" points="1041.86,-122 882.14,-122 882.14,-86 1041.86,-86 1041.86,-122"/>
<text text-anchor="middle" x="962" y="-99.8" font-family="Times,serif" font-size="14.00">FlagReviewerComponent</text>
</g>
<!-- FlagReviewerComponent&#45;&gt;WorkspaceModule -->
<g id="edge28" class="edge">
<title>FlagReviewerComponent&#45;&gt;WorkspaceModule</title>
<path fill="none" stroke="black" d="M962,-122.29C962,-144.21 962,-178 962,-178 962,-178 4001.9,-178 4001.9,-178"/>
<polygon fill="black" stroke="black" points="4001.9,-181.5 4011.9,-178 4001.9,-174.5 4001.9,-181.5"/>
</g>
<!-- AllMyContentFilterComponent -->
<g id="node27" class="node">
<title>AllMyContentFilterComponent</title>
<polygon fill="#ffffb3" stroke="black" points="863.83,-122 670.17,-122 670.17,-86 863.83,-86 863.83,-122"/>
<text text-anchor="middle" x="767" y="-99.8" font-family="Times,serif" font-size="14.00">AllMyContentFilterComponent</text>
</g>
<!-- AllMyContentFilterComponent&#45;&gt;WorkspaceModule -->
<g id="edge29" class="edge">
<title>AllMyContentFilterComponent&#45;&gt;WorkspaceModule</title>
<path fill="none" stroke="black" d="M767,-122.01C767,-144.49 767,-180 767,-180 767,-180 4001.72,-180 4001.72,-180"/>
<polygon fill="black" stroke="black" points="4001.72,-183.5 4011.72,-180 4001.72,-176.5 4001.72,-183.5"/>
</g>
<!-- CollaboratingOnComponent -->
<g id="node28" class="node">
<title>CollaboratingOnComponent</title>
<polygon fill="#ffffb3" stroke="black" points="652.93,-122 477.07,-122 477.07,-86 652.93,-86 652.93,-122"/>
<text text-anchor="middle" x="565" y="-99.8" font-family="Times,serif" font-size="14.00">CollaboratingOnComponent</text>
</g>
<!-- CollaboratingOnComponent&#45;&gt;WorkspaceModule -->
<g id="edge30" class="edge">
<title>CollaboratingOnComponent&#45;&gt;WorkspaceModule</title>
<path fill="none" stroke="black" d="M565,-122.09C565,-145.13 565,-182 565,-182 565,-182 4001.74,-182 4001.74,-182"/>
<polygon fill="black" stroke="black" points="4001.74,-185.5 4011.74,-182 4001.74,-178.5 4001.74,-185.5"/>
</g>
<!-- CollaborationContentFilterComponent -->
<g id="node29" class="node">
<title>CollaborationContentFilterComponent</title>
<polygon fill="#ffffb3" stroke="black" points="459.48,-122 226.52,-122 226.52,-86 459.48,-86 459.48,-122"/>
<text text-anchor="middle" x="343" y="-99.8" font-family="Times,serif" font-size="14.00">CollaborationContentFilterComponent</text>
</g>
<!-- CollaborationContentFilterComponent&#45;&gt;WorkspaceModule -->
<g id="edge31" class="edge">
<title>CollaborationContentFilterComponent&#45;&gt;WorkspaceModule</title>
<path fill="none" stroke="black" d="M304.17,-122.15C304.17,-145.76 304.17,-184 304.17,-184 304.17,-184 4001.89,-184 4001.89,-184"/>
<polygon fill="black" stroke="black" points="4001.89,-187.5 4011.89,-184 4001.89,-180.5 4001.89,-187.5"/>
</g>
<!-- CollaborationContentFilterComponent&#45;&gt;WorkspaceModule -->
<g id="edge33" class="edge">
<title>CollaborationContentFilterComponent&#45;&gt;WorkspaceModule</title>
<path fill="none" stroke="black" d="M381.83,-122.32C381.83,-145.66 381.83,-183 381.83,-183 381.83,-183 4001.63,-183 4001.63,-183"/>
<polygon fill="black" stroke="black" points="4001.63,-186.5 4011.63,-183 4001.63,-179.5 4001.63,-186.5"/>
</g>
<!-- ReviewCommentsComponent -->
<g id="node30" class="node">
<title>ReviewCommentsComponent</title>
<polygon fill="#ffffb3" stroke="black" points="208.26,-122 23.74,-122 23.74,-86 208.26,-86 208.26,-122"/>
<text text-anchor="middle" x="116" y="-99.8" font-family="Times,serif" font-size="14.00">ReviewCommentsComponent</text>
</g>
<!-- ReviewCommentsComponent&#45;&gt;WorkspaceModule -->
<g id="edge32" class="edge">
<title>ReviewCommentsComponent&#45;&gt;WorkspaceModule</title>
<path fill="none" stroke="black" d="M116,-122.2C116,-146.36 116,-186 116,-186 116,-186 4001.64,-186 4001.64,-186"/>
<polygon fill="black" stroke="black" points="4001.64,-189.5 4011.64,-186 4001.64,-182.5 4001.64,-189.5"/>
</g>
<!-- CommonModule -->
<g id="node32" class="node">
<title>CommonModule</title>
<polygon fill="#8dd3c7" stroke="black" points="7757.67,-122 7754.67,-126 7733.67,-126 7730.67,-122 7646.33,-122 7646.33,-86 7757.67,-86 7757.67,-122"/>
<text text-anchor="middle" x="7702" y="-99.8" font-family="Times,serif" font-size="14.00">CommonModule</text>
</g>
<!-- CommonModule&#45;&gt;WorkspaceModule -->
<g id="edge34" class="edge">
<title>CommonModule&#45;&gt;WorkspaceModule</title>
<path fill="none" stroke="black" d="M7702,-122.2C7702,-146.36 7702,-186 7702,-186 7702,-186 4144.09,-186 4144.09,-186"/>
<polygon fill="black" stroke="black" points="4144.09,-182.5 4134.09,-186 4144.09,-189.5 4144.09,-182.5"/>
</g>
<!-- WorkspaceRoutingModule -->
<g id="node33" class="node">
<title>WorkspaceRoutingModule</title>
<polygon fill="#8dd3c7" stroke="black" points="7627.63,-122 7624.63,-126 7603.63,-126 7600.63,-122 7460.37,-122 7460.37,-86 7627.63,-86 7627.63,-122"/>
<text text-anchor="middle" x="7544" y="-99.8" font-family="Times,serif" font-size="14.00">WorkspaceRoutingModule</text>
</g>
<!-- WorkspaceRoutingModule&#45;&gt;WorkspaceModule -->
<g id="edge35" class="edge">
<title>WorkspaceRoutingModule&#45;&gt;WorkspaceModule</title>
<path fill="none" stroke="black" d="M7544,-122.15C7544,-145.76 7544,-184 7544,-184 7544,-184 4144.35,-184 4144.35,-184"/>
<polygon fill="black" stroke="black" points="4144.35,-180.5 4134.35,-184 4144.35,-187.5 4144.35,-180.5"/>
</g>
<!-- SharedModule -->
<g id="node34" class="node">
<title>SharedModule</title>
<polygon fill="#8dd3c7" stroke="black" points="7442.42,-122 7439.42,-126 7418.42,-126 7415.42,-122 7343.58,-122 7343.58,-86 7442.42,-86 7442.42,-122"/>
<text text-anchor="middle" x="7393" y="-99.8" font-family="Times,serif" font-size="14.00">SharedModule</text>
</g>
<!-- SharedModule&#45;&gt;WorkspaceModule -->
<g id="edge36" class="edge">
<title>SharedModule&#45;&gt;WorkspaceModule</title>
<path fill="none" stroke="black" d="M7393,-122.32C7393,-145.66 7393,-183 7393,-183 7393,-183 4144.18,-183 4144.18,-183"/>
<polygon fill="black" stroke="black" points="4144.18,-179.5 4134.18,-183 4144.18,-186.5 4144.18,-179.5"/>
</g>
<!-- SuiModule -->
<g id="node35" class="node">
<title>SuiModule</title>
<polygon fill="#8dd3c7" stroke="black" points="7326.22,-122 7323.22,-126 7302.22,-126 7299.22,-122 7247.78,-122 7247.78,-86 7326.22,-86 7326.22,-122"/>
<text text-anchor="middle" x="7287" y="-99.8" font-family="Times,serif" font-size="14.00">SuiModule</text>
</g>
<!-- SuiModule&#45;&gt;WorkspaceModule -->
<g id="edge37" class="edge">
<title>SuiModule&#45;&gt;WorkspaceModule</title>
<path fill="none" stroke="black" d="M7287,-122.09C7287,-145.13 7287,-182 7287,-182 7287,-182 4144.33,-182 4144.33,-182"/>
<polygon fill="black" stroke="black" points="4144.33,-178.5 4134.33,-182 4144.33,-185.5 4144.33,-178.5"/>
</g>
<!-- FormsModule -->
<g id="node36" class="node">
<title>FormsModule</title>
<polygon fill="#8dd3c7" stroke="black" points="7229.83,-122 7226.83,-126 7205.83,-126 7202.83,-122 7134.17,-122 7134.17,-86 7229.83,-86 7229.83,-122"/>
<text text-anchor="middle" x="7182" y="-99.8" font-family="Times,serif" font-size="14.00">FormsModule</text>
</g>
<!-- FormsModule&#45;&gt;WorkspaceModule -->
<g id="edge38" class="edge">
<title>FormsModule&#45;&gt;WorkspaceModule</title>
<path fill="none" stroke="black" d="M7182,-122.01C7182,-144.49 7182,-180 7182,-180 7182,-180 4144.06,-180 4144.06,-180"/>
<polygon fill="black" stroke="black" points="4144.06,-176.5 4134.06,-180 4144.06,-183.5 4144.06,-176.5"/>
</g>
<!-- CoreModule -->
<g id="node37" class="node">
<title>CoreModule</title>
<polygon fill="#8dd3c7" stroke="black" points="7116.26,-122 7113.26,-126 7092.26,-126 7089.26,-122 7029.74,-122 7029.74,-86 7116.26,-86 7116.26,-122"/>
<text text-anchor="middle" x="7073" y="-99.8" font-family="Times,serif" font-size="14.00">CoreModule</text>
</g>
<!-- CoreModule&#45;&gt;WorkspaceModule -->
<g id="edge39" class="edge">
<title>CoreModule&#45;&gt;WorkspaceModule</title>
<path fill="none" stroke="black" d="M7073,-122.29C7073,-144.21 7073,-178 7073,-178 7073,-178 4144.29,-178 4144.29,-178"/>
<polygon fill="black" stroke="black" points="4144.29,-174.5 4134.29,-178 4144.29,-181.5 4144.29,-174.5"/>
</g>
<!-- ReactiveFormsModule -->
<g id="node38" class="node">
<title>ReactiveFormsModule</title>
<polygon fill="#8dd3c7" stroke="black" points="7011.3,-122 7008.3,-126 6987.3,-126 6984.3,-122 6866.7,-122 6866.7,-86 7011.3,-86 7011.3,-122"/>
<text text-anchor="middle" x="6939" y="-99.8" font-family="Times,serif" font-size="14.00">ReactiveFormsModule</text>
</g>
<!-- ReactiveFormsModule&#45;&gt;WorkspaceModule -->
<g id="edge40" class="edge">
<title>ReactiveFormsModule&#45;&gt;WorkspaceModule</title>
<path fill="none" stroke="black" d="M6939,-122.04C6939,-143.66 6939,-177 6939,-177 6939,-177 4144.19,-177 4144.19,-177"/>
<polygon fill="black" stroke="black" points="4144.19,-173.5 4134.19,-177 4144.19,-180.5 4144.19,-173.5"/>
</g>
<!-- TelemetryModule -->
<g id="node39" class="node">
<title>TelemetryModule</title>
<polygon fill="#8dd3c7" stroke="black" points="6848.58,-122 6845.58,-126 6824.58,-126 6821.58,-122 6731.42,-122 6731.42,-86 6848.58,-86 6848.58,-122"/>
<text text-anchor="middle" x="6790" y="-99.8" font-family="Times,serif" font-size="14.00">TelemetryModule</text>
</g>
<!-- TelemetryModule&#45;&gt;WorkspaceModule -->
<g id="edge41" class="edge">
<title>TelemetryModule&#45;&gt;WorkspaceModule</title>
<path fill="none" stroke="black" d="M6790,-122.28C6790,-143.32 6790,-175 6790,-175 6790,-175 4144.2,-175 4144.2,-175"/>
<polygon fill="black" stroke="black" points="4144.2,-171.5 4134.2,-175 4144.2,-178.5 4144.2,-171.5"/>
</g>
<!-- OrderModule -->
<g id="node40" class="node">
<title>OrderModule</title>
<polygon fill="#8dd3c7" stroke="black" points="6713.19,-122 6710.19,-126 6689.19,-126 6686.19,-122 6620.81,-122 6620.81,-86 6713.19,-86 6713.19,-122"/>
<text text-anchor="middle" x="6667" y="-99.8" font-family="Times,serif" font-size="14.00">OrderModule</text>
</g>
<!-- OrderModule&#45;&gt;WorkspaceModule -->
<g id="edge42" class="edge">
<title>OrderModule&#45;&gt;WorkspaceModule</title>
<path fill="none" stroke="black" d="M6667,-122.03C6667,-142.77 6667,-174 6667,-174 6667,-174 4144.25,-174 4144.25,-174"/>
<polygon fill="black" stroke="black" points="4144.25,-170.5 4134.25,-174 4144.25,-177.5 4144.25,-170.5"/>
</g>
<!-- PlayerHelperModule -->
<g id="node41" class="node">
<title>PlayerHelperModule</title>
<polygon fill="#8dd3c7" stroke="black" points="6602.9,-122 6599.9,-126 6578.9,-126 6575.9,-122 6469.1,-122 6469.1,-86 6602.9,-86 6602.9,-122"/>
<text text-anchor="middle" x="6536" y="-99.8" font-family="Times,serif" font-size="14.00">PlayerHelperModule</text>
</g>
<!-- PlayerHelperModule&#45;&gt;WorkspaceModule -->
<g id="edge43" class="edge">
<title>PlayerHelperModule&#45;&gt;WorkspaceModule</title>
<path fill="none" stroke="black" d="M6536,-122.22C6536,-142.37 6536,-172 6536,-172 6536,-172 4144.19,-172 4144.19,-172"/>
<polygon fill="black" stroke="black" points="4144.19,-168.5 4134.19,-172 4144.19,-175.5 4144.19,-168.5"/>
</g>
<!-- WorkSpaceService -->
<g id="node42" class="node">
<title>WorkSpaceService</title>
<ellipse fill="#fdb462" stroke="black" cx="6360" cy="-104" rx="85.07" ry="18"/>
<text text-anchor="middle" x="6360" y="-99.8" font-family="Times,serif" font-size="14.00">WorkSpaceService</text>
</g>
<!-- WorkSpaceService&#45;&gt;WorkspaceModule -->
<g id="edge44" class="edge">
<title>WorkSpaceService&#45;&gt;WorkspaceModule</title>
<path fill="none" stroke="black" d="M6360,-122.31C6360,-142.15 6360,-171 6360,-171 6360,-171 4144.17,-171 4144.17,-171"/>
<polygon fill="black" stroke="black" points="4144.17,-167.5 4134.17,-171 4144.17,-174.5 4144.17,-167.5"/>
</g>
<!-- EditorService -->
<g id="node43" class="node">
<title>EditorService</title>
<ellipse fill="#fdb462" stroke="black" cx="6193" cy="-104" rx="64.26" ry="18"/>
<text text-anchor="middle" x="6193" y="-99.8" font-family="Times,serif" font-size="14.00">EditorService</text>
</g>
<!-- EditorService&#45;&gt;WorkspaceModule -->
<g id="edge45" class="edge">
<title>EditorService&#45;&gt;WorkspaceModule</title>
<path fill="none" stroke="black" d="M6193,-122.11C6193,-141.34 6193,-169 6193,-169 6193,-169 4144.16,-169 4144.16,-169"/>
<polygon fill="black" stroke="black" points="4144.16,-165.5 4134.16,-169 4144.16,-172.5 4144.16,-165.5"/>
</g>
<!-- BatchService -->
<g id="node44" class="node">
<title>BatchService</title>
<ellipse fill="#fdb462" stroke="black" cx="6048" cy="-104" rx="62.54" ry="18"/>
<text text-anchor="middle" x="6048" y="-99.8" font-family="Times,serif" font-size="14.00">BatchService</text>
</g>
<!-- BatchService&#45;&gt;WorkspaceModule -->
<g id="edge46" class="edge">
<title>BatchService&#45;&gt;WorkspaceModule</title>
<path fill="none" stroke="black" d="M6048,-122.17C6048,-141.09 6048,-168 6048,-168 6048,-168 4144.27,-168 4144.27,-168"/>
<polygon fill="black" stroke="black" points="4144.27,-164.5 4134.27,-168 4144.27,-171.5 4144.27,-164.5"/>
</g>
<!-- ReviewCommentsService -->
<g id="node45" class="node">
<title>ReviewCommentsService</title>
<ellipse fill="#fdb462" stroke="black" cx="5856" cy="-104" rx="111.17" ry="18"/>
<text text-anchor="middle" x="5856" y="-99.8" font-family="Times,serif" font-size="14.00">ReviewCommentsService</text>
</g>
<!-- ReviewCommentsService&#45;&gt;WorkspaceModule -->
<g id="edge47" class="edge">
<title>ReviewCommentsService&#45;&gt;WorkspaceModule</title>
<path fill="none" stroke="black" d="M5856,-122.22C5856,-140.83 5856,-167 5856,-167 5856,-167 4144.12,-167 4144.12,-167"/>
<polygon fill="black" stroke="black" points="4144.12,-163.5 4134.12,-167 4144.12,-170.5 4144.12,-163.5"/>
</g>
</g>
</svg>
