<?xml version="1.0" encoding="UTF-8" standalone="no"?>
<!DOCTYPE svg PUBLIC "-//W3C//DTD SVG 1.1//EN"
 "http://www.w3.org/Graphics/SVG/1.1/DTD/svg11.dtd">
<!-- Generated by graphviz version 2.47.0 (20210316.0004)
 -->
<!-- Title: dependencies Pages: 1 -->
<svg width="3317pt" height="284pt"
 viewBox="0.00 0.00 3317.00 284.00" xmlns="http://www.w3.org/2000/svg" xmlns:xlink="http://www.w3.org/1999/xlink">
<g id="graph0" class="graph" transform="scale(1 1) rotate(0) translate(4 280)">
<title>dependencies</title>
<polygon fill="white" stroke="transparent" points="-4,4 -4,-280 3313,-280 3313,4 -4,4"/>
<text text-anchor="start" x="1633.51" y="-42.4" font-family="Times-12" font-weight="bold" font-size="14.00">Legend</text>
<polygon fill="#ffffb3" stroke="transparent" points="1420.5,-10 1420.5,-30 1440.5,-30 1440.5,-10 1420.5,-10"/>
<text text-anchor="start" x="1444.13" y="-15.4" font-family="Times-12" font-size="14.00"> &#160;Declarations</text>
<polygon fill="#8dd3c7" stroke="transparent" points="1533.5,-10 1533.5,-30 1553.5,-30 1553.5,-10 1533.5,-10"/>
<text text-anchor="start" x="1557.23" y="-15.4" font-family="Times-12" font-size="14.00"> &#160;Module</text>
<polygon fill="#80b1d3" stroke="transparent" points="1619.5,-10 1619.5,-30 1639.5,-30 1639.5,-10 1619.5,-10"/>
<text text-anchor="start" x="1643.28" y="-15.4" font-family="Times-12" font-size="14.00"> &#160;Bootstrap</text>
<polygon fill="#fdb462" stroke="transparent" points="1716.5,-10 1716.5,-30 1736.5,-30 1736.5,-10 1716.5,-10"/>
<text text-anchor="start" x="1740.17" y="-15.4" font-family="Times-12" font-size="14.00"> &#160;Providers</text>
<polygon fill="#fb8072" stroke="transparent" points="1812.5,-10 1812.5,-30 1832.5,-30 1832.5,-10 1812.5,-10"/>
<text text-anchor="start" x="1836.23" y="-15.4" font-family="Times-12" font-size="14.00"> &#160;Exports</text>
<g id="clust1" class="cluster">
<title>cluster_ContributeModule</title>
<polygon fill="none" stroke="black" stroke-dasharray="1,5" points="8,-70 8,-268 3301,-268 3301,-70 8,-70"/>
</g>
<g id="clust8" class="cluster">
<title>cluster_ContributeModule_exports</title>
<polygon fill="none" stroke="black" points="1704,-208 1704,-260 2041,-260 2041,-208 1704,-208"/>
</g>
<g id="clust2" class="cluster">
<title>cluster_ContributeModule_declarations</title>
<polygon fill="none" stroke="black" points="2630,-78 2630,-130 3293,-130 3293,-78 2630,-78"/>
</g>
<g id="clust7" class="cluster">
<title>cluster_ContributeModule_imports</title>
<polygon fill="none" stroke="black" points="542,-78 542,-130 2622,-130 2622,-78 542,-78"/>
</g>
<g id="clust10" class="cluster">
<title>cluster_ContributeModule_providers</title>
<polygon fill="none" stroke="black" points="16,-78 16,-130 534,-130 534,-78 16,-78"/>
</g>
<!-- ProgramComponent -->
<g id="node1" class="node">
<title>ProgramComponent</title>
<polygon fill="#ffffb3" stroke="black" points="3284.54,-122 3155.46,-122 3155.46,-86 3284.54,-86 3284.54,-122"/>
<text text-anchor="middle" x="3220" y="-99.8" font-family="Times,serif" font-size="14.00">ProgramComponent</text>
</g>
<!-- ContributeModule -->
<g id="node5" class="node">
<title>ContributeModule</title>
<polygon fill="#8dd3c7" stroke="black" points="1940.93,-187 1937.93,-191 1916.93,-191 1913.93,-187 1821.07,-187 1821.07,-151 1940.93,-151 1940.93,-187"/>
<text text-anchor="middle" x="1881" y="-164.8" font-family="Times,serif" font-size="14.00">ContributeModule</text>
</g>
<!-- ProgramComponent&#45;&gt;ContributeModule -->
<g id="edge1" class="edge">
<title>ProgramComponent&#45;&gt;ContributeModule</title>
<path fill="none" stroke="black" d="M3220,-122.32C3220,-145.66 3220,-183 3220,-183 3220,-183 1951.14,-183 1951.14,-183"/>
<polygon fill="black" stroke="black" points="1951.14,-179.5 1941.14,-183 1951.14,-186.5 1951.14,-179.5"/>
</g>
<!-- OnboardPopupComponent -->
<g id="node2" class="node">
<title>OnboardPopupComponent</title>
<polygon fill="#ffffb3" stroke="black" points="3137.1,-122 2970.9,-122 2970.9,-86 3137.1,-86 3137.1,-122"/>
<text text-anchor="middle" x="3054" y="-99.8" font-family="Times,serif" font-size="14.00">OnboardPopupComponent</text>
</g>
<!-- OnboardPopupComponent&#45;&gt;ContributeModule -->
<g id="edge2" class="edge">
<title>OnboardPopupComponent&#45;&gt;ContributeModule</title>
<path fill="none" stroke="black" d="M3054,-122.16C3054,-144.35 3054,-179 3054,-179 3054,-179 1950.78,-179 1950.78,-179"/>
<polygon fill="black" stroke="black" points="1950.78,-175.5 1940.78,-179 1950.78,-182.5 1950.78,-175.5"/>
</g>
<!-- OrgUserListComponent -->
<g id="node3" class="node">
<title>OrgUserListComponent</title>
<polygon fill="#ffffb3" stroke="black" points="2952.8,-122 2801.2,-122 2801.2,-86 2952.8,-86 2952.8,-122"/>
<text text-anchor="middle" x="2877" y="-99.8" font-family="Times,serif" font-size="14.00">OrgUserListComponent</text>
</g>
<!-- OrgUserListComponent&#45;&gt;ContributeModule -->
<g id="edge3" class="edge">
<title>OrgUserListComponent&#45;&gt;ContributeModule</title>
<path fill="none" stroke="black" d="M2877,-122.28C2877,-143.32 2877,-175 2877,-175 2877,-175 1951.06,-175 1951.06,-175"/>
<polygon fill="black" stroke="black" points="1951.06,-171.5 1941.06,-175 1951.06,-178.5 1951.06,-171.5"/>
</g>
<!-- MyContentComponent -->
<g id="node4" class="node">
<title>MyContentComponent</title>
<polygon fill="#ffffb3" stroke="black" points="2783.61,-122 2638.39,-122 2638.39,-86 2783.61,-86 2783.61,-122"/>
<text text-anchor="middle" x="2711" y="-99.8" font-family="Times,serif" font-size="14.00">MyContentComponent</text>
</g>
<!-- MyContentComponent&#45;&gt;ContributeModule -->
<g id="edge4" class="edge">
<title>MyContentComponent&#45;&gt;ContributeModule</title>
<path fill="none" stroke="black" d="M2711,-122.31C2711,-142.15 2711,-171 2711,-171 2711,-171 1951.03,-171 1951.03,-171"/>
<polygon fill="black" stroke="black" points="1951.03,-167.5 1941.03,-171 1951.03,-174.5 1951.03,-167.5"/>
</g>
<!-- ProgramComponent  -->
<g id="node20" class="node">
<title>ProgramComponent </title>
<polygon fill="#fb8072" stroke="black" points="2032.54,-252 1899.46,-252 1899.46,-216 2032.54,-216 2032.54,-252"/>
<text text-anchor="middle" x="1966" y="-229.8" font-family="Times,serif" font-size="14.00">ProgramComponent </text>
</g>
<!-- ContributeModule&#45;&gt;ProgramComponent  -->
<g id="edge19" class="edge">
<title>ContributeModule&#45;&gt;ProgramComponent </title>
<path fill="none" stroke="black" stroke-dasharray="5,2" d="M1920.1,-187.11C1920.1,-187.11 1920.1,-205.99 1920.1,-205.99"/>
<polygon fill="black" stroke="black" points="1916.6,-205.99 1920.1,-215.99 1923.6,-205.99 1916.6,-205.99"/>
</g>
<!-- OnboardPopupComponent  -->
<g id="node21" class="node">
<title>OnboardPopupComponent </title>
<polygon fill="#fb8072" stroke="black" points="1881.6,-252 1712.4,-252 1712.4,-216 1881.6,-216 1881.6,-252"/>
<text text-anchor="middle" x="1797" y="-229.8" font-family="Times,serif" font-size="14.00">OnboardPopupComponent </text>
</g>
<!-- ContributeModule&#45;&gt;OnboardPopupComponent  -->
<g id="edge20" class="edge">
<title>ContributeModule&#45;&gt;OnboardPopupComponent </title>
<path fill="none" stroke="black" stroke-dasharray="5,2" d="M1851.54,-187.11C1851.54,-187.11 1851.54,-205.99 1851.54,-205.99"/>
<polygon fill="black" stroke="black" points="1848.04,-205.99 1851.54,-215.99 1855.04,-205.99 1848.04,-205.99"/>
</g>
<!-- SuiModule -->
<g id="node6" class="node">
<title>SuiModule</title>
<polygon fill="#8dd3c7" stroke="black" points="2614.22,-122 2611.22,-126 2590.22,-126 2587.22,-122 2535.78,-122 2535.78,-86 2614.22,-86 2614.22,-122"/>
<text text-anchor="middle" x="2575" y="-99.8" font-family="Times,serif" font-size="14.00">SuiModule</text>
</g>
<!-- SuiModule&#45;&gt;ContributeModule -->
<g id="edge5" class="edge">
<title>SuiModule&#45;&gt;ContributeModule</title>
<path fill="none" stroke="black" d="M2575,-122.22C2575,-140.83 2575,-167 2575,-167 2575,-167 1950.77,-167 1950.77,-167"/>
<polygon fill="black" stroke="black" points="1950.77,-163.5 1940.77,-167 1950.77,-170.5 1950.77,-163.5"/>
</g>
<!-- CommonModule -->
<g id="node7" class="node">
<title>CommonModule</title>
<polygon fill="#8dd3c7" stroke="black" points="2517.67,-122 2514.67,-126 2493.67,-126 2490.67,-122 2406.33,-122 2406.33,-86 2517.67,-86 2517.67,-122"/>
<text text-anchor="middle" x="2462" y="-99.8" font-family="Times,serif" font-size="14.00">CommonModule</text>
</g>
<!-- CommonModule&#45;&gt;ContributeModule -->
<g id="edge6" class="edge">
<title>CommonModule&#45;&gt;ContributeModule</title>
<path fill="none" stroke="black" d="M2462,-122.02C2462,-139.37 2462,-163 2462,-163 2462,-163 1950.72,-163 1950.72,-163"/>
<polygon fill="black" stroke="black" points="1950.72,-159.5 1940.72,-163 1950.72,-166.5 1950.72,-159.5"/>
</g>
<!-- ContributeRoutingModule -->
<g id="node8" class="node">
<title>ContributeRoutingModule</title>
<polygon fill="#8dd3c7" stroke="black" points="2388.05,-122 2385.05,-126 2364.05,-126 2361.05,-122 2223.95,-122 2223.95,-86 2388.05,-86 2388.05,-122"/>
<text text-anchor="middle" x="2306" y="-99.8" font-family="Times,serif" font-size="14.00">ContributeRoutingModule</text>
</g>
<!-- ContributeRoutingModule&#45;&gt;ContributeModule -->
<g id="edge7" class="edge">
<title>ContributeRoutingModule&#45;&gt;ContributeModule</title>
<path fill="none" stroke="black" d="M2306,-122.01C2306,-138.05 2306,-159 2306,-159 2306,-159 1950.99,-159 1950.99,-159"/>
<polygon fill="black" stroke="black" points="1950.99,-155.5 1940.99,-159 1950.99,-162.5 1950.99,-155.5"/>
</g>
<!-- FormsModule -->
<g id="node9" class="node">
<title>FormsModule</title>
<polygon fill="#8dd3c7" stroke="black" points="2205.83,-122 2202.83,-126 2181.83,-126 2178.83,-122 2110.17,-122 2110.17,-86 2205.83,-86 2205.83,-122"/>
<text text-anchor="middle" x="2158" y="-99.8" font-family="Times,serif" font-size="14.00">FormsModule</text>
</g>
<!-- FormsModule&#45;&gt;ContributeModule -->
<g id="edge8" class="edge">
<title>FormsModule&#45;&gt;ContributeModule</title>
<path fill="none" stroke="black" d="M2158,-122.12C2158,-136.78 2158,-155 2158,-155 2158,-155 1950.76,-155 1950.76,-155"/>
<polygon fill="black" stroke="black" points="1950.76,-151.5 1940.76,-155 1950.76,-158.5 1950.76,-151.5"/>
</g>
<!-- ReactiveFormsModule -->
<g id="node10" class="node">
<title>ReactiveFormsModule</title>
<polygon fill="#8dd3c7" stroke="black" points="2092.3,-122 2089.3,-126 2068.3,-126 2065.3,-122 1947.7,-122 1947.7,-86 2092.3,-86 2092.3,-122"/>
<text text-anchor="middle" x="2020" y="-99.8" font-family="Times,serif" font-size="14.00">ReactiveFormsModule</text>
</g>
<!-- ReactiveFormsModule&#45;&gt;ContributeModule -->
<g id="edge9" class="edge">
<title>ReactiveFormsModule&#45;&gt;ContributeModule</title>
<path fill="none" stroke="black" d="M1947.58,-104C1940.26,-104 1935.46,-104 1935.46,-104 1935.46,-104 1935.46,-140.89 1935.46,-140.89"/>
<polygon fill="black" stroke="black" points="1931.96,-140.89 1935.46,-150.89 1938.96,-140.89 1931.96,-140.89"/>
</g>
<!-- SharedModule -->
<g id="node11" class="node">
<title>SharedModule</title>
<polygon fill="#8dd3c7" stroke="black" points="1930.42,-122 1927.42,-126 1906.42,-126 1903.42,-122 1831.58,-122 1831.58,-86 1930.42,-86 1930.42,-122"/>
<text text-anchor="middle" x="1881" y="-99.8" font-family="Times,serif" font-size="14.00">SharedModule</text>
</g>
<!-- SharedModule&#45;&gt;ContributeModule -->
<g id="edge10" class="edge">
<title>SharedModule&#45;&gt;ContributeModule</title>
<path fill="none" stroke="black" d="M1881,-122.11C1881,-122.11 1881,-140.99 1881,-140.99"/>
<polygon fill="black" stroke="black" points="1877.5,-140.99 1881,-150.99 1884.5,-140.99 1877.5,-140.99"/>
</g>
<!-- CoreModule -->
<g id="node12" class="node">
<title>CoreModule</title>
<polygon fill="#8dd3c7" stroke="black" points="1813.26,-122 1810.26,-126 1789.26,-126 1786.26,-122 1726.74,-122 1726.74,-86 1813.26,-86 1813.26,-122"/>
<text text-anchor="middle" x="1770" y="-99.8" font-family="Times,serif" font-size="14.00">CoreModule</text>
</g>
<!-- CoreModule&#45;&gt;ContributeModule -->
<g id="edge11" class="edge">
<title>CoreModule&#45;&gt;ContributeModule</title>
<path fill="none" stroke="black" d="M1813.42,-104C1821.01,-104 1826.54,-104 1826.54,-104 1826.54,-104 1826.54,-140.89 1826.54,-140.89"/>
<polygon fill="black" stroke="black" points="1823.04,-140.89 1826.54,-150.89 1830.04,-140.89 1823.04,-140.89"/>
</g>
<!-- TelemetryModule -->
<g id="node13" class="node">
<title>TelemetryModule</title>
<polygon fill="#8dd3c7" stroke="black" points="1708.58,-122 1705.58,-126 1684.58,-126 1681.58,-122 1591.42,-122 1591.42,-86 1708.58,-86 1708.58,-122"/>
<text text-anchor="middle" x="1650" y="-99.8" font-family="Times,serif" font-size="14.00">TelemetryModule</text>
</g>
<!-- TelemetryModule&#45;&gt;ContributeModule -->
<g id="edge12" class="edge">
<title>TelemetryModule&#45;&gt;ContributeModule</title>
<path fill="none" stroke="black" d="M1650,-122.12C1650,-136.78 1650,-155 1650,-155 1650,-155 1811.21,-155 1811.21,-155"/>
<polygon fill="black" stroke="black" points="1811.21,-158.5 1821.21,-155 1811.21,-151.5 1811.21,-158.5"/>
</g>
<!-- SourcingModule -->
<g id="node14" class="node">
<title>SourcingModule</title>
<polygon fill="#8dd3c7" stroke="black" points="1573.1,-122 1570.1,-126 1549.1,-126 1546.1,-122 1462.9,-122 1462.9,-86 1573.1,-86 1573.1,-122"/>
<text text-anchor="middle" x="1518" y="-99.8" font-family="Times,serif" font-size="14.00">SourcingModule</text>
</g>
<!-- SourcingModule&#45;&gt;ContributeModule -->
<g id="edge13" class="edge">
<title>SourcingModule&#45;&gt;ContributeModule</title>
<path fill="none" stroke="black" d="M1518,-122.01C1518,-138.05 1518,-159 1518,-159 1518,-159 1811.06,-159 1811.06,-159"/>
<polygon fill="black" stroke="black" points="1811.06,-162.5 1821.06,-159 1811.06,-155.5 1811.06,-162.5"/>
</g>
<!-- SharedFeatureModule -->
<g id="node15" class="node">
<title>SharedFeatureModule</title>
<polygon fill="#8dd3c7" stroke="black" points="1445.4,-122 1442.4,-126 1421.4,-126 1418.4,-122 1304.6,-122 1304.6,-86 1445.4,-86 1445.4,-122"/>
<text text-anchor="middle" x="1375" y="-99.8" font-family="Times,serif" font-size="14.00">SharedFeatureModule</text>
</g>
<!-- SharedFeatureModule&#45;&gt;ContributeModule -->
<g id="edge14" class="edge">
<title>SharedFeatureModule&#45;&gt;ContributeModule</title>
<path fill="none" stroke="black" d="M1375,-122.02C1375,-139.37 1375,-163 1375,-163 1375,-163 1810.97,-163 1810.97,-163"/>
<polygon fill="black" stroke="black" points="1810.97,-166.5 1820.97,-163 1810.97,-159.5 1810.97,-166.5"/>
</g>
<!-- PlayerHelperModule -->
<g id="node16" class="node">
<title>PlayerHelperModule</title>
<polygon fill="#8dd3c7" stroke="black" points="1286.9,-122 1283.9,-126 1262.9,-126 1259.9,-122 1153.1,-122 1153.1,-86 1286.9,-86 1286.9,-122"/>
<text text-anchor="middle" x="1220" y="-99.8" font-family="Times,serif" font-size="14.00">PlayerHelperModule</text>
</g>
<!-- PlayerHelperModule&#45;&gt;ContributeModule -->
<g id="edge15" class="edge">
<title>PlayerHelperModule&#45;&gt;ContributeModule</title>
<path fill="none" stroke="black" d="M1220,-122.22C1220,-140.83 1220,-167 1220,-167 1220,-167 1811.17,-167 1811.17,-167"/>
<polygon fill="black" stroke="black" points="1811.17,-170.5 1821.17,-167 1811.17,-163.5 1811.17,-170.5"/>
</g>
<!-- QumlLibraryModule -->
<g id="node17" class="node">
<title>QumlLibraryModule</title>
<polygon fill="#8dd3c7" stroke="black" points="1135.92,-122 1132.92,-126 1111.92,-126 1108.92,-122 1002.08,-122 1002.08,-86 1135.92,-86 1135.92,-122"/>
<text text-anchor="middle" x="1069" y="-99.8" font-family="Times,serif" font-size="14.00">QumlLibraryModule</text>
</g>
<!-- QumlLibraryModule&#45;&gt;ContributeModule -->
<g id="edge16" class="edge">
<title>QumlLibraryModule&#45;&gt;ContributeModule</title>
<path fill="none" stroke="black" d="M1069,-122.31C1069,-142.15 1069,-171 1069,-171 1069,-171 1810.96,-171 1810.96,-171"/>
<polygon fill="black" stroke="black" points="1810.96,-174.5 1820.96,-171 1810.96,-167.5 1810.96,-174.5"/>
</g>
<!-- SunbirdVideoPlayerModule -->
<g id="node18" class="node">
<title>SunbirdVideoPlayerModule</title>
<polygon fill="#8dd3c7" stroke="black" points="983.86,-122 980.86,-126 959.86,-126 956.86,-122 810.14,-122 810.14,-86 983.86,-86 983.86,-122"/>
<text text-anchor="middle" x="897" y="-99.8" font-family="Times,serif" font-size="14.00">SunbirdVideoPlayerModule</text>
</g>
<!-- SunbirdVideoPlayerModule&#45;&gt;ContributeModule -->
<g id="edge17" class="edge">
<title>SunbirdVideoPlayerModule&#45;&gt;ContributeModule</title>
<path fill="none" stroke="black" d="M897,-122.28C897,-143.32 897,-175 897,-175 897,-175 1810.93,-175 1810.93,-175"/>
<polygon fill="black" stroke="black" points="1810.93,-178.5 1820.93,-175 1810.93,-171.5 1810.93,-178.5"/>
</g>
<!-- DynamicModule.withComponents(args) -->
<g id="node19" class="node">
<title>DynamicModule.withComponents(args)</title>
<polygon fill="#8dd3c7" stroke="black" points="792.17,-122 789.17,-126 768.17,-126 765.17,-122 549.83,-122 549.83,-86 792.17,-86 792.17,-122"/>
<text text-anchor="middle" x="671" y="-99.8" font-family="Times,serif" font-size="14.00">DynamicModule.withComponents(args)</text>
</g>
<!-- DynamicModule.withComponents(args)&#45;&gt;ContributeModule -->
<g id="edge18" class="edge">
<title>DynamicModule.withComponents(args)&#45;&gt;ContributeModule</title>
<path fill="none" stroke="black" d="M671,-122.16C671,-144.35 671,-179 671,-179 671,-179 1811,-179 1811,-179"/>
<polygon fill="black" stroke="black" points="1811,-182.5 1821,-179 1811,-175.5 1811,-182.5"/>
</g>
<!-- { provide: QuestionCursor, useExisting: QumlPlayerService } -->
<g id="node22" class="node">
<title>{ provide: QuestionCursor, useExisting: QumlPlayerService }</title>
<ellipse fill="#fdb462" stroke="black" cx="275" cy="-104" rx="251.48" ry="18"/>
<text text-anchor="middle" x="275" y="-99.8" font-family="Times,serif" font-size="14.00">{ provide: QuestionCursor, useExisting: QumlPlayerService }</text>
</g>
<!-- { provide: QuestionCursor, useExisting: QumlPlayerService }&#45;&gt;ContributeModule -->
<g id="edge21" class="edge">
<title>{ provide: QuestionCursor, useExisting: QumlPlayerService }&#45;&gt;ContributeModule</title>
<path fill="none" stroke="black" d="M275,-122.32C275,-145.66 275,-183 275,-183 275,-183 1810.97,-183 1810.97,-183"/>
<polygon fill="black" stroke="black" points="1810.97,-186.5 1820.97,-183 1810.97,-179.5 1810.97,-186.5"/>
</g>
</g>
</svg>
