<?xml version="1.0" encoding="UTF-8" standalone="no"?>
<!DOCTYPE svg PUBLIC "-//W3C//DTD SVG 1.1//EN"
 "http://www.w3.org/Graphics/SVG/1.1/DTD/svg11.dtd">
<!-- Generated by graphviz version 2.47.0 (20210316.0004)
 -->
<!-- Title: dependencies Pages: 1 -->
<svg width="3452pt" height="211pt"
 viewBox="0.00 0.00 3452.00 211.00" xmlns="http://www.w3.org/2000/svg" xmlns:xlink="http://www.w3.org/1999/xlink">
<g id="graph0" class="graph" transform="scale(1 1) rotate(0) translate(4 207)">
<title>dependencies</title>
<polygon fill="white" stroke="transparent" points="-4,4 -4,-207 3448,-207 3448,4 -4,4"/>
<text text-anchor="start" x="1701.01" y="-42.4" font-family="Times-12" font-weight="bold" font-size="14.00">Legend</text>
<polygon fill="#ffffb3" stroke="transparent" points="1488,-10 1488,-30 1508,-30 1508,-10 1488,-10"/>
<text text-anchor="start" x="1511.63" y="-15.4" font-family="Times-12" font-size="14.00"> &#160;Declarations</text>
<polygon fill="#8dd3c7" stroke="transparent" points="1601,-10 1601,-30 1621,-30 1621,-10 1601,-10"/>
<text text-anchor="start" x="1624.73" y="-15.4" font-family="Times-12" font-size="14.00"> &#160;Module</text>
<polygon fill="#80b1d3" stroke="transparent" points="1687,-10 1687,-30 1707,-30 1707,-10 1687,-10"/>
<text text-anchor="start" x="1710.78" y="-15.4" font-family="Times-12" font-size="14.00"> &#160;Bootstrap</text>
<polygon fill="#fdb462" stroke="transparent" points="1784,-10 1784,-30 1804,-30 1804,-10 1784,-10"/>
<text text-anchor="start" x="1807.67" y="-15.4" font-family="Times-12" font-size="14.00"> &#160;Providers</text>
<polygon fill="#fb8072" stroke="transparent" points="1880,-10 1880,-30 1900,-30 1900,-10 1880,-10"/>
<text text-anchor="start" x="1903.73" y="-15.4" font-family="Times-12" font-size="14.00"> &#160;Exports</text>
<g id="clust1" class="cluster">
<title>cluster_RecoverAccountModule</title>
<polygon fill="none" stroke="black" stroke-dasharray="1,5" points="8,-70 8,-195 3436,-195 3436,-70 8,-70"/>
</g>
<g id="clust2" class="cluster">
<title>cluster_RecoverAccountModule_declarations</title>
<polygon fill="none" stroke="black" points="2577,-78 2577,-130 3428,-130 3428,-78 2577,-78"/>
</g>
<g id="clust7" class="cluster">
<title>cluster_RecoverAccountModule_imports</title>
<polygon fill="none" stroke="black" points="16,-78 16,-130 2569,-130 2569,-78 16,-78"/>
</g>
<!-- IdentifyAccountComponent -->
<g id="node1" class="node">
<title>IdentifyAccountComponent</title>
<polygon fill="#ffffb3" stroke="black" points="3419.58,-122 3246.42,-122 3246.42,-86 3419.58,-86 3419.58,-122"/>
<text text-anchor="middle" x="3333" y="-99.8" font-family="Times,serif" font-size="14.00">IdentifyAccountComponent</text>
</g>
<!-- RecoverAccountModule -->
<g id="node5" class="node">
<title>RecoverAccountModule</title>
<polygon fill="#8dd3c7" stroke="black" points="1656.62,-187 1653.62,-191 1632.62,-191 1629.62,-187 1503.38,-187 1503.38,-151 1656.62,-151 1656.62,-187"/>
<text text-anchor="middle" x="1580" y="-164.8" font-family="Times,serif" font-size="14.00">RecoverAccountModule</text>
</g>
<!-- IdentifyAccountComponent&#45;&gt;RecoverAccountModule -->
<g id="edge1" class="edge">
<title>IdentifyAccountComponent&#45;&gt;RecoverAccountModule</title>
<path fill="none" stroke="black" d="M3333,-122.15C3333,-145.76 3333,-184 3333,-184 3333,-184 1666.73,-184 1666.73,-184"/>
<polygon fill="black" stroke="black" points="1666.73,-180.5 1656.73,-184 1666.73,-187.5 1666.73,-180.5"/>
</g>
<!-- SelectAccountIdentifierComponent -->
<g id="node2" class="node">
<title>SelectAccountIdentifierComponent</title>
<polygon fill="#ffffb3" stroke="black" points="3228.55,-122 3013.45,-122 3013.45,-86 3228.55,-86 3228.55,-122"/>
<text text-anchor="middle" x="3121" y="-99.8" font-family="Times,serif" font-size="14.00">SelectAccountIdentifierComponent</text>
</g>
<!-- SelectAccountIdentifierComponent&#45;&gt;RecoverAccountModule -->
<g id="edge2" class="edge">
<title>SelectAccountIdentifierComponent&#45;&gt;RecoverAccountModule</title>
<path fill="none" stroke="black" d="M3121,-122.25C3121,-145.02 3121,-181 3121,-181 3121,-181 1666.68,-181 1666.68,-181"/>
<polygon fill="black" stroke="black" points="1666.68,-177.5 1656.68,-181 1666.68,-184.5 1666.68,-177.5"/>
</g>
<!-- VerifyAccountIdentifierComponent -->
<g id="node3" class="node">
<title>VerifyAccountIdentifierComponent</title>
<polygon fill="#ffffb3" stroke="black" points="2995.87,-122 2778.13,-122 2778.13,-86 2995.87,-86 2995.87,-122"/>
<text text-anchor="middle" x="2887" y="-99.8" font-family="Times,serif" font-size="14.00">VerifyAccountIdentifierComponent</text>
</g>
<!-- VerifyAccountIdentifierComponent&#45;&gt;RecoverAccountModule -->
<g id="edge3" class="edge">
<title>VerifyAccountIdentifierComponent&#45;&gt;RecoverAccountModule</title>
<path fill="none" stroke="black" d="M2887,-122.29C2887,-144.21 2887,-178 2887,-178 2887,-178 1666.88,-178 1666.88,-178"/>
<polygon fill="black" stroke="black" points="1666.88,-174.5 1656.88,-178 1666.88,-181.5 1666.88,-174.5"/>
</g>
<!-- RecoverAccountComponent -->
<g id="node4" class="node">
<title>RecoverAccountComponent</title>
<polygon fill="#ffffb3" stroke="black" points="2760.9,-122 2585.1,-122 2585.1,-86 2760.9,-86 2760.9,-122"/>
<text text-anchor="middle" x="2673" y="-99.8" font-family="Times,serif" font-size="14.00">RecoverAccountComponent</text>
</g>
<!-- RecoverAccountComponent&#45;&gt;RecoverAccountModule -->
<g id="edge4" class="edge">
<title>RecoverAccountComponent&#45;&gt;RecoverAccountModule</title>
<path fill="none" stroke="black" d="M2673,-122.03C2673,-142.77 2673,-174 2673,-174 2673,-174 1666.86,-174 1666.86,-174"/>
<polygon fill="black" stroke="black" points="1666.86,-170.5 1656.86,-174 1666.86,-177.5 1666.86,-170.5"/>
</g>
<!-- CommonModule -->
<g id="node6" class="node">
<title>CommonModule</title>
<polygon fill="#8dd3c7" stroke="black" points="2560.67,-122 2557.67,-126 2536.67,-126 2533.67,-122 2449.33,-122 2449.33,-86 2560.67,-86 2560.67,-122"/>
<text text-anchor="middle" x="2505" y="-99.8" font-family="Times,serif" font-size="14.00">CommonModule</text>
</g>
<!-- CommonModule&#45;&gt;RecoverAccountModule -->
<g id="edge5" class="edge">
<title>CommonModule&#45;&gt;RecoverAccountModule</title>
<path fill="none" stroke="black" d="M2505,-122.31C2505,-142.15 2505,-171 2505,-171 2505,-171 1666.88,-171 1666.88,-171"/>
<polygon fill="black" stroke="black" points="1666.88,-167.5 1656.88,-171 1666.88,-174.5 1666.88,-167.5"/>
</g>
<!-- RecoverAccountRoutingModule -->
<g id="node7" class="node">
<title>RecoverAccountRoutingModule</title>
<polygon fill="#8dd3c7" stroke="black" points="2431.24,-122 2428.24,-126 2407.24,-126 2404.24,-122 2232.76,-122 2232.76,-86 2431.24,-86 2431.24,-122"/>
<text text-anchor="middle" x="2332" y="-99.8" font-family="Times,serif" font-size="14.00">RecoverAccountRoutingModule</text>
</g>
<!-- RecoverAccountRoutingModule&#45;&gt;RecoverAccountModule -->
<g id="edge6" class="edge">
<title>RecoverAccountRoutingModule&#45;&gt;RecoverAccountModule</title>
<path fill="none" stroke="black" d="M2332,-122.17C2332,-141.09 2332,-168 2332,-168 2332,-168 1666.94,-168 1666.94,-168"/>
<polygon fill="black" stroke="black" points="1666.94,-164.5 1656.94,-168 1666.94,-171.5 1666.94,-164.5"/>
</g>
<!-- SharedModule -->
<g id="node8" class="node">
<title>SharedModule</title>
<polygon fill="#8dd3c7" stroke="black" points="2214.42,-122 2211.42,-126 2190.42,-126 2187.42,-122 2115.58,-122 2115.58,-86 2214.42,-86 2214.42,-122"/>
<text text-anchor="middle" x="2165" y="-99.8" font-family="Times,serif" font-size="14.00">SharedModule</text>
</g>
<!-- SharedModule&#45;&gt;RecoverAccountModule -->
<g id="edge7" class="edge">
<title>SharedModule&#45;&gt;RecoverAccountModule</title>
<path fill="none" stroke="black" d="M2165,-122.3C2165,-140.27 2165,-165 2165,-165 2165,-165 1666.78,-165 1666.78,-165"/>
<polygon fill="black" stroke="black" points="1666.78,-161.5 1656.78,-165 1666.78,-168.5 1666.78,-161.5"/>
</g>
<!-- CoreModule -->
<g id="node9" class="node">
<title>CoreModule</title>
<polygon fill="#8dd3c7" stroke="black" points="2097.26,-122 2094.26,-126 2073.26,-126 2070.26,-122 2010.74,-122 2010.74,-86 2097.26,-86 2097.26,-122"/>
<text text-anchor="middle" x="2054" y="-99.8" font-family="Times,serif" font-size="14.00">CoreModule</text>
</g>
<!-- CoreModule&#45;&gt;RecoverAccountModule -->
<g id="edge8" class="edge">
<title>CoreModule&#45;&gt;RecoverAccountModule</title>
<path fill="none" stroke="black" d="M2054,-122.04C2054,-138.73 2054,-161 2054,-161 2054,-161 1666.68,-161 1666.68,-161"/>
<polygon fill="black" stroke="black" points="1666.68,-157.5 1656.68,-161 1666.68,-164.5 1666.68,-157.5"/>
</g>
<!-- RecaptchaModule -->
<g id="node10" class="node">
<title>RecaptchaModule</title>
<polygon fill="#8dd3c7" stroke="black" points="1992.85,-122 1989.85,-126 1968.85,-126 1965.85,-122 1875.15,-122 1875.15,-86 1992.85,-86 1992.85,-122"/>
<text text-anchor="middle" x="1934" y="-99.8" font-family="Times,serif" font-size="14.00">RecaptchaModule</text>
</g>
<!-- RecaptchaModule&#45;&gt;RecoverAccountModule -->
<g id="edge9" class="edge">
<title>RecaptchaModule&#45;&gt;RecoverAccountModule</title>
<path fill="none" stroke="black" d="M1934,-122.28C1934,-137.95 1934,-158 1934,-158 1934,-158 1666.81,-158 1666.81,-158"/>
<polygon fill="black" stroke="black" points="1666.81,-154.5 1656.81,-158 1666.81,-161.5 1666.81,-154.5"/>
</g>
<!-- TelemetryModule -->
<g id="node11" class="node">
<title>TelemetryModule</title>
<polygon fill="#8dd3c7" stroke="black" points="1857.58,-122 1854.58,-126 1833.58,-126 1830.58,-122 1740.42,-122 1740.42,-86 1857.58,-86 1857.58,-122"/>
<text text-anchor="middle" x="1799" y="-99.8" font-family="Times,serif" font-size="14.00">TelemetryModule</text>
</g>
<!-- TelemetryModule&#45;&gt;RecoverAccountModule -->
<g id="edge10" class="edge">
<title>TelemetryModule&#45;&gt;RecoverAccountModule</title>
<path fill="none" stroke="black" d="M1799,-122.12C1799,-136.78 1799,-155 1799,-155 1799,-155 1666.9,-155 1666.9,-155"/>
<polygon fill="black" stroke="black" points="1666.9,-151.5 1656.9,-155 1666.9,-158.5 1666.9,-151.5"/>
</g>
<!-- SharedFeatureModule -->
<g id="node12" class="node">
<title>SharedFeatureModule</title>
<polygon fill="#8dd3c7" stroke="black" points="1722.4,-122 1719.4,-126 1698.4,-126 1695.4,-122 1581.6,-122 1581.6,-86 1722.4,-86 1722.4,-122"/>
<text text-anchor="middle" x="1652" y="-99.8" font-family="Times,serif" font-size="14.00">SharedFeatureModule</text>
</g>
<!-- SharedFeatureModule&#45;&gt;RecoverAccountModule -->
<g id="edge11" class="edge">
<title>SharedFeatureModule&#45;&gt;RecoverAccountModule</title>
<path fill="none" stroke="black" d="M1619.3,-122.11C1619.3,-122.11 1619.3,-140.99 1619.3,-140.99"/>
<polygon fill="black" stroke="black" points="1615.8,-140.99 1619.3,-150.99 1622.8,-140.99 1615.8,-140.99"/>
</g>
<!-- SuiSelectModule -->
<g id="node13" class="node">
<title>SuiSelectModule</title>
<polygon fill="#8dd3c7" stroke="black" points="1564.43,-122 1561.43,-126 1540.43,-126 1537.43,-122 1451.57,-122 1451.57,-86 1564.43,-86 1564.43,-122"/>
<text text-anchor="middle" x="1508" y="-99.8" font-family="Times,serif" font-size="14.00">SuiSelectModule</text>
</g>
<!-- SuiSelectModule&#45;&gt;RecoverAccountModule -->
<g id="edge12" class="edge">
<title>SuiSelectModule&#45;&gt;RecoverAccountModule</title>
<path fill="none" stroke="black" d="M1533.7,-122.11C1533.7,-122.11 1533.7,-140.99 1533.7,-140.99"/>
<polygon fill="black" stroke="black" points="1530.2,-140.99 1533.7,-150.99 1537.2,-140.99 1530.2,-140.99"/>
</g>
<!-- SuiModalModule -->
<g id="node14" class="node">
<title>SuiModalModule</title>
<polygon fill="#8dd3c7" stroke="black" points="1433.27,-122 1430.27,-126 1409.27,-126 1406.27,-122 1318.73,-122 1318.73,-86 1433.27,-86 1433.27,-122"/>
<text text-anchor="middle" x="1376" y="-99.8" font-family="Times,serif" font-size="14.00">SuiModalModule</text>
</g>
<!-- SuiModalModule&#45;&gt;RecoverAccountModule -->
<g id="edge13" class="edge">
<title>SuiModalModule&#45;&gt;RecoverAccountModule</title>
<path fill="none" stroke="black" d="M1376,-122.12C1376,-136.78 1376,-155 1376,-155 1376,-155 1493.17,-155 1493.17,-155"/>
<polygon fill="black" stroke="black" points="1493.17,-158.5 1503.17,-155 1493.17,-151.5 1493.17,-158.5"/>
</g>
<!-- SuiAccordionModule -->
<g id="node15" class="node">
<title>SuiAccordionModule</title>
<polygon fill="#8dd3c7" stroke="black" points="1300.81,-122 1297.81,-126 1276.81,-126 1273.81,-122 1163.19,-122 1163.19,-86 1300.81,-86 1300.81,-122"/>
<text text-anchor="middle" x="1232" y="-99.8" font-family="Times,serif" font-size="14.00">SuiAccordionModule</text>
</g>
<!-- SuiAccordionModule&#45;&gt;RecoverAccountModule -->
<g id="edge14" class="edge">
<title>SuiAccordionModule&#45;&gt;RecoverAccountModule</title>
<path fill="none" stroke="black" d="M1232,-122.28C1232,-137.95 1232,-158 1232,-158 1232,-158 1493.2,-158 1493.2,-158"/>
<polygon fill="black" stroke="black" points="1493.2,-161.5 1503.2,-158 1493.2,-154.5 1493.2,-161.5"/>
</g>
<!-- SuiPopupModule -->
<g id="node16" class="node">
<title>SuiPopupModule</title>
<polygon fill="#8dd3c7" stroke="black" points="1145.01,-122 1142.01,-126 1121.01,-126 1118.01,-122 1030.99,-122 1030.99,-86 1145.01,-86 1145.01,-122"/>
<text text-anchor="middle" x="1088" y="-99.8" font-family="Times,serif" font-size="14.00">SuiPopupModule</text>
</g>
<!-- SuiPopupModule&#45;&gt;RecoverAccountModule -->
<g id="edge15" class="edge">
<title>SuiPopupModule&#45;&gt;RecoverAccountModule</title>
<path fill="none" stroke="black" d="M1088,-122.04C1088,-138.73 1088,-161 1088,-161 1088,-161 1493.12,-161 1493.12,-161"/>
<polygon fill="black" stroke="black" points="1493.13,-164.5 1503.12,-161 1493.12,-157.5 1493.13,-164.5"/>
</g>
<!-- SuiDropdownModule -->
<g id="node17" class="node">
<title>SuiDropdownModule</title>
<polygon fill="#8dd3c7" stroke="black" points="1013.1,-122 1010.1,-126 989.1,-126 986.1,-122 874.9,-122 874.9,-86 1013.1,-86 1013.1,-122"/>
<text text-anchor="middle" x="944" y="-99.8" font-family="Times,serif" font-size="14.00">SuiDropdownModule</text>
</g>
<!-- SuiDropdownModule&#45;&gt;RecoverAccountModule -->
<g id="edge16" class="edge">
<title>SuiDropdownModule&#45;&gt;RecoverAccountModule</title>
<path fill="none" stroke="black" d="M944,-122.3C944,-140.27 944,-165 944,-165 944,-165 1493.28,-165 1493.28,-165"/>
<polygon fill="black" stroke="black" points="1493.28,-168.5 1503.28,-165 1493.28,-161.5 1493.28,-168.5"/>
</g>
<!-- SuiProgressModule -->
<g id="node18" class="node">
<title>SuiProgressModule</title>
<polygon fill="#8dd3c7" stroke="black" points="857.43,-122 854.43,-126 833.43,-126 830.43,-122 730.57,-122 730.57,-86 857.43,-86 857.43,-122"/>
<text text-anchor="middle" x="794" y="-99.8" font-family="Times,serif" font-size="14.00">SuiProgressModule</text>
</g>
<!-- SuiProgressModule&#45;&gt;RecoverAccountModule -->
<g id="edge17" class="edge">
<title>SuiProgressModule&#45;&gt;RecoverAccountModule</title>
<path fill="none" stroke="black" d="M794,-122.17C794,-141.09 794,-168 794,-168 794,-168 1493.2,-168 1493.2,-168"/>
<polygon fill="black" stroke="black" points="1493.2,-171.5 1503.2,-168 1493.2,-164.5 1493.2,-171.5"/>
</g>
<!-- SuiRatingModule -->
<g id="node19" class="node">
<title>SuiRatingModule</title>
<polygon fill="#8dd3c7" stroke="black" points="712.56,-122 709.56,-126 688.56,-126 685.56,-122 597.44,-122 597.44,-86 712.56,-86 712.56,-122"/>
<text text-anchor="middle" x="655" y="-99.8" font-family="Times,serif" font-size="14.00">SuiRatingModule</text>
</g>
<!-- SuiRatingModule&#45;&gt;RecoverAccountModule -->
<g id="edge18" class="edge">
<title>SuiRatingModule&#45;&gt;RecoverAccountModule</title>
<path fill="none" stroke="black" d="M655,-122.31C655,-142.15 655,-171 655,-171 655,-171 1493.12,-171 1493.12,-171"/>
<polygon fill="black" stroke="black" points="1493.12,-174.5 1503.12,-171 1493.12,-167.5 1493.12,-174.5"/>
</g>
<!-- SuiCollapseModule -->
<g id="node20" class="node">
<title>SuiCollapseModule</title>
<polygon fill="#8dd3c7" stroke="black" points="579.71,-122 576.71,-126 555.71,-126 552.71,-122 452.29,-122 452.29,-86 579.71,-86 579.71,-122"/>
<text text-anchor="middle" x="516" y="-99.8" font-family="Times,serif" font-size="14.00">SuiCollapseModule</text>
</g>
<!-- SuiCollapseModule&#45;&gt;RecoverAccountModule -->
<g id="edge19" class="edge">
<title>SuiCollapseModule&#45;&gt;RecoverAccountModule</title>
<path fill="none" stroke="black" d="M516,-122.03C516,-142.77 516,-174 516,-174 516,-174 1493.05,-174 1493.05,-174"/>
<polygon fill="black" stroke="black" points="1493.05,-177.5 1503.05,-174 1493.05,-170.5 1493.05,-177.5"/>
</g>
<!-- SuiCheckboxModule -->
<g id="node21" class="node">
<title>SuiCheckboxModule</title>
<polygon fill="#8dd3c7" stroke="black" points="434.49,-122 431.49,-126 410.49,-126 407.49,-122 299.51,-122 299.51,-86 434.49,-86 434.49,-122"/>
<text text-anchor="middle" x="367" y="-99.8" font-family="Times,serif" font-size="14.00">SuiCheckboxModule</text>
</g>
<!-- SuiCheckboxModule&#45;&gt;RecoverAccountModule -->
<g id="edge20" class="edge">
<title>SuiCheckboxModule&#45;&gt;RecoverAccountModule</title>
<path fill="none" stroke="black" d="M367,-122.29C367,-144.21 367,-178 367,-178 367,-178 1493.2,-178 1493.2,-178"/>
<polygon fill="black" stroke="black" points="1493.2,-181.5 1503.2,-178 1493.2,-174.5 1493.2,-181.5"/>
</g>
<!-- FormsModule -->
<g id="node22" class="node">
<title>FormsModule</title>
<polygon fill="#8dd3c7" stroke="black" points="281.83,-122 278.83,-126 257.83,-126 254.83,-122 186.17,-122 186.17,-86 281.83,-86 281.83,-122"/>
<text text-anchor="middle" x="234" y="-99.8" font-family="Times,serif" font-size="14.00">FormsModule</text>
</g>
<!-- FormsModule&#45;&gt;RecoverAccountModule -->
<g id="edge21" class="edge">
<title>FormsModule&#45;&gt;RecoverAccountModule</title>
<path fill="none" stroke="black" d="M234,-122.25C234,-145.02 234,-181 234,-181 234,-181 1493.29,-181 1493.29,-181"/>
<polygon fill="black" stroke="black" points="1493.29,-184.5 1503.29,-181 1493.29,-177.5 1493.29,-184.5"/>
</g>
<!-- ReactiveFormsModule -->
<g id="node23" class="node">
<title>ReactiveFormsModule</title>
<polygon fill="#8dd3c7" stroke="black" points="168.3,-122 165.3,-126 144.3,-126 141.3,-122 23.7,-122 23.7,-86 168.3,-86 168.3,-122"/>
<text text-anchor="middle" x="96" y="-99.8" font-family="Times,serif" font-size="14.00">ReactiveFormsModule</text>
</g>
<!-- ReactiveFormsModule&#45;&gt;RecoverAccountModule -->
<g id="edge22" class="edge">
<title>ReactiveFormsModule&#45;&gt;RecoverAccountModule</title>
<path fill="none" stroke="black" d="M96,-122.15C96,-145.76 96,-184 96,-184 96,-184 1493.34,-184 1493.34,-184"/>
<polygon fill="black" stroke="black" points="1493.34,-187.5 1503.34,-184 1493.34,-180.5 1493.34,-187.5"/>
</g>
</g>
</svg>
