<?xml version="1.0" encoding="UTF-8" standalone="no"?>
<!DOCTYPE svg PUBLIC "-//W3C//DTD SVG 1.1//EN"
 "http://www.w3.org/Graphics/SVG/1.1/DTD/svg11.dtd">
<!-- Generated by graphviz version 2.47.0 (20210316.0004)
 -->
<!-- Title: dependencies Pages: 1 -->
<svg width="1612pt" height="211pt"
 viewBox="0.00 0.00 1612.00 211.00" xmlns="http://www.w3.org/2000/svg" xmlns:xlink="http://www.w3.org/1999/xlink">
<g id="graph0" class="graph" transform="scale(1 1) rotate(0) translate(4 207)">
<title>dependencies</title>
<polygon fill="white" stroke="transparent" points="-4,4 -4,-207 1608,-207 1608,4 -4,4"/>
<text text-anchor="start" x="781.01" y="-42.4" font-family="Times-12" font-weight="bold" font-size="14.00">Legend</text>
<polygon fill="#ffffb3" stroke="transparent" points="568,-10 568,-30 588,-30 588,-10 568,-10"/>
<text text-anchor="start" x="591.63" y="-15.4" font-family="Times-12" font-size="14.00"> &#160;Declarations</text>
<polygon fill="#8dd3c7" stroke="transparent" points="681,-10 681,-30 701,-30 701,-10 681,-10"/>
<text text-anchor="start" x="704.73" y="-15.4" font-family="Times-12" font-size="14.00"> &#160;Module</text>
<polygon fill="#80b1d3" stroke="transparent" points="767,-10 767,-30 787,-30 787,-10 767,-10"/>
<text text-anchor="start" x="790.78" y="-15.4" font-family="Times-12" font-size="14.00"> &#160;Bootstrap</text>
<polygon fill="#fdb462" stroke="transparent" points="864,-10 864,-30 884,-30 884,-10 864,-10"/>
<text text-anchor="start" x="887.67" y="-15.4" font-family="Times-12" font-size="14.00"> &#160;Providers</text>
<polygon fill="#fb8072" stroke="transparent" points="960,-10 960,-30 980,-30 980,-10 960,-10"/>
<text text-anchor="start" x="983.73" y="-15.4" font-family="Times-12" font-size="14.00"> &#160;Exports</text>
<g id="clust1" class="cluster">
<title>cluster_DashboardModule</title>
<polygon fill="none" stroke="black" stroke-dasharray="1,5" points="8,-70 8,-195 1596,-195 1596,-70 8,-70"/>
</g>
<g id="clust3" class="cluster">
<title>cluster_DashboardModule_imports</title>
<polygon fill="none" stroke="black" points="318,-78 318,-130 1588,-130 1588,-78 318,-78"/>
</g>
<g id="clust6" class="cluster">
<title>cluster_DashboardModule_providers</title>
<polygon fill="none" stroke="black" points="16,-78 16,-130 310,-130 310,-78 16,-78"/>
</g>
<!-- CommonModule -->
<g id="node1" class="node">
<title>CommonModule</title>
<polygon fill="#8dd3c7" stroke="black" points="1579.67,-122 1576.67,-126 1555.67,-126 1552.67,-122 1468.33,-122 1468.33,-86 1579.67,-86 1579.67,-122"/>
<text text-anchor="middle" x="1524" y="-99.8" font-family="Times,serif" font-size="14.00">CommonModule</text>
</g>
<!-- DashboardModule -->
<g id="node10" class="node">
<title>DashboardModule</title>
<polygon fill="#8dd3c7" stroke="black" points="907.19,-187 904.19,-191 883.19,-191 880.19,-187 786.81,-187 786.81,-151 907.19,-151 907.19,-187"/>
<text text-anchor="middle" x="847" y="-164.8" font-family="Times,serif" font-size="14.00">DashboardModule</text>
</g>
<!-- CommonModule&#45;&gt;DashboardModule -->
<g id="edge1" class="edge">
<title>CommonModule&#45;&gt;DashboardModule</title>
<path fill="none" stroke="black" d="M1524,-122.01C1524,-144.49 1524,-180 1524,-180 1524,-180 917.38,-180 917.38,-180"/>
<polygon fill="black" stroke="black" points="917.38,-176.5 907.38,-180 917.38,-183.5 917.38,-176.5"/>
</g>
<!-- DashboardRoutingModule -->
<g id="node2" class="node">
<title>DashboardRoutingModule</title>
<polygon fill="#8dd3c7" stroke="black" points="1450.81,-122 1447.81,-126 1426.81,-126 1423.81,-122 1285.19,-122 1285.19,-86 1450.81,-86 1450.81,-122"/>
<text text-anchor="middle" x="1368" y="-99.8" font-family="Times,serif" font-size="14.00">DashboardRoutingModule</text>
</g>
<!-- DashboardRoutingModule&#45;&gt;DashboardModule -->
<g id="edge2" class="edge">
<title>DashboardRoutingModule&#45;&gt;DashboardModule</title>
<path fill="none" stroke="black" d="M1368,-122.13C1368,-142.57 1368,-173 1368,-173 1368,-173 917.27,-173 917.27,-173"/>
<polygon fill="black" stroke="black" points="917.27,-169.5 907.27,-173 917.27,-176.5 917.27,-169.5"/>
</g>
<!-- FormsModule -->
<g id="node3" class="node">
<title>FormsModule</title>
<polygon fill="#8dd3c7" stroke="black" points="1267.83,-122 1264.83,-126 1243.83,-126 1240.83,-122 1172.17,-122 1172.17,-86 1267.83,-86 1267.83,-122"/>
<text text-anchor="middle" x="1220" y="-99.8" font-family="Times,serif" font-size="14.00">FormsModule</text>
</g>
<!-- FormsModule&#45;&gt;DashboardModule -->
<g id="edge3" class="edge">
<title>FormsModule&#45;&gt;DashboardModule</title>
<path fill="none" stroke="black" d="M1220,-122.27C1220,-140.56 1220,-166 1220,-166 1220,-166 917.34,-166 917.34,-166"/>
<polygon fill="black" stroke="black" points="917.34,-162.5 907.34,-166 917.34,-169.5 917.34,-162.5"/>
</g>
<!-- ReactiveFormsModule -->
<g id="node4" class="node">
<title>ReactiveFormsModule</title>
<polygon fill="#8dd3c7" stroke="black" points="1154.3,-122 1151.3,-126 1130.3,-126 1127.3,-122 1009.7,-122 1009.7,-86 1154.3,-86 1154.3,-122"/>
<text text-anchor="middle" x="1082" y="-99.8" font-family="Times,serif" font-size="14.00">ReactiveFormsModule</text>
</g>
<!-- ReactiveFormsModule&#45;&gt;DashboardModule -->
<g id="edge4" class="edge">
<title>ReactiveFormsModule&#45;&gt;DashboardModule</title>
<path fill="none" stroke="black" d="M1082,-122.01C1082,-138.05 1082,-159 1082,-159 1082,-159 917.21,-159 917.21,-159"/>
<polygon fill="black" stroke="black" points="917.21,-155.5 907.21,-159 917.21,-162.5 917.21,-155.5"/>
</g>
<!-- SuiModule -->
<g id="node5" class="node">
<title>SuiModule</title>
<polygon fill="#8dd3c7" stroke="black" points="992.22,-122 989.22,-126 968.22,-126 965.22,-122 913.78,-122 913.78,-86 992.22,-86 992.22,-122"/>
<text text-anchor="middle" x="953" y="-99.8" font-family="Times,serif" font-size="14.00">SuiModule</text>
</g>
<!-- SuiModule&#45;&gt;DashboardModule -->
<g id="edge5" class="edge">
<title>SuiModule&#45;&gt;DashboardModule</title>
<path fill="none" stroke="black" d="M913.82,-104C906.79,-104 901.65,-104 901.65,-104 901.65,-104 901.65,-140.89 901.65,-140.89"/>
<polygon fill="black" stroke="black" points="898.15,-140.89 901.65,-150.89 905.15,-140.89 898.15,-140.89"/>
</g>
<!-- SharedModule -->
<g id="node6" class="node">
<title>SharedModule</title>
<polygon fill="#8dd3c7" stroke="black" points="896.42,-122 893.42,-126 872.42,-126 869.42,-122 797.58,-122 797.58,-86 896.42,-86 896.42,-122"/>
<text text-anchor="middle" x="847" y="-99.8" font-family="Times,serif" font-size="14.00">SharedModule</text>
</g>
<!-- SharedModule&#45;&gt;DashboardModule -->
<g id="edge6" class="edge">
<title>SharedModule&#45;&gt;DashboardModule</title>
<path fill="none" stroke="black" d="M847,-122.11C847,-122.11 847,-140.99 847,-140.99"/>
<polygon fill="black" stroke="black" points="843.5,-140.99 847,-150.99 850.5,-140.99 843.5,-140.99"/>
</g>
<!-- OrderModule -->
<g id="node7" class="node">
<title>OrderModule</title>
<polygon fill="#8dd3c7" stroke="black" points="780.19,-122 777.19,-126 756.19,-126 753.19,-122 687.81,-122 687.81,-86 780.19,-86 780.19,-122"/>
<text text-anchor="middle" x="734" y="-99.8" font-family="Times,serif" font-size="14.00">OrderModule</text>
</g>
<!-- OrderModule&#45;&gt;DashboardModule -->
<g id="edge7" class="edge">
<title>OrderModule&#45;&gt;DashboardModule</title>
<path fill="none" stroke="black" d="M780.26,-104C787.34,-104 792.35,-104 792.35,-104 792.35,-104 792.35,-140.89 792.35,-140.89"/>
<polygon fill="black" stroke="black" points="788.85,-140.89 792.35,-150.89 795.85,-140.89 788.85,-140.89"/>
</g>
<!-- TelemetryModule -->
<g id="node8" class="node">
<title>TelemetryModule</title>
<polygon fill="#8dd3c7" stroke="black" points="669.58,-122 666.58,-126 645.58,-126 642.58,-122 552.42,-122 552.42,-86 669.58,-86 669.58,-122"/>
<text text-anchor="middle" x="611" y="-99.8" font-family="Times,serif" font-size="14.00">TelemetryModule</text>
</g>
<!-- TelemetryModule&#45;&gt;DashboardModule -->
<g id="edge8" class="edge">
<title>TelemetryModule&#45;&gt;DashboardModule</title>
<path fill="none" stroke="black" d="M611,-122.01C611,-138.05 611,-159 611,-159 611,-159 776.84,-159 776.84,-159"/>
<polygon fill="black" stroke="black" points="776.84,-162.5 786.84,-159 776.84,-155.5 776.84,-162.5"/>
</g>
<!-- NgxDaterangepickerMd.forRoot() -->
<g id="node9" class="node">
<title>NgxDaterangepickerMd.forRoot()</title>
<polygon fill="#8dd3c7" stroke="black" points="534.42,-122 531.42,-126 510.42,-126 507.42,-122 325.58,-122 325.58,-86 534.42,-86 534.42,-122"/>
<text text-anchor="middle" x="430" y="-99.8" font-family="Times,serif" font-size="14.00">NgxDaterangepickerMd.forRoot()</text>
</g>
<!-- NgxDaterangepickerMd.forRoot()&#45;&gt;DashboardModule -->
<g id="edge9" class="edge">
<title>NgxDaterangepickerMd.forRoot()&#45;&gt;DashboardModule</title>
<path fill="none" stroke="black" d="M430,-122.27C430,-140.56 430,-166 430,-166 430,-166 776.81,-166 776.81,-166"/>
<polygon fill="black" stroke="black" points="776.81,-169.5 786.81,-166 776.81,-162.5 776.81,-169.5"/>
</g>
<!-- SearchService -->
<g id="node11" class="node">
<title>SearchService</title>
<ellipse fill="#fdb462" stroke="black" cx="236" cy="-104" rx="66.03" ry="18"/>
<text text-anchor="middle" x="236" y="-99.8" font-family="Times,serif" font-size="14.00">SearchService</text>
</g>
<!-- SearchService&#45;&gt;DashboardModule -->
<g id="edge10" class="edge">
<title>SearchService&#45;&gt;DashboardModule</title>
<path fill="none" stroke="black" d="M236,-122.13C236,-142.57 236,-173 236,-173 236,-173 776.74,-173 776.74,-173"/>
<polygon fill="black" stroke="black" points="776.74,-176.5 786.74,-173 776.74,-169.5 776.74,-176.5"/>
</g>
<!-- UsageService -->
<g id="node12" class="node">
<title>UsageService</title>
<ellipse fill="#fdb462" stroke="black" cx="88" cy="-104" rx="64.24" ry="18"/>
<text text-anchor="middle" x="88" y="-99.8" font-family="Times,serif" font-size="14.00">UsageService</text>
</g>
<!-- UsageService&#45;&gt;DashboardModule -->
<g id="edge11" class="edge">
<title>UsageService&#45;&gt;DashboardModule</title>
<path fill="none" stroke="black" d="M88,-122.01C88,-144.49 88,-180 88,-180 88,-180 776.81,-180 776.81,-180"/>
<polygon fill="black" stroke="black" points="776.81,-183.5 786.81,-180 776.81,-176.5 776.81,-183.5"/>
</g>
</g>
</svg>
