<?xml version="1.0" encoding="UTF-8" standalone="no"?>
<!DOCTYPE svg PUBLIC "-//W3C//DTD SVG 1.1//EN"
 "http://www.w3.org/Graphics/SVG/1.1/DTD/svg11.dtd">
<!-- Generated by graphviz version 2.47.0 (20210316.0004)
 -->
<!-- Title: dependencies Pages: 1 -->
<svg width="1671pt" height="211pt"
 viewBox="0.00 0.00 1671.00 211.00" xmlns="http://www.w3.org/2000/svg" xmlns:xlink="http://www.w3.org/1999/xlink">
<g id="graph0" class="graph" transform="scale(1 1) rotate(0) translate(4 207)">
<title>dependencies</title>
<polygon fill="white" stroke="transparent" points="-4,4 -4,-207 1667,-207 1667,4 -4,4"/>
<text text-anchor="start" x="810.51" y="-42.4" font-family="Times-12" font-weight="bold" font-size="14.00">Legend</text>
<polygon fill="#ffffb3" stroke="transparent" points="597.5,-10 597.5,-30 617.5,-30 617.5,-10 597.5,-10"/>
<text text-anchor="start" x="621.13" y="-15.4" font-family="Times-12" font-size="14.00"> &#160;Declarations</text>
<polygon fill="#8dd3c7" stroke="transparent" points="710.5,-10 710.5,-30 730.5,-30 730.5,-10 710.5,-10"/>
<text text-anchor="start" x="734.23" y="-15.4" font-family="Times-12" font-size="14.00"> &#160;Module</text>
<polygon fill="#80b1d3" stroke="transparent" points="796.5,-10 796.5,-30 816.5,-30 816.5,-10 796.5,-10"/>
<text text-anchor="start" x="820.28" y="-15.4" font-family="Times-12" font-size="14.00"> &#160;Bootstrap</text>
<polygon fill="#fdb462" stroke="transparent" points="893.5,-10 893.5,-30 913.5,-30 913.5,-10 893.5,-10"/>
<text text-anchor="start" x="917.17" y="-15.4" font-family="Times-12" font-size="14.00"> &#160;Providers</text>
<polygon fill="#fb8072" stroke="transparent" points="989.5,-10 989.5,-30 1009.5,-30 1009.5,-10 989.5,-10"/>
<text text-anchor="start" x="1013.23" y="-15.4" font-family="Times-12" font-size="14.00"> &#160;Exports</text>
<g id="clust1" class="cluster">
<title>cluster_SignupModule</title>
<polygon fill="none" stroke="black" stroke-dasharray="1,5" points="8,-70 8,-195 1655,-195 1655,-70 8,-70"/>
</g>
<g id="clust2" class="cluster">
<title>cluster_SignupModule_declarations</title>
<polygon fill="none" stroke="black" points="1389,-78 1389,-130 1647,-130 1647,-78 1389,-78"/>
</g>
<g id="clust8" class="cluster">
<title>cluster_SignupModule_providers</title>
<polygon fill="none" stroke="black" points="1231,-78 1231,-130 1381,-130 1381,-78 1231,-78"/>
</g>
<g id="clust5" class="cluster">
<title>cluster_SignupModule_imports</title>
<polygon fill="none" stroke="black" points="16,-78 16,-130 1223,-130 1223,-78 16,-78"/>
</g>
<!-- SignupComponent -->
<g id="node1" class="node">
<title>SignupComponent</title>
<polygon fill="#ffffb3" stroke="black" points="1638.51,-122 1517.49,-122 1517.49,-86 1638.51,-86 1638.51,-122"/>
<text text-anchor="middle" x="1578" y="-99.8" font-family="Times,serif" font-size="14.00">SignupComponent</text>
</g>
<!-- SignupModule -->
<g id="node3" class="node">
<title>SignupModule</title>
<polygon fill="#8dd3c7" stroke="black" points="880.72,-187 877.72,-191 856.72,-191 853.72,-187 781.28,-187 781.28,-151 880.72,-151 880.72,-187"/>
<text text-anchor="middle" x="831" y="-164.8" font-family="Times,serif" font-size="14.00">SignupModule</text>
</g>
<!-- SignupComponent&#45;&gt;SignupModule -->
<g id="edge1" class="edge">
<title>SignupComponent&#45;&gt;SignupModule</title>
<path fill="none" stroke="black" d="M1578,-122.09C1578,-145.13 1578,-182 1578,-182 1578,-182 890.88,-182 890.88,-182"/>
<polygon fill="black" stroke="black" points="890.88,-178.5 880.88,-182 890.88,-185.5 890.88,-178.5"/>
</g>
<!-- OtpComponent -->
<g id="node2" class="node">
<title>OtpComponent</title>
<polygon fill="#ffffb3" stroke="black" points="1499.33,-122 1396.67,-122 1396.67,-86 1499.33,-86 1499.33,-122"/>
<text text-anchor="middle" x="1448" y="-99.8" font-family="Times,serif" font-size="14.00">OtpComponent</text>
</g>
<!-- OtpComponent&#45;&gt;SignupModule -->
<g id="edge2" class="edge">
<title>OtpComponent&#45;&gt;SignupModule</title>
<path fill="none" stroke="black" d="M1448,-122.28C1448,-143.32 1448,-175 1448,-175 1448,-175 890.71,-175 890.71,-175"/>
<polygon fill="black" stroke="black" points="890.71,-171.5 880.71,-175 890.71,-178.5 890.71,-171.5"/>
</g>
<!-- CommonModule -->
<g id="node4" class="node">
<title>CommonModule</title>
<polygon fill="#8dd3c7" stroke="black" points="1214.67,-122 1211.67,-126 1190.67,-126 1187.67,-122 1103.33,-122 1103.33,-86 1214.67,-86 1214.67,-122"/>
<text text-anchor="middle" x="1159" y="-99.8" font-family="Times,serif" font-size="14.00">CommonModule</text>
</g>
<!-- CommonModule&#45;&gt;SignupModule -->
<g id="edge3" class="edge">
<title>CommonModule&#45;&gt;SignupModule</title>
<path fill="none" stroke="black" d="M1159,-122.02C1159,-139.37 1159,-163 1159,-163 1159,-163 890.82,-163 890.82,-163"/>
<polygon fill="black" stroke="black" points="890.82,-159.5 880.82,-163 890.82,-166.5 890.82,-159.5"/>
</g>
<!-- SignupRoutingModule -->
<g id="node5" class="node">
<title>SignupRoutingModule</title>
<polygon fill="#8dd3c7" stroke="black" points="1085.34,-122 1082.34,-126 1061.34,-126 1058.34,-122 940.66,-122 940.66,-86 1085.34,-86 1085.34,-122"/>
<text text-anchor="middle" x="1013" y="-99.8" font-family="Times,serif" font-size="14.00">SignupRoutingModule</text>
</g>
<!-- SignupRoutingModule&#45;&gt;SignupModule -->
<g id="edge4" class="edge">
<title>SignupRoutingModule&#45;&gt;SignupModule</title>
<path fill="none" stroke="black" d="M1013,-122.24C1013,-137.57 1013,-157 1013,-157 1013,-157 890.73,-157 890.73,-157"/>
<polygon fill="black" stroke="black" points="890.73,-153.5 880.73,-157 890.73,-160.5 890.73,-153.5"/>
</g>
<!-- SuiModule -->
<g id="node6" class="node">
<title>SuiModule</title>
<polygon fill="#8dd3c7" stroke="black" points="923.22,-122 920.22,-126 899.22,-126 896.22,-122 844.78,-122 844.78,-86 923.22,-86 923.22,-122"/>
<text text-anchor="middle" x="884" y="-99.8" font-family="Times,serif" font-size="14.00">SuiModule</text>
</g>
<!-- SuiModule&#45;&gt;SignupModule -->
<g id="edge5" class="edge">
<title>SuiModule&#45;&gt;SignupModule</title>
<path fill="none" stroke="black" d="M862.75,-122.11C862.75,-122.11 862.75,-140.99 862.75,-140.99"/>
<polygon fill="black" stroke="black" points="859.25,-140.99 862.75,-150.99 866.25,-140.99 859.25,-140.99"/>
</g>
<!-- FormsModule -->
<g id="node7" class="node">
<title>FormsModule</title>
<polygon fill="#8dd3c7" stroke="black" points="826.83,-122 823.83,-126 802.83,-126 799.83,-122 731.17,-122 731.17,-86 826.83,-86 826.83,-122"/>
<text text-anchor="middle" x="779" y="-99.8" font-family="Times,serif" font-size="14.00">FormsModule</text>
</g>
<!-- FormsModule&#45;&gt;SignupModule -->
<g id="edge6" class="edge">
<title>FormsModule&#45;&gt;SignupModule</title>
<path fill="none" stroke="black" d="M804.03,-122.11C804.03,-122.11 804.03,-140.99 804.03,-140.99"/>
<polygon fill="black" stroke="black" points="800.53,-140.99 804.03,-150.99 807.53,-140.99 800.53,-140.99"/>
</g>
<!-- ReactiveFormsModule -->
<g id="node8" class="node">
<title>ReactiveFormsModule</title>
<polygon fill="#8dd3c7" stroke="black" points="713.3,-122 710.3,-126 689.3,-126 686.3,-122 568.7,-122 568.7,-86 713.3,-86 713.3,-122"/>
<text text-anchor="middle" x="641" y="-99.8" font-family="Times,serif" font-size="14.00">ReactiveFormsModule</text>
</g>
<!-- ReactiveFormsModule&#45;&gt;SignupModule -->
<g id="edge7" class="edge">
<title>ReactiveFormsModule&#45;&gt;SignupModule</title>
<path fill="none" stroke="black" d="M641,-122.24C641,-137.57 641,-157 641,-157 641,-157 771.08,-157 771.08,-157"/>
<polygon fill="black" stroke="black" points="771.08,-160.5 781.08,-157 771.08,-153.5 771.08,-160.5"/>
</g>
<!-- RecaptchaModule -->
<g id="node9" class="node">
<title>RecaptchaModule</title>
<polygon fill="#8dd3c7" stroke="black" points="550.85,-122 547.85,-126 526.85,-126 523.85,-122 433.15,-122 433.15,-86 550.85,-86 550.85,-122"/>
<text text-anchor="middle" x="492" y="-99.8" font-family="Times,serif" font-size="14.00">RecaptchaModule</text>
</g>
<!-- RecaptchaModule&#45;&gt;SignupModule -->
<g id="edge8" class="edge">
<title>RecaptchaModule&#45;&gt;SignupModule</title>
<path fill="none" stroke="black" d="M492,-122.02C492,-139.37 492,-163 492,-163 492,-163 771.34,-163 771.34,-163"/>
<polygon fill="black" stroke="black" points="771.34,-166.5 781.34,-163 771.34,-159.5 771.34,-166.5"/>
</g>
<!-- TelemetryModule -->
<g id="node10" class="node">
<title>TelemetryModule</title>
<polygon fill="#8dd3c7" stroke="black" points="415.58,-122 412.58,-126 391.58,-126 388.58,-122 298.42,-122 298.42,-86 415.58,-86 415.58,-122"/>
<text text-anchor="middle" x="357" y="-99.8" font-family="Times,serif" font-size="14.00">TelemetryModule</text>
</g>
<!-- TelemetryModule&#45;&gt;SignupModule -->
<g id="edge9" class="edge">
<title>TelemetryModule&#45;&gt;SignupModule</title>
<path fill="none" stroke="black" d="M357,-122.11C357,-141.34 357,-169 357,-169 357,-169 771.17,-169 771.17,-169"/>
<polygon fill="black" stroke="black" points="771.17,-172.5 781.17,-169 771.17,-165.5 771.17,-172.5"/>
</g>
<!-- SharedModule -->
<g id="node11" class="node">
<title>SharedModule</title>
<polygon fill="#8dd3c7" stroke="black" points="280.42,-122 277.42,-126 256.42,-126 253.42,-122 181.58,-122 181.58,-86 280.42,-86 280.42,-122"/>
<text text-anchor="middle" x="231" y="-99.8" font-family="Times,serif" font-size="14.00">SharedModule</text>
</g>
<!-- SharedModule&#45;&gt;SignupModule -->
<g id="edge10" class="edge">
<title>SharedModule&#45;&gt;SignupModule</title>
<path fill="none" stroke="black" d="M231,-122.28C231,-143.32 231,-175 231,-175 231,-175 771.13,-175 771.13,-175"/>
<polygon fill="black" stroke="black" points="771.13,-178.5 781.13,-175 771.13,-171.5 771.13,-178.5"/>
</g>
<!-- SharedFeatureModule -->
<g id="node12" class="node">
<title>SharedFeatureModule</title>
<polygon fill="#8dd3c7" stroke="black" points="164.4,-122 161.4,-126 140.4,-126 137.4,-122 23.6,-122 23.6,-86 164.4,-86 164.4,-122"/>
<text text-anchor="middle" x="94" y="-99.8" font-family="Times,serif" font-size="14.00">SharedFeatureModule</text>
</g>
<!-- SharedFeatureModule&#45;&gt;SignupModule -->
<g id="edge11" class="edge">
<title>SharedFeatureModule&#45;&gt;SignupModule</title>
<path fill="none" stroke="black" d="M94,-122.09C94,-145.13 94,-182 94,-182 94,-182 771.21,-182 771.21,-182"/>
<polygon fill="black" stroke="black" points="771.21,-185.5 781.21,-182 771.21,-178.5 771.21,-185.5"/>
</g>
<!-- SignupService -->
<g id="node13" class="node">
<title>SignupService</title>
<ellipse fill="#fdb462" stroke="black" cx="1306" cy="-104" rx="67.22" ry="18"/>
<text text-anchor="middle" x="1306" y="-99.8" font-family="Times,serif" font-size="14.00">SignupService</text>
</g>
<!-- SignupService&#45;&gt;SignupModule -->
<g id="edge12" class="edge">
<title>SignupService&#45;&gt;SignupModule</title>
<path fill="none" stroke="black" d="M1306,-122.11C1306,-141.34 1306,-169 1306,-169 1306,-169 890.94,-169 890.94,-169"/>
<polygon fill="black" stroke="black" points="890.94,-165.5 880.94,-169 890.94,-172.5 890.94,-165.5"/>
</g>
</g>
</svg>
