<?xml version="1.0" encoding="UTF-8" standalone="no"?>
<!DOCTYPE svg PUBLIC "-//W3C//DTD SVG 1.1//EN"
 "http://www.w3.org/Graphics/SVG/1.1/DTD/svg11.dtd">
<!-- Generated by graphviz version 2.47.0 (20210316.0004)
 -->
<!-- Title: dependencies Pages: 1 -->
<svg width="1600pt" height="211pt"
 viewBox="0.00 0.00 1600.00 211.00" xmlns="http://www.w3.org/2000/svg" xmlns:xlink="http://www.w3.org/1999/xlink">
<g id="graph0" class="graph" transform="scale(1 1) rotate(0) translate(4 207)">
<title>dependencies</title>
<polygon fill="white" stroke="transparent" points="-4,4 -4,-207 1596,-207 1596,4 -4,4"/>
<text text-anchor="start" x="775.01" y="-42.4" font-family="Times-12" font-weight="bold" font-size="14.00">Legend</text>
<polygon fill="#ffffb3" stroke="transparent" points="562,-10 562,-30 582,-30 582,-10 562,-10"/>
<text text-anchor="start" x="585.63" y="-15.4" font-family="Times-12" font-size="14.00"> &#160;Declarations</text>
<polygon fill="#8dd3c7" stroke="transparent" points="675,-10 675,-30 695,-30 695,-10 675,-10"/>
<text text-anchor="start" x="698.73" y="-15.4" font-family="Times-12" font-size="14.00"> &#160;Module</text>
<polygon fill="#80b1d3" stroke="transparent" points="761,-10 761,-30 781,-30 781,-10 761,-10"/>
<text text-anchor="start" x="784.78" y="-15.4" font-family="Times-12" font-size="14.00"> &#160;Bootstrap</text>
<polygon fill="#fdb462" stroke="transparent" points="858,-10 858,-30 878,-30 878,-10 858,-10"/>
<text text-anchor="start" x="881.67" y="-15.4" font-family="Times-12" font-size="14.00"> &#160;Providers</text>
<polygon fill="#fb8072" stroke="transparent" points="954,-10 954,-30 974,-30 974,-10 954,-10"/>
<text text-anchor="start" x="977.73" y="-15.4" font-family="Times-12" font-size="14.00"> &#160;Exports</text>
<g id="clust1" class="cluster">
<title>cluster_SsoModule</title>
<polygon fill="none" stroke="black" stroke-dasharray="1,5" points="8,-70 8,-195 1584,-195 1584,-70 8,-70"/>
</g>
<g id="clust6" class="cluster">
<title>cluster_SsoModule_imports</title>
<polygon fill="none" stroke="black" points="523,-78 523,-130 1576,-130 1576,-78 523,-78"/>
</g>
<g id="clust2" class="cluster">
<title>cluster_SsoModule_declarations</title>
<polygon fill="none" stroke="black" points="16,-78 16,-130 515,-130 515,-78 16,-78"/>
</g>
<!-- SelectOrgComponent -->
<g id="node1" class="node">
<title>SelectOrgComponent</title>
<polygon fill="#ffffb3" stroke="black" points="506.81,-122 369.19,-122 369.19,-86 506.81,-86 506.81,-122"/>
<text text-anchor="middle" x="438" y="-99.8" font-family="Times,serif" font-size="14.00">SelectOrgComponent</text>
</g>
<!-- SsoModule -->
<g id="node4" class="node">
<title>SsoModule</title>
<polygon fill="#8dd3c7" stroke="black" points="896.78,-187 893.78,-191 872.78,-191 869.78,-187 817.22,-187 817.22,-151 896.78,-151 896.78,-187"/>
<text text-anchor="middle" x="857" y="-164.8" font-family="Times,serif" font-size="14.00">SsoModule</text>
</g>
<!-- SelectOrgComponent&#45;&gt;SsoModule -->
<g id="edge1" class="edge">
<title>SelectOrgComponent&#45;&gt;SsoModule</title>
<path fill="none" stroke="black" d="M438,-122.11C438,-141.34 438,-169 438,-169 438,-169 807.2,-169 807.2,-169"/>
<polygon fill="black" stroke="black" points="807.2,-172.5 817.2,-169 807.2,-165.5 807.2,-172.5"/>
</g>
<!-- UpdateContactComponent -->
<g id="node2" class="node">
<title>UpdateContactComponent</title>
<polygon fill="#ffffb3" stroke="black" points="351.81,-122 186.19,-122 186.19,-86 351.81,-86 351.81,-122"/>
<text text-anchor="middle" x="269" y="-99.8" font-family="Times,serif" font-size="14.00">UpdateContactComponent</text>
</g>
<!-- UpdateContactComponent&#45;&gt;SsoModule -->
<g id="edge2" class="edge">
<title>UpdateContactComponent&#45;&gt;SsoModule</title>
<path fill="none" stroke="black" d="M269,-122.28C269,-143.32 269,-175 269,-175 269,-175 807.05,-175 807.05,-175"/>
<polygon fill="black" stroke="black" points="807.05,-178.5 817.05,-175 807.05,-171.5 807.05,-178.5"/>
</g>
<!-- AuthFailedComponent -->
<g id="node3" class="node">
<title>AuthFailedComponent</title>
<polygon fill="#ffffb3" stroke="black" points="168.32,-122 23.68,-122 23.68,-86 168.32,-86 168.32,-122"/>
<text text-anchor="middle" x="96" y="-99.8" font-family="Times,serif" font-size="14.00">AuthFailedComponent</text>
</g>
<!-- AuthFailedComponent&#45;&gt;SsoModule -->
<g id="edge3" class="edge">
<title>AuthFailedComponent&#45;&gt;SsoModule</title>
<path fill="none" stroke="black" d="M96,-122.09C96,-145.13 96,-182 96,-182 96,-182 807.16,-182 807.16,-182"/>
<polygon fill="black" stroke="black" points="807.16,-185.5 817.16,-182 807.16,-178.5 807.16,-185.5"/>
</g>
<!-- CommonModule -->
<g id="node5" class="node">
<title>CommonModule</title>
<polygon fill="#8dd3c7" stroke="black" points="1567.67,-122 1564.67,-126 1543.67,-126 1540.67,-122 1456.33,-122 1456.33,-86 1567.67,-86 1567.67,-122"/>
<text text-anchor="middle" x="1512" y="-99.8" font-family="Times,serif" font-size="14.00">CommonModule</text>
</g>
<!-- CommonModule&#45;&gt;SsoModule -->
<g id="edge4" class="edge">
<title>CommonModule&#45;&gt;SsoModule</title>
<path fill="none" stroke="black" d="M1512,-122.09C1512,-145.13 1512,-182 1512,-182 1512,-182 906.99,-182 906.99,-182"/>
<polygon fill="black" stroke="black" points="906.99,-178.5 896.99,-182 906.99,-185.5 906.99,-178.5"/>
</g>
<!-- SsoRoutingModule -->
<g id="node6" class="node">
<title>SsoRoutingModule</title>
<polygon fill="#8dd3c7" stroke="black" points="1438.39,-122 1435.39,-126 1414.39,-126 1411.39,-122 1313.61,-122 1313.61,-86 1438.39,-86 1438.39,-122"/>
<text text-anchor="middle" x="1376" y="-99.8" font-family="Times,serif" font-size="14.00">SsoRoutingModule</text>
</g>
<!-- SsoRoutingModule&#45;&gt;SsoModule -->
<g id="edge5" class="edge">
<title>SsoRoutingModule&#45;&gt;SsoModule</title>
<path fill="none" stroke="black" d="M1376,-122.28C1376,-143.32 1376,-175 1376,-175 1376,-175 906.86,-175 906.86,-175"/>
<polygon fill="black" stroke="black" points="906.86,-171.5 896.86,-175 906.86,-178.5 906.86,-171.5"/>
</g>
<!-- SuiModule -->
<g id="node7" class="node">
<title>SuiModule</title>
<polygon fill="#8dd3c7" stroke="black" points="1295.22,-122 1292.22,-126 1271.22,-126 1268.22,-122 1216.78,-122 1216.78,-86 1295.22,-86 1295.22,-122"/>
<text text-anchor="middle" x="1256" y="-99.8" font-family="Times,serif" font-size="14.00">SuiModule</text>
</g>
<!-- SuiModule&#45;&gt;SsoModule -->
<g id="edge6" class="edge">
<title>SuiModule&#45;&gt;SsoModule</title>
<path fill="none" stroke="black" d="M1256,-122.11C1256,-141.34 1256,-169 1256,-169 1256,-169 907.08,-169 907.08,-169"/>
<polygon fill="black" stroke="black" points="907.08,-165.5 897.08,-169 907.08,-172.5 907.08,-165.5"/>
</g>
<!-- TelemetryModule -->
<g id="node8" class="node">
<title>TelemetryModule</title>
<polygon fill="#8dd3c7" stroke="black" points="1198.58,-122 1195.58,-126 1174.58,-126 1171.58,-122 1081.42,-122 1081.42,-86 1198.58,-86 1198.58,-122"/>
<text text-anchor="middle" x="1140" y="-99.8" font-family="Times,serif" font-size="14.00">TelemetryModule</text>
</g>
<!-- TelemetryModule&#45;&gt;SsoModule -->
<g id="edge7" class="edge">
<title>TelemetryModule&#45;&gt;SsoModule</title>
<path fill="none" stroke="black" d="M1140,-122.02C1140,-139.37 1140,-163 1140,-163 1140,-163 906.95,-163 906.95,-163"/>
<polygon fill="black" stroke="black" points="906.95,-159.5 896.95,-163 906.95,-166.5 906.95,-159.5"/>
</g>
<!-- SharedFeatureModule -->
<g id="node9" class="node">
<title>SharedFeatureModule</title>
<polygon fill="#8dd3c7" stroke="black" points="1063.4,-122 1060.4,-126 1039.4,-126 1036.4,-122 922.6,-122 922.6,-86 1063.4,-86 1063.4,-122"/>
<text text-anchor="middle" x="993" y="-99.8" font-family="Times,serif" font-size="14.00">SharedFeatureModule</text>
</g>
<!-- SharedFeatureModule&#45;&gt;SsoModule -->
<g id="edge8" class="edge">
<title>SharedFeatureModule&#45;&gt;SsoModule</title>
<path fill="none" stroke="black" d="M993,-122.24C993,-137.57 993,-157 993,-157 993,-157 907.07,-157 907.07,-157"/>
<polygon fill="black" stroke="black" points="907.07,-153.5 897.07,-157 907.07,-160.5 907.07,-153.5"/>
</g>
<!-- FormsModule -->
<g id="node10" class="node">
<title>FormsModule</title>
<polygon fill="#8dd3c7" stroke="black" points="904.83,-122 901.83,-126 880.83,-126 877.83,-122 809.17,-122 809.17,-86 904.83,-86 904.83,-122"/>
<text text-anchor="middle" x="857" y="-99.8" font-family="Times,serif" font-size="14.00">FormsModule</text>
</g>
<!-- FormsModule&#45;&gt;SsoModule -->
<g id="edge9" class="edge">
<title>FormsModule&#45;&gt;SsoModule</title>
<path fill="none" stroke="black" d="M857,-122.11C857,-122.11 857,-140.99 857,-140.99"/>
<polygon fill="black" stroke="black" points="853.5,-140.99 857,-150.99 860.5,-140.99 853.5,-140.99"/>
</g>
<!-- ReactiveFormsModule -->
<g id="node11" class="node">
<title>ReactiveFormsModule</title>
<polygon fill="#8dd3c7" stroke="black" points="791.3,-122 788.3,-126 767.3,-126 764.3,-122 646.7,-122 646.7,-86 791.3,-86 791.3,-122"/>
<text text-anchor="middle" x="719" y="-99.8" font-family="Times,serif" font-size="14.00">ReactiveFormsModule</text>
</g>
<!-- ReactiveFormsModule&#45;&gt;SsoModule -->
<g id="edge10" class="edge">
<title>ReactiveFormsModule&#45;&gt;SsoModule</title>
<path fill="none" stroke="black" d="M719,-122.24C719,-137.57 719,-157 719,-157 719,-157 807.08,-157 807.08,-157"/>
<polygon fill="black" stroke="black" points="807.08,-160.5 817.08,-157 807.08,-153.5 807.08,-160.5"/>
</g>
<!-- SharedModule -->
<g id="node12" class="node">
<title>SharedModule</title>
<polygon fill="#8dd3c7" stroke="black" points="629.42,-122 626.42,-126 605.42,-126 602.42,-122 530.58,-122 530.58,-86 629.42,-86 629.42,-122"/>
<text text-anchor="middle" x="580" y="-99.8" font-family="Times,serif" font-size="14.00">SharedModule</text>
</g>
<!-- SharedModule&#45;&gt;SsoModule -->
<g id="edge11" class="edge">
<title>SharedModule&#45;&gt;SsoModule</title>
<path fill="none" stroke="black" d="M580,-122.02C580,-139.37 580,-163 580,-163 580,-163 807.02,-163 807.02,-163"/>
<polygon fill="black" stroke="black" points="807.02,-166.5 817.02,-163 807.02,-159.5 807.02,-166.5"/>
</g>
</g>
</svg>
