<?xml version="1.0" encoding="UTF-8" standalone="no"?>
<!DOCTYPE svg PUBLIC "-//W3C//DTD SVG 1.1//EN"
 "http://www.w3.org/Graphics/SVG/1.1/DTD/svg11.dtd">
<!-- Generated by graphviz version 2.47.0 (20210316.0004)
 -->
<!-- Title: dependencies Pages: 1 -->
<svg width="5499pt" height="349pt"
 viewBox="0.00 0.00 5499.00 349.00" xmlns="http://www.w3.org/2000/svg" xmlns:xlink="http://www.w3.org/1999/xlink">
<g id="graph0" class="graph" transform="scale(1 1) rotate(0) translate(4 345)">
<title>dependencies</title>
<polygon fill="white" stroke="transparent" points="-4,4 -4,-345 5495,-345 5495,4 -4,4"/>
<text text-anchor="start" x="2724.51" y="-42.4" font-family="Times-12" font-weight="bold" font-size="14.00">Legend</text>
<polygon fill="#ffffb3" stroke="transparent" points="2511.5,-10 2511.5,-30 2531.5,-30 2531.5,-10 2511.5,-10"/>
<text text-anchor="start" x="2535.13" y="-15.4" font-family="Times-12" font-size="14.00"> &#160;Declarations</text>
<polygon fill="#8dd3c7" stroke="transparent" points="2624.5,-10 2624.5,-30 2644.5,-30 2644.5,-10 2624.5,-10"/>
<text text-anchor="start" x="2648.23" y="-15.4" font-family="Times-12" font-size="14.00"> &#160;Module</text>
<polygon fill="#80b1d3" stroke="transparent" points="2710.5,-10 2710.5,-30 2730.5,-30 2730.5,-10 2710.5,-10"/>
<text text-anchor="start" x="2734.28" y="-15.4" font-family="Times-12" font-size="14.00"> &#160;Bootstrap</text>
<polygon fill="#fdb462" stroke="transparent" points="2807.5,-10 2807.5,-30 2827.5,-30 2827.5,-10 2807.5,-10"/>
<text text-anchor="start" x="2831.17" y="-15.4" font-family="Times-12" font-size="14.00"> &#160;Providers</text>
<polygon fill="#fb8072" stroke="transparent" points="2903.5,-10 2903.5,-30 2923.5,-30 2923.5,-10 2903.5,-10"/>
<text text-anchor="start" x="2927.23" y="-15.4" font-family="Times-12" font-size="14.00"> &#160;Exports</text>
<g id="clust1" class="cluster">
<title>cluster_SharedFeatureModule</title>
<polygon fill="none" stroke="black" stroke-dasharray="1,5" points="8,-70 8,-333 5483,-333 5483,-70 8,-70"/>
</g>
<g id="clust11" class="cluster">
<title>cluster_SharedFeatureModule_EnrollContributorComponent_providers</title>
<polygon fill="none" stroke="black" points="5101,-78 5101,-195 5299,-195 5299,-78 5101,-78"/>
</g>
<g id="clust12" class="cluster">
<title>cluster_SharedFeatureModule_ProgramListComponent_providers</title>
<polygon fill="none" stroke="black" points="5307,-143 5307,-195 5475,-195 5475,-143 5307,-143"/>
</g>
<g id="clust2" class="cluster">
<title>cluster_SharedFeatureModule_declarations</title>
<polygon fill="none" stroke="black" points="2268,-143 2268,-195 5093,-195 5093,-143 2268,-143"/>
</g>
<g id="clust21" class="cluster">
<title>cluster_SharedFeatureModule_exports</title>
<polygon fill="none" stroke="black" points="938,-273 938,-325 3860,-325 3860,-273 938,-273"/>
</g>
<g id="clust20" class="cluster">
<title>cluster_SharedFeatureModule_imports</title>
<polygon fill="none" stroke="black" points="16,-143 16,-195 2260,-195 2260,-143 16,-143"/>
</g>
<!-- ViewAllComponent -->
<g id="node1" class="node">
<title>ViewAllComponent</title>
<polygon fill="#ffffb3" stroke="black" points="5084.54,-187 4955.46,-187 4955.46,-151 5084.54,-151 5084.54,-187"/>
<text text-anchor="middle" x="5020" y="-164.8" font-family="Times,serif" font-size="14.00">ViewAllComponent</text>
</g>
<!-- SharedFeatureModule -->
<g id="node18" class="node">
<title>SharedFeatureModule</title>
<polygon fill="#8dd3c7" stroke="black" points="2352.4,-252 2349.4,-256 2328.4,-256 2325.4,-252 2211.6,-252 2211.6,-216 2352.4,-216 2352.4,-252"/>
<text text-anchor="middle" x="2282" y="-229.8" font-family="Times,serif" font-size="14.00">SharedFeatureModule</text>
</g>
<!-- ViewAllComponent&#45;&gt;SharedFeatureModule -->
<g id="edge1" class="edge">
<title>ViewAllComponent&#45;&gt;SharedFeatureModule</title>
<path fill="none" stroke="black" d="M5020,-187.22C5020,-207.37 5020,-237 5020,-237 5020,-237 2362.43,-237 2362.43,-237"/>
<polygon fill="black" stroke="black" points="2362.43,-233.5 2352.43,-237 2362.43,-240.5 2362.43,-233.5"/>
</g>
<!-- ProfileFrameworkPopupComponent -->
<g id="node2" class="node">
<title>ProfileFrameworkPopupComponent</title>
<polygon fill="#ffffb3" stroke="black" points="4936.74,-187 4717.26,-187 4717.26,-151 4936.74,-151 4936.74,-187"/>
<text text-anchor="middle" x="4827" y="-164.8" font-family="Times,serif" font-size="14.00">ProfileFrameworkPopupComponent</text>
</g>
<!-- ProfileFrameworkPopupComponent&#45;&gt;SharedFeatureModule -->
<g id="edge2" class="edge">
<title>ProfileFrameworkPopupComponent&#45;&gt;SharedFeatureModule</title>
<path fill="none" stroke="black" d="M4827,-187.31C4827,-207.15 4827,-236 4827,-236 4827,-236 2362.39,-236 2362.39,-236"/>
<polygon fill="black" stroke="black" points="2362.39,-232.5 2352.39,-236 2362.39,-239.5 2362.39,-232.5"/>
</g>
<!-- TermsAndConditionsPopupComponent -->
<g id="node3" class="node">
<title>TermsAndConditionsPopupComponent</title>
<polygon fill="#ffffb3" stroke="black" points="4699.44,-187 4460.56,-187 4460.56,-151 4699.44,-151 4699.44,-187"/>
<text text-anchor="middle" x="4580" y="-164.8" font-family="Times,serif" font-size="14.00">TermsAndConditionsPopupComponent</text>
</g>
<!-- TermsAndConditionsPopupComponent&#45;&gt;SharedFeatureModule -->
<g id="edge3" class="edge">
<title>TermsAndConditionsPopupComponent&#45;&gt;SharedFeatureModule</title>
<path fill="none" stroke="black" d="M4580,-187.11C4580,-206.34 4580,-234 4580,-234 4580,-234 2362.34,-234 2362.34,-234"/>
<polygon fill="black" stroke="black" points="2362.34,-230.5 2352.34,-234 2362.34,-237.5 2362.34,-230.5"/>
</g>
<!-- OtpPopupComponent -->
<g id="node4" class="node">
<title>OtpPopupComponent</title>
<polygon fill="#ffffb3" stroke="black" points="4443.11,-187 4304.89,-187 4304.89,-151 4443.11,-151 4443.11,-187"/>
<text text-anchor="middle" x="4374" y="-164.8" font-family="Times,serif" font-size="14.00">OtpPopupComponent</text>
</g>
<!-- OtpPopupComponent&#45;&gt;SharedFeatureModule -->
<g id="edge4" class="edge">
<title>OtpPopupComponent&#45;&gt;SharedFeatureModule</title>
<path fill="none" stroke="black" d="M4374,-187.17C4374,-206.09 4374,-233 4374,-233 4374,-233 2362.2,-233 2362.2,-233"/>
<polygon fill="black" stroke="black" points="2362.2,-229.5 2352.2,-233 2362.2,-236.5 2362.2,-229.5"/>
</g>
<!-- BatchInfoComponent -->
<g id="node5" class="node">
<title>BatchInfoComponent</title>
<polygon fill="#ffffb3" stroke="black" points="4286.81,-187 4149.19,-187 4149.19,-151 4286.81,-151 4286.81,-187"/>
<text text-anchor="middle" x="4218" y="-164.8" font-family="Times,serif" font-size="14.00">BatchInfoComponent</text>
</g>
<!-- BatchInfoComponent&#45;&gt;SharedFeatureModule -->
<g id="edge5" class="edge">
<title>BatchInfoComponent&#45;&gt;SharedFeatureModule</title>
<path fill="none" stroke="black" d="M4218,-187.27C4218,-205.56 4218,-231 4218,-231 4218,-231 2362.33,-231 2362.33,-231"/>
<polygon fill="black" stroke="black" points="2362.33,-227.5 2352.33,-231 2362.33,-234.5 2362.33,-227.5"/>
</g>
<!-- SsoMergeConfirmationComponent -->
<g id="node6" class="node">
<title>SsoMergeConfirmationComponent</title>
<polygon fill="#ffffb3" stroke="black" points="4131.53,-187 3918.47,-187 3918.47,-151 4131.53,-151 4131.53,-187"/>
<text text-anchor="middle" x="4025" y="-164.8" font-family="Times,serif" font-size="14.00">SsoMergeConfirmationComponent</text>
</g>
<!-- SsoMergeConfirmationComponent&#45;&gt;SharedFeatureModule -->
<g id="edge6" class="edge">
<title>SsoMergeConfirmationComponent&#45;&gt;SharedFeatureModule</title>
<path fill="none" stroke="black" d="M4025,-187.3C4025,-205.27 4025,-230 4025,-230 4025,-230 2362.21,-230 2362.21,-230"/>
<polygon fill="black" stroke="black" points="2362.21,-226.5 2352.21,-230 2362.21,-233.5 2362.21,-226.5"/>
</g>
<!-- ValidateTeacherIdentifierPopupComponent -->
<g id="node7" class="node">
<title>ValidateTeacherIdentifierPopupComponent</title>
<polygon fill="#ffffb3" stroke="black" points="3899.69,-187 3638.31,-187 3638.31,-151 3899.69,-151 3899.69,-187"/>
<text text-anchor="middle" x="3769" y="-164.8" font-family="Times,serif" font-size="14.00">ValidateTeacherIdentifierPopupComponent</text>
</g>
<!-- ValidateTeacherIdentifierPopupComponent&#45;&gt;SharedFeatureModule -->
<g id="edge7" class="edge">
<title>ValidateTeacherIdentifierPopupComponent&#45;&gt;SharedFeatureModule</title>
<path fill="none" stroke="black" d="M3669.39,-187.02C3669.39,-204.37 3669.39,-228 3669.39,-228 3669.39,-228 2362.23,-228 2362.23,-228"/>
<polygon fill="black" stroke="black" points="2362.23,-224.5 2352.23,-228 2362.23,-231.5 2362.23,-224.5"/>
</g>
<!-- UserLocationComponent -->
<g id="node8" class="node">
<title>UserLocationComponent</title>
<polygon fill="#ffffb3" stroke="black" points="3619.52,-187 3462.48,-187 3462.48,-151 3619.52,-151 3619.52,-187"/>
<text text-anchor="middle" x="3541" y="-164.8" font-family="Times,serif" font-size="14.00">UserLocationComponent</text>
</g>
<!-- UserLocationComponent&#45;&gt;SharedFeatureModule -->
<g id="edge8" class="edge">
<title>UserLocationComponent&#45;&gt;SharedFeatureModule</title>
<path fill="none" stroke="black" d="M3469.81,-187.03C3469.81,-204.06 3469.81,-227 3469.81,-227 3469.81,-227 2362.31,-227 2362.31,-227"/>
<polygon fill="black" stroke="black" points="2362.31,-223.5 2352.31,-227 2362.31,-230.5 2362.31,-223.5"/>
</g>
<!-- EnrollContributorComponent -->
<g id="node9" class="node">
<title>EnrollContributorComponent</title>
<polygon fill="#ffffb3" stroke="black" points="5290.66,-187 5109.34,-187 5109.34,-151 5290.66,-151 5290.66,-187"/>
<text text-anchor="middle" x="5200" y="-164.8" font-family="Times,serif" font-size="14.00">EnrollContributorComponent</text>
</g>
<!-- EnrollContributorComponent&#45;&gt;SharedFeatureModule -->
<g id="edge9" class="edge">
<title>EnrollContributorComponent&#45;&gt;SharedFeatureModule</title>
<path fill="none" stroke="black" d="M5200,-187.03C5200,-207.77 5200,-239 5200,-239 5200,-239 2362.33,-239 2362.33,-239"/>
<polygon fill="black" stroke="black" points="2362.33,-235.5 2352.33,-239 2362.33,-242.5 2362.33,-235.5"/>
</g>
<!-- ProgramListComponent -->
<g id="node10" class="node">
<title>ProgramListComponent</title>
<polygon fill="#ffffb3" stroke="black" points="5466.82,-187 5315.18,-187 5315.18,-151 5466.82,-151 5466.82,-187"/>
<text text-anchor="middle" x="5391" y="-164.8" font-family="Times,serif" font-size="14.00">ProgramListComponent</text>
</g>
<!-- ProgramListComponent&#45;&gt;SharedFeatureModule -->
<g id="edge11" class="edge">
<title>ProgramListComponent&#45;&gt;SharedFeatureModule</title>
<path fill="none" stroke="black" d="M5391,-187.28C5391,-208.32 5391,-240 5391,-240 5391,-240 2362.41,-240 2362.41,-240"/>
<polygon fill="black" stroke="black" points="2362.41,-236.5 2352.41,-240 2362.41,-243.5 2362.41,-236.5"/>
</g>
<!-- DaysToGoPipe -->
<g id="node11" class="node">
<title>DaysToGoPipe</title>
<polygon fill="#ffffb3" stroke="black" points="3444.31,-187 3341.69,-187 3341.69,-151 3444.31,-151 3444.31,-187"/>
<text text-anchor="middle" x="3393" y="-164.8" font-family="Times,serif" font-size="14.00">DaysToGoPipe</text>
</g>
<!-- DaysToGoPipe&#45;&gt;SharedFeatureModule -->
<g id="edge13" class="edge">
<title>DaysToGoPipe&#45;&gt;SharedFeatureModule</title>
<path fill="none" stroke="black" d="M3393,-187.03C3393,-203.4 3393,-225 3393,-225 3393,-225 2362.34,-225 2362.34,-225"/>
<polygon fill="black" stroke="black" points="2362.34,-221.5 2352.34,-225 2362.34,-228.5 2362.34,-221.5"/>
</g>
<!-- TextbookListComponent -->
<g id="node12" class="node">
<title>TextbookListComponent</title>
<polygon fill="#ffffb3" stroke="black" points="3323.27,-187 3166.73,-187 3166.73,-151 3323.27,-151 3323.27,-187"/>
<text text-anchor="middle" x="3245" y="-164.8" font-family="Times,serif" font-size="14.00">TextbookListComponent</text>
</g>
<!-- TextbookListComponent&#45;&gt;SharedFeatureModule -->
<g id="edge14" class="edge">
<title>TextbookListComponent&#45;&gt;SharedFeatureModule</title>
<path fill="none" stroke="black" d="M3182.71,-187.01C3182.71,-203.05 3182.71,-224 3182.71,-224 3182.71,-224 2362.3,-224 2362.3,-224"/>
<polygon fill="black" stroke="black" points="2362.3,-220.5 2352.3,-224 2362.3,-227.5 2362.3,-220.5"/>
</g>
<!-- OrgUsersListComponent -->
<g id="node13" class="node">
<title>OrgUsersListComponent</title>
<polygon fill="#ffffb3" stroke="black" points="3148.25,-187 2991.75,-187 2991.75,-151 3148.25,-151 3148.25,-187"/>
<text text-anchor="middle" x="3070" y="-164.8" font-family="Times,serif" font-size="14.00">OrgUsersListComponent</text>
</g>
<!-- OrgUsersListComponent&#45;&gt;SharedFeatureModule -->
<g id="edge15" class="edge">
<title>OrgUsersListComponent&#45;&gt;SharedFeatureModule</title>
<path fill="none" stroke="black" d="M3015.52,-187.24C3015.52,-202.57 3015.52,-222 3015.52,-222 3015.52,-222 2362.33,-222 2362.33,-222"/>
<polygon fill="black" stroke="black" points="2362.33,-218.5 2352.33,-222 2362.33,-225.5 2362.33,-218.5"/>
</g>
<!-- HelpPageComponent -->
<g id="node14" class="node">
<title>HelpPageComponent</title>
<polygon fill="#ffffb3" stroke="black" points="2973.76,-187 2838.24,-187 2838.24,-151 2973.76,-151 2973.76,-187"/>
<text text-anchor="middle" x="2906" y="-164.8" font-family="Times,serif" font-size="14.00">HelpPageComponent</text>
</g>
<!-- HelpPageComponent&#45;&gt;SharedFeatureModule -->
<g id="edge16" class="edge">
<title>HelpPageComponent&#45;&gt;SharedFeatureModule</title>
<path fill="none" stroke="black" d="M2859.32,-187.19C2859.32,-202.18 2859.32,-221 2859.32,-221 2859.32,-221 2362.21,-221 2362.21,-221"/>
<polygon fill="black" stroke="black" points="2362.21,-217.5 2352.21,-221 2362.21,-224.5 2362.21,-217.5"/>
</g>
<!-- ProjectFilterComponent -->
<g id="node15" class="node">
<title>ProjectFilterComponent</title>
<polygon fill="#ffffb3" stroke="black" points="2819.82,-187 2668.18,-187 2668.18,-151 2819.82,-151 2819.82,-187"/>
<text text-anchor="middle" x="2744" y="-164.8" font-family="Times,serif" font-size="14.00">ProjectFilterComponent</text>
</g>
<!-- ProjectFilterComponent&#45;&gt;SharedFeatureModule -->
<g id="edge17" class="edge">
<title>ProjectFilterComponent&#45;&gt;SharedFeatureModule</title>
<path fill="none" stroke="black" d="M2769.22,-187.05C2769.22,-201.37 2769.22,-219 2769.22,-219 2769.22,-219 2362.33,-219 2362.33,-219"/>
<polygon fill="black" stroke="black" points="2362.33,-215.5 2352.33,-219 2362.33,-222.5 2362.33,-215.5"/>
</g>
<!-- ProgramHeaderComponent -->
<g id="node16" class="node">
<title>ProgramHeaderComponent</title>
<polygon fill="#ffffb3" stroke="black" points="2649.95,-187 2480.05,-187 2480.05,-151 2649.95,-151 2649.95,-187"/>
<text text-anchor="middle" x="2565" y="-164.8" font-family="Times,serif" font-size="14.00">ProgramHeaderComponent</text>
</g>
<!-- ProgramHeaderComponent&#45;&gt;SharedFeatureModule -->
<g id="edge18" class="edge">
<title>ProgramHeaderComponent&#45;&gt;SharedFeatureModule</title>
<path fill="none" stroke="black" d="M2562.81,-187.25C2562.81,-201.18 2562.81,-218 2562.81,-218 2562.81,-218 2362.5,-218 2362.5,-218"/>
<polygon fill="black" stroke="black" points="2362.5,-214.5 2352.5,-218 2362.5,-221.5 2362.5,-214.5"/>
</g>
<!-- ResourceTemplateComponent -->
<g id="node17" class="node">
<title>ResourceTemplateComponent</title>
<polygon fill="#ffffb3" stroke="black" points="2462.29,-187 2275.71,-187 2275.71,-151 2462.29,-151 2462.29,-187"/>
<text text-anchor="middle" x="2369" y="-164.8" font-family="Times,serif" font-size="14.00">ResourceTemplateComponent</text>
</g>
<!-- ResourceTemplateComponent&#45;&gt;SharedFeatureModule -->
<g id="edge19" class="edge">
<title>ResourceTemplateComponent&#45;&gt;SharedFeatureModule</title>
<path fill="none" stroke="black" d="M2314.03,-187.11C2314.03,-187.11 2314.03,-205.99 2314.03,-205.99"/>
<polygon fill="black" stroke="black" points="2310.53,-205.99 2314.03,-215.99 2317.53,-205.99 2310.53,-205.99"/>
</g>
<!-- ViewAllComponent  -->
<g id="node37" class="node">
<title>ViewAllComponent </title>
<polygon fill="#fb8072" stroke="black" points="3851.54,-317 3718.46,-317 3718.46,-281 3851.54,-281 3851.54,-317"/>
<text text-anchor="middle" x="3785" y="-294.8" font-family="Times,serif" font-size="14.00">ViewAllComponent </text>
</g>
<!-- SharedFeatureModule&#45;&gt;ViewAllComponent  -->
<g id="edge37" class="edge">
<title>SharedFeatureModule&#45;&gt;ViewAllComponent </title>
<path fill="none" stroke="black" stroke-dasharray="5,2" d="M2352.48,-242C2649.63,-242 3785,-242 3785,-242 3785,-242 3785,-270.96 3785,-270.96"/>
<polygon fill="black" stroke="black" points="3781.5,-270.96 3785,-280.96 3788.5,-270.96 3781.5,-270.96"/>
</g>
<!-- ProfileFrameworkPopupComponent  -->
<g id="node38" class="node">
<title>ProfileFrameworkPopupComponent </title>
<polygon fill="#fb8072" stroke="black" points="3700.74,-317 3477.26,-317 3477.26,-281 3700.74,-281 3700.74,-317"/>
<text text-anchor="middle" x="3589" y="-294.8" font-family="Times,serif" font-size="14.00">ProfileFrameworkPopupComponent </text>
</g>
<!-- SharedFeatureModule&#45;&gt;ProfileFrameworkPopupComponent  -->
<g id="edge38" class="edge">
<title>SharedFeatureModule&#45;&gt;ProfileFrameworkPopupComponent </title>
<path fill="none" stroke="black" stroke-dasharray="5,2" d="M2352.35,-243C2618.48,-243 3548.57,-243 3548.57,-243 3548.57,-243 3548.57,-270.97 3548.57,-270.97"/>
<polygon fill="black" stroke="black" points="3545.07,-270.97 3548.57,-280.97 3552.07,-270.97 3545.07,-270.97"/>
</g>
<!-- TermsAndConditionsPopupComponent  -->
<g id="node39" class="node">
<title>TermsAndConditionsPopupComponent </title>
<polygon fill="#fb8072" stroke="black" points="3458.94,-317 3217.06,-317 3217.06,-281 3458.94,-281 3458.94,-317"/>
<text text-anchor="middle" x="3338" y="-294.8" font-family="Times,serif" font-size="14.00">TermsAndConditionsPopupComponent </text>
</g>
<!-- SharedFeatureModule&#45;&gt;TermsAndConditionsPopupComponent  -->
<g id="edge39" class="edge">
<title>SharedFeatureModule&#45;&gt;TermsAndConditionsPopupComponent </title>
<path fill="none" stroke="black" stroke-dasharray="5,2" d="M2352.28,-245C2578.04,-245 3270.21,-245 3270.21,-245 3270.21,-245 3270.21,-270.72 3270.21,-270.72"/>
<polygon fill="black" stroke="black" points="3266.71,-270.72 3270.21,-280.72 3273.71,-270.72 3266.71,-270.72"/>
</g>
<!-- OtpPopupComponent  -->
<g id="node40" class="node">
<title>OtpPopupComponent </title>
<polygon fill="#fb8072" stroke="black" points="3198.61,-317 3057.39,-317 3057.39,-281 3198.61,-281 3198.61,-317"/>
<text text-anchor="middle" x="3128" y="-294.8" font-family="Times,serif" font-size="14.00">OtpPopupComponent </text>
</g>
<!-- SharedFeatureModule&#45;&gt;OtpPopupComponent  -->
<g id="edge40" class="edge">
<title>SharedFeatureModule&#45;&gt;OtpPopupComponent </title>
<path fill="none" stroke="black" stroke-dasharray="5,2" d="M2352.33,-246C2551.13,-246 3102.78,-246 3102.78,-246 3102.78,-246 3102.78,-270.76 3102.78,-270.76"/>
<polygon fill="black" stroke="black" points="3099.28,-270.76 3102.78,-280.76 3106.28,-270.76 3099.28,-270.76"/>
</g>
<!-- BatchInfoComponent  -->
<g id="node41" class="node">
<title>BatchInfoComponent </title>
<polygon fill="#fb8072" stroke="black" points="3039.31,-317 2898.69,-317 2898.69,-281 3039.31,-281 3039.31,-317"/>
<text text-anchor="middle" x="2969" y="-294.8" font-family="Times,serif" font-size="14.00">BatchInfoComponent </text>
</g>
<!-- SharedFeatureModule&#45;&gt;BatchInfoComponent  -->
<g id="edge41" class="edge">
<title>SharedFeatureModule&#45;&gt;BatchInfoComponent </title>
<path fill="none" stroke="black" stroke-dasharray="5,2" d="M2352.33,-248C2521.3,-248 2936.24,-248 2936.24,-248 2936.24,-248 2936.24,-270.88 2936.24,-270.88"/>
<polygon fill="black" stroke="black" points="2932.74,-270.88 2936.24,-280.88 2939.74,-270.88 2932.74,-270.88"/>
</g>
<!-- SsoMergeConfirmationComponent  -->
<g id="node42" class="node">
<title>SsoMergeConfirmationComponent </title>
<polygon fill="#fb8072" stroke="black" points="2880.53,-317 2663.47,-317 2663.47,-281 2880.53,-281 2880.53,-317"/>
<text text-anchor="middle" x="2772" y="-294.8" font-family="Times,serif" font-size="14.00">SsoMergeConfirmationComponent </text>
</g>
<!-- SharedFeatureModule&#45;&gt;SsoMergeConfirmationComponent  -->
<g id="edge42" class="edge">
<title>SharedFeatureModule&#45;&gt;SsoMergeConfirmationComponent </title>
<path fill="none" stroke="black" stroke-dasharray="5,2" d="M2352.66,-249C2476.28,-249 2718.78,-249 2718.78,-249 2718.78,-249 2718.78,-270.95 2718.78,-270.95"/>
<polygon fill="black" stroke="black" points="2715.28,-270.95 2718.78,-280.95 2722.28,-270.95 2715.28,-270.95"/>
</g>
<!-- ValidateTeacherIdentifierPopupComponent  -->
<g id="node43" class="node">
<title>ValidateTeacherIdentifierPopupComponent </title>
<polygon fill="#fb8072" stroke="black" points="2645.69,-317 2380.31,-317 2380.31,-281 2645.69,-281 2645.69,-317"/>
<text text-anchor="middle" x="2513" y="-294.8" font-family="Times,serif" font-size="14.00">ValidateTeacherIdentifierPopupComponent </text>
</g>
<!-- SharedFeatureModule&#45;&gt;ValidateTeacherIdentifierPopupComponent  -->
<g id="edge43" class="edge">
<title>SharedFeatureModule&#45;&gt;ValidateTeacherIdentifierPopupComponent </title>
<path fill="none" stroke="black" stroke-dasharray="5,2" d="M2352.45,-251C2387,-251 2421.27,-251 2421.27,-251 2421.27,-251 2421.27,-270.85 2421.27,-270.85"/>
<polygon fill="black" stroke="black" points="2417.77,-270.85 2421.27,-280.85 2424.77,-270.85 2417.77,-270.85"/>
</g>
<!-- UserLocationComponent  -->
<g id="node44" class="node">
<title>UserLocationComponent </title>
<polygon fill="#fb8072" stroke="black" points="2362.52,-317 2201.48,-317 2201.48,-281 2362.52,-281 2362.52,-317"/>
<text text-anchor="middle" x="2282" y="-294.8" font-family="Times,serif" font-size="14.00">UserLocationComponent </text>
</g>
<!-- SharedFeatureModule&#45;&gt;UserLocationComponent  -->
<g id="edge44" class="edge">
<title>SharedFeatureModule&#45;&gt;UserLocationComponent </title>
<path fill="none" stroke="black" stroke-dasharray="5,2" d="M2282,-252.11C2282,-252.11 2282,-270.99 2282,-270.99"/>
<polygon fill="black" stroke="black" points="2278.5,-270.99 2282,-280.99 2285.5,-270.99 2278.5,-270.99"/>
</g>
<!-- EnrollContributorComponent  -->
<g id="node45" class="node">
<title>EnrollContributorComponent </title>
<polygon fill="#fb8072" stroke="black" points="2183.66,-317 1998.34,-317 1998.34,-281 2183.66,-281 2183.66,-317"/>
<text text-anchor="middle" x="2091" y="-294.8" font-family="Times,serif" font-size="14.00">EnrollContributorComponent </text>
</g>
<!-- SharedFeatureModule&#45;&gt;EnrollContributorComponent  -->
<g id="edge45" class="edge">
<title>SharedFeatureModule&#45;&gt;EnrollContributorComponent </title>
<path fill="none" stroke="black" stroke-dasharray="5,2" d="M2211.77,-251C2185.49,-251 2161.87,-251 2161.87,-251 2161.87,-251 2161.87,-270.85 2161.87,-270.85"/>
<polygon fill="black" stroke="black" points="2158.37,-270.85 2161.87,-280.85 2165.37,-270.85 2158.37,-270.85"/>
</g>
<!-- ProgramListComponent  -->
<g id="node46" class="node">
<title>ProgramListComponent </title>
<polygon fill="#fb8072" stroke="black" points="1980.32,-317 1825.68,-317 1825.68,-281 1980.32,-281 1980.32,-317"/>
<text text-anchor="middle" x="1903" y="-294.8" font-family="Times,serif" font-size="14.00">ProgramListComponent </text>
</g>
<!-- SharedFeatureModule&#45;&gt;ProgramListComponent  -->
<g id="edge46" class="edge">
<title>SharedFeatureModule&#45;&gt;ProgramListComponent </title>
<path fill="none" stroke="black" stroke-dasharray="5,2" d="M2211.49,-249C2113.89,-249 1949.51,-249 1949.51,-249 1949.51,-249 1949.51,-270.95 1949.51,-270.95"/>
<polygon fill="black" stroke="black" points="1946.01,-270.95 1949.51,-280.95 1953.01,-270.95 1946.01,-270.95"/>
</g>
<!-- DaysToGoPipe  -->
<g id="node47" class="node">
<title>DaysToGoPipe </title>
<polygon fill="#fb8072" stroke="black" points="1807.81,-317 1702.19,-317 1702.19,-281 1807.81,-281 1807.81,-317"/>
<text text-anchor="middle" x="1755" y="-294.8" font-family="Times,serif" font-size="14.00">DaysToGoPipe </text>
</g>
<!-- SharedFeatureModule&#45;&gt;DaysToGoPipe  -->
<g id="edge47" class="edge">
<title>SharedFeatureModule&#45;&gt;DaysToGoPipe </title>
<path fill="none" stroke="black" stroke-dasharray="5,2" d="M2211.55,-248C2076.77,-248 1795.68,-248 1795.68,-248 1795.68,-248 1795.68,-270.88 1795.68,-270.88"/>
<polygon fill="black" stroke="black" points="1792.18,-270.88 1795.68,-280.88 1799.18,-270.88 1792.18,-270.88"/>
</g>
<!-- TextbookListComponent  -->
<g id="node48" class="node">
<title>TextbookListComponent </title>
<polygon fill="#fb8072" stroke="black" points="1684.27,-317 1523.73,-317 1523.73,-281 1684.27,-281 1684.27,-317"/>
<text text-anchor="middle" x="1604" y="-294.8" font-family="Times,serif" font-size="14.00">TextbookListComponent </text>
</g>
<!-- SharedFeatureModule&#45;&gt;TextbookListComponent  -->
<g id="edge48" class="edge">
<title>SharedFeatureModule&#45;&gt;TextbookListComponent </title>
<path fill="none" stroke="black" stroke-dasharray="5,2" d="M2211.61,-246C2051.97,-246 1676.15,-246 1676.15,-246 1676.15,-246 1676.15,-270.76 1676.15,-270.76"/>
<polygon fill="black" stroke="black" points="1672.65,-270.76 1676.15,-280.76 1679.65,-270.76 1672.65,-270.76"/>
</g>
<!-- ProgramHeaderComponent  -->
<g id="node49" class="node">
<title>ProgramHeaderComponent </title>
<polygon fill="#fb8072" stroke="black" points="1505.95,-317 1332.05,-317 1332.05,-281 1505.95,-281 1505.95,-317"/>
<text text-anchor="middle" x="1419" y="-294.8" font-family="Times,serif" font-size="14.00">ProgramHeaderComponent </text>
</g>
<!-- SharedFeatureModule&#45;&gt;ProgramHeaderComponent  -->
<g id="edge49" class="edge">
<title>SharedFeatureModule&#45;&gt;ProgramHeaderComponent </title>
<path fill="none" stroke="black" stroke-dasharray="5,2" d="M2211.5,-245C2011.55,-245 1455.17,-245 1455.17,-245 1455.17,-245 1455.17,-270.72 1455.17,-270.72"/>
<polygon fill="black" stroke="black" points="1451.67,-270.72 1455.17,-280.72 1458.67,-270.72 1451.67,-270.72"/>
</g>
<!-- OrgUsersListComponent  -->
<g id="node50" class="node">
<title>OrgUsersListComponent </title>
<polygon fill="#fb8072" stroke="black" points="1314.25,-317 1153.75,-317 1153.75,-281 1314.25,-281 1314.25,-317"/>
<text text-anchor="middle" x="1234" y="-294.8" font-family="Times,serif" font-size="14.00">OrgUsersListComponent </text>
</g>
<!-- SharedFeatureModule&#45;&gt;OrgUsersListComponent  -->
<g id="edge50" class="edge">
<title>SharedFeatureModule&#45;&gt;OrgUsersListComponent </title>
<path fill="none" stroke="black" stroke-dasharray="5,2" d="M2211.66,-243C1983.98,-243 1281.73,-243 1281.73,-243 1281.73,-243 1281.73,-270.97 1281.73,-270.97"/>
<polygon fill="black" stroke="black" points="1278.23,-270.97 1281.73,-280.97 1285.23,-270.97 1278.23,-270.97"/>
</g>
<!-- ResourceTemplateComponent  -->
<g id="node51" class="node">
<title>ResourceTemplateComponent </title>
<polygon fill="#fb8072" stroke="black" points="1135.79,-317 946.21,-317 946.21,-281 1135.79,-281 1135.79,-317"/>
<text text-anchor="middle" x="1041" y="-294.8" font-family="Times,serif" font-size="14.00">ResourceTemplateComponent </text>
</g>
<!-- SharedFeatureModule&#45;&gt;ResourceTemplateComponent  -->
<g id="edge51" class="edge">
<title>SharedFeatureModule&#45;&gt;ResourceTemplateComponent </title>
<path fill="none" stroke="black" stroke-dasharray="5,2" d="M2211.45,-242C1960.57,-242 1126.45,-242 1126.45,-242 1126.45,-242 1126.45,-270.96 1126.45,-270.96"/>
<polygon fill="black" stroke="black" points="1122.95,-270.96 1126.45,-280.96 1129.95,-270.96 1122.95,-270.96"/>
</g>
<!-- DatePipe -->
<g id="node19" class="node">
<title>DatePipe</title>
<ellipse fill="#fdb462" stroke="black" cx="5222" cy="-104" rx="46.36" ry="18"/>
<text text-anchor="middle" x="5222" y="-99.8" font-family="Times,serif" font-size="14.00">DatePipe</text>
</g>
<!-- DatePipe&#45;&gt;EnrollContributorComponent -->
<g id="edge10" class="edge">
<title>DatePipe&#45;&gt;EnrollContributorComponent</title>
<path fill="none" stroke="black" d="M5222,-122.11C5222,-122.11 5222,-140.99 5222,-140.99"/>
<polygon fill="black" stroke="black" points="5218.5,-140.99 5222,-150.99 5225.5,-140.99 5218.5,-140.99"/>
</g>
<!-- DatePipe&#45;&gt;ProgramListComponent -->
<g id="edge12" class="edge">
<title>DatePipe&#45;&gt;ProgramListComponent</title>
<path fill="none" stroke="black" d="M5268.63,-104C5318.65,-104 5391,-104 5391,-104 5391,-104 5391,-140.89 5391,-140.89"/>
<polygon fill="black" stroke="black" points="5387.5,-140.89 5391,-150.89 5394.5,-140.89 5387.5,-140.89"/>
</g>
<!-- CommonModule -->
<g id="node20" class="node">
<title>CommonModule</title>
<polygon fill="#8dd3c7" stroke="black" points="2251.67,-187 2248.67,-191 2227.67,-191 2224.67,-187 2140.33,-187 2140.33,-151 2251.67,-151 2251.67,-187"/>
<text text-anchor="middle" x="2196" y="-164.8" font-family="Times,serif" font-size="14.00">CommonModule</text>
</g>
<!-- CommonModule&#45;&gt;SharedFeatureModule -->
<g id="edge20" class="edge">
<title>CommonModule&#45;&gt;SharedFeatureModule</title>
<path fill="none" stroke="black" d="M2231.82,-187.11C2231.82,-187.11 2231.82,-205.99 2231.82,-205.99"/>
<polygon fill="black" stroke="black" points="2228.32,-205.99 2231.82,-215.99 2235.32,-205.99 2228.32,-205.99"/>
</g>
<!-- SharedModule -->
<g id="node21" class="node">
<title>SharedModule</title>
<polygon fill="#8dd3c7" stroke="black" points="2122.42,-187 2119.42,-191 2098.42,-191 2095.42,-187 2023.58,-187 2023.58,-151 2122.42,-151 2122.42,-187"/>
<text text-anchor="middle" x="2073" y="-164.8" font-family="Times,serif" font-size="14.00">SharedModule</text>
</g>
<!-- SharedModule&#45;&gt;SharedFeatureModule -->
<g id="edge21" class="edge">
<title>SharedModule&#45;&gt;SharedFeatureModule</title>
<path fill="none" stroke="black" d="M2073,-187.25C2073,-201.18 2073,-218 2073,-218 2073,-218 2201.53,-218 2201.53,-218"/>
<polygon fill="black" stroke="black" points="2201.53,-221.5 2211.53,-218 2201.53,-214.5 2201.53,-221.5"/>
</g>
<!-- CoreModule -->
<g id="node22" class="node">
<title>CoreModule</title>
<polygon fill="#8dd3c7" stroke="black" points="2005.26,-187 2002.26,-191 1981.26,-191 1978.26,-187 1918.74,-187 1918.74,-151 2005.26,-151 2005.26,-187"/>
<text text-anchor="middle" x="1962" y="-164.8" font-family="Times,serif" font-size="14.00">CoreModule</text>
</g>
<!-- CoreModule&#45;&gt;SharedFeatureModule -->
<g id="edge22" class="edge">
<title>CoreModule&#45;&gt;SharedFeatureModule</title>
<path fill="none" stroke="black" d="M1989.42,-187.05C1989.42,-201.37 1989.42,-219 1989.42,-219 1989.42,-219 2201.55,-219 2201.55,-219"/>
<polygon fill="black" stroke="black" points="2201.55,-222.5 2211.55,-219 2201.55,-215.5 2201.55,-222.5"/>
</g>
<!-- TelemetryModule -->
<g id="node23" class="node">
<title>TelemetryModule</title>
<polygon fill="#8dd3c7" stroke="black" points="1900.58,-187 1897.58,-191 1876.58,-191 1873.58,-187 1783.42,-187 1783.42,-151 1900.58,-151 1900.58,-187"/>
<text text-anchor="middle" x="1842" y="-164.8" font-family="Times,serif" font-size="14.00">TelemetryModule</text>
</g>
<!-- TelemetryModule&#45;&gt;SharedFeatureModule -->
<g id="edge23" class="edge">
<title>TelemetryModule&#45;&gt;SharedFeatureModule</title>
<path fill="none" stroke="black" d="M1863.06,-187.19C1863.06,-202.18 1863.06,-221 1863.06,-221 1863.06,-221 2201.41,-221 2201.41,-221"/>
<polygon fill="black" stroke="black" points="2201.41,-224.5 2211.41,-221 2201.41,-217.5 2201.41,-224.5"/>
</g>
<!-- RouterModule -->
<g id="node24" class="node">
<title>RouterModule</title>
<polygon fill="#8dd3c7" stroke="black" points="1765.65,-187 1762.65,-191 1741.65,-191 1738.65,-187 1668.35,-187 1668.35,-151 1765.65,-151 1765.65,-187"/>
<text text-anchor="middle" x="1717" y="-164.8" font-family="Times,serif" font-size="14.00">RouterModule</text>
</g>
<!-- RouterModule&#45;&gt;SharedFeatureModule -->
<g id="edge24" class="edge">
<title>RouterModule&#45;&gt;SharedFeatureModule</title>
<path fill="none" stroke="black" d="M1733.96,-187.24C1733.96,-202.57 1733.96,-222 1733.96,-222 1733.96,-222 2201.75,-222 2201.75,-222"/>
<polygon fill="black" stroke="black" points="2201.75,-225.5 2211.75,-222 2201.75,-218.5 2201.75,-225.5"/>
</g>
<!-- SuiSelectModule -->
<g id="node25" class="node">
<title>SuiSelectModule</title>
<polygon fill="#8dd3c7" stroke="black" points="1650.43,-187 1647.43,-191 1626.43,-191 1623.43,-187 1537.57,-187 1537.57,-151 1650.43,-151 1650.43,-187"/>
<text text-anchor="middle" x="1594" y="-164.8" font-family="Times,serif" font-size="14.00">SuiSelectModule</text>
</g>
<!-- SuiSelectModule&#45;&gt;SharedFeatureModule -->
<g id="edge25" class="edge">
<title>SuiSelectModule&#45;&gt;SharedFeatureModule</title>
<path fill="none" stroke="black" d="M1594,-187.01C1594,-203.05 1594,-224 1594,-224 1594,-224 2201.61,-224 2201.61,-224"/>
<polygon fill="black" stroke="black" points="2201.61,-227.5 2211.61,-224 2201.61,-220.5 2201.61,-227.5"/>
</g>
<!-- SuiModalModule -->
<g id="node26" class="node">
<title>SuiModalModule</title>
<polygon fill="#8dd3c7" stroke="black" points="1519.27,-187 1516.27,-191 1495.27,-191 1492.27,-187 1404.73,-187 1404.73,-151 1519.27,-151 1519.27,-187"/>
<text text-anchor="middle" x="1462" y="-164.8" font-family="Times,serif" font-size="14.00">SuiModalModule</text>
</g>
<!-- SuiModalModule&#45;&gt;SharedFeatureModule -->
<g id="edge26" class="edge">
<title>SuiModalModule&#45;&gt;SharedFeatureModule</title>
<path fill="none" stroke="black" d="M1512.56,-187.03C1512.56,-203.4 1512.56,-225 1512.56,-225 1512.56,-225 2201.68,-225 2201.68,-225"/>
<polygon fill="black" stroke="black" points="2201.68,-228.5 2211.68,-225 2201.68,-221.5 2201.68,-228.5"/>
</g>
<!-- SuiAccordionModule -->
<g id="node27" class="node">
<title>SuiAccordionModule</title>
<polygon fill="#8dd3c7" stroke="black" points="1386.81,-187 1383.81,-191 1362.81,-191 1359.81,-187 1249.19,-187 1249.19,-151 1386.81,-151 1386.81,-187"/>
<text text-anchor="middle" x="1318" y="-164.8" font-family="Times,serif" font-size="14.00">SuiAccordionModule</text>
</g>
<!-- SuiAccordionModule&#45;&gt;SharedFeatureModule -->
<g id="edge27" class="edge">
<title>SuiAccordionModule&#45;&gt;SharedFeatureModule</title>
<path fill="none" stroke="black" d="M1359.46,-187.03C1359.46,-204.06 1359.46,-227 1359.46,-227 1359.46,-227 2201.52,-227 2201.52,-227"/>
<polygon fill="black" stroke="black" points="2201.52,-230.5 2211.52,-227 2201.52,-223.5 2201.52,-230.5"/>
</g>
<!-- SuiPopupModule -->
<g id="node28" class="node">
<title>SuiPopupModule</title>
<polygon fill="#8dd3c7" stroke="black" points="1231.01,-187 1228.01,-191 1207.01,-191 1204.01,-187 1116.99,-187 1116.99,-151 1231.01,-151 1231.01,-187"/>
<text text-anchor="middle" x="1174" y="-164.8" font-family="Times,serif" font-size="14.00">SuiPopupModule</text>
</g>
<!-- SuiPopupModule&#45;&gt;SharedFeatureModule -->
<g id="edge28" class="edge">
<title>SuiPopupModule&#45;&gt;SharedFeatureModule</title>
<path fill="none" stroke="black" d="M1192.44,-187.02C1192.44,-204.37 1192.44,-228 1192.44,-228 1192.44,-228 2201.77,-228 2201.77,-228"/>
<polygon fill="black" stroke="black" points="2201.77,-231.5 2211.77,-228 2201.77,-224.5 2201.77,-231.5"/>
</g>
<!-- SuiDropdownModule -->
<g id="node29" class="node">
<title>SuiDropdownModule</title>
<polygon fill="#8dd3c7" stroke="black" points="1099.1,-187 1096.1,-191 1075.1,-191 1072.1,-187 960.9,-187 960.9,-151 1099.1,-151 1099.1,-187"/>
<text text-anchor="middle" x="1030" y="-164.8" font-family="Times,serif" font-size="14.00">SuiDropdownModule</text>
</g>
<!-- SuiDropdownModule&#45;&gt;SharedFeatureModule -->
<g id="edge29" class="edge">
<title>SuiDropdownModule&#45;&gt;SharedFeatureModule</title>
<path fill="none" stroke="black" d="M1030,-187.3C1030,-205.27 1030,-230 1030,-230 1030,-230 2201.55,-230 2201.55,-230"/>
<polygon fill="black" stroke="black" points="2201.55,-233.5 2211.55,-230 2201.55,-226.5 2201.55,-233.5"/>
</g>
<!-- SuiProgressModule -->
<g id="node30" class="node">
<title>SuiProgressModule</title>
<polygon fill="#8dd3c7" stroke="black" points="943.43,-187 940.43,-191 919.43,-191 916.43,-187 816.57,-187 816.57,-151 943.43,-151 943.43,-187"/>
<text text-anchor="middle" x="880" y="-164.8" font-family="Times,serif" font-size="14.00">SuiProgressModule</text>
</g>
<!-- SuiProgressModule&#45;&gt;SharedFeatureModule -->
<g id="edge30" class="edge">
<title>SuiProgressModule&#45;&gt;SharedFeatureModule</title>
<path fill="none" stroke="black" d="M880,-187.27C880,-205.56 880,-231 880,-231 880,-231 2201.51,-231 2201.51,-231"/>
<polygon fill="black" stroke="black" points="2201.51,-234.5 2211.51,-231 2201.51,-227.5 2201.51,-234.5"/>
</g>
<!-- SuiRatingModule -->
<g id="node31" class="node">
<title>SuiRatingModule</title>
<polygon fill="#8dd3c7" stroke="black" points="798.56,-187 795.56,-191 774.56,-191 771.56,-187 683.44,-187 683.44,-151 798.56,-151 798.56,-187"/>
<text text-anchor="middle" x="741" y="-164.8" font-family="Times,serif" font-size="14.00">SuiRatingModule</text>
</g>
<!-- SuiRatingModule&#45;&gt;SharedFeatureModule -->
<g id="edge31" class="edge">
<title>SuiRatingModule&#45;&gt;SharedFeatureModule</title>
<path fill="none" stroke="black" d="M741,-187.17C741,-206.09 741,-233 741,-233 741,-233 2201.78,-233 2201.78,-233"/>
<polygon fill="black" stroke="black" points="2201.78,-236.5 2211.78,-233 2201.78,-229.5 2201.78,-236.5"/>
</g>
<!-- SuiCollapseModule -->
<g id="node32" class="node">
<title>SuiCollapseModule</title>
<polygon fill="#8dd3c7" stroke="black" points="665.71,-187 662.71,-191 641.71,-191 638.71,-187 538.29,-187 538.29,-151 665.71,-151 665.71,-187"/>
<text text-anchor="middle" x="602" y="-164.8" font-family="Times,serif" font-size="14.00">SuiCollapseModule</text>
</g>
<!-- SuiCollapseModule&#45;&gt;SharedFeatureModule -->
<g id="edge32" class="edge">
<title>SuiCollapseModule&#45;&gt;SharedFeatureModule</title>
<path fill="none" stroke="black" d="M602,-187.11C602,-206.34 602,-234 602,-234 602,-234 2201.69,-234 2201.69,-234"/>
<polygon fill="black" stroke="black" points="2201.69,-237.5 2211.69,-234 2201.69,-230.5 2201.69,-237.5"/>
</g>
<!-- SuiDimmerModule -->
<g id="node33" class="node">
<title>SuiDimmerModule</title>
<polygon fill="#8dd3c7" stroke="black" points="520.38,-187 517.38,-191 496.38,-191 493.38,-187 395.62,-187 395.62,-151 520.38,-151 520.38,-187"/>
<text text-anchor="middle" x="458" y="-164.8" font-family="Times,serif" font-size="14.00">SuiDimmerModule</text>
</g>
<!-- SuiDimmerModule&#45;&gt;SharedFeatureModule -->
<g id="edge33" class="edge">
<title>SuiDimmerModule&#45;&gt;SharedFeatureModule</title>
<path fill="none" stroke="black" d="M458,-187.31C458,-207.15 458,-236 458,-236 458,-236 2201.61,-236 2201.61,-236"/>
<polygon fill="black" stroke="black" points="2201.61,-239.5 2211.61,-236 2201.61,-232.5 2201.61,-239.5"/>
</g>
<!-- FormsModule -->
<g id="node34" class="node">
<title>FormsModule</title>
<polygon fill="#8dd3c7" stroke="black" points="377.83,-187 374.83,-191 353.83,-191 350.83,-187 282.17,-187 282.17,-151 377.83,-151 377.83,-187"/>
<text text-anchor="middle" x="330" y="-164.8" font-family="Times,serif" font-size="14.00">FormsModule</text>
</g>
<!-- FormsModule&#45;&gt;SharedFeatureModule -->
<g id="edge34" class="edge">
<title>FormsModule&#45;&gt;SharedFeatureModule</title>
<path fill="none" stroke="black" d="M330,-187.22C330,-207.37 330,-237 330,-237 330,-237 2201.66,-237 2201.66,-237"/>
<polygon fill="black" stroke="black" points="2201.66,-240.5 2211.66,-237 2201.66,-233.5 2201.66,-240.5"/>
</g>
<!-- ReactiveFormsModule -->
<g id="node35" class="node">
<title>ReactiveFormsModule</title>
<polygon fill="#8dd3c7" stroke="black" points="264.3,-187 261.3,-191 240.3,-191 237.3,-187 119.7,-187 119.7,-151 264.3,-151 264.3,-187"/>
<text text-anchor="middle" x="192" y="-164.8" font-family="Times,serif" font-size="14.00">ReactiveFormsModule</text>
</g>
<!-- ReactiveFormsModule&#45;&gt;SharedFeatureModule -->
<g id="edge35" class="edge">
<title>ReactiveFormsModule&#45;&gt;SharedFeatureModule</title>
<path fill="none" stroke="black" d="M192,-187.03C192,-207.77 192,-239 192,-239 192,-239 2201.56,-239 2201.56,-239"/>
<polygon fill="black" stroke="black" points="2201.56,-242.5 2211.56,-239 2201.56,-235.5 2201.56,-242.5"/>
</g>
<!-- SuiModule -->
<g id="node36" class="node">
<title>SuiModule</title>
<polygon fill="#8dd3c7" stroke="black" points="102.22,-187 99.22,-191 78.22,-191 75.22,-187 23.78,-187 23.78,-151 102.22,-151 102.22,-187"/>
<text text-anchor="middle" x="63" y="-164.8" font-family="Times,serif" font-size="14.00">SuiModule</text>
</g>
<!-- SuiModule&#45;&gt;SharedFeatureModule -->
<g id="edge36" class="edge">
<title>SuiModule&#45;&gt;SharedFeatureModule</title>
<path fill="none" stroke="black" d="M63,-187.28C63,-208.32 63,-240 63,-240 63,-240 2201.62,-240 2201.62,-240"/>
<polygon fill="black" stroke="black" points="2201.62,-243.5 2211.62,-240 2201.62,-236.5 2201.62,-243.5"/>
</g>
</g>
</svg>
