<?xml version="1.0" encoding="UTF-8" standalone="no"?>
<!DOCTYPE svg PUBLIC "-//W3C//DTD SVG 1.1//EN"
 "http://www.w3.org/Graphics/SVG/1.1/DTD/svg11.dtd">
<!-- Generated by graphviz version 2.47.0 (20210316.0004)
 -->
<!-- Title: dependencies Pages: 1 -->
<svg width="1233pt" height="211pt"
 viewBox="0.00 0.00 1233.00 211.00" xmlns="http://www.w3.org/2000/svg" xmlns:xlink="http://www.w3.org/1999/xlink">
<g id="graph0" class="graph" transform="scale(1 1) rotate(0) translate(4 207)">
<title>dependencies</title>
<polygon fill="white" stroke="transparent" points="-4,4 -4,-207 1229,-207 1229,4 -4,4"/>
<text text-anchor="start" x="591.51" y="-42.4" font-family="Times-12" font-weight="bold" font-size="14.00">Legend</text>
<polygon fill="#ffffb3" stroke="transparent" points="378.5,-10 378.5,-30 398.5,-30 398.5,-10 378.5,-10"/>
<text text-anchor="start" x="402.13" y="-15.4" font-family="Times-12" font-size="14.00"> &#160;Declarations</text>
<polygon fill="#8dd3c7" stroke="transparent" points="491.5,-10 491.5,-30 511.5,-30 511.5,-10 491.5,-10"/>
<text text-anchor="start" x="515.23" y="-15.4" font-family="Times-12" font-size="14.00"> &#160;Module</text>
<polygon fill="#80b1d3" stroke="transparent" points="577.5,-10 577.5,-30 597.5,-30 597.5,-10 577.5,-10"/>
<text text-anchor="start" x="601.28" y="-15.4" font-family="Times-12" font-size="14.00"> &#160;Bootstrap</text>
<polygon fill="#fdb462" stroke="transparent" points="674.5,-10 674.5,-30 694.5,-30 694.5,-10 674.5,-10"/>
<text text-anchor="start" x="698.17" y="-15.4" font-family="Times-12" font-size="14.00"> &#160;Providers</text>
<polygon fill="#fb8072" stroke="transparent" points="770.5,-10 770.5,-30 790.5,-30 790.5,-10 770.5,-10"/>
<text text-anchor="start" x="794.23" y="-15.4" font-family="Times-12" font-size="14.00"> &#160;Exports</text>
<g id="clust1" class="cluster">
<title>cluster_PublicModule</title>
<polygon fill="none" stroke="black" stroke-dasharray="1,5" points="8,-70 8,-195 1217,-195 1217,-70 8,-70"/>
</g>
<g id="clust4" class="cluster">
<title>cluster_PublicModule_imports</title>
<polygon fill="none" stroke="black" points="807,-78 807,-130 1209,-130 1209,-78 807,-78"/>
</g>
<g id="clust2" class="cluster">
<title>cluster_PublicModule_declarations</title>
<polygon fill="none" stroke="black" points="627,-78 627,-130 799,-130 799,-78 627,-78"/>
</g>
<g id="clust7" class="cluster">
<title>cluster_PublicModule_providers</title>
<polygon fill="none" stroke="black" points="16,-78 16,-130 619,-130 619,-78 16,-78"/>
</g>
<!-- LandingPageComponent -->
<g id="node1" class="node">
<title>LandingPageComponent</title>
<polygon fill="#ffffb3" stroke="black" points="790.7,-122 635.3,-122 635.3,-86 790.7,-86 790.7,-122"/>
<text text-anchor="middle" x="713" y="-99.8" font-family="Times,serif" font-size="14.00">LandingPageComponent</text>
</g>
<!-- PublicModule -->
<g id="node2" class="node">
<title>PublicModule</title>
<polygon fill="#8dd3c7" stroke="black" points="760.83,-187 757.83,-191 736.83,-191 733.83,-187 665.17,-187 665.17,-151 760.83,-151 760.83,-187"/>
<text text-anchor="middle" x="713" y="-164.8" font-family="Times,serif" font-size="14.00">PublicModule</text>
</g>
<!-- LandingPageComponent&#45;&gt;PublicModule -->
<g id="edge1" class="edge">
<title>LandingPageComponent&#45;&gt;PublicModule</title>
<path fill="none" stroke="black" d="M713,-122.11C713,-122.11 713,-140.99 713,-140.99"/>
<polygon fill="black" stroke="black" points="709.5,-140.99 713,-150.99 716.5,-140.99 709.5,-140.99"/>
</g>
<!-- CommonModule -->
<g id="node3" class="node">
<title>CommonModule</title>
<polygon fill="#8dd3c7" stroke="black" points="1200.67,-122 1197.67,-126 1176.67,-126 1173.67,-122 1089.33,-122 1089.33,-86 1200.67,-86 1200.67,-122"/>
<text text-anchor="middle" x="1145" y="-99.8" font-family="Times,serif" font-size="14.00">CommonModule</text>
</g>
<!-- CommonModule&#45;&gt;PublicModule -->
<g id="edge2" class="edge">
<title>CommonModule&#45;&gt;PublicModule</title>
<path fill="none" stroke="black" d="M1145,-122.29C1145,-144.21 1145,-178 1145,-178 1145,-178 770.88,-178 770.88,-178"/>
<polygon fill="black" stroke="black" points="770.88,-174.5 760.88,-178 770.88,-181.5 770.88,-174.5"/>
</g>
<!-- SharedModule -->
<g id="node4" class="node">
<title>SharedModule</title>
<polygon fill="#8dd3c7" stroke="black" points="1071.42,-122 1068.42,-126 1047.42,-126 1044.42,-122 972.58,-122 972.58,-86 1071.42,-86 1071.42,-122"/>
<text text-anchor="middle" x="1022" y="-99.8" font-family="Times,serif" font-size="14.00">SharedModule</text>
</g>
<!-- SharedModule&#45;&gt;PublicModule -->
<g id="edge3" class="edge">
<title>SharedModule&#45;&gt;PublicModule</title>
<path fill="none" stroke="black" d="M1022,-122.11C1022,-141.34 1022,-169 1022,-169 1022,-169 770.94,-169 770.94,-169"/>
<polygon fill="black" stroke="black" points="770.94,-165.5 760.94,-169 770.94,-172.5 770.94,-165.5"/>
</g>
<!-- PublicRoutingModule -->
<g id="node5" class="node">
<title>PublicRoutingModule</title>
<polygon fill="#8dd3c7" stroke="black" points="955.45,-122 952.45,-126 931.45,-126 928.45,-122 814.55,-122 814.55,-86 955.45,-86 955.45,-122"/>
<text text-anchor="middle" x="885" y="-99.8" font-family="Times,serif" font-size="14.00">PublicRoutingModule</text>
</g>
<!-- PublicRoutingModule&#45;&gt;PublicModule -->
<g id="edge4" class="edge">
<title>PublicRoutingModule&#45;&gt;PublicModule</title>
<path fill="none" stroke="black" d="M885,-122.03C885,-138.4 885,-160 885,-160 885,-160 770.91,-160 770.91,-160"/>
<polygon fill="black" stroke="black" points="770.91,-156.5 760.91,-160 770.91,-163.5 770.91,-156.5"/>
</g>
<!-- PublicPlayerService -->
<g id="node6" class="node">
<title>PublicPlayerService</title>
<ellipse fill="#fdb462" stroke="black" cx="522" cy="-104" rx="89.18" ry="18"/>
<text text-anchor="middle" x="522" y="-99.8" font-family="Times,serif" font-size="14.00">PublicPlayerService</text>
</g>
<!-- PublicPlayerService&#45;&gt;PublicModule -->
<g id="edge5" class="edge">
<title>PublicPlayerService&#45;&gt;PublicModule</title>
<path fill="none" stroke="black" d="M522,-122.03C522,-138.4 522,-160 522,-160 522,-160 655.3,-160 655.3,-160"/>
<polygon fill="black" stroke="black" points="655.3,-163.5 665.3,-160 655.3,-156.5 655.3,-163.5"/>
</g>
<!-- DeviceDetectorService -->
<g id="node7" class="node">
<title>DeviceDetectorService</title>
<ellipse fill="#fdb462" stroke="black" cx="314" cy="-104" rx="100.66" ry="18"/>
<text text-anchor="middle" x="314" y="-99.8" font-family="Times,serif" font-size="14.00">DeviceDetectorService</text>
</g>
<!-- DeviceDetectorService&#45;&gt;PublicModule -->
<g id="edge6" class="edge">
<title>DeviceDetectorService&#45;&gt;PublicModule</title>
<path fill="none" stroke="black" d="M314,-122.11C314,-141.34 314,-169 314,-169 314,-169 655.27,-169 655.27,-169"/>
<polygon fill="black" stroke="black" points="655.27,-172.5 665.27,-169 655.27,-165.5 655.27,-172.5"/>
</g>
<!-- LandingpageGuard -->
<g id="node8" class="node">
<title>LandingpageGuard</title>
<ellipse fill="#fdb462" stroke="black" cx="110" cy="-104" rx="85.66" ry="18"/>
<text text-anchor="middle" x="110" y="-99.8" font-family="Times,serif" font-size="14.00">LandingpageGuard</text>
</g>
<!-- LandingpageGuard&#45;&gt;PublicModule -->
<g id="edge7" class="edge">
<title>LandingpageGuard&#45;&gt;PublicModule</title>
<path fill="none" stroke="black" d="M110,-122.29C110,-144.21 110,-178 110,-178 110,-178 655.18,-178 655.18,-178"/>
<polygon fill="black" stroke="black" points="655.18,-181.5 665.18,-178 655.18,-174.5 655.18,-181.5"/>
</g>
</g>
</svg>
