<?xml version="1.0" encoding="UTF-8" standalone="no"?>
<!DOCTYPE svg PUBLIC "-//W3C//DTD SVG 1.1//EN"
 "http://www.w3.org/Graphics/SVG/1.1/DTD/svg11.dtd">
<!-- Generated by graphviz version 2.47.0 (20210316.0004)
 -->
<!-- Title: dependencies Pages: 1 -->
<svg width="6060pt" height="284pt"
 viewBox="0.00 0.00 6060.00 284.00" xmlns="http://www.w3.org/2000/svg" xmlns:xlink="http://www.w3.org/1999/xlink">
<g id="graph0" class="graph" transform="scale(1 1) rotate(0) translate(4 280)">
<title>dependencies</title>
<polygon fill="white" stroke="transparent" points="-4,4 -4,-280 6056,-280 6056,4 -4,4"/>
<text text-anchor="start" x="3005.01" y="-42.4" font-family="Times-12" font-weight="bold" font-size="14.00">Legend</text>
<polygon fill="#ffffb3" stroke="transparent" points="2792,-10 2792,-30 2812,-30 2812,-10 2792,-10"/>
<text text-anchor="start" x="2815.63" y="-15.4" font-family="Times-12" font-size="14.00"> &#160;Declarations</text>
<polygon fill="#8dd3c7" stroke="transparent" points="2905,-10 2905,-30 2925,-30 2925,-10 2905,-10"/>
<text text-anchor="start" x="2928.73" y="-15.4" font-family="Times-12" font-size="14.00"> &#160;Module</text>
<polygon fill="#80b1d3" stroke="transparent" points="2991,-10 2991,-30 3011,-30 3011,-10 2991,-10"/>
<text text-anchor="start" x="3014.78" y="-15.4" font-family="Times-12" font-size="14.00"> &#160;Bootstrap</text>
<polygon fill="#fdb462" stroke="transparent" points="3088,-10 3088,-30 3108,-30 3108,-10 3088,-10"/>
<text text-anchor="start" x="3111.67" y="-15.4" font-family="Times-12" font-size="14.00"> &#160;Providers</text>
<polygon fill="#fb8072" stroke="transparent" points="3184,-10 3184,-30 3204,-30 3204,-10 3184,-10"/>
<text text-anchor="start" x="3207.73" y="-15.4" font-family="Times-12" font-size="14.00"> &#160;Exports</text>
<g id="clust1" class="cluster">
<title>cluster_CoreModule</title>
<polygon fill="none" stroke="black" stroke-dasharray="1,5" points="8,-70 8,-268 6044,-268 6044,-70 8,-70"/>
</g>
<g id="clust2" class="cluster">
<title>cluster_CoreModule_declarations</title>
<polygon fill="none" stroke="black" points="3361,-78 3361,-130 6036,-130 6036,-78 3361,-78"/>
</g>
<g id="clust20" class="cluster">
<title>cluster_CoreModule_exports</title>
<polygon fill="none" stroke="black" points="1925,-208 1925,-260 4165,-260 4165,-208 1925,-208"/>
</g>
<g id="clust19" class="cluster">
<title>cluster_CoreModule_imports</title>
<polygon fill="none" stroke="black" points="965,-78 965,-130 3353,-130 3353,-78 965,-78"/>
</g>
<g id="clust22" class="cluster">
<title>cluster_CoreModule_providers</title>
<polygon fill="none" stroke="black" points="16,-78 16,-130 957,-130 957,-78 16,-78"/>
</g>
<!-- MainHeaderComponent -->
<g id="node1" class="node">
<title>MainHeaderComponent</title>
<polygon fill="#ffffb3" stroke="black" points="6027.79,-122 5876.21,-122 5876.21,-86 6027.79,-86 6027.79,-122"/>
<text text-anchor="middle" x="5952" y="-99.8" font-family="Times,serif" font-size="14.00">MainHeaderComponent</text>
</g>
<!-- CoreModule -->
<g id="node17" class="node">
<title>CoreModule</title>
<polygon fill="#8dd3c7" stroke="black" points="3136.26,-187 3133.26,-191 3112.26,-191 3109.26,-187 3049.74,-187 3049.74,-151 3136.26,-151 3136.26,-187"/>
<text text-anchor="middle" x="3093" y="-164.8" font-family="Times,serif" font-size="14.00">CoreModule</text>
</g>
<!-- MainHeaderComponent&#45;&gt;CoreModule -->
<g id="edge1" class="edge">
<title>MainHeaderComponent&#45;&gt;CoreModule</title>
<path fill="none" stroke="black" d="M5952,-122.04C5952,-143.66 5952,-177 5952,-177 5952,-177 3146.48,-177 3146.48,-177"/>
<polygon fill="black" stroke="black" points="3146.48,-173.5 3136.48,-177 3146.48,-180.5 3146.48,-173.5"/>
</g>
<!-- MainFooterComponent -->
<g id="node2" class="node">
<title>MainFooterComponent</title>
<polygon fill="#ffffb3" stroke="black" points="5858.93,-122 5711.07,-122 5711.07,-86 5858.93,-86 5858.93,-122"/>
<text text-anchor="middle" x="5785" y="-99.8" font-family="Times,serif" font-size="14.00">MainFooterComponent</text>
</g>
<!-- MainFooterComponent&#45;&gt;CoreModule -->
<g id="edge2" class="edge">
<title>MainFooterComponent&#45;&gt;CoreModule</title>
<path fill="none" stroke="black" d="M5785,-122.28C5785,-143.32 5785,-175 5785,-175 5785,-175 3146.38,-175 3146.38,-175"/>
<polygon fill="black" stroke="black" points="3146.38,-171.5 3136.38,-175 3146.38,-178.5 3146.38,-171.5"/>
</g>
<!-- MainMenuComponent -->
<g id="node3" class="node">
<title>MainMenuComponent</title>
<polygon fill="#ffffb3" stroke="black" points="5693.54,-122 5550.46,-122 5550.46,-86 5693.54,-86 5693.54,-122"/>
<text text-anchor="middle" x="5622" y="-99.8" font-family="Times,serif" font-size="14.00">MainMenuComponent</text>
</g>
<!-- MainMenuComponent&#45;&gt;CoreModule -->
<g id="edge3" class="edge">
<title>MainMenuComponent&#45;&gt;CoreModule</title>
<path fill="none" stroke="black" d="M5622,-122.03C5622,-142.77 5622,-174 5622,-174 5622,-174 3146.36,-174 3146.36,-174"/>
<polygon fill="black" stroke="black" points="3146.36,-170.5 3136.36,-174 3146.36,-177.5 3146.36,-170.5"/>
</g>
<!-- SearchComponent -->
<g id="node4" class="node">
<title>SearchComponent</title>
<polygon fill="#ffffb3" stroke="black" points="5532.92,-122 5413.08,-122 5413.08,-86 5532.92,-86 5532.92,-122"/>
<text text-anchor="middle" x="5473" y="-99.8" font-family="Times,serif" font-size="14.00">SearchComponent</text>
</g>
<!-- SearchComponent&#45;&gt;CoreModule -->
<g id="edge4" class="edge">
<title>SearchComponent&#45;&gt;CoreModule</title>
<path fill="none" stroke="black" d="M5473,-122.22C5473,-142.37 5473,-172 5473,-172 5473,-172 3146.34,-172 3146.34,-172"/>
<polygon fill="black" stroke="black" points="3146.34,-168.5 3136.34,-172 3146.34,-175.5 3146.34,-168.5"/>
</g>
<!-- PermissionDirective -->
<g id="node5" class="node">
<title>PermissionDirective</title>
<polygon fill="#ffffb3" stroke="black" points="5395.3,-122 5264.7,-122 5264.7,-86 5395.3,-86 5395.3,-122"/>
<text text-anchor="middle" x="5330" y="-99.8" font-family="Times,serif" font-size="14.00">PermissionDirective</text>
</g>
<!-- PermissionDirective&#45;&gt;CoreModule -->
<g id="edge5" class="edge">
<title>PermissionDirective&#45;&gt;CoreModule</title>
<path fill="none" stroke="black" d="M5330,-122.31C5330,-142.15 5330,-171 5330,-171 5330,-171 3146.68,-171 3146.68,-171"/>
<polygon fill="black" stroke="black" points="3146.68,-167.5 3136.68,-171 3146.68,-174.5 3146.68,-167.5"/>
</g>
<!-- BodyScrollDirective -->
<g id="node6" class="node">
<title>BodyScrollDirective</title>
<polygon fill="#ffffb3" stroke="black" points="5246.86,-122 5115.14,-122 5115.14,-86 5246.86,-86 5246.86,-122"/>
<text text-anchor="middle" x="5181" y="-99.8" font-family="Times,serif" font-size="14.00">BodyScrollDirective</text>
</g>
<!-- BodyScrollDirective&#45;&gt;CoreModule -->
<g id="edge6" class="edge">
<title>BodyScrollDirective&#45;&gt;CoreModule</title>
<path fill="none" stroke="black" d="M5181,-122.11C5181,-141.34 5181,-169 5181,-169 5181,-169 3146.61,-169 3146.61,-169"/>
<polygon fill="black" stroke="black" points="3146.61,-165.5 3136.61,-169 3146.61,-172.5 3146.61,-165.5"/>
</g>
<!-- DataDrivenFilterComponent -->
<g id="node7" class="node">
<title>DataDrivenFilterComponent</title>
<polygon fill="#ffffb3" stroke="black" points="5097.46,-122 4920.54,-122 4920.54,-86 5097.46,-86 5097.46,-122"/>
<text text-anchor="middle" x="5009" y="-99.8" font-family="Times,serif" font-size="14.00">DataDrivenFilterComponent</text>
</g>
<!-- DataDrivenFilterComponent&#45;&gt;CoreModule -->
<g id="edge7" class="edge">
<title>DataDrivenFilterComponent&#45;&gt;CoreModule</title>
<path fill="none" stroke="black" d="M5009,-122.17C5009,-141.09 5009,-168 5009,-168 5009,-168 3146.62,-168 3146.62,-168"/>
<polygon fill="black" stroke="black" points="3146.62,-164.5 3136.62,-168 3146.62,-171.5 3146.62,-164.5"/>
</g>
<!-- SortByComponent -->
<g id="node8" class="node">
<title>SortByComponent</title>
<polygon fill="#ffffb3" stroke="black" points="4902.5,-122 4781.5,-122 4781.5,-86 4902.5,-86 4902.5,-122"/>
<text text-anchor="middle" x="4842" y="-99.8" font-family="Times,serif" font-size="14.00">SortByComponent</text>
</g>
<!-- SortByComponent&#45;&gt;CoreModule -->
<g id="edge8" class="edge">
<title>SortByComponent&#45;&gt;CoreModule</title>
<path fill="none" stroke="black" d="M4842,-122.27C4842,-140.56 4842,-166 4842,-166 4842,-166 3146.67,-166 3146.67,-166"/>
<polygon fill="black" stroke="black" points="3146.67,-162.5 3136.67,-166 3146.67,-169.5 3146.67,-162.5"/>
</g>
<!-- ErrorPageComponent -->
<g id="node9" class="node">
<title>ErrorPageComponent</title>
<polygon fill="#ffffb3" stroke="black" points="4763.08,-122 4624.92,-122 4624.92,-86 4763.08,-86 4763.08,-122"/>
<text text-anchor="middle" x="4694" y="-99.8" font-family="Times,serif" font-size="14.00">ErrorPageComponent</text>
</g>
<!-- ErrorPageComponent&#45;&gt;CoreModule -->
<g id="edge9" class="edge">
<title>ErrorPageComponent&#45;&gt;CoreModule</title>
<path fill="none" stroke="black" d="M4694,-122.3C4694,-140.27 4694,-165 4694,-165 4694,-165 3146.65,-165 3146.65,-165"/>
<polygon fill="black" stroke="black" points="3146.65,-161.5 3136.65,-165 3146.65,-168.5 3146.65,-161.5"/>
</g>
<!-- FlagContentComponent -->
<g id="node10" class="node">
<title>FlagContentComponent</title>
<polygon fill="#ffffb3" stroke="black" points="4607.05,-122 4456.95,-122 4456.95,-86 4607.05,-86 4607.05,-122"/>
<text text-anchor="middle" x="4532" y="-99.8" font-family="Times,serif" font-size="14.00">FlagContentComponent</text>
</g>
<!-- FlagContentComponent&#45;&gt;CoreModule -->
<g id="edge10" class="edge">
<title>FlagContentComponent&#45;&gt;CoreModule</title>
<path fill="none" stroke="black" d="M4532,-122.02C4532,-139.37 4532,-163 4532,-163 4532,-163 3146.46,-163 3146.46,-163"/>
<polygon fill="black" stroke="black" points="3146.46,-159.5 3136.46,-163 3146.46,-166.5 3146.46,-159.5"/>
</g>
<!-- LanguageDropdownComponent -->
<g id="node11" class="node">
<title>LanguageDropdownComponent</title>
<polygon fill="#ffffb3" stroke="black" points="4439.4,-122 4242.6,-122 4242.6,-86 4439.4,-86 4439.4,-122"/>
<text text-anchor="middle" x="4341" y="-99.8" font-family="Times,serif" font-size="14.00">LanguageDropdownComponent</text>
</g>
<!-- LanguageDropdownComponent&#45;&gt;CoreModule -->
<g id="edge11" class="edge">
<title>LanguageDropdownComponent&#45;&gt;CoreModule</title>
<path fill="none" stroke="black" d="M4341,-122.03C4341,-139.06 4341,-162 4341,-162 4341,-162 3146.32,-162 3146.32,-162"/>
<polygon fill="black" stroke="black" points="3146.32,-158.5 3136.32,-162 3146.32,-165.5 3146.32,-158.5"/>
</g>
<!-- ProminentFilterComponent -->
<g id="node12" class="node">
<title>ProminentFilterComponent</title>
<polygon fill="#ffffb3" stroke="black" points="4224.99,-122 4055.01,-122 4055.01,-86 4224.99,-86 4224.99,-122"/>
<text text-anchor="middle" x="4140" y="-99.8" font-family="Times,serif" font-size="14.00">ProminentFilterComponent</text>
</g>
<!-- ProminentFilterComponent&#45;&gt;CoreModule -->
<g id="edge12" class="edge">
<title>ProminentFilterComponent&#45;&gt;CoreModule</title>
<path fill="none" stroke="black" d="M4106.2,-122.03C4106.2,-138.4 4106.2,-160 4106.2,-160 4106.2,-160 3146.54,-160 3146.54,-160"/>
<polygon fill="black" stroke="black" points="3146.54,-156.5 3136.54,-160 3146.54,-163.5 3146.54,-156.5"/>
</g>
<!-- TopicPickerComponent -->
<g id="node13" class="node">
<title>TopicPickerComponent</title>
<polygon fill="#ffffb3" stroke="black" points="4036.75,-122 3887.25,-122 3887.25,-86 4036.75,-86 4036.75,-122"/>
<text text-anchor="middle" x="3962" y="-99.8" font-family="Times,serif" font-size="14.00">TopicPickerComponent</text>
</g>
<!-- TopicPickerComponent&#45;&gt;CoreModule -->
<g id="edge13" class="edge">
<title>TopicPickerComponent&#45;&gt;CoreModule</title>
<path fill="none" stroke="black" d="M3935.79,-122.01C3935.79,-138.05 3935.79,-159 3935.79,-159 3935.79,-159 3146.54,-159 3146.54,-159"/>
<polygon fill="black" stroke="black" points="3146.54,-155.5 3136.54,-159 3146.54,-162.5 3146.54,-155.5"/>
</g>
<!-- StickyHeaderDirective -->
<g id="node14" class="node">
<title>StickyHeaderDirective</title>
<polygon fill="#ffffb3" stroke="black" points="3869.27,-122 3724.73,-122 3724.73,-86 3869.27,-86 3869.27,-122"/>
<text text-anchor="middle" x="3797" y="-99.8" font-family="Times,serif" font-size="14.00">StickyHeaderDirective</text>
</g>
<!-- StickyHeaderDirective&#45;&gt;CoreModule -->
<g id="edge14" class="edge">
<title>StickyHeaderDirective&#45;&gt;CoreModule</title>
<path fill="none" stroke="black" d="M3770.38,-122.24C3770.38,-137.57 3770.38,-157 3770.38,-157 3770.38,-157 3146.4,-157 3146.4,-157"/>
<polygon fill="black" stroke="black" points="3146.4,-153.5 3136.4,-157 3146.4,-160.5 3146.4,-153.5"/>
</g>
<!-- DataFormComponent -->
<g id="node15" class="node">
<title>DataFormComponent</title>
<polygon fill="#ffffb3" stroke="black" points="3707.09,-122 3568.91,-122 3568.91,-86 3707.09,-86 3707.09,-122"/>
<text text-anchor="middle" x="3638" y="-99.8" font-family="Times,serif" font-size="14.00">DataFormComponent</text>
</g>
<!-- DataFormComponent&#45;&gt;CoreModule -->
<g id="edge15" class="edge">
<title>DataFormComponent&#45;&gt;CoreModule</title>
<path fill="none" stroke="black" d="M3616.32,-122.19C3616.32,-137.18 3616.32,-156 3616.32,-156 3616.32,-156 3146.27,-156 3146.27,-156"/>
<polygon fill="black" stroke="black" points="3146.27,-152.5 3136.27,-156 3146.27,-159.5 3146.27,-152.5"/>
</g>
<!-- ContentDataFormComponent -->
<g id="node16" class="node">
<title>ContentDataFormComponent</title>
<polygon fill="#ffffb3" stroke="black" points="3551.43,-122 3368.57,-122 3368.57,-86 3551.43,-86 3551.43,-122"/>
<text text-anchor="middle" x="3460" y="-99.8" font-family="Times,serif" font-size="14.00">ContentDataFormComponent</text>
</g>
<!-- ContentDataFormComponent&#45;&gt;CoreModule -->
<g id="edge16" class="edge">
<title>ContentDataFormComponent&#45;&gt;CoreModule</title>
<path fill="none" stroke="black" d="M3439.51,-122.05C3439.51,-136.37 3439.51,-154 3439.51,-154 3439.51,-154 3146.53,-154 3146.53,-154"/>
<polygon fill="black" stroke="black" points="3146.53,-150.5 3136.53,-154 3146.53,-157.5 3146.53,-150.5"/>
</g>
<!-- MainHeaderComponent  -->
<g id="node35" class="node">
<title>MainHeaderComponent </title>
<polygon fill="#fb8072" stroke="black" points="4157.29,-252 4002.71,-252 4002.71,-216 4157.29,-216 4157.29,-252"/>
<text text-anchor="middle" x="4080" y="-229.8" font-family="Times,serif" font-size="14.00">MainHeaderComponent </text>
</g>
<!-- CoreModule&#45;&gt;MainHeaderComponent  -->
<g id="edge34" class="edge">
<title>CoreModule&#45;&gt;MainHeaderComponent </title>
<path fill="none" stroke="black" stroke-dasharray="5,2" d="M3136.46,-178C3319.68,-178 4019.74,-178 4019.74,-178 4019.74,-178 4019.74,-205.97 4019.74,-205.97"/>
<polygon fill="black" stroke="black" points="4016.24,-205.97 4019.74,-215.97 4023.24,-205.97 4016.24,-205.97"/>
</g>
<!-- MainFooterComponent  -->
<g id="node36" class="node">
<title>MainFooterComponent </title>
<polygon fill="#fb8072" stroke="black" points="3984.43,-252 3833.57,-252 3833.57,-216 3984.43,-216 3984.43,-252"/>
<text text-anchor="middle" x="3909" y="-229.8" font-family="Times,serif" font-size="14.00">MainFooterComponent </text>
</g>
<!-- CoreModule&#45;&gt;MainFooterComponent  -->
<g id="edge35" class="edge">
<title>CoreModule&#45;&gt;MainFooterComponent </title>
<path fill="none" stroke="black" stroke-dasharray="5,2" d="M3136.5,-180C3297.63,-180 3851.34,-180 3851.34,-180 3851.34,-180 3851.34,-205.72 3851.34,-205.72"/>
<polygon fill="black" stroke="black" points="3847.84,-205.72 3851.34,-215.72 3854.84,-205.72 3847.84,-205.72"/>
</g>
<!-- PermissionDirective  -->
<g id="node37" class="node">
<title>PermissionDirective </title>
<polygon fill="#fb8072" stroke="black" points="3815.8,-252 3682.2,-252 3682.2,-216 3815.8,-216 3815.8,-252"/>
<text text-anchor="middle" x="3749" y="-229.8" font-family="Times,serif" font-size="14.00">PermissionDirective </text>
</g>
<!-- CoreModule&#45;&gt;PermissionDirective  -->
<g id="edge36" class="edge">
<title>CoreModule&#45;&gt;PermissionDirective </title>
<path fill="none" stroke="black" stroke-dasharray="5,2" d="M3136.26,-181C3274.2,-181 3694.57,-181 3694.57,-181 3694.57,-181 3694.57,-205.76 3694.57,-205.76"/>
<polygon fill="black" stroke="black" points="3691.07,-205.76 3694.57,-215.76 3698.07,-205.76 3691.07,-205.76"/>
</g>
<!-- BodyScrollDirective  -->
<g id="node38" class="node">
<title>BodyScrollDirective </title>
<polygon fill="#fb8072" stroke="black" points="3663.86,-252 3528.14,-252 3528.14,-216 3663.86,-216 3663.86,-252"/>
<text text-anchor="middle" x="3596" y="-229.8" font-family="Times,serif" font-size="14.00">BodyScrollDirective </text>
</g>
<!-- CoreModule&#45;&gt;BodyScrollDirective  -->
<g id="edge37" class="edge">
<title>CoreModule&#45;&gt;BodyScrollDirective </title>
<path fill="none" stroke="black" stroke-dasharray="5,2" d="M3136.65,-183C3249.07,-183 3539.77,-183 3539.77,-183 3539.77,-183 3539.77,-205.88 3539.77,-205.88"/>
<polygon fill="black" stroke="black" points="3536.27,-205.88 3539.77,-215.88 3543.27,-205.88 3536.27,-205.88"/>
</g>
<!-- DataDrivenFilterComponent  -->
<g id="node39" class="node">
<title>DataDrivenFilterComponent </title>
<polygon fill="#fb8072" stroke="black" points="3510.46,-252 3329.54,-252 3329.54,-216 3510.46,-216 3510.46,-252"/>
<text text-anchor="middle" x="3420" y="-229.8" font-family="Times,serif" font-size="14.00">DataDrivenFilterComponent </text>
</g>
<!-- CoreModule&#45;&gt;DataDrivenFilterComponent  -->
<g id="edge38" class="edge">
<title>CoreModule&#45;&gt;DataDrivenFilterComponent </title>
<path fill="none" stroke="black" stroke-dasharray="5,2" d="M3136.39,-184C3206.6,-184 3337.3,-184 3337.3,-184 3337.3,-184 3337.3,-205.95 3337.3,-205.95"/>
<polygon fill="black" stroke="black" points="3333.8,-205.95 3337.3,-215.95 3340.8,-205.95 3333.8,-205.95"/>
</g>
<!-- SortByComponent  -->
<g id="node40" class="node">
<title>SortByComponent </title>
<polygon fill="#fb8072" stroke="black" points="3312,-252 3188,-252 3188,-216 3312,-216 3312,-252"/>
<text text-anchor="middle" x="3250" y="-229.8" font-family="Times,serif" font-size="14.00">SortByComponent </text>
</g>
<!-- CoreModule&#45;&gt;SortByComponent  -->
<g id="edge39" class="edge">
<title>CoreModule&#45;&gt;SortByComponent </title>
<path fill="none" stroke="black" stroke-dasharray="5,2" d="M3136.5,-186C3166.68,-186 3201.48,-186 3201.48,-186 3201.48,-186 3201.48,-205.85 3201.48,-205.85"/>
<polygon fill="black" stroke="black" points="3197.98,-205.85 3201.48,-215.85 3204.98,-205.85 3197.98,-205.85"/>
</g>
<!-- FlagContentComponent  -->
<g id="node41" class="node">
<title>FlagContentComponent </title>
<polygon fill="#fb8072" stroke="black" points="3170.05,-252 3015.95,-252 3015.95,-216 3170.05,-216 3170.05,-252"/>
<text text-anchor="middle" x="3093" y="-229.8" font-family="Times,serif" font-size="14.00">FlagContentComponent </text>
</g>
<!-- CoreModule&#45;&gt;FlagContentComponent  -->
<g id="edge40" class="edge">
<title>CoreModule&#45;&gt;FlagContentComponent </title>
<path fill="none" stroke="black" stroke-dasharray="5,2" d="M3093,-187.11C3093,-187.11 3093,-205.99 3093,-205.99"/>
<polygon fill="black" stroke="black" points="3089.5,-205.99 3093,-215.99 3096.5,-205.99 3089.5,-205.99"/>
</g>
<!-- DataFormComponent  -->
<g id="node42" class="node">
<title>DataFormComponent </title>
<polygon fill="#fb8072" stroke="black" points="2997.59,-252 2856.41,-252 2856.41,-216 2997.59,-216 2997.59,-252"/>
<text text-anchor="middle" x="2927" y="-229.8" font-family="Times,serif" font-size="14.00">DataFormComponent </text>
</g>
<!-- CoreModule&#45;&gt;DataFormComponent  -->
<g id="edge41" class="edge">
<title>CoreModule&#45;&gt;DataFormComponent </title>
<path fill="none" stroke="black" stroke-dasharray="5,2" d="M3049.49,-186C3019.01,-186 2983.7,-186 2983.7,-186 2983.7,-186 2983.7,-205.85 2983.7,-205.85"/>
<polygon fill="black" stroke="black" points="2980.21,-205.85 2983.7,-215.85 2987.21,-205.85 2980.21,-205.85"/>
</g>
<!-- ContentDataFormComponent  -->
<g id="node43" class="node">
<title>ContentDataFormComponent </title>
<polygon fill="#fb8072" stroke="black" points="2837.93,-252 2652.07,-252 2652.07,-216 2837.93,-216 2837.93,-252"/>
<text text-anchor="middle" x="2745" y="-229.8" font-family="Times,serif" font-size="14.00">ContentDataFormComponent </text>
</g>
<!-- CoreModule&#45;&gt;ContentDataFormComponent  -->
<g id="edge42" class="edge">
<title>CoreModule&#45;&gt;ContentDataFormComponent </title>
<path fill="none" stroke="black" stroke-dasharray="5,2" d="M3049.53,-184C2973.92,-184 2826.15,-184 2826.15,-184 2826.15,-184 2826.15,-205.95 2826.15,-205.95"/>
<polygon fill="black" stroke="black" points="2822.65,-205.95 2826.15,-215.95 2829.65,-205.95 2822.65,-205.95"/>
</g>
<!-- TelemetryModule  -->
<g id="node44" class="node">
<title>TelemetryModule </title>
<polygon fill="#fb8072" stroke="black" points="2634.08,-252 2513.92,-252 2513.92,-216 2634.08,-216 2634.08,-252"/>
<text text-anchor="middle" x="2574" y="-229.8" font-family="Times,serif" font-size="14.00">TelemetryModule </text>
</g>
<!-- CoreModule&#45;&gt;TelemetryModule  -->
<g id="edge43" class="edge">
<title>CoreModule&#45;&gt;TelemetryModule </title>
<path fill="none" stroke="black" stroke-dasharray="5,2" d="M3049.71,-183C2926.07,-183 2580.12,-183 2580.12,-183 2580.12,-183 2580.12,-205.88 2580.12,-205.88"/>
<polygon fill="black" stroke="black" points="2576.62,-205.88 2580.12,-215.88 2583.62,-205.88 2576.62,-205.88"/>
</g>
<!-- LanguageDropdownComponent  -->
<g id="node45" class="node">
<title>LanguageDropdownComponent </title>
<polygon fill="#fb8072" stroke="black" points="2495.9,-252 2296.1,-252 2296.1,-216 2495.9,-216 2495.9,-252"/>
<text text-anchor="middle" x="2396" y="-229.8" font-family="Times,serif" font-size="14.00">LanguageDropdownComponent </text>
</g>
<!-- CoreModule&#45;&gt;LanguageDropdownComponent  -->
<g id="edge44" class="edge">
<title>CoreModule&#45;&gt;LanguageDropdownComponent </title>
<path fill="none" stroke="black" stroke-dasharray="5,2" d="M3049.57,-181C2903.48,-181 2438.87,-181 2438.87,-181 2438.87,-181 2438.87,-205.76 2438.87,-205.76"/>
<polygon fill="black" stroke="black" points="2435.37,-205.76 2438.87,-215.76 2442.37,-205.76 2435.37,-205.76"/>
</g>
<!-- ProminentFilterComponent  -->
<g id="node46" class="node">
<title>ProminentFilterComponent </title>
<polygon fill="#fb8072" stroke="black" points="2277.99,-252 2104.01,-252 2104.01,-216 2277.99,-216 2277.99,-252"/>
<text text-anchor="middle" x="2191" y="-229.8" font-family="Times,serif" font-size="14.00">ProminentFilterComponent </text>
</g>
<!-- CoreModule&#45;&gt;ProminentFilterComponent  -->
<g id="edge45" class="edge">
<title>CoreModule&#45;&gt;ProminentFilterComponent </title>
<path fill="none" stroke="black" stroke-dasharray="5,2" d="M3049.54,-180C2878.76,-180 2262.98,-180 2262.98,-180 2262.98,-180 2262.98,-205.72 2262.98,-205.72"/>
<polygon fill="black" stroke="black" points="2259.48,-205.72 2262.98,-215.72 2266.48,-205.72 2259.48,-205.72"/>
</g>
<!-- TopicPickerComponent  -->
<g id="node47" class="node">
<title>TopicPickerComponent </title>
<polygon fill="#fb8072" stroke="black" points="2086.75,-252 1933.25,-252 1933.25,-216 2086.75,-216 2086.75,-252"/>
<text text-anchor="middle" x="2010" y="-229.8" font-family="Times,serif" font-size="14.00">TopicPickerComponent </text>
</g>
<!-- CoreModule&#45;&gt;TopicPickerComponent  -->
<g id="edge46" class="edge">
<title>CoreModule&#45;&gt;TopicPickerComponent </title>
<path fill="none" stroke="black" stroke-dasharray="5,2" d="M3049.59,-178C2848.78,-178 2019.6,-178 2019.6,-178 2019.6,-178 2019.6,-205.97 2019.6,-205.97"/>
<polygon fill="black" stroke="black" points="2016.1,-205.97 2019.6,-215.97 2023.1,-205.97 2016.1,-205.97"/>
</g>
<!-- CommonModule -->
<g id="node18" class="node">
<title>CommonModule</title>
<polygon fill="#8dd3c7" stroke="black" points="3344.67,-122 3341.67,-126 3320.67,-126 3317.67,-122 3233.33,-122 3233.33,-86 3344.67,-86 3344.67,-122"/>
<text text-anchor="middle" x="3289" y="-99.8" font-family="Times,serif" font-size="14.00">CommonModule</text>
</g>
<!-- CommonModule&#45;&gt;CoreModule -->
<g id="edge17" class="edge">
<title>CommonModule&#45;&gt;CoreModule</title>
<path fill="none" stroke="black" d="M3272.71,-122.25C3272.71,-136.18 3272.71,-153 3272.71,-153 3272.71,-153 3146.5,-153 3146.5,-153"/>
<polygon fill="black" stroke="black" points="3146.5,-149.5 3136.5,-153 3146.5,-156.5 3146.5,-149.5"/>
</g>
<!-- SuiSelectModule -->
<g id="node19" class="node">
<title>SuiSelectModule</title>
<polygon fill="#8dd3c7" stroke="black" points="3215.43,-122 3212.43,-126 3191.43,-126 3188.43,-122 3102.57,-122 3102.57,-86 3215.43,-86 3215.43,-122"/>
<text text-anchor="middle" x="3159" y="-99.8" font-family="Times,serif" font-size="14.00">SuiSelectModule</text>
</g>
<!-- SuiSelectModule&#45;&gt;CoreModule -->
<g id="edge18" class="edge">
<title>SuiSelectModule&#45;&gt;CoreModule</title>
<path fill="none" stroke="black" d="M3119.58,-122.11C3119.58,-122.11 3119.58,-140.99 3119.58,-140.99"/>
<polygon fill="black" stroke="black" points="3116.08,-140.99 3119.58,-150.99 3123.08,-140.99 3116.08,-140.99"/>
</g>
<!-- SuiModalModule -->
<g id="node20" class="node">
<title>SuiModalModule</title>
<polygon fill="#8dd3c7" stroke="black" points="3084.27,-122 3081.27,-126 3060.27,-126 3057.27,-122 2969.73,-122 2969.73,-86 3084.27,-86 3084.27,-122"/>
<text text-anchor="middle" x="3027" y="-99.8" font-family="Times,serif" font-size="14.00">SuiModalModule</text>
</g>
<!-- SuiModalModule&#45;&gt;CoreModule -->
<g id="edge19" class="edge">
<title>SuiModalModule&#45;&gt;CoreModule</title>
<path fill="none" stroke="black" d="M3067,-122.11C3067,-122.11 3067,-140.99 3067,-140.99"/>
<polygon fill="black" stroke="black" points="3063.5,-140.99 3067,-150.99 3070.5,-140.99 3063.5,-140.99"/>
</g>
<!-- SuiAccordionModule -->
<g id="node21" class="node">
<title>SuiAccordionModule</title>
<polygon fill="#8dd3c7" stroke="black" points="2951.81,-122 2948.81,-126 2927.81,-126 2924.81,-122 2814.19,-122 2814.19,-86 2951.81,-86 2951.81,-122"/>
<text text-anchor="middle" x="2883" y="-99.8" font-family="Times,serif" font-size="14.00">SuiAccordionModule</text>
</g>
<!-- SuiAccordionModule&#45;&gt;CoreModule -->
<g id="edge20" class="edge">
<title>SuiAccordionModule&#45;&gt;CoreModule</title>
<path fill="none" stroke="black" d="M2903.93,-122.25C2903.93,-136.18 2903.93,-153 2903.93,-153 2903.93,-153 3039.62,-153 3039.62,-153"/>
<polygon fill="black" stroke="black" points="3039.62,-156.5 3049.62,-153 3039.62,-149.5 3039.62,-156.5"/>
</g>
<!-- SuiPopupModule -->
<g id="node22" class="node">
<title>SuiPopupModule</title>
<polygon fill="#8dd3c7" stroke="black" points="2796.01,-122 2793.01,-126 2772.01,-126 2769.01,-122 2681.99,-122 2681.99,-86 2796.01,-86 2796.01,-122"/>
<text text-anchor="middle" x="2739" y="-99.8" font-family="Times,serif" font-size="14.00">SuiPopupModule</text>
</g>
<!-- SuiPopupModule&#45;&gt;CoreModule -->
<g id="edge21" class="edge">
<title>SuiPopupModule&#45;&gt;CoreModule</title>
<path fill="none" stroke="black" d="M2739,-122.05C2739,-136.37 2739,-154 2739,-154 2739,-154 3039.59,-154 3039.59,-154"/>
<polygon fill="black" stroke="black" points="3039.59,-157.5 3049.59,-154 3039.59,-150.5 3039.59,-157.5"/>
</g>
<!-- SuiDropdownModule -->
<g id="node23" class="node">
<title>SuiDropdownModule</title>
<polygon fill="#8dd3c7" stroke="black" points="2664.1,-122 2661.1,-126 2640.1,-126 2637.1,-122 2525.9,-122 2525.9,-86 2664.1,-86 2664.1,-122"/>
<text text-anchor="middle" x="2595" y="-99.8" font-family="Times,serif" font-size="14.00">SuiDropdownModule</text>
</g>
<!-- SuiDropdownModule&#45;&gt;CoreModule -->
<g id="edge22" class="edge">
<title>SuiDropdownModule&#45;&gt;CoreModule</title>
<path fill="none" stroke="black" d="M2658.04,-122.19C2658.04,-137.18 2658.04,-156 2658.04,-156 2658.04,-156 3039.7,-156 3039.7,-156"/>
<polygon fill="black" stroke="black" points="3039.7,-159.5 3049.7,-156 3039.7,-152.5 3039.7,-159.5"/>
</g>
<!-- SuiProgressModule -->
<g id="node24" class="node">
<title>SuiProgressModule</title>
<polygon fill="#8dd3c7" stroke="black" points="2508.43,-122 2505.43,-126 2484.43,-126 2481.43,-122 2381.57,-122 2381.57,-86 2508.43,-86 2508.43,-122"/>
<text text-anchor="middle" x="2445" y="-99.8" font-family="Times,serif" font-size="14.00">SuiProgressModule</text>
</g>
<!-- SuiProgressModule&#45;&gt;CoreModule -->
<g id="edge23" class="edge">
<title>SuiProgressModule&#45;&gt;CoreModule</title>
<path fill="none" stroke="black" d="M2502.08,-122.24C2502.08,-137.57 2502.08,-157 2502.08,-157 2502.08,-157 3039.55,-157 3039.55,-157"/>
<polygon fill="black" stroke="black" points="3039.55,-160.5 3049.55,-157 3039.55,-153.5 3039.55,-160.5"/>
</g>
<!-- SuiRatingModule -->
<g id="node25" class="node">
<title>SuiRatingModule</title>
<polygon fill="#8dd3c7" stroke="black" points="2363.56,-122 2360.56,-126 2339.56,-126 2336.56,-122 2248.44,-122 2248.44,-86 2363.56,-86 2363.56,-122"/>
<text text-anchor="middle" x="2306" y="-99.8" font-family="Times,serif" font-size="14.00">SuiRatingModule</text>
</g>
<!-- SuiRatingModule&#45;&gt;CoreModule -->
<g id="edge24" class="edge">
<title>SuiRatingModule&#45;&gt;CoreModule</title>
<path fill="none" stroke="black" d="M2329.91,-122.01C2329.91,-138.05 2329.91,-159 2329.91,-159 2329.91,-159 3039.51,-159 3039.51,-159"/>
<polygon fill="black" stroke="black" points="3039.51,-162.5 3049.51,-159 3039.51,-155.5 3039.51,-162.5"/>
</g>
<!-- SuiCollapseModule -->
<g id="node26" class="node">
<title>SuiCollapseModule</title>
<polygon fill="#8dd3c7" stroke="black" points="2230.71,-122 2227.71,-126 2206.71,-126 2203.71,-122 2103.29,-122 2103.29,-86 2230.71,-86 2230.71,-122"/>
<text text-anchor="middle" x="2167" y="-99.8" font-family="Times,serif" font-size="14.00">SuiCollapseModule</text>
</g>
<!-- SuiCollapseModule&#45;&gt;CoreModule -->
<g id="edge25" class="edge">
<title>SuiCollapseModule&#45;&gt;CoreModule</title>
<path fill="none" stroke="black" d="M2167.43,-122.03C2167.43,-138.4 2167.43,-160 2167.43,-160 2167.43,-160 3039.6,-160 3039.6,-160"/>
<polygon fill="black" stroke="black" points="3039.6,-163.5 3049.6,-160 3039.6,-156.5 3039.6,-163.5"/>
</g>
<!-- SharedModule -->
<g id="node27" class="node">
<title>SharedModule</title>
<polygon fill="#8dd3c7" stroke="black" points="2085.42,-122 2082.42,-126 2061.42,-126 2058.42,-122 1986.58,-122 1986.58,-86 2085.42,-86 2085.42,-122"/>
<text text-anchor="middle" x="2036" y="-99.8" font-family="Times,serif" font-size="14.00">SharedModule</text>
</g>
<!-- SharedModule&#45;&gt;CoreModule -->
<g id="edge26" class="edge">
<title>SharedModule&#45;&gt;CoreModule</title>
<path fill="none" stroke="black" d="M2052.4,-122.03C2052.4,-139.06 2052.4,-162 2052.4,-162 2052.4,-162 3039.61,-162 3039.61,-162"/>
<polygon fill="black" stroke="black" points="3039.61,-165.5 3049.61,-162 3039.61,-158.5 3039.61,-165.5"/>
</g>
<!-- RouterModule -->
<g id="node28" class="node">
<title>RouterModule</title>
<polygon fill="#8dd3c7" stroke="black" points="1968.65,-122 1965.65,-126 1944.65,-126 1941.65,-122 1871.35,-122 1871.35,-86 1968.65,-86 1968.65,-122"/>
<text text-anchor="middle" x="1920" y="-99.8" font-family="Times,serif" font-size="14.00">RouterModule</text>
</g>
<!-- RouterModule&#45;&gt;CoreModule -->
<g id="edge27" class="edge">
<title>RouterModule&#45;&gt;CoreModule</title>
<path fill="none" stroke="black" d="M1951.1,-122.02C1951.1,-139.37 1951.1,-163 1951.1,-163 1951.1,-163 3039.63,-163 3039.63,-163"/>
<polygon fill="black" stroke="black" points="3039.63,-166.5 3049.63,-163 3039.63,-159.5 3039.63,-166.5"/>
</g>
<!-- FormsModule -->
<g id="node29" class="node">
<title>FormsModule</title>
<polygon fill="#8dd3c7" stroke="black" points="1853.83,-122 1850.83,-126 1829.83,-126 1826.83,-122 1758.17,-122 1758.17,-86 1853.83,-86 1853.83,-122"/>
<text text-anchor="middle" x="1806" y="-99.8" font-family="Times,serif" font-size="14.00">FormsModule</text>
</g>
<!-- FormsModule&#45;&gt;CoreModule -->
<g id="edge28" class="edge">
<title>FormsModule&#45;&gt;CoreModule</title>
<path fill="none" stroke="black" d="M1806,-122.3C1806,-140.27 1806,-165 1806,-165 1806,-165 3039.44,-165 3039.44,-165"/>
<polygon fill="black" stroke="black" points="3039.44,-168.5 3049.44,-165 3039.44,-161.5 3039.44,-168.5"/>
</g>
<!-- ReactiveFormsModule -->
<g id="node30" class="node">
<title>ReactiveFormsModule</title>
<polygon fill="#8dd3c7" stroke="black" points="1740.3,-122 1737.3,-126 1716.3,-126 1713.3,-122 1595.7,-122 1595.7,-86 1740.3,-86 1740.3,-122"/>
<text text-anchor="middle" x="1668" y="-99.8" font-family="Times,serif" font-size="14.00">ReactiveFormsModule</text>
</g>
<!-- ReactiveFormsModule&#45;&gt;CoreModule -->
<g id="edge29" class="edge">
<title>ReactiveFormsModule&#45;&gt;CoreModule</title>
<path fill="none" stroke="black" d="M1668,-122.27C1668,-140.56 1668,-166 1668,-166 1668,-166 3039.57,-166 3039.57,-166"/>
<polygon fill="black" stroke="black" points="3039.57,-169.5 3049.57,-166 3039.57,-162.5 3039.57,-169.5"/>
</g>
<!-- WebExtensionModule -->
<g id="node31" class="node">
<title>WebExtensionModule</title>
<polygon fill="#8dd3c7" stroke="black" points="1577.97,-122 1574.97,-126 1553.97,-126 1550.97,-122 1436.03,-122 1436.03,-86 1577.97,-86 1577.97,-122"/>
<text text-anchor="middle" x="1507" y="-99.8" font-family="Times,serif" font-size="14.00">WebExtensionModule</text>
</g>
<!-- WebExtensionModule&#45;&gt;CoreModule -->
<g id="edge30" class="edge">
<title>WebExtensionModule&#45;&gt;CoreModule</title>
<path fill="none" stroke="black" d="M1507,-122.17C1507,-141.09 1507,-168 1507,-168 1507,-168 3039.34,-168 3039.34,-168"/>
<polygon fill="black" stroke="black" points="3039.34,-171.5 3049.34,-168 3039.34,-164.5 3039.34,-171.5"/>
</g>
<!-- TelemetryModule -->
<g id="node32" class="node">
<title>TelemetryModule</title>
<polygon fill="#8dd3c7" stroke="black" points="1417.58,-122 1414.58,-126 1393.58,-126 1390.58,-122 1300.42,-122 1300.42,-86 1417.58,-86 1417.58,-122"/>
<text text-anchor="middle" x="1359" y="-99.8" font-family="Times,serif" font-size="14.00">TelemetryModule</text>
</g>
<!-- TelemetryModule&#45;&gt;CoreModule -->
<g id="edge31" class="edge">
<title>TelemetryModule&#45;&gt;CoreModule</title>
<path fill="none" stroke="black" d="M1359,-122.11C1359,-141.34 1359,-169 1359,-169 1359,-169 3039.7,-169 3039.7,-169"/>
<polygon fill="black" stroke="black" points="3039.7,-172.5 3049.7,-169 3039.7,-165.5 3039.7,-172.5"/>
</g>
<!-- AvatarModule -->
<g id="node33" class="node">
<title>AvatarModule</title>
<polygon fill="#8dd3c7" stroke="black" points="1282.64,-122 1279.64,-126 1258.64,-126 1255.64,-122 1185.36,-122 1185.36,-86 1282.64,-86 1282.64,-122"/>
<text text-anchor="middle" x="1234" y="-99.8" font-family="Times,serif" font-size="14.00">AvatarModule</text>
</g>
<!-- AvatarModule&#45;&gt;CoreModule -->
<g id="edge32" class="edge">
<title>AvatarModule&#45;&gt;CoreModule</title>
<path fill="none" stroke="black" d="M1234,-122.31C1234,-142.15 1234,-171 1234,-171 1234,-171 3039.33,-171 3039.33,-171"/>
<polygon fill="black" stroke="black" points="3039.33,-174.5 3049.33,-171 3039.33,-167.5 3039.33,-174.5"/>
</g>
<!-- CommonFormElementsModule -->
<g id="node34" class="node">
<title>CommonFormElementsModule</title>
<polygon fill="#8dd3c7" stroke="black" points="1167.1,-122 1164.1,-126 1143.1,-126 1140.1,-122 972.9,-122 972.9,-86 1167.1,-86 1167.1,-122"/>
<text text-anchor="middle" x="1070" y="-99.8" font-family="Times,serif" font-size="14.00">CommonFormElementsModule</text>
</g>
<!-- CommonFormElementsModule&#45;&gt;CoreModule -->
<g id="edge33" class="edge">
<title>CommonFormElementsModule&#45;&gt;CoreModule</title>
<path fill="none" stroke="black" d="M1070,-122.22C1070,-142.37 1070,-172 1070,-172 1070,-172 3039.34,-172 3039.34,-172"/>
<polygon fill="black" stroke="black" points="3039.34,-175.5 3049.34,-172 3039.34,-168.5 3039.34,-175.5"/>
</g>
<!-- { provide: APP_BASE_HREF, useFactory: (s) =&gt; {}, deps: [PlatformLocation] } -->
<g id="node48" class="node">
<title>{ provide: APP_BASE_HREF, useFactory: (s) =&gt; {}, deps: [PlatformLocation] }</title>
<ellipse fill="#fdb462" stroke="black" cx="623" cy="-104" rx="326.19" ry="18"/>
<text text-anchor="middle" x="623" y="-99.8" font-family="Times,serif" font-size="14.00">{ provide: APP_BASE_HREF, useFactory: (s) =&gt; {}, deps: [PlatformLocation] }</text>
</g>
<!-- { provide: APP_BASE_HREF, useFactory: (s) =&gt; {}, deps: [PlatformLocation] }&#45;&gt;CoreModule -->
<g id="edge47" class="edge">
<title>{ provide: APP_BASE_HREF, useFactory: (s) =&gt; {}, deps: [PlatformLocation] }&#45;&gt;CoreModule</title>
<path fill="none" stroke="black" d="M623,-122.03C623,-142.77 623,-174 623,-174 623,-174 3039.61,-174 3039.61,-174"/>
<polygon fill="black" stroke="black" points="3039.61,-177.5 3049.61,-174 3039.61,-170.5 3039.61,-177.5"/>
</g>
<!-- CacheService -->
<g id="node49" class="node">
<title>CacheService</title>
<ellipse fill="#fdb462" stroke="black" cx="215" cy="-104" rx="64.24" ry="18"/>
<text text-anchor="middle" x="215" y="-99.8" font-family="Times,serif" font-size="14.00">CacheService</text>
</g>
<!-- CacheService&#45;&gt;CoreModule -->
<g id="edge48" class="edge">
<title>CacheService&#45;&gt;CoreModule</title>
<path fill="none" stroke="black" d="M215,-122.28C215,-143.32 215,-175 215,-175 215,-175 3039.52,-175 3039.52,-175"/>
<polygon fill="black" stroke="black" points="3039.52,-178.5 3049.52,-175 3039.52,-171.5 3039.52,-178.5"/>
</g>
<!-- AuthGuard -->
<g id="node50" class="node">
<title>AuthGuard</title>
<ellipse fill="#fdb462" stroke="black" cx="78" cy="-104" rx="54.46" ry="18"/>
<text text-anchor="middle" x="78" y="-99.8" font-family="Times,serif" font-size="14.00">AuthGuard</text>
</g>
<!-- AuthGuard&#45;&gt;CoreModule -->
<g id="edge49" class="edge">
<title>AuthGuard&#45;&gt;CoreModule</title>
<path fill="none" stroke="black" d="M78,-122.04C78,-143.66 78,-177 78,-177 78,-177 3039.51,-177 3039.51,-177"/>
<polygon fill="black" stroke="black" points="3039.51,-180.5 3049.51,-177 3039.51,-173.5 3039.51,-180.5"/>
</g>
</g>
</svg>
