<?xml version="1.0" encoding="UTF-8" standalone="no"?>
<!DOCTYPE svg PUBLIC "-//W3C//DTD SVG 1.1//EN"
 "http://www.w3.org/Graphics/SVG/1.1/DTD/svg11.dtd">
<!-- Generated by graphviz version 2.47.0 (20210316.0004)
 -->
<!-- Title: dependencies Pages: 1 -->
<svg width="3360pt" height="211pt"
 viewBox="0.00 0.00 3360.00 211.00" xmlns="http://www.w3.org/2000/svg" xmlns:xlink="http://www.w3.org/1999/xlink">
<g id="graph0" class="graph" transform="scale(1 1) rotate(0) translate(4 207)">
<title>dependencies</title>
<polygon fill="white" stroke="transparent" points="-4,4 -4,-207 3356,-207 3356,4 -4,4"/>
<text text-anchor="start" x="1655.01" y="-42.4" font-family="Times-12" font-weight="bold" font-size="14.00">Legend</text>
<polygon fill="#ffffb3" stroke="transparent" points="1442,-10 1442,-30 1462,-30 1462,-10 1442,-10"/>
<text text-anchor="start" x="1465.63" y="-15.4" font-family="Times-12" font-size="14.00"> &#160;Declarations</text>
<polygon fill="#8dd3c7" stroke="transparent" points="1555,-10 1555,-30 1575,-30 1575,-10 1555,-10"/>
<text text-anchor="start" x="1578.73" y="-15.4" font-family="Times-12" font-size="14.00"> &#160;Module</text>
<polygon fill="#80b1d3" stroke="transparent" points="1641,-10 1641,-30 1661,-30 1661,-10 1641,-10"/>
<text text-anchor="start" x="1664.78" y="-15.4" font-family="Times-12" font-size="14.00"> &#160;Bootstrap</text>
<polygon fill="#fdb462" stroke="transparent" points="1738,-10 1738,-30 1758,-30 1758,-10 1738,-10"/>
<text text-anchor="start" x="1761.67" y="-15.4" font-family="Times-12" font-size="14.00"> &#160;Providers</text>
<polygon fill="#fb8072" stroke="transparent" points="1834,-10 1834,-30 1854,-30 1854,-10 1834,-10"/>
<text text-anchor="start" x="1857.73" y="-15.4" font-family="Times-12" font-size="14.00"> &#160;Exports</text>
<g id="clust1" class="cluster">
<title>cluster_ProfileModule</title>
<polygon fill="none" stroke="black" stroke-dasharray="1,5" points="8,-70 8,-195 3344,-195 3344,-70 8,-70"/>
</g>
<g id="clust2" class="cluster">
<title>cluster_ProfileModule_declarations</title>
<polygon fill="none" stroke="black" points="2348,-78 2348,-130 3336,-130 3336,-78 2348,-78"/>
</g>
<g id="clust8" class="cluster">
<title>cluster_ProfileModule_imports</title>
<polygon fill="none" stroke="black" points="16,-78 16,-130 2340,-130 2340,-78 16,-78"/>
</g>
<!-- ProfilePageComponent -->
<g id="node1" class="node">
<title>ProfilePageComponent</title>
<polygon fill="#ffffb3" stroke="black" points="3328.14,-122 3181.86,-122 3181.86,-86 3328.14,-86 3328.14,-122"/>
<text text-anchor="middle" x="3255" y="-99.8" font-family="Times,serif" font-size="14.00">ProfilePageComponent</text>
</g>
<!-- ProfileModule -->
<g id="node6" class="node">
<title>ProfileModule</title>
<polygon fill="#8dd3c7" stroke="black" points="1569.65,-187 1566.65,-191 1545.65,-191 1542.65,-187 1472.35,-187 1472.35,-151 1569.65,-151 1569.65,-187"/>
<text text-anchor="middle" x="1521" y="-164.8" font-family="Times,serif" font-size="14.00">ProfileModule</text>
</g>
<!-- ProfilePageComponent&#45;&gt;ProfileModule -->
<g id="edge1" class="edge">
<title>ProfilePageComponent&#45;&gt;ProfileModule</title>
<path fill="none" stroke="black" d="M3255,-122.15C3255,-145.76 3255,-184 3255,-184 3255,-184 1580.1,-184 1580.1,-184"/>
<polygon fill="black" stroke="black" points="1580.1,-180.5 1570.1,-184 1580.1,-187.5 1580.1,-180.5"/>
</g>
<!-- ProfileBadgeComponent -->
<g id="node2" class="node">
<title>ProfileBadgeComponent</title>
<polygon fill="#ffffb3" stroke="black" points="3163.7,-122 3008.3,-122 3008.3,-86 3163.7,-86 3163.7,-122"/>
<text text-anchor="middle" x="3086" y="-99.8" font-family="Times,serif" font-size="14.00">ProfileBadgeComponent</text>
</g>
<!-- ProfileBadgeComponent&#45;&gt;ProfileModule -->
<g id="edge2" class="edge">
<title>ProfileBadgeComponent&#45;&gt;ProfileModule</title>
<path fill="none" stroke="black" d="M3086,-122.25C3086,-145.02 3086,-181 3086,-181 3086,-181 1579.99,-181 1579.99,-181"/>
<polygon fill="black" stroke="black" points="1579.99,-177.5 1569.99,-181 1579.99,-184.5 1579.99,-177.5"/>
</g>
<!-- UpdateContactDetailsComponent -->
<g id="node3" class="node">
<title>UpdateContactDetailsComponent</title>
<polygon fill="#ffffb3" stroke="black" points="2990.46,-122 2785.54,-122 2785.54,-86 2990.46,-86 2990.46,-122"/>
<text text-anchor="middle" x="2888" y="-99.8" font-family="Times,serif" font-size="14.00">UpdateContactDetailsComponent</text>
</g>
<!-- UpdateContactDetailsComponent&#45;&gt;ProfileModule -->
<g id="edge3" class="edge">
<title>UpdateContactDetailsComponent&#45;&gt;ProfileModule</title>
<path fill="none" stroke="black" d="M2888,-122.29C2888,-144.21 2888,-178 2888,-178 2888,-178 1579.65,-178 1579.65,-178"/>
<polygon fill="black" stroke="black" points="1579.65,-174.5 1569.65,-178 1579.65,-181.5 1579.65,-174.5"/>
</g>
<!-- UpdateUserDetailsComponent -->
<g id="node4" class="node">
<title>UpdateUserDetailsComponent</title>
<polygon fill="#ffffb3" stroke="black" points="2767.84,-122 2580.16,-122 2580.16,-86 2767.84,-86 2767.84,-122"/>
<text text-anchor="middle" x="2674" y="-99.8" font-family="Times,serif" font-size="14.00">UpdateUserDetailsComponent</text>
</g>
<!-- UpdateUserDetailsComponent&#45;&gt;ProfileModule -->
<g id="edge4" class="edge">
<title>UpdateUserDetailsComponent&#45;&gt;ProfileModule</title>
<path fill="none" stroke="black" d="M2674,-122.03C2674,-142.77 2674,-174 2674,-174 2674,-174 1579.81,-174 1579.81,-174"/>
<polygon fill="black" stroke="black" points="1579.81,-170.5 1569.81,-174 1579.81,-177.5 1579.81,-170.5"/>
</g>
<!-- AccountRecoveryInfoComponent -->
<g id="node5" class="node">
<title>AccountRecoveryInfoComponent</title>
<polygon fill="#ffffb3" stroke="black" points="2561.72,-122 2356.28,-122 2356.28,-86 2561.72,-86 2561.72,-122"/>
<text text-anchor="middle" x="2459" y="-99.8" font-family="Times,serif" font-size="14.00">AccountRecoveryInfoComponent</text>
</g>
<!-- AccountRecoveryInfoComponent&#45;&gt;ProfileModule -->
<g id="edge5" class="edge">
<title>AccountRecoveryInfoComponent&#45;&gt;ProfileModule</title>
<path fill="none" stroke="black" d="M2459,-122.31C2459,-142.15 2459,-171 2459,-171 2459,-171 1579.78,-171 1579.78,-171"/>
<polygon fill="black" stroke="black" points="1579.78,-167.5 1569.78,-171 1579.78,-174.5 1579.78,-167.5"/>
</g>
<!-- CommonModule -->
<g id="node7" class="node">
<title>CommonModule</title>
<polygon fill="#8dd3c7" stroke="black" points="2331.67,-122 2328.67,-126 2307.67,-126 2304.67,-122 2220.33,-122 2220.33,-86 2331.67,-86 2331.67,-122"/>
<text text-anchor="middle" x="2276" y="-99.8" font-family="Times,serif" font-size="14.00">CommonModule</text>
</g>
<!-- CommonModule&#45;&gt;ProfileModule -->
<g id="edge6" class="edge">
<title>CommonModule&#45;&gt;ProfileModule</title>
<path fill="none" stroke="black" d="M2276,-122.17C2276,-141.09 2276,-168 2276,-168 2276,-168 1579.67,-168 1579.67,-168"/>
<polygon fill="black" stroke="black" points="1579.67,-164.5 1569.67,-168 1579.67,-171.5 1579.67,-164.5"/>
</g>
<!-- ProfileRoutingModule -->
<g id="node8" class="node">
<title>ProfileRoutingModule</title>
<polygon fill="#8dd3c7" stroke="black" points="2202.27,-122 2199.27,-126 2178.27,-126 2175.27,-122 2059.73,-122 2059.73,-86 2202.27,-86 2202.27,-122"/>
<text text-anchor="middle" x="2131" y="-99.8" font-family="Times,serif" font-size="14.00">ProfileRoutingModule</text>
</g>
<!-- ProfileRoutingModule&#45;&gt;ProfileModule -->
<g id="edge7" class="edge">
<title>ProfileRoutingModule&#45;&gt;ProfileModule</title>
<path fill="none" stroke="black" d="M2131,-122.3C2131,-140.27 2131,-165 2131,-165 2131,-165 1579.89,-165 1579.89,-165"/>
<polygon fill="black" stroke="black" points="1579.89,-161.5 1569.89,-165 1579.89,-168.5 1579.89,-161.5"/>
</g>
<!-- SharedModule -->
<g id="node9" class="node">
<title>SharedModule</title>
<polygon fill="#8dd3c7" stroke="black" points="2041.42,-122 2038.42,-126 2017.42,-126 2014.42,-122 1942.58,-122 1942.58,-86 2041.42,-86 2041.42,-122"/>
<text text-anchor="middle" x="1992" y="-99.8" font-family="Times,serif" font-size="14.00">SharedModule</text>
</g>
<!-- SharedModule&#45;&gt;ProfileModule -->
<g id="edge8" class="edge">
<title>SharedModule&#45;&gt;ProfileModule</title>
<path fill="none" stroke="black" d="M1992,-122.04C1992,-138.73 1992,-161 1992,-161 1992,-161 1580.07,-161 1580.07,-161"/>
<polygon fill="black" stroke="black" points="1580.07,-157.5 1570.07,-161 1580.07,-164.5 1580.07,-157.5"/>
</g>
<!-- SuiSelectModule -->
<g id="node10" class="node">
<title>SuiSelectModule</title>
<polygon fill="#8dd3c7" stroke="black" points="1925.43,-122 1922.43,-126 1901.43,-126 1898.43,-122 1812.57,-122 1812.57,-86 1925.43,-86 1925.43,-122"/>
<text text-anchor="middle" x="1869" y="-99.8" font-family="Times,serif" font-size="14.00">SuiSelectModule</text>
</g>
<!-- SuiSelectModule&#45;&gt;ProfileModule -->
<g id="edge9" class="edge">
<title>SuiSelectModule&#45;&gt;ProfileModule</title>
<path fill="none" stroke="black" d="M1869,-122.28C1869,-137.95 1869,-158 1869,-158 1869,-158 1579.75,-158 1579.75,-158"/>
<polygon fill="black" stroke="black" points="1579.75,-154.5 1569.75,-158 1579.75,-161.5 1579.75,-154.5"/>
</g>
<!-- SuiModalModule -->
<g id="node11" class="node">
<title>SuiModalModule</title>
<polygon fill="#8dd3c7" stroke="black" points="1794.27,-122 1791.27,-126 1770.27,-126 1767.27,-122 1679.73,-122 1679.73,-86 1794.27,-86 1794.27,-122"/>
<text text-anchor="middle" x="1737" y="-99.8" font-family="Times,serif" font-size="14.00">SuiModalModule</text>
</g>
<!-- SuiModalModule&#45;&gt;ProfileModule -->
<g id="edge10" class="edge">
<title>SuiModalModule&#45;&gt;ProfileModule</title>
<path fill="none" stroke="black" d="M1737,-122.12C1737,-136.78 1737,-155 1737,-155 1737,-155 1579.74,-155 1579.74,-155"/>
<polygon fill="black" stroke="black" points="1579.74,-151.5 1569.74,-155 1579.74,-158.5 1579.74,-151.5"/>
</g>
<!-- SuiAccordionModule -->
<g id="node12" class="node">
<title>SuiAccordionModule</title>
<polygon fill="#8dd3c7" stroke="black" points="1661.81,-122 1658.81,-126 1637.81,-126 1634.81,-122 1524.19,-122 1524.19,-86 1661.81,-86 1661.81,-122"/>
<text text-anchor="middle" x="1593" y="-99.8" font-family="Times,serif" font-size="14.00">SuiAccordionModule</text>
</g>
<!-- SuiAccordionModule&#45;&gt;ProfileModule -->
<g id="edge11" class="edge">
<title>SuiAccordionModule&#45;&gt;ProfileModule</title>
<path fill="none" stroke="black" d="M1547.08,-122.11C1547.08,-122.11 1547.08,-140.99 1547.08,-140.99"/>
<polygon fill="black" stroke="black" points="1543.58,-140.99 1547.08,-150.99 1550.58,-140.99 1543.58,-140.99"/>
</g>
<!-- SuiPopupModule -->
<g id="node13" class="node">
<title>SuiPopupModule</title>
<polygon fill="#8dd3c7" stroke="black" points="1506.01,-122 1503.01,-126 1482.01,-126 1479.01,-122 1391.99,-122 1391.99,-86 1506.01,-86 1506.01,-122"/>
<text text-anchor="middle" x="1449" y="-99.8" font-family="Times,serif" font-size="14.00">SuiPopupModule</text>
</g>
<!-- SuiPopupModule&#45;&gt;ProfileModule -->
<g id="edge12" class="edge">
<title>SuiPopupModule&#45;&gt;ProfileModule</title>
<path fill="none" stroke="black" d="M1489.09,-122.11C1489.09,-122.11 1489.09,-140.99 1489.09,-140.99"/>
<polygon fill="black" stroke="black" points="1485.59,-140.99 1489.09,-150.99 1492.59,-140.99 1485.59,-140.99"/>
</g>
<!-- SuiDropdownModule -->
<g id="node14" class="node">
<title>SuiDropdownModule</title>
<polygon fill="#8dd3c7" stroke="black" points="1374.1,-122 1371.1,-126 1350.1,-126 1347.1,-122 1235.9,-122 1235.9,-86 1374.1,-86 1374.1,-122"/>
<text text-anchor="middle" x="1305" y="-99.8" font-family="Times,serif" font-size="14.00">SuiDropdownModule</text>
</g>
<!-- SuiDropdownModule&#45;&gt;ProfileModule -->
<g id="edge13" class="edge">
<title>SuiDropdownModule&#45;&gt;ProfileModule</title>
<path fill="none" stroke="black" d="M1305,-122.12C1305,-136.78 1305,-155 1305,-155 1305,-155 1462.26,-155 1462.26,-155"/>
<polygon fill="black" stroke="black" points="1462.26,-158.5 1472.26,-155 1462.26,-151.5 1462.26,-158.5"/>
</g>
<!-- SuiProgressModule -->
<g id="node15" class="node">
<title>SuiProgressModule</title>
<polygon fill="#8dd3c7" stroke="black" points="1218.43,-122 1215.43,-126 1194.43,-126 1191.43,-122 1091.57,-122 1091.57,-86 1218.43,-86 1218.43,-122"/>
<text text-anchor="middle" x="1155" y="-99.8" font-family="Times,serif" font-size="14.00">SuiProgressModule</text>
</g>
<!-- SuiProgressModule&#45;&gt;ProfileModule -->
<g id="edge14" class="edge">
<title>SuiProgressModule&#45;&gt;ProfileModule</title>
<path fill="none" stroke="black" d="M1155,-122.28C1155,-137.95 1155,-158 1155,-158 1155,-158 1462.02,-158 1462.02,-158"/>
<polygon fill="black" stroke="black" points="1462.02,-161.5 1472.02,-158 1462.02,-154.5 1462.02,-161.5"/>
</g>
<!-- SuiRatingModule -->
<g id="node16" class="node">
<title>SuiRatingModule</title>
<polygon fill="#8dd3c7" stroke="black" points="1073.56,-122 1070.56,-126 1049.56,-126 1046.56,-122 958.44,-122 958.44,-86 1073.56,-86 1073.56,-122"/>
<text text-anchor="middle" x="1016" y="-99.8" font-family="Times,serif" font-size="14.00">SuiRatingModule</text>
</g>
<!-- SuiRatingModule&#45;&gt;ProfileModule -->
<g id="edge15" class="edge">
<title>SuiRatingModule&#45;&gt;ProfileModule</title>
<path fill="none" stroke="black" d="M1016,-122.04C1016,-138.73 1016,-161 1016,-161 1016,-161 1462.12,-161 1462.12,-161"/>
<polygon fill="black" stroke="black" points="1462.12,-164.5 1472.12,-161 1462.12,-157.5 1462.12,-164.5"/>
</g>
<!-- SuiCollapseModule -->
<g id="node17" class="node">
<title>SuiCollapseModule</title>
<polygon fill="#8dd3c7" stroke="black" points="940.71,-122 937.71,-126 916.71,-126 913.71,-122 813.29,-122 813.29,-86 940.71,-86 940.71,-122"/>
<text text-anchor="middle" x="877" y="-99.8" font-family="Times,serif" font-size="14.00">SuiCollapseModule</text>
</g>
<!-- SuiCollapseModule&#45;&gt;ProfileModule -->
<g id="edge16" class="edge">
<title>SuiCollapseModule&#45;&gt;ProfileModule</title>
<path fill="none" stroke="black" d="M877,-122.3C877,-140.27 877,-165 877,-165 877,-165 1462.33,-165 1462.33,-165"/>
<polygon fill="black" stroke="black" points="1462.33,-168.5 1472.33,-165 1462.33,-161.5 1462.33,-168.5"/>
</g>
<!-- CoreModule -->
<g id="node18" class="node">
<title>CoreModule</title>
<polygon fill="#8dd3c7" stroke="black" points="795.26,-122 792.26,-126 771.26,-126 768.26,-122 708.74,-122 708.74,-86 795.26,-86 795.26,-122"/>
<text text-anchor="middle" x="752" y="-99.8" font-family="Times,serif" font-size="14.00">CoreModule</text>
</g>
<!-- CoreModule&#45;&gt;ProfileModule -->
<g id="edge17" class="edge">
<title>CoreModule&#45;&gt;ProfileModule</title>
<path fill="none" stroke="black" d="M752,-122.17C752,-141.09 752,-168 752,-168 752,-168 1462.31,-168 1462.31,-168"/>
<polygon fill="black" stroke="black" points="1462.31,-171.5 1472.31,-168 1462.31,-164.5 1462.31,-171.5"/>
</g>
<!-- FormsModule -->
<g id="node19" class="node">
<title>FormsModule</title>
<polygon fill="#8dd3c7" stroke="black" points="690.83,-122 687.83,-126 666.83,-126 663.83,-122 595.17,-122 595.17,-86 690.83,-86 690.83,-122"/>
<text text-anchor="middle" x="643" y="-99.8" font-family="Times,serif" font-size="14.00">FormsModule</text>
</g>
<!-- FormsModule&#45;&gt;ProfileModule -->
<g id="edge18" class="edge">
<title>FormsModule&#45;&gt;ProfileModule</title>
<path fill="none" stroke="black" d="M643,-122.31C643,-142.15 643,-171 643,-171 643,-171 1462.23,-171 1462.23,-171"/>
<polygon fill="black" stroke="black" points="1462.23,-174.5 1472.23,-171 1462.23,-167.5 1462.23,-174.5"/>
</g>
<!-- ReactiveFormsModule -->
<g id="node20" class="node">
<title>ReactiveFormsModule</title>
<polygon fill="#8dd3c7" stroke="black" points="577.3,-122 574.3,-126 553.3,-126 550.3,-122 432.7,-122 432.7,-86 577.3,-86 577.3,-122"/>
<text text-anchor="middle" x="505" y="-99.8" font-family="Times,serif" font-size="14.00">ReactiveFormsModule</text>
</g>
<!-- ReactiveFormsModule&#45;&gt;ProfileModule -->
<g id="edge19" class="edge">
<title>ReactiveFormsModule&#45;&gt;ProfileModule</title>
<path fill="none" stroke="black" d="M505,-122.03C505,-142.77 505,-174 505,-174 505,-174 1462.34,-174 1462.34,-174"/>
<polygon fill="black" stroke="black" points="1462.34,-177.5 1472.34,-174 1462.34,-170.5 1462.34,-177.5"/>
</g>
<!-- TelemetryModule -->
<g id="node21" class="node">
<title>TelemetryModule</title>
<polygon fill="#8dd3c7" stroke="black" points="414.58,-122 411.58,-126 390.58,-126 387.58,-122 297.42,-122 297.42,-86 414.58,-86 414.58,-122"/>
<text text-anchor="middle" x="356" y="-99.8" font-family="Times,serif" font-size="14.00">TelemetryModule</text>
</g>
<!-- TelemetryModule&#45;&gt;ProfileModule -->
<g id="edge20" class="edge">
<title>TelemetryModule&#45;&gt;ProfileModule</title>
<path fill="none" stroke="black" d="M356,-122.29C356,-144.21 356,-178 356,-178 356,-178 1462.06,-178 1462.06,-178"/>
<polygon fill="black" stroke="black" points="1462.06,-181.5 1472.06,-178 1462.06,-174.5 1462.06,-181.5"/>
</g>
<!-- AvatarModule -->
<g id="node22" class="node">
<title>AvatarModule</title>
<polygon fill="#8dd3c7" stroke="black" points="279.64,-122 276.64,-126 255.64,-126 252.64,-122 182.36,-122 182.36,-86 279.64,-86 279.64,-122"/>
<text text-anchor="middle" x="231" y="-99.8" font-family="Times,serif" font-size="14.00">AvatarModule</text>
</g>
<!-- AvatarModule&#45;&gt;ProfileModule -->
<g id="edge21" class="edge">
<title>AvatarModule&#45;&gt;ProfileModule</title>
<path fill="none" stroke="black" d="M231,-122.25C231,-145.02 231,-181 231,-181 231,-181 1462.01,-181 1462.01,-181"/>
<polygon fill="black" stroke="black" points="1462.01,-184.5 1472.01,-181 1462.01,-177.5 1462.01,-184.5"/>
</g>
<!-- SharedFeatureModule -->
<g id="node23" class="node">
<title>SharedFeatureModule</title>
<polygon fill="#8dd3c7" stroke="black" points="164.4,-122 161.4,-126 140.4,-126 137.4,-122 23.6,-122 23.6,-86 164.4,-86 164.4,-122"/>
<text text-anchor="middle" x="94" y="-99.8" font-family="Times,serif" font-size="14.00">SharedFeatureModule</text>
</g>
<!-- SharedFeatureModule&#45;&gt;ProfileModule -->
<g id="edge22" class="edge">
<title>SharedFeatureModule&#45;&gt;ProfileModule</title>
<path fill="none" stroke="black" d="M94,-122.15C94,-145.76 94,-184 94,-184 94,-184 1462.29,-184 1462.29,-184"/>
<polygon fill="black" stroke="black" points="1462.29,-187.5 1472.29,-184 1462.29,-180.5 1462.29,-187.5"/>
</g>
</g>
</svg>
