<?xml version="1.0" encoding="UTF-8" standalone="no"?>
<!DOCTYPE svg PUBLIC "-//W3C//DTD SVG 1.1//EN"
 "http://www.w3.org/Graphics/SVG/1.1/DTD/svg11.dtd">
<!-- Generated by graphviz version 2.47.0 (20210316.0004)
 -->
<!-- Title: dependencies Pages: 1 -->
<svg width="1203pt" height="211pt"
 viewBox="0.00 0.00 1203.00 211.00" xmlns="http://www.w3.org/2000/svg" xmlns:xlink="http://www.w3.org/1999/xlink">
<g id="graph0" class="graph" transform="scale(1 1) rotate(0) translate(4 207)">
<title>dependencies</title>
<polygon fill="white" stroke="transparent" points="-4,4 -4,-207 1199,-207 1199,4 -4,4"/>
<text text-anchor="start" x="576.51" y="-42.4" font-family="Times-12" font-weight="bold" font-size="14.00">Legend</text>
<polygon fill="#ffffb3" stroke="transparent" points="363.5,-10 363.5,-30 383.5,-30 383.5,-10 363.5,-10"/>
<text text-anchor="start" x="387.13" y="-15.4" font-family="Times-12" font-size="14.00"> &#160;Declarations</text>
<polygon fill="#8dd3c7" stroke="transparent" points="476.5,-10 476.5,-30 496.5,-30 496.5,-10 476.5,-10"/>
<text text-anchor="start" x="500.23" y="-15.4" font-family="Times-12" font-size="14.00"> &#160;Module</text>
<polygon fill="#80b1d3" stroke="transparent" points="562.5,-10 562.5,-30 582.5,-30 582.5,-10 562.5,-10"/>
<text text-anchor="start" x="586.28" y="-15.4" font-family="Times-12" font-size="14.00"> &#160;Bootstrap</text>
<polygon fill="#fdb462" stroke="transparent" points="659.5,-10 659.5,-30 679.5,-30 679.5,-10 659.5,-10"/>
<text text-anchor="start" x="683.17" y="-15.4" font-family="Times-12" font-size="14.00"> &#160;Providers</text>
<polygon fill="#fb8072" stroke="transparent" points="755.5,-10 755.5,-30 775.5,-30 775.5,-10 755.5,-10"/>
<text text-anchor="start" x="779.23" y="-15.4" font-family="Times-12" font-size="14.00"> &#160;Exports</text>
<g id="clust1" class="cluster">
<title>cluster_CertificateModule</title>
<polygon fill="none" stroke="black" stroke-dasharray="1,5" points="8,-70 8,-195 1187,-195 1187,-70 8,-70"/>
</g>
<g id="clust2" class="cluster">
<title>cluster_CertificateModule_declarations</title>
<polygon fill="none" stroke="black" points="983,-78 983,-130 1179,-130 1179,-78 983,-78"/>
</g>
<g id="clust4" class="cluster">
<title>cluster_CertificateModule_imports</title>
<polygon fill="none" stroke="black" points="16,-78 16,-130 975,-130 975,-78 16,-78"/>
</g>
<!-- CertificateDetailsComponent -->
<g id="node1" class="node">
<title>CertificateDetailsComponent</title>
<polygon fill="#ffffb3" stroke="black" points="1171.06,-122 990.94,-122 990.94,-86 1171.06,-86 1171.06,-122"/>
<text text-anchor="middle" x="1081" y="-99.8" font-family="Times,serif" font-size="14.00">CertificateDetailsComponent</text>
</g>
<!-- CertificateModule -->
<g id="node2" class="node">
<title>CertificateModule</title>
<polygon fill="#8dd3c7" stroke="black" points="608.13,-187 605.13,-191 584.13,-191 581.13,-187 489.87,-187 489.87,-151 608.13,-151 608.13,-187"/>
<text text-anchor="middle" x="549" y="-164.8" font-family="Times,serif" font-size="14.00">CertificateModule</text>
</g>
<!-- CertificateDetailsComponent&#45;&gt;CertificateModule -->
<g id="edge1" class="edge">
<title>CertificateDetailsComponent&#45;&gt;CertificateModule</title>
<path fill="none" stroke="black" d="M1081,-122.29C1081,-144.21 1081,-178 1081,-178 1081,-178 618.22,-178 618.22,-178"/>
<polygon fill="black" stroke="black" points="618.22,-174.5 608.22,-178 618.22,-181.5 618.22,-174.5"/>
</g>
<!-- CommonModule -->
<g id="node3" class="node">
<title>CommonModule</title>
<polygon fill="#8dd3c7" stroke="black" points="966.67,-122 963.67,-126 942.67,-126 939.67,-122 855.33,-122 855.33,-86 966.67,-86 966.67,-122"/>
<text text-anchor="middle" x="911" y="-99.8" font-family="Times,serif" font-size="14.00">CommonModule</text>
</g>
<!-- CommonModule&#45;&gt;CertificateModule -->
<g id="edge2" class="edge">
<title>CommonModule&#45;&gt;CertificateModule</title>
<path fill="none" stroke="black" d="M911,-122.11C911,-141.34 911,-169 911,-169 911,-169 618.37,-169 618.37,-169"/>
<polygon fill="black" stroke="black" points="618.37,-165.5 608.37,-169 618.37,-172.5 618.37,-165.5"/>
</g>
<!-- SuiModalModule -->
<g id="node4" class="node">
<title>SuiModalModule</title>
<polygon fill="#8dd3c7" stroke="black" points="837.27,-122 834.27,-126 813.27,-126 810.27,-122 722.73,-122 722.73,-86 837.27,-86 837.27,-122"/>
<text text-anchor="middle" x="780" y="-99.8" font-family="Times,serif" font-size="14.00">SuiModalModule</text>
</g>
<!-- SuiModalModule&#45;&gt;CertificateModule -->
<g id="edge3" class="edge">
<title>SuiModalModule&#45;&gt;CertificateModule</title>
<path fill="none" stroke="black" d="M780,-122.03C780,-138.4 780,-160 780,-160 780,-160 618.19,-160 618.19,-160"/>
<polygon fill="black" stroke="black" points="618.19,-156.5 608.19,-160 618.19,-163.5 618.19,-156.5"/>
</g>
<!-- CertificateRoutingModule -->
<g id="node5" class="node">
<title>CertificateRoutingModule</title>
<polygon fill="#8dd3c7" stroke="black" points="704.75,-122 701.75,-126 680.75,-126 677.75,-122 541.25,-122 541.25,-86 704.75,-86 704.75,-122"/>
<text text-anchor="middle" x="623" y="-99.8" font-family="Times,serif" font-size="14.00">CertificateRoutingModule</text>
</g>
<!-- CertificateRoutingModule&#45;&gt;CertificateModule -->
<g id="edge4" class="edge">
<title>CertificateRoutingModule&#45;&gt;CertificateModule</title>
<path fill="none" stroke="black" d="M574.72,-122.11C574.72,-122.11 574.72,-140.99 574.72,-140.99"/>
<polygon fill="black" stroke="black" points="571.22,-140.99 574.72,-150.99 578.22,-140.99 571.22,-140.99"/>
</g>
<!-- FormsModule -->
<g id="node6" class="node">
<title>FormsModule</title>
<polygon fill="#8dd3c7" stroke="black" points="522.83,-122 519.83,-126 498.83,-126 495.83,-122 427.17,-122 427.17,-86 522.83,-86 522.83,-122"/>
<text text-anchor="middle" x="475" y="-99.8" font-family="Times,serif" font-size="14.00">FormsModule</text>
</g>
<!-- FormsModule&#45;&gt;CertificateModule -->
<g id="edge5" class="edge">
<title>FormsModule&#45;&gt;CertificateModule</title>
<path fill="none" stroke="black" d="M506.17,-122.11C506.17,-122.11 506.17,-140.99 506.17,-140.99"/>
<polygon fill="black" stroke="black" points="502.68,-140.99 506.17,-150.99 509.68,-140.99 502.68,-140.99"/>
</g>
<!-- SharedModule -->
<g id="node7" class="node">
<title>SharedModule</title>
<polygon fill="#8dd3c7" stroke="black" points="409.42,-122 406.42,-126 385.42,-126 382.42,-122 310.58,-122 310.58,-86 409.42,-86 409.42,-122"/>
<text text-anchor="middle" x="360" y="-99.8" font-family="Times,serif" font-size="14.00">SharedModule</text>
</g>
<!-- SharedModule&#45;&gt;CertificateModule -->
<g id="edge6" class="edge">
<title>SharedModule&#45;&gt;CertificateModule</title>
<path fill="none" stroke="black" d="M360,-122.03C360,-138.4 360,-160 360,-160 360,-160 479.72,-160 479.72,-160"/>
<polygon fill="black" stroke="black" points="479.72,-163.5 489.72,-160 479.72,-156.5 479.72,-163.5"/>
</g>
<!-- TelemetryModule -->
<g id="node8" class="node">
<title>TelemetryModule</title>
<polygon fill="#8dd3c7" stroke="black" points="292.58,-122 289.58,-126 268.58,-126 265.58,-122 175.42,-122 175.42,-86 292.58,-86 292.58,-122"/>
<text text-anchor="middle" x="234" y="-99.8" font-family="Times,serif" font-size="14.00">TelemetryModule</text>
</g>
<!-- TelemetryModule&#45;&gt;CertificateModule -->
<g id="edge7" class="edge">
<title>TelemetryModule&#45;&gt;CertificateModule</title>
<path fill="none" stroke="black" d="M234,-122.11C234,-141.34 234,-169 234,-169 234,-169 479.75,-169 479.75,-169"/>
<polygon fill="black" stroke="black" points="479.75,-172.5 489.75,-169 479.75,-165.5 479.75,-172.5"/>
</g>
<!-- PlayerHelperModule -->
<g id="node9" class="node">
<title>PlayerHelperModule</title>
<polygon fill="#8dd3c7" stroke="black" points="157.9,-122 154.9,-126 133.9,-126 130.9,-122 24.1,-122 24.1,-86 157.9,-86 157.9,-122"/>
<text text-anchor="middle" x="91" y="-99.8" font-family="Times,serif" font-size="14.00">PlayerHelperModule</text>
</g>
<!-- PlayerHelperModule&#45;&gt;CertificateModule -->
<g id="edge8" class="edge">
<title>PlayerHelperModule&#45;&gt;CertificateModule</title>
<path fill="none" stroke="black" d="M91,-122.29C91,-144.21 91,-178 91,-178 91,-178 479.59,-178 479.59,-178"/>
<polygon fill="black" stroke="black" points="479.59,-181.5 489.59,-178 479.59,-174.5 479.59,-181.5"/>
</g>
</g>
</svg>
