<?xml version="1.0" encoding="UTF-8" standalone="no"?>
<!DOCTYPE svg PUBLIC "-//W3C//DTD SVG 1.1//EN"
 "http://www.w3.org/Graphics/SVG/1.1/DTD/svg11.dtd">
<!-- Generated by graphviz version 2.47.0 (20210316.0004)
 -->
<!-- Title: dependencies Pages: 1 -->
<svg width="5668pt" height="284pt"
 viewBox="0.00 0.00 5668.00 284.00" xmlns="http://www.w3.org/2000/svg" xmlns:xlink="http://www.w3.org/1999/xlink">
<g id="graph0" class="graph" transform="scale(1 1) rotate(0) translate(4 280)">
<title>dependencies</title>
<polygon fill="white" stroke="transparent" points="-4,4 -4,-280 5664,-280 5664,4 -4,4"/>
<text text-anchor="start" x="2809.01" y="-42.4" font-family="Times-12" font-weight="bold" font-size="14.00">Legend</text>
<polygon fill="#ffffb3" stroke="transparent" points="2596,-10 2596,-30 2616,-30 2616,-10 2596,-10"/>
<text text-anchor="start" x="2619.63" y="-15.4" font-family="Times-12" font-size="14.00"> &#160;Declarations</text>
<polygon fill="#8dd3c7" stroke="transparent" points="2709,-10 2709,-30 2729,-30 2729,-10 2709,-10"/>
<text text-anchor="start" x="2732.73" y="-15.4" font-family="Times-12" font-size="14.00"> &#160;Module</text>
<polygon fill="#80b1d3" stroke="transparent" points="2795,-10 2795,-30 2815,-30 2815,-10 2795,-10"/>
<text text-anchor="start" x="2818.78" y="-15.4" font-family="Times-12" font-size="14.00"> &#160;Bootstrap</text>
<polygon fill="#fdb462" stroke="transparent" points="2892,-10 2892,-30 2912,-30 2912,-10 2892,-10"/>
<text text-anchor="start" x="2915.67" y="-15.4" font-family="Times-12" font-size="14.00"> &#160;Providers</text>
<polygon fill="#fb8072" stroke="transparent" points="2988,-10 2988,-30 3008,-30 3008,-10 2988,-10"/>
<text text-anchor="start" x="3011.73" y="-15.4" font-family="Times-12" font-size="14.00"> &#160;Exports</text>
<g id="clust1" class="cluster">
<title>cluster_SharedModule</title>
<polygon fill="none" stroke="black" stroke-dasharray="1,5" points="8,-70 8,-268 5652,-268 5652,-70 8,-70"/>
</g>
<g id="clust28" class="cluster">
<title>cluster_SharedModule_imports</title>
<polygon fill="none" stroke="black" points="4138,-78 4138,-130 5644,-130 5644,-78 4138,-78"/>
</g>
<g id="clust29" class="cluster">
<title>cluster_SharedModule_exports</title>
<polygon fill="none" stroke="black" points="847,-208 847,-260 5047,-260 5047,-208 847,-208"/>
</g>
<g id="clust2" class="cluster">
<title>cluster_SharedModule_declarations</title>
<polygon fill="none" stroke="black" points="16,-78 16,-130 4130,-130 4130,-78 16,-78"/>
</g>
<!-- AppLoaderComponent -->
<g id="node1" class="node">
<title>AppLoaderComponent</title>
<polygon fill="#ffffb3" stroke="black" points="4121.58,-122 3976.42,-122 3976.42,-86 4121.58,-86 4121.58,-122"/>
<text text-anchor="middle" x="4049" y="-99.8" font-family="Times,serif" font-size="14.00">AppLoaderComponent</text>
</g>
<!-- SharedModule -->
<g id="node26" class="node">
<title>SharedModule</title>
<polygon fill="#8dd3c7" stroke="black" points="3003.42,-187 3000.42,-191 2979.42,-191 2976.42,-187 2904.58,-187 2904.58,-151 3003.42,-151 3003.42,-187"/>
<text text-anchor="middle" x="2954" y="-164.8" font-family="Times,serif" font-size="14.00">SharedModule</text>
</g>
<!-- AppLoaderComponent&#45;&gt;SharedModule -->
<g id="edge1" class="edge">
<title>AppLoaderComponent&#45;&gt;SharedModule</title>
<path fill="none" stroke="black" d="M3991.75,-122.01C3991.75,-138.05 3991.75,-159 3991.75,-159 3991.75,-159 3013.35,-159 3013.35,-159"/>
<polygon fill="black" stroke="black" points="3013.35,-155.5 3003.35,-159 3013.35,-162.5 3013.35,-155.5"/>
</g>
<!-- AnnouncementInboxCardComponent -->
<g id="node2" class="node">
<title>AnnouncementInboxCardComponent</title>
<polygon fill="#ffffb3" stroke="black" points="3958.24,-122 3731.76,-122 3731.76,-86 3958.24,-86 3958.24,-122"/>
<text text-anchor="middle" x="3845" y="-99.8" font-family="Times,serif" font-size="14.00">AnnouncementInboxCardComponent</text>
</g>
<!-- AnnouncementInboxCardComponent&#45;&gt;SharedModule -->
<g id="edge2" class="edge">
<title>AnnouncementInboxCardComponent&#45;&gt;SharedModule</title>
<path fill="none" stroke="black" d="M3779.33,-122.24C3779.33,-137.57 3779.33,-157 3779.33,-157 3779.33,-157 3013.46,-157 3013.46,-157"/>
<polygon fill="black" stroke="black" points="3013.46,-153.5 3003.46,-157 3013.46,-160.5 3013.46,-153.5"/>
</g>
<!-- DateFormatPipe -->
<g id="node3" class="node">
<title>DateFormatPipe</title>
<polygon fill="#ffffb3" stroke="black" points="3713.75,-122 3606.25,-122 3606.25,-86 3713.75,-86 3713.75,-122"/>
<text text-anchor="middle" x="3660" y="-99.8" font-family="Times,serif" font-size="14.00">DateFormatPipe</text>
</g>
<!-- DateFormatPipe&#45;&gt;SharedModule -->
<g id="edge3" class="edge">
<title>DateFormatPipe&#45;&gt;SharedModule</title>
<path fill="none" stroke="black" d="M3651.62,-122.19C3651.62,-137.18 3651.62,-156 3651.62,-156 3651.62,-156 3013.33,-156 3013.33,-156"/>
<polygon fill="black" stroke="black" points="3013.33,-152.5 3003.33,-156 3013.33,-159.5 3013.33,-152.5"/>
</g>
<!-- PageSectionComponent -->
<g id="node4" class="node">
<title>PageSectionComponent</title>
<polygon fill="#ffffb3" stroke="black" points="3588.04,-122 3437.96,-122 3437.96,-86 3588.04,-86 3588.04,-122"/>
<text text-anchor="middle" x="3513" y="-99.8" font-family="Times,serif" font-size="14.00">PageSectionComponent</text>
</g>
<!-- PageSectionComponent&#45;&gt;SharedModule -->
<g id="edge4" class="edge">
<title>PageSectionComponent&#45;&gt;SharedModule</title>
<path fill="none" stroke="black" d="M3469.55,-122.12C3469.55,-136.78 3469.55,-155 3469.55,-155 3469.55,-155 3013.43,-155 3013.43,-155"/>
<polygon fill="black" stroke="black" points="3013.43,-151.5 3003.43,-155 3013.43,-158.5 3013.43,-151.5"/>
</g>
<!-- BatchCardComponent -->
<g id="node5" class="node">
<title>BatchCardComponent</title>
<polygon fill="#ffffb3" stroke="black" points="3419.7,-122 3278.3,-122 3278.3,-86 3419.7,-86 3419.7,-122"/>
<text text-anchor="middle" x="3349" y="-99.8" font-family="Times,serif" font-size="14.00">BatchCardComponent</text>
</g>
<!-- BatchCardComponent&#45;&gt;SharedModule -->
<g id="edge5" class="edge">
<title>BatchCardComponent&#45;&gt;SharedModule</title>
<path fill="none" stroke="black" d="M3374.21,-122.05C3374.21,-136.37 3374.21,-154 3374.21,-154 3374.21,-154 3013.44,-154 3013.44,-154"/>
<polygon fill="black" stroke="black" points="3013.44,-150.5 3003.44,-154 3013.44,-157.5 3013.44,-150.5"/>
</g>
<!-- NoResultComponent -->
<g id="node6" class="node">
<title>NoResultComponent</title>
<polygon fill="#ffffb3" stroke="black" points="3260.22,-122 3125.78,-122 3125.78,-86 3260.22,-86 3260.22,-122"/>
<text text-anchor="middle" x="3193" y="-99.8" font-family="Times,serif" font-size="14.00">NoResultComponent</text>
</g>
<!-- NoResultComponent&#45;&gt;SharedModule -->
<g id="edge6" class="edge">
<title>NoResultComponent&#45;&gt;SharedModule</title>
<path fill="none" stroke="black" d="M3193,-122.25C3193,-136.18 3193,-153 3193,-153 3193,-153 3013.23,-153 3013.23,-153"/>
<polygon fill="black" stroke="black" points="3013.23,-149.5 3003.23,-153 3013.23,-156.5 3013.23,-149.5"/>
</g>
<!-- DateFilterXtimeAgoPipe -->
<g id="node7" class="node">
<title>DateFilterXtimeAgoPipe</title>
<polygon fill="#ffffb3" stroke="black" points="3108.24,-122 2951.76,-122 2951.76,-86 3108.24,-86 3108.24,-122"/>
<text text-anchor="middle" x="3030" y="-99.8" font-family="Times,serif" font-size="14.00">DateFilterXtimeAgoPipe</text>
</g>
<!-- DateFilterXtimeAgoPipe&#45;&gt;SharedModule -->
<g id="edge7" class="edge">
<title>DateFilterXtimeAgoPipe&#45;&gt;SharedModule</title>
<path fill="none" stroke="black" d="M2977.42,-122.11C2977.42,-122.11 2977.42,-140.99 2977.42,-140.99"/>
<polygon fill="black" stroke="black" points="2973.92,-140.99 2977.42,-150.99 2980.92,-140.99 2973.92,-140.99"/>
</g>
<!-- CardComponent -->
<g id="node8" class="node">
<title>CardComponent</title>
<polygon fill="#ffffb3" stroke="black" points="2933.05,-122 2824.95,-122 2824.95,-86 2933.05,-86 2933.05,-122"/>
<text text-anchor="middle" x="2879" y="-99.8" font-family="Times,serif" font-size="14.00">CardComponent</text>
</g>
<!-- CardComponent&#45;&gt;SharedModule -->
<g id="edge8" class="edge">
<title>CardComponent&#45;&gt;SharedModule</title>
<path fill="none" stroke="black" d="M2919.03,-122.11C2919.03,-122.11 2919.03,-140.99 2919.03,-140.99"/>
<polygon fill="black" stroke="black" points="2915.53,-140.99 2919.03,-150.99 2922.53,-140.99 2915.53,-140.99"/>
</g>
<!-- CardCreationComponent -->
<g id="node9" class="node">
<title>CardCreationComponent</title>
<polygon fill="#ffffb3" stroke="black" points="2806.25,-122 2649.75,-122 2649.75,-86 2806.25,-86 2806.25,-122"/>
<text text-anchor="middle" x="2728" y="-99.8" font-family="Times,serif" font-size="14.00">CardCreationComponent</text>
</g>
<!-- CardCreationComponent&#45;&gt;SharedModule -->
<g id="edge9" class="edge">
<title>CardCreationComponent&#45;&gt;SharedModule</title>
<path fill="none" stroke="black" d="M2779.4,-122.25C2779.4,-136.18 2779.4,-153 2779.4,-153 2779.4,-153 2894.43,-153 2894.43,-153"/>
<polygon fill="black" stroke="black" points="2894.43,-156.5 2904.43,-153 2894.43,-149.5 2894.43,-156.5"/>
</g>
<!-- FilterPipe -->
<g id="node10" class="node">
<title>FilterPipe</title>
<polygon fill="#ffffb3" stroke="black" points="2631.72,-122 2560.28,-122 2560.28,-86 2631.72,-86 2631.72,-122"/>
<text text-anchor="middle" x="2596" y="-99.8" font-family="Times,serif" font-size="14.00">FilterPipe</text>
</g>
<!-- FilterPipe&#45;&gt;SharedModule -->
<g id="edge10" class="edge">
<title>FilterPipe&#45;&gt;SharedModule</title>
<path fill="none" stroke="black" d="M2620.31,-122.05C2620.31,-136.37 2620.31,-154 2620.31,-154 2620.31,-154 2894.76,-154 2894.76,-154"/>
<polygon fill="black" stroke="black" points="2894.76,-157.5 2904.76,-154 2894.76,-150.5 2894.76,-157.5"/>
</g>
<!-- InterpolatePipe -->
<g id="node11" class="node">
<title>InterpolatePipe</title>
<polygon fill="#ffffb3" stroke="black" points="2542.53,-122 2441.47,-122 2441.47,-86 2542.53,-86 2542.53,-122"/>
<text text-anchor="middle" x="2492" y="-99.8" font-family="Times,serif" font-size="14.00">InterpolatePipe</text>
</g>
<!-- InterpolatePipe&#45;&gt;SharedModule -->
<g id="edge11" class="edge">
<title>InterpolatePipe&#45;&gt;SharedModule</title>
<path fill="none" stroke="black" d="M2510.82,-122.12C2510.82,-136.78 2510.82,-155 2510.82,-155 2510.82,-155 2894.45,-155 2894.45,-155"/>
<polygon fill="black" stroke="black" points="2894.45,-158.5 2904.45,-155 2894.45,-151.5 2894.45,-158.5"/>
</g>
<!-- ShareLinkComponent -->
<g id="node12" class="node">
<title>ShareLinkComponent</title>
<polygon fill="#ffffb3" stroke="black" points="2422.65,-122 2283.35,-122 2283.35,-86 2422.65,-86 2422.65,-122"/>
<text text-anchor="middle" x="2353" y="-99.8" font-family="Times,serif" font-size="14.00">ShareLinkComponent</text>
</g>
<!-- ShareLinkComponent&#45;&gt;SharedModule -->
<g id="edge12" class="edge">
<title>ShareLinkComponent&#45;&gt;SharedModule</title>
<path fill="none" stroke="black" d="M2353,-122.19C2353,-137.18 2353,-156 2353,-156 2353,-156 2894.56,-156 2894.56,-156"/>
<polygon fill="black" stroke="black" points="2894.56,-159.5 2904.56,-156 2894.56,-152.5 2894.56,-159.5"/>
</g>
<!-- BrowserCompatibilityComponent -->
<g id="node13" class="node">
<title>BrowserCompatibilityComponent</title>
<polygon fill="#ffffb3" stroke="black" points="2265.04,-122 2058.96,-122 2058.96,-86 2265.04,-86 2265.04,-122"/>
<text text-anchor="middle" x="2162" y="-99.8" font-family="Times,serif" font-size="14.00">BrowserCompatibilityComponent</text>
</g>
<!-- BrowserCompatibilityComponent&#45;&gt;SharedModule -->
<g id="edge13" class="edge">
<title>BrowserCompatibilityComponent&#45;&gt;SharedModule</title>
<path fill="none" stroke="black" d="M2257.12,-122.24C2257.12,-137.57 2257.12,-157 2257.12,-157 2257.12,-157 2894.72,-157 2894.72,-157"/>
<polygon fill="black" stroke="black" points="2894.72,-160.5 2904.72,-157 2894.72,-153.5 2894.72,-160.5"/>
</g>
<!-- QrCodeModalComponent -->
<g id="node14" class="node">
<title>QrCodeModalComponent</title>
<polygon fill="#ffffb3" stroke="black" points="2041.2,-122 1878.8,-122 1878.8,-86 2041.2,-86 2041.2,-122"/>
<text text-anchor="middle" x="1960" y="-99.8" font-family="Times,serif" font-size="14.00">QrCodeModalComponent</text>
</g>
<!-- QrCodeModalComponent&#45;&gt;SharedModule -->
<g id="edge14" class="edge">
<title>QrCodeModalComponent&#45;&gt;SharedModule</title>
<path fill="none" stroke="black" d="M1977.87,-122.01C1977.87,-138.05 1977.87,-159 1977.87,-159 1977.87,-159 2894.59,-159 2894.59,-159"/>
<polygon fill="black" stroke="black" points="2894.59,-162.5 2904.59,-159 2894.59,-155.5 2894.59,-162.5"/>
</g>
<!-- CdnprefixPipe -->
<g id="node15" class="node">
<title>CdnprefixPipe</title>
<polygon fill="#ffffb3" stroke="black" points="1860.65,-122 1763.35,-122 1763.35,-86 1860.65,-86 1860.65,-122"/>
<text text-anchor="middle" x="1812" y="-99.8" font-family="Times,serif" font-size="14.00">CdnprefixPipe</text>
</g>
<!-- CdnprefixPipe&#45;&gt;SharedModule -->
<g id="edge15" class="edge">
<title>CdnprefixPipe&#45;&gt;SharedModule</title>
<path fill="none" stroke="black" d="M1812,-122.03C1812,-138.4 1812,-160 1812,-160 1812,-160 2894.56,-160 2894.56,-160"/>
<polygon fill="black" stroke="black" points="2894.56,-163.5 2904.56,-160 2894.56,-156.5 2894.56,-163.5"/>
</g>
<!-- RedirectComponent -->
<g id="node16" class="node">
<title>RedirectComponent</title>
<polygon fill="#ffffb3" stroke="black" points="1745.25,-122 1616.75,-122 1616.75,-86 1745.25,-86 1745.25,-122"/>
<text text-anchor="middle" x="1681" y="-99.8" font-family="Times,serif" font-size="14.00">RedirectComponent</text>
</g>
<!-- RedirectComponent&#45;&gt;SharedModule -->
<g id="edge16" class="edge">
<title>RedirectComponent&#45;&gt;SharedModule</title>
<path fill="none" stroke="black" d="M1736.49,-122.04C1736.49,-138.73 1736.49,-161 1736.49,-161 1736.49,-161 2894.76,-161 2894.76,-161"/>
<polygon fill="black" stroke="black" points="2894.76,-164.5 2904.76,-161 2894.76,-157.5 2894.76,-164.5"/>
</g>
<!-- CustomMultiSelectComponent -->
<g id="node17" class="node">
<title>CustomMultiSelectComponent</title>
<polygon fill="#ffffb3" stroke="black" points="1599.22,-122 1408.78,-122 1408.78,-86 1599.22,-86 1599.22,-122"/>
<text text-anchor="middle" x="1504" y="-99.8" font-family="Times,serif" font-size="14.00">CustomMultiSelectComponent</text>
</g>
<!-- CustomMultiSelectComponent&#45;&gt;SharedModule -->
<g id="edge17" class="edge">
<title>CustomMultiSelectComponent&#45;&gt;SharedModule</title>
<path fill="none" stroke="black" d="M1578.83,-122.03C1578.83,-139.06 1578.83,-162 1578.83,-162 1578.83,-162 2894.65,-162 2894.65,-162"/>
<polygon fill="black" stroke="black" points="2894.65,-165.5 2904.65,-162 2894.65,-158.5 2894.65,-165.5"/>
</g>
<!-- InstallAppComponent -->
<g id="node18" class="node">
<title>InstallAppComponent</title>
<polygon fill="#ffffb3" stroke="black" points="1391.43,-122 1250.57,-122 1250.57,-86 1391.43,-86 1391.43,-122"/>
<text text-anchor="middle" x="1321" y="-99.8" font-family="Times,serif" font-size="14.00">InstallAppComponent</text>
</g>
<!-- InstallAppComponent&#45;&gt;SharedModule -->
<g id="edge18" class="edge">
<title>InstallAppComponent&#45;&gt;SharedModule</title>
<path fill="none" stroke="black" d="M1380.32,-122.02C1380.32,-139.37 1380.32,-163 1380.32,-163 1380.32,-163 2894.74,-163 2894.74,-163"/>
<polygon fill="black" stroke="black" points="2894.74,-166.5 2904.74,-163 2894.74,-159.5 2894.74,-166.5"/>
</g>
<!-- LockInfoPopupComponent -->
<g id="node19" class="node">
<title>LockInfoPopupComponent</title>
<polygon fill="#ffffb3" stroke="black" points="1232.7,-122 1063.3,-122 1063.3,-86 1232.7,-86 1232.7,-122"/>
<text text-anchor="middle" x="1148" y="-99.8" font-family="Times,serif" font-size="14.00">LockInfoPopupComponent</text>
</g>
<!-- LockInfoPopupComponent&#45;&gt;SharedModule -->
<g id="edge19" class="edge">
<title>LockInfoPopupComponent&#45;&gt;SharedModule</title>
<path fill="none" stroke="black" d="M1189.47,-122.3C1189.47,-140.27 1189.47,-165 1189.47,-165 1189.47,-165 2894.5,-165 2894.5,-165"/>
<polygon fill="black" stroke="black" points="2894.5,-168.5 2904.5,-165 2894.5,-161.5 2894.5,-168.5"/>
</g>
<!-- ContentDirectionDirective -->
<g id="node20" class="node">
<title>ContentDirectionDirective</title>
<polygon fill="#ffffb3" stroke="black" points="1045.78,-122 880.22,-122 880.22,-86 1045.78,-86 1045.78,-122"/>
<text text-anchor="middle" x="963" y="-99.8" font-family="Times,serif" font-size="14.00">ContentDirectionDirective</text>
</g>
<!-- ContentDirectionDirective&#45;&gt;SharedModule -->
<g id="edge20" class="edge">
<title>ContentDirectionDirective&#45;&gt;SharedModule</title>
<path fill="none" stroke="black" d="M1017.51,-122.27C1017.51,-140.56 1017.51,-166 1017.51,-166 1017.51,-166 2894.68,-166 2894.68,-166"/>
<polygon fill="black" stroke="black" points="2894.68,-169.5 2904.68,-166 2894.68,-162.5 2894.68,-169.5"/>
</g>
<!-- HighlightTextDirective -->
<g id="node21" class="node">
<title>HighlightTextDirective</title>
<polygon fill="#ffffb3" stroke="black" points="862.91,-122 715.09,-122 715.09,-86 862.91,-86 862.91,-122"/>
<text text-anchor="middle" x="789" y="-99.8" font-family="Times,serif" font-size="14.00">HighlightTextDirective</text>
</g>
<!-- HighlightTextDirective&#45;&gt;SharedModule -->
<g id="edge21" class="edge">
<title>HighlightTextDirective&#45;&gt;SharedModule</title>
<path fill="none" stroke="black" d="M858.68,-122.22C858.68,-140.83 858.68,-167 858.68,-167 858.68,-167 2894.78,-167 2894.78,-167"/>
<polygon fill="black" stroke="black" points="2894.78,-170.5 2904.78,-167 2894.78,-163.5 2894.78,-170.5"/>
</g>
<!-- FullPageModalComponent -->
<g id="node22" class="node">
<title>FullPageModalComponent</title>
<polygon fill="#ffffb3" stroke="black" points="696.66,-122 529.34,-122 529.34,-86 696.66,-86 696.66,-122"/>
<text text-anchor="middle" x="613" y="-99.8" font-family="Times,serif" font-size="14.00">FullPageModalComponent</text>
</g>
<!-- FullPageModalComponent&#45;&gt;SharedModule -->
<g id="edge22" class="edge">
<title>FullPageModalComponent&#45;&gt;SharedModule</title>
<path fill="none" stroke="black" d="M613,-122.17C613,-141.09 613,-168 613,-168 613,-168 2894.56,-168 2894.56,-168"/>
<polygon fill="black" stroke="black" points="2894.56,-171.5 2904.56,-168 2894.56,-164.5 2894.56,-171.5"/>
</g>
<!-- AccountMergeModalComponent -->
<g id="node23" class="node">
<title>AccountMergeModalComponent</title>
<polygon fill="#ffffb3" stroke="black" points="510.84,-122 309.16,-122 309.16,-86 510.84,-86 510.84,-122"/>
<text text-anchor="middle" x="410" y="-99.8" font-family="Times,serif" font-size="14.00">AccountMergeModalComponent</text>
</g>
<!-- AccountMergeModalComponent&#45;&gt;SharedModule -->
<g id="edge23" class="edge">
<title>AccountMergeModalComponent&#45;&gt;SharedModule</title>
<path fill="none" stroke="black" d="M410,-122.11C410,-141.34 410,-169 410,-169 410,-169 2894.61,-169 2894.61,-169"/>
<polygon fill="black" stroke="black" points="2894.61,-172.5 2904.61,-169 2894.61,-165.5 2894.61,-172.5"/>
</g>
<!-- PageHelpComponent -->
<g id="node24" class="node">
<title>PageHelpComponent</title>
<polygon fill="#ffffb3" stroke="black" points="290.76,-122 155.24,-122 155.24,-86 290.76,-86 290.76,-122"/>
<text text-anchor="middle" x="223" y="-99.8" font-family="Times,serif" font-size="14.00">PageHelpComponent</text>
</g>
<!-- PageHelpComponent&#45;&gt;SharedModule -->
<g id="edge24" class="edge">
<title>PageHelpComponent&#45;&gt;SharedModule</title>
<path fill="none" stroke="black" d="M223,-122.31C223,-142.15 223,-171 223,-171 223,-171 2894.56,-171 2894.56,-171"/>
<polygon fill="black" stroke="black" points="2894.56,-174.5 2904.56,-171 2894.56,-167.5 2894.56,-174.5"/>
</g>
<!-- ToCharCodePipe -->
<g id="node25" class="node">
<title>ToCharCodePipe</title>
<polygon fill="#ffffb3" stroke="black" points="137.7,-122 24.3,-122 24.3,-86 137.7,-86 137.7,-122"/>
<text text-anchor="middle" x="81" y="-99.8" font-family="Times,serif" font-size="14.00">ToCharCodePipe</text>
</g>
<!-- ToCharCodePipe&#45;&gt;SharedModule -->
<g id="edge25" class="edge">
<title>ToCharCodePipe&#45;&gt;SharedModule</title>
<path fill="none" stroke="black" d="M81,-122.22C81,-142.37 81,-172 81,-172 81,-172 2894.74,-172 2894.74,-172"/>
<polygon fill="black" stroke="black" points="2894.74,-175.5 2904.74,-172 2894.74,-168.5 2894.74,-175.5"/>
</g>
<!-- AppLoaderComponent  -->
<g id="node38" class="node">
<title>AppLoaderComponent </title>
<polygon fill="#fb8072" stroke="black" points="5039.08,-252 4890.92,-252 4890.92,-216 5039.08,-216 5039.08,-252"/>
<text text-anchor="middle" x="4965" y="-229.8" font-family="Times,serif" font-size="14.00">AppLoaderComponent </text>
</g>
<!-- SharedModule&#45;&gt;AppLoaderComponent  -->
<g id="edge37" class="edge">
<title>SharedModule&#45;&gt;AppLoaderComponent </title>
<path fill="none" stroke="black" stroke-dasharray="5,2" d="M3003.65,-173C3309.34,-173 4922.88,-173 4922.88,-173 4922.88,-173 4922.88,-205.7 4922.88,-205.7"/>
<polygon fill="black" stroke="black" points="4919.38,-205.7 4922.88,-215.7 4926.38,-205.7 4919.38,-205.7"/>
</g>
<!-- AnnouncementInboxCardComponent  -->
<g id="node39" class="node">
<title>AnnouncementInboxCardComponent </title>
<polygon fill="#fb8072" stroke="black" points="4873.24,-252 4642.76,-252 4642.76,-216 4873.24,-216 4873.24,-252"/>
<text text-anchor="middle" x="4758" y="-229.8" font-family="Times,serif" font-size="14.00">AnnouncementInboxCardComponent </text>
</g>
<!-- SharedModule&#45;&gt;AnnouncementInboxCardComponent  -->
<g id="edge38" class="edge">
<title>SharedModule&#45;&gt;AnnouncementInboxCardComponent </title>
<path fill="none" stroke="black" stroke-dasharray="5,2" d="M3003.35,-174C3282.27,-174 4648.83,-174 4648.83,-174 4648.83,-174 4648.83,-206 4648.83,-206"/>
<polygon fill="black" stroke="black" points="4645.33,-206 4648.83,-216 4652.33,-206 4645.33,-206"/>
</g>
<!-- DateFormatPipe  -->
<g id="node40" class="node">
<title>DateFormatPipe </title>
<polygon fill="#fb8072" stroke="black" points="4624.75,-252 4513.25,-252 4513.25,-216 4624.75,-216 4624.75,-252"/>
<text text-anchor="middle" x="4569" y="-229.8" font-family="Times,serif" font-size="14.00">DateFormatPipe </text>
</g>
<!-- SharedModule&#45;&gt;DateFormatPipe  -->
<g id="edge39" class="edge">
<title>SharedModule&#45;&gt;DateFormatPipe </title>
<path fill="none" stroke="black" stroke-dasharray="5,2" d="M3003.37,-175C3269.14,-175 4517.49,-175 4517.49,-175 4517.49,-175 4517.49,-205.98 4517.49,-205.98"/>
<polygon fill="black" stroke="black" points="4513.99,-205.98 4517.49,-215.98 4520.99,-205.98 4513.99,-205.98"/>
</g>
<!-- DateFilterXtimeAgoPipe  -->
<g id="node41" class="node">
<title>DateFilterXtimeAgoPipe </title>
<polygon fill="#fb8072" stroke="black" points="4495.24,-252 4334.76,-252 4334.76,-216 4495.24,-216 4495.24,-252"/>
<text text-anchor="middle" x="4415" y="-229.8" font-family="Times,serif" font-size="14.00">DateFilterXtimeAgoPipe </text>
</g>
<!-- SharedModule&#45;&gt;DateFilterXtimeAgoPipe  -->
<g id="edge40" class="edge">
<title>SharedModule&#45;&gt;DateFilterXtimeAgoPipe </title>
<path fill="none" stroke="black" stroke-dasharray="5,2" d="M3003.48,-177C3252.39,-177 4355.77,-177 4355.77,-177 4355.77,-177 4355.77,-205.96 4355.77,-205.96"/>
<polygon fill="black" stroke="black" points="4352.27,-205.96 4355.77,-215.96 4359.27,-205.96 4352.27,-205.96"/>
</g>
<!-- PageSectionComponent  -->
<g id="node42" class="node">
<title>PageSectionComponent </title>
<polygon fill="#fb8072" stroke="black" points="4317.04,-252 4162.96,-252 4162.96,-216 4317.04,-216 4317.04,-252"/>
<text text-anchor="middle" x="4240" y="-229.8" font-family="Times,serif" font-size="14.00">PageSectionComponent </text>
</g>
<!-- SharedModule&#45;&gt;PageSectionComponent  -->
<g id="edge41" class="edge">
<title>SharedModule&#45;&gt;PageSectionComponent </title>
<path fill="none" stroke="black" stroke-dasharray="5,2" d="M3003.36,-178C3236.18,-178 4213.26,-178 4213.26,-178 4213.26,-178 4213.26,-205.97 4213.26,-205.97"/>
<polygon fill="black" stroke="black" points="4209.76,-205.97 4213.26,-215.97 4216.76,-205.97 4209.76,-205.97"/>
</g>
<!-- BatchCardComponent  -->
<g id="node43" class="node">
<title>BatchCardComponent </title>
<polygon fill="#fb8072" stroke="black" points="4145.2,-252 4000.8,-252 4000.8,-216 4145.2,-216 4145.2,-252"/>
<text text-anchor="middle" x="4073" y="-229.8" font-family="Times,serif" font-size="14.00">BatchCardComponent </text>
</g>
<!-- SharedModule&#45;&gt;BatchCardComponent  -->
<g id="edge42" class="edge">
<title>SharedModule&#45;&gt;BatchCardComponent </title>
<path fill="none" stroke="black" stroke-dasharray="5,2" d="M3003.36,-179C3218.2,-179 4061.1,-179 4061.1,-179 4061.1,-179 4061.1,-205.99 4061.1,-205.99"/>
<polygon fill="black" stroke="black" points="4057.6,-205.99 4061.1,-215.99 4064.6,-205.99 4057.6,-205.99"/>
</g>
<!-- NoResultComponent  -->
<g id="node44" class="node">
<title>NoResultComponent </title>
<polygon fill="#fb8072" stroke="black" points="3982.72,-252 3845.28,-252 3845.28,-216 3982.72,-216 3982.72,-252"/>
<text text-anchor="middle" x="3914" y="-229.8" font-family="Times,serif" font-size="14.00">NoResultComponent </text>
</g>
<!-- SharedModule&#45;&gt;NoResultComponent  -->
<g id="edge43" class="edge">
<title>SharedModule&#45;&gt;NoResultComponent </title>
<path fill="none" stroke="black" stroke-dasharray="5,2" d="M3003.29,-180C3197.83,-180 3901.76,-180 3901.76,-180 3901.76,-180 3901.76,-205.72 3901.76,-205.72"/>
<polygon fill="black" stroke="black" points="3898.26,-205.72 3901.76,-215.72 3905.26,-205.72 3898.26,-205.72"/>
</g>
<!-- CardComponent  -->
<g id="node45" class="node">
<title>CardComponent </title>
<polygon fill="#fb8072" stroke="black" points="3827.04,-252 3714.96,-252 3714.96,-216 3827.04,-216 3827.04,-252"/>
<text text-anchor="middle" x="3771" y="-229.8" font-family="Times,serif" font-size="14.00">CardComponent </text>
</g>
<!-- SharedModule&#45;&gt;CardComponent  -->
<g id="edge44" class="edge">
<title>SharedModule&#45;&gt;CardComponent </title>
<path fill="none" stroke="black" stroke-dasharray="5,2" d="M3003.29,-181C3173.09,-181 3723.3,-181 3723.3,-181 3723.3,-181 3723.3,-205.76 3723.3,-205.76"/>
<polygon fill="black" stroke="black" points="3719.8,-205.76 3723.3,-215.76 3726.8,-205.76 3719.8,-205.76"/>
</g>
<!-- CardCreationComponent  -->
<g id="node46" class="node">
<title>CardCreationComponent </title>
<polygon fill="#fb8072" stroke="black" points="3697.25,-252 3536.75,-252 3536.75,-216 3697.25,-216 3697.25,-252"/>
<text text-anchor="middle" x="3617" y="-229.8" font-family="Times,serif" font-size="14.00">CardCreationComponent </text>
</g>
<!-- SharedModule&#45;&gt;CardCreationComponent  -->
<g id="edge45" class="edge">
<title>SharedModule&#45;&gt;CardCreationComponent </title>
<path fill="none" stroke="black" stroke-dasharray="5,2" d="M3003.29,-183C3148.17,-183 3562.57,-183 3562.57,-183 3562.57,-183 3562.57,-205.88 3562.57,-205.88"/>
<polygon fill="black" stroke="black" points="3559.07,-205.88 3562.57,-215.88 3566.07,-205.88 3559.07,-205.88"/>
</g>
<!-- FilterPipe  -->
<g id="node47" class="node">
<title>FilterPipe </title>
<polygon fill="#fb8072" stroke="black" points="3519.22,-252 3444.78,-252 3444.78,-216 3519.22,-216 3519.22,-252"/>
<text text-anchor="middle" x="3482" y="-229.8" font-family="Times,serif" font-size="14.00">FilterPipe </text>
</g>
<!-- SharedModule&#45;&gt;FilterPipe  -->
<g id="edge46" class="edge">
<title>SharedModule&#45;&gt;FilterPipe </title>
<path fill="none" stroke="black" stroke-dasharray="5,2" d="M3003.39,-184C3136.81,-184 3494.45,-184 3494.45,-184 3494.45,-184 3494.45,-205.95 3494.45,-205.95"/>
<polygon fill="black" stroke="black" points="3490.95,-205.95 3494.45,-215.95 3497.95,-205.95 3490.95,-205.95"/>
</g>
<!-- ShareLinkComponent  -->
<g id="node48" class="node">
<title>ShareLinkComponent </title>
<polygon fill="#fb8072" stroke="black" points="3426.65,-252 3283.35,-252 3283.35,-216 3426.65,-216 3426.65,-252"/>
<text text-anchor="middle" x="3355" y="-229.8" font-family="Times,serif" font-size="14.00">ShareLinkComponent </text>
</g>
<!-- SharedModule&#45;&gt;ShareLinkComponent  -->
<g id="edge47" class="edge">
<title>SharedModule&#45;&gt;ShareLinkComponent </title>
<path fill="none" stroke="black" stroke-dasharray="5,2" d="M3003.39,-185C3105.17,-185 3328.82,-185 3328.82,-185 3328.82,-185 3328.82,-205.75 3328.82,-205.75"/>
<polygon fill="black" stroke="black" points="3325.32,-205.75 3328.82,-215.75 3332.32,-205.75 3325.32,-205.75"/>
</g>
<!-- BrowserCompatibilityComponent  -->
<g id="node49" class="node">
<title>BrowserCompatibilityComponent </title>
<polygon fill="#fb8072" stroke="black" points="3265.04,-252 3054.96,-252 3054.96,-216 3265.04,-216 3265.04,-252"/>
<text text-anchor="middle" x="3160" y="-229.8" font-family="Times,serif" font-size="14.00">BrowserCompatibilityComponent </text>
</g>
<!-- SharedModule&#45;&gt;BrowserCompatibilityComponent  -->
<g id="edge48" class="edge">
<title>SharedModule&#45;&gt;BrowserCompatibilityComponent </title>
<path fill="none" stroke="black" stroke-dasharray="5,2" d="M3003.36,-186C3039.29,-186 3081.68,-186 3081.68,-186 3081.68,-186 3081.68,-205.85 3081.68,-205.85"/>
<polygon fill="black" stroke="black" points="3078.18,-205.85 3081.68,-215.85 3085.18,-205.85 3078.18,-205.85"/>
</g>
<!-- QrCodeModalComponent  -->
<g id="node50" class="node">
<title>QrCodeModalComponent </title>
<polygon fill="#fb8072" stroke="black" points="3036.7,-252 2871.3,-252 2871.3,-216 3036.7,-216 3036.7,-252"/>
<text text-anchor="middle" x="2954" y="-229.8" font-family="Times,serif" font-size="14.00">QrCodeModalComponent </text>
</g>
<!-- SharedModule&#45;&gt;QrCodeModalComponent  -->
<g id="edge49" class="edge">
<title>SharedModule&#45;&gt;QrCodeModalComponent </title>
<path fill="none" stroke="black" stroke-dasharray="5,2" d="M2954,-187.11C2954,-187.11 2954,-205.99 2954,-205.99"/>
<polygon fill="black" stroke="black" points="2950.5,-205.99 2954,-215.99 2957.5,-205.99 2950.5,-205.99"/>
</g>
<!-- CdnprefixPipe  -->
<g id="node51" class="node">
<title>CdnprefixPipe </title>
<polygon fill="#fb8072" stroke="black" points="2853.65,-252 2752.35,-252 2752.35,-216 2853.65,-216 2853.65,-252"/>
<text text-anchor="middle" x="2803" y="-229.8" font-family="Times,serif" font-size="14.00">CdnprefixPipe </text>
</g>
<!-- SharedModule&#45;&gt;CdnprefixPipe  -->
<g id="edge50" class="edge">
<title>SharedModule&#45;&gt;CdnprefixPipe </title>
<path fill="none" stroke="black" stroke-dasharray="5,2" d="M2904.63,-186C2873.5,-186 2839.15,-186 2839.15,-186 2839.15,-186 2839.15,-205.85 2839.15,-205.85"/>
<polygon fill="black" stroke="black" points="2835.65,-205.85 2839.15,-215.85 2842.65,-205.85 2835.65,-205.85"/>
</g>
<!-- InterpolatePipe  -->
<g id="node52" class="node">
<title>InterpolatePipe </title>
<polygon fill="#fb8072" stroke="black" points="2734.52,-252 2629.48,-252 2629.48,-216 2734.52,-216 2734.52,-252"/>
<text text-anchor="middle" x="2682" y="-229.8" font-family="Times,serif" font-size="14.00">InterpolatePipe </text>
</g>
<!-- SharedModule&#45;&gt;InterpolatePipe  -->
<g id="edge51" class="edge">
<title>SharedModule&#45;&gt;InterpolatePipe </title>
<path fill="none" stroke="black" stroke-dasharray="5,2" d="M2904.73,-185C2828.86,-185 2692.07,-185 2692.07,-185 2692.07,-185 2692.07,-205.75 2692.07,-205.75"/>
<polygon fill="black" stroke="black" points="2688.57,-205.75 2692.07,-215.75 2695.57,-205.75 2688.57,-205.75"/>
</g>
<!-- RedirectComponent  -->
<g id="node53" class="node">
<title>RedirectComponent </title>
<polygon fill="#fb8072" stroke="black" points="2611.25,-252 2478.75,-252 2478.75,-216 2611.25,-216 2611.25,-252"/>
<text text-anchor="middle" x="2545" y="-229.8" font-family="Times,serif" font-size="14.00">RedirectComponent </text>
</g>
<!-- SharedModule&#45;&gt;RedirectComponent  -->
<g id="edge52" class="edge">
<title>SharedModule&#45;&gt;RedirectComponent </title>
<path fill="none" stroke="black" stroke-dasharray="5,2" d="M2904.72,-184C2804.38,-184 2585.76,-184 2585.76,-184 2585.76,-184 2585.76,-205.95 2585.76,-205.95"/>
<polygon fill="black" stroke="black" points="2582.26,-205.95 2585.76,-215.95 2589.26,-205.95 2582.26,-205.95"/>
</g>
<!-- CustomMultiSelectComponent  -->
<g id="node54" class="node">
<title>CustomMultiSelectComponent </title>
<polygon fill="#fb8072" stroke="black" points="2460.72,-252 2267.28,-252 2267.28,-216 2460.72,-216 2460.72,-252"/>
<text text-anchor="middle" x="2364" y="-229.8" font-family="Times,serif" font-size="14.00">CustomMultiSelectComponent </text>
</g>
<!-- SharedModule&#45;&gt;CustomMultiSelectComponent  -->
<g id="edge53" class="edge">
<title>SharedModule&#45;&gt;CustomMultiSelectComponent </title>
<path fill="none" stroke="black" stroke-dasharray="5,2" d="M2904.4,-183C2777.51,-183 2451.05,-183 2451.05,-183 2451.05,-183 2451.05,-205.88 2451.05,-205.88"/>
<polygon fill="black" stroke="black" points="2447.55,-205.88 2451.05,-215.88 2454.55,-205.88 2447.55,-205.88"/>
</g>
<!-- InstallAppComponent  -->
<g id="node55" class="node">
<title>InstallAppComponent </title>
<polygon fill="#fb8072" stroke="black" points="2248.93,-252 2105.07,-252 2105.07,-216 2248.93,-216 2248.93,-252"/>
<text text-anchor="middle" x="2177" y="-229.8" font-family="Times,serif" font-size="14.00">InstallAppComponent </text>
</g>
<!-- SharedModule&#45;&gt;InstallAppComponent  -->
<g id="edge54" class="edge">
<title>SharedModule&#45;&gt;InstallAppComponent </title>
<path fill="none" stroke="black" stroke-dasharray="5,2" d="M2904.51,-181C2733.36,-181 2177,-181 2177,-181 2177,-181 2177,-205.76 2177,-205.76"/>
<polygon fill="black" stroke="black" points="2173.5,-205.76 2177,-215.76 2180.5,-205.76 2173.5,-205.76"/>
</g>
<!-- LockInfoPopupComponent  -->
<g id="node56" class="node">
<title>LockInfoPopupComponent </title>
<polygon fill="#fb8072" stroke="black" points="2087.2,-252 1914.8,-252 1914.8,-216 2087.2,-216 2087.2,-252"/>
<text text-anchor="middle" x="2001" y="-229.8" font-family="Times,serif" font-size="14.00">LockInfoPopupComponent </text>
</g>
<!-- SharedModule&#45;&gt;LockInfoPopupComponent  -->
<g id="edge55" class="edge">
<title>SharedModule&#45;&gt;LockInfoPopupComponent </title>
<path fill="none" stroke="black" stroke-dasharray="5,2" d="M2904.75,-180C2719.22,-180 2073.04,-180 2073.04,-180 2073.04,-180 2073.04,-205.72 2073.04,-205.72"/>
<polygon fill="black" stroke="black" points="2069.54,-205.72 2073.04,-215.72 2076.54,-205.72 2069.54,-205.72"/>
</g>
<!-- ContentDirectionDirective  -->
<g id="node57" class="node">
<title>ContentDirectionDirective </title>
<polygon fill="#fb8072" stroke="black" points="1896.28,-252 1727.72,-252 1727.72,-216 1896.28,-216 1896.28,-252"/>
<text text-anchor="middle" x="1812" y="-229.8" font-family="Times,serif" font-size="14.00">ContentDirectionDirective </text>
</g>
<!-- SharedModule&#45;&gt;ContentDirectionDirective  -->
<g id="edge56" class="edge">
<title>SharedModule&#45;&gt;ContentDirectionDirective </title>
<path fill="none" stroke="black" stroke-dasharray="5,2" d="M2904.71,-179C2694.99,-179 1887.65,-179 1887.65,-179 1887.65,-179 1887.65,-205.99 1887.65,-205.99"/>
<polygon fill="black" stroke="black" points="1884.15,-205.99 1887.65,-215.99 1891.15,-205.99 1884.15,-205.99"/>
</g>
<!-- HighlightTextDirective  -->
<g id="node58" class="node">
<title>HighlightTextDirective </title>
<polygon fill="#fb8072" stroke="black" points="1709.41,-252 1558.59,-252 1558.59,-216 1709.41,-216 1709.41,-252"/>
<text text-anchor="middle" x="1634" y="-229.8" font-family="Times,serif" font-size="14.00">HighlightTextDirective </text>
</g>
<!-- SharedModule&#45;&gt;HighlightTextDirective  -->
<g id="edge57" class="edge">
<title>SharedModule&#45;&gt;HighlightTextDirective </title>
<path fill="none" stroke="black" stroke-dasharray="5,2" d="M2904.58,-178C2668.05,-178 1663.04,-178 1663.04,-178 1663.04,-178 1663.04,-205.97 1663.04,-205.97"/>
<polygon fill="black" stroke="black" points="1659.54,-205.97 1663.04,-215.97 1666.54,-205.97 1659.54,-205.97"/>
</g>
<!-- FullPageModalComponent  -->
<g id="node59" class="node">
<title>FullPageModalComponent </title>
<polygon fill="#fb8072" stroke="black" points="1540.66,-252 1369.34,-252 1369.34,-216 1540.66,-216 1540.66,-252"/>
<text text-anchor="middle" x="1455" y="-229.8" font-family="Times,serif" font-size="14.00">FullPageModalComponent </text>
</g>
<!-- SharedModule&#45;&gt;FullPageModalComponent  -->
<g id="edge58" class="edge">
<title>SharedModule&#45;&gt;FullPageModalComponent </title>
<path fill="none" stroke="black" stroke-dasharray="5,2" d="M2904.78,-177C2648.11,-177 1474.73,-177 1474.73,-177 1474.73,-177 1474.73,-205.96 1474.73,-205.96"/>
<polygon fill="black" stroke="black" points="1471.23,-205.96 1474.73,-215.96 1478.23,-205.96 1471.23,-205.96"/>
</g>
<!-- AccountMergeModalComponent  -->
<g id="node60" class="node">
<title>AccountMergeModalComponent </title>
<polygon fill="#fb8072" stroke="black" points="1351.84,-252 1146.16,-252 1146.16,-216 1351.84,-216 1351.84,-252"/>
<text text-anchor="middle" x="1249" y="-229.8" font-family="Times,serif" font-size="14.00">AccountMergeModalComponent </text>
</g>
<!-- SharedModule&#45;&gt;AccountMergeModalComponent  -->
<g id="edge59" class="edge">
<title>SharedModule&#45;&gt;AccountMergeModalComponent </title>
<path fill="none" stroke="black" stroke-dasharray="5,2" d="M2904.54,-175C2629.53,-175 1301.23,-175 1301.23,-175 1301.23,-175 1301.23,-205.98 1301.23,-205.98"/>
<polygon fill="black" stroke="black" points="1297.73,-205.98 1301.23,-215.98 1304.73,-205.98 1297.73,-205.98"/>
</g>
<!-- PageHelpComponent  -->
<g id="node61" class="node">
<title>PageHelpComponent </title>
<polygon fill="#fb8072" stroke="black" points="1128.76,-252 989.24,-252 989.24,-216 1128.76,-216 1128.76,-252"/>
<text text-anchor="middle" x="1059" y="-229.8" font-family="Times,serif" font-size="14.00">PageHelpComponent </text>
</g>
<!-- SharedModule&#45;&gt;PageHelpComponent  -->
<g id="edge60" class="edge">
<title>SharedModule&#45;&gt;PageHelpComponent </title>
<path fill="none" stroke="black" stroke-dasharray="5,2" d="M2904.78,-174C2610.47,-174 1096.01,-174 1096.01,-174 1096.01,-174 1096.01,-206 1096.01,-206"/>
<polygon fill="black" stroke="black" points="1092.51,-206 1096.01,-216 1099.51,-206 1092.51,-206"/>
</g>
<!-- ToCharCodePipe  -->
<g id="node62" class="node">
<title>ToCharCodePipe </title>
<polygon fill="#fb8072" stroke="black" points="971.2,-252 854.8,-252 854.8,-216 971.2,-216 971.2,-252"/>
<text text-anchor="middle" x="913" y="-229.8" font-family="Times,serif" font-size="14.00">ToCharCodePipe </text>
</g>
<!-- SharedModule&#45;&gt;ToCharCodePipe  -->
<g id="edge61" class="edge">
<title>SharedModule&#45;&gt;ToCharCodePipe </title>
<path fill="none" stroke="black" stroke-dasharray="5,2" d="M2904.62,-173C2594.24,-173 925.86,-173 925.86,-173 925.86,-173 925.86,-205.7 925.86,-205.7"/>
<polygon fill="black" stroke="black" points="922.36,-205.7 925.86,-215.7 929.36,-205.7 922.36,-205.7"/>
</g>
<!-- CommonModule -->
<g id="node27" class="node">
<title>CommonModule</title>
<polygon fill="#8dd3c7" stroke="black" points="5635.67,-122 5632.67,-126 5611.67,-126 5608.67,-122 5524.33,-122 5524.33,-86 5635.67,-86 5635.67,-122"/>
<text text-anchor="middle" x="5580" y="-99.8" font-family="Times,serif" font-size="14.00">CommonModule</text>
</g>
<!-- CommonModule&#45;&gt;SharedModule -->
<g id="edge26" class="edge">
<title>CommonModule&#45;&gt;SharedModule</title>
<path fill="none" stroke="black" d="M5580,-122.22C5580,-142.37 5580,-172 5580,-172 5580,-172 3013.25,-172 3013.25,-172"/>
<polygon fill="black" stroke="black" points="3013.25,-168.5 3003.25,-172 3013.25,-175.5 3013.25,-168.5"/>
</g>
<!-- SuiSelectModule -->
<g id="node28" class="node">
<title>SuiSelectModule</title>
<polygon fill="#8dd3c7" stroke="black" points="5506.43,-122 5503.43,-126 5482.43,-126 5479.43,-122 5393.57,-122 5393.57,-86 5506.43,-86 5506.43,-122"/>
<text text-anchor="middle" x="5450" y="-99.8" font-family="Times,serif" font-size="14.00">SuiSelectModule</text>
</g>
<!-- SuiSelectModule&#45;&gt;SharedModule -->
<g id="edge27" class="edge">
<title>SuiSelectModule&#45;&gt;SharedModule</title>
<path fill="none" stroke="black" d="M5450,-122.31C5450,-142.15 5450,-171 5450,-171 5450,-171 3013.3,-171 3013.3,-171"/>
<polygon fill="black" stroke="black" points="3013.3,-167.5 3003.3,-171 3013.3,-174.5 3013.3,-167.5"/>
</g>
<!-- SuiModalModule -->
<g id="node29" class="node">
<title>SuiModalModule</title>
<polygon fill="#8dd3c7" stroke="black" points="5375.27,-122 5372.27,-126 5351.27,-126 5348.27,-122 5260.73,-122 5260.73,-86 5375.27,-86 5375.27,-122"/>
<text text-anchor="middle" x="5318" y="-99.8" font-family="Times,serif" font-size="14.00">SuiModalModule</text>
</g>
<!-- SuiModalModule&#45;&gt;SharedModule -->
<g id="edge28" class="edge">
<title>SuiModalModule&#45;&gt;SharedModule</title>
<path fill="none" stroke="black" d="M5318,-122.11C5318,-141.34 5318,-169 5318,-169 5318,-169 3013.38,-169 3013.38,-169"/>
<polygon fill="black" stroke="black" points="3013.38,-165.5 3003.38,-169 3013.38,-172.5 3013.38,-165.5"/>
</g>
<!-- SuiAccordionModule -->
<g id="node30" class="node">
<title>SuiAccordionModule</title>
<polygon fill="#8dd3c7" stroke="black" points="5242.81,-122 5239.81,-126 5218.81,-126 5215.81,-122 5105.19,-122 5105.19,-86 5242.81,-86 5242.81,-122"/>
<text text-anchor="middle" x="5174" y="-99.8" font-family="Times,serif" font-size="14.00">SuiAccordionModule</text>
</g>
<!-- SuiAccordionModule&#45;&gt;SharedModule -->
<g id="edge29" class="edge">
<title>SuiAccordionModule&#45;&gt;SharedModule</title>
<path fill="none" stroke="black" d="M5174,-122.17C5174,-141.09 5174,-168 5174,-168 5174,-168 3013.22,-168 3013.22,-168"/>
<polygon fill="black" stroke="black" points="3013.22,-164.5 3003.22,-168 3013.22,-171.5 3013.22,-164.5"/>
</g>
<!-- SuiPopupModule -->
<g id="node31" class="node">
<title>SuiPopupModule</title>
<polygon fill="#8dd3c7" stroke="black" points="5087.01,-122 5084.01,-126 5063.01,-126 5060.01,-122 4972.99,-122 4972.99,-86 5087.01,-86 5087.01,-122"/>
<text text-anchor="middle" x="5030" y="-99.8" font-family="Times,serif" font-size="14.00">SuiPopupModule</text>
</g>
<!-- SuiPopupModule&#45;&gt;SharedModule -->
<g id="edge30" class="edge">
<title>SuiPopupModule&#45;&gt;SharedModule</title>
<path fill="none" stroke="black" d="M5006.14,-122.22C5006.14,-140.83 5006.14,-167 5006.14,-167 5006.14,-167 3013.46,-167 3013.46,-167"/>
<polygon fill="black" stroke="black" points="3013.46,-163.5 3003.46,-167 3013.46,-170.5 3013.46,-163.5"/>
</g>
<!-- SuiDropdownModule -->
<g id="node32" class="node">
<title>SuiDropdownModule</title>
<polygon fill="#8dd3c7" stroke="black" points="4955.1,-122 4952.1,-126 4931.1,-126 4928.1,-122 4816.9,-122 4816.9,-86 4955.1,-86 4955.1,-122"/>
<text text-anchor="middle" x="4886" y="-99.8" font-family="Times,serif" font-size="14.00">SuiDropdownModule</text>
</g>
<!-- SuiDropdownModule&#45;&gt;SharedModule -->
<g id="edge31" class="edge">
<title>SuiDropdownModule&#45;&gt;SharedModule</title>
<path fill="none" stroke="black" d="M4845.03,-122.27C4845.03,-140.56 4845.03,-166 4845.03,-166 4845.03,-166 3013.61,-166 3013.61,-166"/>
<polygon fill="black" stroke="black" points="3013.61,-162.5 3003.61,-166 3013.61,-169.5 3013.61,-162.5"/>
</g>
<!-- SuiProgressModule -->
<g id="node33" class="node">
<title>SuiProgressModule</title>
<polygon fill="#8dd3c7" stroke="black" points="4799.43,-122 4796.43,-126 4775.43,-126 4772.43,-122 4672.57,-122 4672.57,-86 4799.43,-86 4799.43,-122"/>
<text text-anchor="middle" x="4736" y="-99.8" font-family="Times,serif" font-size="14.00">SuiProgressModule</text>
</g>
<!-- SuiProgressModule&#45;&gt;SharedModule -->
<g id="edge32" class="edge">
<title>SuiProgressModule&#45;&gt;SharedModule</title>
<path fill="none" stroke="black" d="M4736,-122.3C4736,-140.27 4736,-165 4736,-165 4736,-165 3013.52,-165 3013.52,-165"/>
<polygon fill="black" stroke="black" points="3013.52,-161.5 3003.52,-165 3013.52,-168.5 3013.52,-161.5"/>
</g>
<!-- SuiRatingModule -->
<g id="node34" class="node">
<title>SuiRatingModule</title>
<polygon fill="#8dd3c7" stroke="black" points="4654.56,-122 4651.56,-126 4630.56,-126 4627.56,-122 4539.44,-122 4539.44,-86 4654.56,-86 4654.56,-122"/>
<text text-anchor="middle" x="4597" y="-99.8" font-family="Times,serif" font-size="14.00">SuiRatingModule</text>
</g>
<!-- SuiRatingModule&#45;&gt;SharedModule -->
<g id="edge33" class="edge">
<title>SuiRatingModule&#45;&gt;SharedModule</title>
<path fill="none" stroke="black" d="M4581.92,-122.02C4581.92,-139.37 4581.92,-163 4581.92,-163 4581.92,-163 3013.61,-163 3013.61,-163"/>
<polygon fill="black" stroke="black" points="3013.61,-159.5 3003.61,-163 3013.61,-166.5 3013.61,-159.5"/>
</g>
<!-- SuiCollapseModule -->
<g id="node35" class="node">
<title>SuiCollapseModule</title>
<polygon fill="#8dd3c7" stroke="black" points="4521.71,-122 4518.71,-126 4497.71,-126 4494.71,-122 4394.29,-122 4394.29,-86 4521.71,-86 4521.71,-122"/>
<text text-anchor="middle" x="4458" y="-99.8" font-family="Times,serif" font-size="14.00">SuiCollapseModule</text>
</g>
<!-- SuiCollapseModule&#45;&gt;SharedModule -->
<g id="edge34" class="edge">
<title>SuiCollapseModule&#45;&gt;SharedModule</title>
<path fill="none" stroke="black" d="M4444.76,-122.03C4444.76,-139.06 4444.76,-162 4444.76,-162 4444.76,-162 3013.6,-162 3013.6,-162"/>
<polygon fill="black" stroke="black" points="3013.6,-158.5 3003.6,-162 3013.6,-165.5 3013.6,-158.5"/>
</g>
<!-- FormsModule -->
<g id="node36" class="node">
<title>FormsModule</title>
<polygon fill="#8dd3c7" stroke="black" points="4376.83,-122 4373.83,-126 4352.83,-126 4349.83,-122 4281.17,-122 4281.17,-86 4376.83,-86 4376.83,-122"/>
<text text-anchor="middle" x="4329" y="-99.8" font-family="Times,serif" font-size="14.00">FormsModule</text>
</g>
<!-- FormsModule&#45;&gt;SharedModule -->
<g id="edge35" class="edge">
<title>FormsModule&#45;&gt;SharedModule</title>
<path fill="none" stroke="black" d="M4299.18,-122.04C4299.18,-138.73 4299.18,-161 4299.18,-161 4299.18,-161 3013.47,-161 3013.47,-161"/>
<polygon fill="black" stroke="black" points="3013.47,-157.5 3003.47,-161 3013.47,-164.5 3013.47,-157.5"/>
</g>
<!-- TelemetryModule -->
<g id="node37" class="node">
<title>TelemetryModule</title>
<polygon fill="#8dd3c7" stroke="black" points="4263.58,-122 4260.58,-126 4239.58,-126 4236.58,-122 4146.42,-122 4146.42,-86 4263.58,-86 4263.58,-122"/>
<text text-anchor="middle" x="4205" y="-99.8" font-family="Times,serif" font-size="14.00">TelemetryModule</text>
</g>
<!-- TelemetryModule&#45;&gt;SharedModule -->
<g id="edge36" class="edge">
<title>TelemetryModule&#45;&gt;SharedModule</title>
<path fill="none" stroke="black" d="M4154.72,-122.03C4154.72,-138.4 4154.72,-160 4154.72,-160 4154.72,-160 3013.31,-160 3013.31,-160"/>
<polygon fill="black" stroke="black" points="3013.31,-156.5 3003.31,-160 3013.31,-163.5 3013.31,-156.5"/>
</g>
</g>
</svg>
